<svg xmlns="http://www.w3.org/2000/svg" width="146" height="24" viewBox="0 0 146 24" fill="none">
  <g clip-path="url(#clip0_49_43)">
    <path d="M27.8412 11.9919C27.8412 14.1735 27.3128 16.1813 26.2561 18.0131C25.1994 19.845 23.6271 21.3028 21.5392 22.3805C19.4512 23.4581 16.9071 24 13.911 24C10.9149 24 8.31139 23.4379 6.21286 22.3137C4.1122 21.1896 2.55262 19.7115 1.532 17.8777C0.50925 16.0438 0 14.0826 0 11.9919C0 9.90126 0.507129 7.92384 1.52139 6.09806C2.53564 4.27026 4.09734 2.79832 6.20225 1.6802C8.30927 0.560067 10.8789 0 13.911 0C16.1772 0 18.1972 0.319461 19.9732 0.960404C21.7492 1.60135 23.2091 2.47077 24.3528 3.56664C25.4965 4.66251 26.3643 5.93833 26.9542 7.3941C27.5441 8.84987 27.839 10.3825 27.839 11.9899L27.8412 11.9919ZM20.3021 11.9919C20.3021 11.1144 20.1663 10.3137 19.8947 9.58787C19.6231 8.86201 19.2136 8.23319 18.664 7.69941C18.1145 7.16563 17.4461 6.74912 16.6546 6.4519C15.8632 6.15468 14.9486 6.00505 13.911 6.00505C11.9292 6.00505 10.3717 6.55703 9.23865 7.65695C8.10557 8.75889 7.53903 10.2045 7.53903 11.9919C7.53903 13.7793 8.10769 15.227 9.24714 16.335C10.3866 17.443 11.9398 17.997 13.911 17.997C15.2669 17.997 16.4233 17.7422 17.3803 17.2286C18.3351 16.7171 19.0608 16.0094 19.5573 15.1036C20.0539 14.1978 20.3 13.1606 20.3 11.9919H20.3021Z" fill="#D1FF00"/>
    <path d="M59.9939 0.319458L51.8693 23.998H48.5931L43.7191 10.2187L38.7221 23.998H35.4184L27.455 0.319458H33.3177L37.2177 13.2718L41.6864 0.319458H45.7349L50.123 13.2718L54.1991 0.319458H59.9939Z" fill="#D1FF00"/>
    <path d="M87.3386 6.00303H78.3482V23.6947H70.9683V6.00303H61.9779V0.319458H87.3407V6.00303H87.3386Z" fill="#D1FF00"/>
    <path d="M113.075 23.6947H105.128L103.2 19.5457C102.491 18.0273 101.854 16.9173 101.288 16.2157C100.721 15.5141 100.17 15.0632 99.6327 14.8671C99.0959 14.6709 98.402 14.5719 97.5533 14.5719H96.7215V23.6967H89.3225V0.319458H101.907C103.936 0.319458 105.599 0.713729 106.898 1.50025C108.197 2.28677 109.13 3.24313 109.703 4.36731C110.276 5.49149 110.562 6.55905 110.562 7.57203C110.562 8.75282 110.323 9.74962 109.845 10.5665C109.368 11.3813 108.863 11.9757 108.332 12.3457C107.802 12.7158 107.206 13.0716 106.546 13.4072C107.337 13.846 107.989 14.3656 108.502 14.9682C109.016 15.5707 109.714 16.7879 110.599 18.6197L113.077 23.6967L113.075 23.6947ZM103.021 7.70547C103.021 6.62578 102.65 5.87363 101.907 5.44498C101.165 5.01836 99.9552 4.80404 98.279 4.80404H96.7215V10.4371H98.315C100.121 10.4371 101.356 10.249 102.022 9.87295C102.688 9.49688 103.021 8.77506 103.021 7.70547Z" fill="#D1FF00"/>
    <path d="M121.961 23.6947H114.562V0.319458H121.961V23.6947Z" fill="#D1FF00"/>
    <path d="M146 7.67312C146 8.5385 145.843 9.38568 145.531 10.2106C145.219 11.0376 144.714 11.8079 144.018 12.5216C143.322 13.2354 142.38 13.8157 141.196 14.2585C140.01 14.7033 138.614 14.9237 137.01 14.9237H132.161V23.6927H124.762V0.319458H137.01C138.614 0.319458 140.01 0.543889 141.196 0.994774C142.382 1.44364 143.322 2.02999 144.018 2.74776C144.714 3.46756 145.219 4.24802 145.531 5.09115C145.843 5.93429 146 6.79359 146 7.6711V7.67312ZM138.461 7.70749C138.461 6.59343 138.115 5.83319 137.425 5.42274C136.736 5.0123 135.499 4.80808 133.716 4.80808H132.159V10.4411H133.752C134.979 10.4411 135.923 10.3683 136.585 10.2227C137.245 10.0772 137.725 9.80623 138.02 9.41398C138.315 9.01971 138.463 8.45358 138.463 7.71154L138.461 7.70749Z" fill="#D1FF00"/>
  </g>
  <defs>
    <clipPath id="clip0_49_43">
      <rect width="146" height="24" fill="white"/>
    </clipPath>
  </defs>
</svg>