<svg width="434" height="316" viewBox="0 0 434 316" fill="none" xmlns="http://www.w3.org/2000/svg">
<g clip-path="url(#clip0_282_33364)">
<path d="M286.13 79.1399C286.88 75.6599 287.74 72.2199 290.21 69.2699C291.44 67.7999 293.01 66.8299 294.94 66.2299C296.31 65.7999 296.91 66.0799 296.82 67.4899C296.74 68.7399 297.36 69.8199 298.58 70.6399C300.97 69.6499 301.78 67.9799 301.69 65.8699C301.33 57.41 299.09 49.4999 292.89 42.7299C291.5 41.2099 290.31 39.5699 289.63 37.7099C289.28 36.7499 289.38 35.8499 289.96 34.8199C291.94 31.3599 293.69 27.7899 295.55 24.2699C296.02 23.3799 296.23 22.6099 295.81 21.5599C294.97 19.4299 296.17 17.4599 296.94 15.4699C297.28 14.5799 298.11 13.5599 296.98 12.6099C295.95 11.7499 294.84 12.0899 293.7 12.4199C290.95 13.2299 290.3 13.0199 288.38 10.8099C287.55 9.84995 285.41 9.68995 283.66 10.2499C281.92 10.8099 280.58 11.8999 278.97 12.6199C277.2 13.4099 276.65 13.3299 275.47 11.8899C273.92 9.99995 273.74 7.75995 273.23 5.60995C273.02 4.71995 272.85 3.80995 272.63 2.72995C270.29 2.79995 268.12 3.60995 265.66 3.83995C264.83 2.36995 263.22 1.44995 261.75 0.409946C261.06 -0.0700542 260.16 -0.170054 259.52 0.259946C257.97 1.29995 256.14 1.99995 254.77 3.26995C253.04 4.86995 252.91 5.62995 254.16 7.75995C255.23 9.55995 255.08 10.2299 252.7 10.9299C250.78 11.4999 250.09 12.2599 250.42 14.0399C250.68 15.4399 250.42 16.8999 250.49 18.3399C250.55 19.3799 250.17 20.1099 249.03 20.4299C249 20.9299 249.25 21.3099 249.26 21.7499C249.32 24.4599 251.41 25.8799 253.97 26.5199C256.02 27.0299 256.59 28.0699 256.83 29.6399C257.04 31.0399 257.5 32.2099 259.46 32.5799C260.28 32.7299 261.16 33.2599 261.96 33.7399C263.28 34.5299 263.59 35.4799 263.4 36.8199C262.89 40.3999 260.92 43.4799 259.27 46.6799C258.25 48.6699 257.18 50.6399 256.61 52.7799C255.76 55.9599 256.33 58.6899 261.33 59.4099C264.97 59.9299 268.21 61.0999 270.77 63.5299C271.22 63.9599 271.82 64.3099 272.34 64.6799C274.16 65.9399 275.72 67.3699 276.54 69.4499C278.2 73.6699 282.05 76.4599 285.7 79.3399C285.88 79.4799 286.17 79.5799 286.12 79.8699" fill="#D1FF00"/>
<path d="M274.874 42.4082C277.696 42.4082 279.983 39.8552 279.983 36.706C279.983 33.5568 277.696 31.0039 274.874 31.0039C272.051 31.0039 269.764 33.5568 269.764 36.706C269.764 39.8552 272.051 42.4082 274.874 42.4082Z" fill="#36334A"/>
<path d="M281.432 17.7321C280.204 18.2593 278.865 18.4877 277.529 18.3976C277.872 18.1564 278.092 17.7699 278.181 17.3641C278.269 16.9584 278.236 16.5347 278.144 16.1296C278.128 16.0831 278.128 16.0325 278.147 15.9871C278.185 15.9406 278.243 15.9139 278.303 15.9139C278.821 15.843 280.303 15.5349 280.697 15.9715C280.884 16.1778 280.812 16.5794 280.881 16.8317C280.909 16.9358 281.27 17.803 281.432 17.7327V17.7321Z" fill="#FBBEBE"/>
<path opacity="0.1" d="M281.432 17.7321C280.204 18.2593 278.865 18.4877 277.529 18.3976C277.872 18.1564 278.092 17.7699 278.181 17.3641C278.269 16.9584 278.236 16.5347 278.144 16.1296C278.128 16.0831 278.128 16.0325 278.147 15.9871C278.185 15.9406 278.243 15.9139 278.303 15.9139C278.821 15.843 280.303 15.5349 280.697 15.9715C280.884 16.1778 280.812 16.5794 280.881 16.8317C280.909 16.9358 281.27 17.803 281.432 17.7327V17.7321Z" fill="black"/>
<path d="M277.118 26.3887L269.439 26.6212C269.439 26.6212 262.646 33.1312 268.257 35.1075C268.257 35.1075 275.169 36.2119 276.823 34.9331C276.823 34.9331 278.89 26.9118 277.118 26.3887ZM276.764 28.5393L268.553 29.0624C268.553 29.0624 269.144 27.0862 271.506 27.0862C273.869 27.0862 276.527 26.563 276.764 27.7837C277 29.0043 276.764 28.5393 276.764 28.5393Z" fill="#3F3D56"/>
<path d="M271.064 25.3448C270.681 25.2873 270.265 25.2536 269.929 25.4448C269.818 25.5134 269.714 25.5942 269.62 25.6849C269.485 25.8069 269.351 25.9296 269.218 26.054C269.121 26.1446 269.02 26.2446 268.994 26.3742C268.943 26.6404 269.256 26.8555 269.531 26.8451C269.806 26.8346 270.053 26.6858 270.314 26.5963C270.838 26.4155 272.764 26.7241 272.869 26.1696C273.003 25.464 271.49 25.4123 271.064 25.346V25.3448Z" fill="#FBBEBE"/>
<path d="M274.654 24.9003C274.153 25.1508 273.608 25.3031 273.048 25.349C272.961 25.3502 272.875 25.3688 272.794 25.4025C272.746 25.4321 272.709 25.4763 272.688 25.5292C272.492 25.9343 272.37 26.3714 272.329 26.819C272.319 26.8626 272.335 26.9091 272.371 26.937C272.424 26.9637 272.484 26.9765 272.544 26.9753C273.463 27.0329 274.386 27.0637 275.311 27.0678C275.351 27.0707 275.393 27.0654 275.431 27.0515C275.458 27.0375 275.478 27.0131 275.487 26.9841C275.703 26.4528 275.806 25.8832 275.787 25.3112C275.763 24.6375 275.563 24.4265 274.655 24.9008L274.654 24.9003Z" fill="#D7E5F2"/>
<path d="M274.654 24.9003C274.153 25.1508 273.608 25.3031 273.048 25.349C272.961 25.3502 272.875 25.3688 272.794 25.4025C272.746 25.4321 272.709 25.4763 272.688 25.5292C272.492 25.9343 272.37 26.3714 272.329 26.819C272.319 26.8626 272.335 26.9091 272.371 26.937C272.424 26.9637 272.484 26.9765 272.544 26.9753C273.463 27.0329 274.386 27.0637 275.311 27.0678C275.351 27.0707 275.393 27.0654 275.431 27.0515C275.458 27.0375 275.478 27.0131 275.487 26.9841C275.703 26.4528 275.806 25.8832 275.787 25.3112C275.763 24.6375 275.563 24.4265 274.655 24.9008L274.654 24.9003Z" fill="#F5F4F4"/>
<path d="M284.975 30.9809L274.873 30.6322L277.236 20.809C277.236 20.809 286.688 20.1115 286.451 22.4946C286.215 24.8778 284.975 30.9809 284.975 30.9809Z" fill="#36334A"/>
<path d="M275.223 35.6759C275.223 35.6759 269.143 36.7344 266.958 33.5956C264.772 30.4568 275.228 32.1425 275.228 32.1425L276.114 34.5256L275.223 35.6759Z" fill="#36334A"/>
<path d="M273.397 48.9999C274.93 48.9999 276.173 47.7768 276.173 46.268C276.173 44.7592 274.93 43.5361 273.397 43.5361C271.863 43.5361 270.62 44.7592 270.62 46.268C270.62 47.7768 271.863 48.9999 273.397 48.9999Z" fill="#36334A"/>
<path d="M273.663 48.2436C274.625 48.2436 275.405 47.3588 275.405 46.2673C275.405 45.1758 274.625 44.291 273.663 44.291C272.7 44.291 271.92 45.1758 271.92 46.2673C271.92 47.3588 272.7 48.2436 273.663 48.2436Z" fill="#3F3D56"/>
<path d="M288.578 20.5186C288.578 20.5186 286.274 19.2399 286.156 22.2624L284.207 36.3288H285.034L287.279 21.2743C287.279 21.2743 288.401 21.4486 288.578 21.4486C288.755 21.4486 288.578 20.5186 288.578 20.5186Z" fill="#3F3D56"/>
<path d="M290.874 22.0705C290.792 22.36 290.487 22.5291 290.194 22.4489C290.17 22.4425 290.147 22.4344 290.125 22.4251L287.452 21.3009L287.937 20.25L290.571 21.4305C290.819 21.5416 290.947 21.813 290.874 22.0705H290.874Z" fill="#36334A"/>
<path d="M274.637 35.3397C274.637 35.3397 270.384 34.8747 269.202 38.8854C268.021 42.896 268.139 45.9767 267.135 45.7442C266.131 45.5117 264.004 44.6979 264.004 44.6979L264.181 45.9186C264.181 45.9186 267.903 47.7786 268.494 45.8023C269.084 43.8261 269.439 36.5604 272.806 36.7347C276.173 36.9091 276.764 36.5604 276.764 36.5604L274.637 35.3397Z" fill="#3F3D56"/>
<path d="M266.544 33.4219C266.544 33.4219 263.236 33.8288 261.937 36.2119C260.637 38.5951 259.987 42.8963 259.987 42.8963H261.228C261.228 42.8963 261.937 34.3519 265.658 34.8169L266.544 33.4219Z" fill="#3F3D56"/>
<path d="M264.3 46.7336L259.042 43.5367C259.042 43.5367 258.747 42.3742 262.114 41.9092C262.114 41.9092 268.48 44.0999 267.866 44.9224C267.253 45.7449 265.186 47.0242 264.3 46.7336Z" fill="#36334A"/>
<path d="M272.452 36.3282V43.1289H273.219V36.2119L272.452 36.3282Z" fill="#3F3D56"/>
<path d="M273.574 40.5127C273.574 40.5127 275.051 46.209 274.106 47.0228C274.106 47.0228 272.865 43.419 271.92 43.884L272.215 40.5127H273.574Z" fill="#36334A"/>
<path d="M279.304 16.7984C280.576 16.7984 281.608 15.7835 281.608 14.5315C281.608 13.2796 280.576 12.2646 279.304 12.2646C278.031 12.2646 277 13.2796 277 14.5315C277 15.7835 278.031 16.7984 279.304 16.7984Z" fill="#FBBEBE"/>
<path d="M278.868 17.9668C279.807 18.1238 280.619 17.049 281.56 17.2002C281.764 17.2414 281.96 17.317 282.138 17.4239C283.539 18.204 284.542 19.5263 284.904 21.0696C285.011 21.5357 285.052 22.0414 284.852 22.4768C284.746 22.7081 284.577 22.9058 284.409 23.0982C283.783 23.8143 283.096 24.5281 282.204 24.8745C282.116 25.1715 282.2 25.4935 282.305 25.7853C282.741 27.0036 282.047 28.3167 282.012 29.6077C282.006 29.8285 282.012 30.0703 281.872 30.243C281.716 30.4342 281.438 30.4685 281.189 30.4824C278.908 30.6092 276.63 30.2645 274.373 29.9215C274.313 29.9175 274.256 29.8983 274.207 29.8663C274.133 29.8082 274.121 29.7036 274.106 29.6117C274.022 29.124 274.463 28.7282 274.254 28.2777C273.895 27.5041 274.678 26.6578 274.904 25.8365C275.129 25.0151 275.218 24.871 275.376 24.0346C275.435 23.7219 275.265 22.7791 275.317 22.4652C275.487 21.4398 275.358 20.2715 275.908 19.3845C276.238 18.8515 276.152 18.4371 276.741 18.2051C277.363 17.9604 278.204 18.043 278.869 17.9668H278.868Z" fill="#F5F4F4"/>
<path d="M268.464 31.4862C267.777 31.617 267.046 31.7414 266.517 32.1925C266.194 32.468 265.977 32.8417 265.766 33.2079L263.613 36.9437C262.956 38.0829 262.299 39.2228 261.703 40.394C261.651 40.4794 261.621 40.5753 261.614 40.6747C261.617 40.8148 261.712 40.9346 261.81 41.0363C262.499 41.739 263.484 42.0796 264.468 41.9558C264.616 41.2014 265.345 40.7026 265.703 40.0191C265.899 39.6436 265.978 39.2216 266.104 38.8176C266.577 37.3128 267.699 36.1043 268.789 34.9505C269.304 34.4053 269.831 33.8502 270.494 33.4922C271.272 33.0725 272.175 32.9562 273.045 32.7819C273.914 32.6075 274.815 32.343 275.43 31.7135C275.959 31.1648 276.209 30.4109 276.112 29.6605C275.555 29.6222 274.935 29.5507 274.397 29.7274C273.773 29.932 273.169 30.2121 272.544 30.4214C271.21 30.8678 269.847 31.2235 268.464 31.4862H268.464Z" fill="#696880"/>
<path opacity="0.1" d="M268.464 31.4862C267.777 31.617 267.046 31.7414 266.517 32.1925C266.194 32.468 265.977 32.8417 265.766 33.2079L263.613 36.9437C262.956 38.0829 262.299 39.2228 261.703 40.394C261.651 40.4794 261.621 40.5753 261.614 40.6747C261.617 40.8148 261.712 40.9346 261.81 41.0363C262.499 41.739 263.484 42.0796 264.468 41.9558C264.616 41.2014 265.345 40.7026 265.703 40.0191C265.899 39.6436 265.978 39.2216 266.104 38.8176C266.577 37.3128 267.699 36.1043 268.789 34.9505C269.304 34.4053 269.831 33.8502 270.494 33.4922C271.272 33.0725 272.175 32.9562 273.045 32.7819C273.914 32.6075 274.815 32.343 275.43 31.7135C275.959 31.1648 276.209 30.4109 276.112 29.6605C275.555 29.6222 274.935 29.5507 274.397 29.7274C273.773 29.932 273.169 30.2121 272.544 30.4214C271.21 30.8678 269.847 31.2235 268.464 31.4862H268.464Z" fill="black"/>
<path d="M259.181 43.3316C259.104 43.3856 259.045 43.4606 259.012 43.5472C258.934 43.8094 259.267 43.9942 259.534 44.0698C260.133 44.2395 260.773 44.4098 261.371 44.2348C261.738 44.1273 262.057 43.8977 262.421 43.7826C262.962 43.6123 263.548 43.7088 264.106 43.807C264.231 43.1159 264.147 42.4033 263.865 41.7587C263.685 41.3518 262.968 41.1536 262.54 41.1356C262.073 41.1158 261.911 41.4553 261.641 41.7674C260.985 42.5277 259.938 42.7038 259.182 43.3316H259.181Z" fill="#3F3D56"/>
<path d="M268.903 32.5994C268.572 32.729 268.233 32.8633 267.974 33.1028C267.7 33.3556 267.54 33.7026 267.394 34.0432C266.962 35.0494 266.595 36.0811 266.293 37.132C266.141 37.6633 266.006 38.2004 265.801 38.7142C265.391 39.7395 264.697 40.7213 264.762 41.8204C264.762 41.9541 264.798 42.0849 264.868 42.2C264.961 42.3325 265.118 42.4029 265.268 42.4668L266.054 42.8022C266.476 42.9824 266.99 43.1556 267.367 42.8963C267.619 42.7231 267.719 42.4087 267.796 42.1151C268.07 41.0561 268.24 39.9564 268.732 38.9769C269.288 37.8696 270.228 36.9745 270.725 35.8411C270.796 35.6806 270.863 35.5086 271.001 35.3987C271.116 35.308 271.264 35.2732 271.407 35.2412C274.357 34.5803 277.374 34.2188 280.3 33.4631C280.716 33.3556 281.152 33.2283 281.449 32.922C281.861 32.4971 281.897 31.8513 281.91 31.2648C281.918 30.8975 281.917 30.4976 281.689 30.2064C281.432 29.8774 280.972 29.7908 280.553 29.7472C278.946 29.5809 277.463 29.8431 275.879 30.0349C274.431 30.2104 272.972 31.0149 271.62 31.5409C270.715 31.8932 269.81 32.2466 268.905 32.6006L268.903 32.5994Z" fill="#696880"/>
<path d="M265.268 43.1074C265.047 43.6236 264.808 44.163 264.36 44.5082C264.173 44.6524 263.931 44.7971 263.924 45.0308C263.916 45.2784 264.18 45.4417 264.417 45.5254C265.019 45.7393 265.705 45.7853 266.293 45.5347C266.696 45.3633 267.027 45.0674 267.351 44.7768C267.448 44.689 267.549 44.5966 267.595 44.4751C267.626 44.3722 267.635 44.2647 267.622 44.1583C267.583 43.5126 267.466 42.8738 267.273 42.2553C267.258 42.2065 265.987 42.0507 265.874 42.0798C265.519 42.171 265.404 42.7877 265.267 43.1074H265.268Z" fill="#3F3D56"/>
<path d="M285.034 28.1328L277.355 28.3653C277.355 28.3653 270.561 34.8754 276.173 36.8517C276.173 36.8517 283.085 37.956 284.739 36.6773C284.739 36.6773 286.806 28.6559 285.034 28.1328ZM284.68 30.2835L276.469 30.8066C276.469 30.8066 277.059 28.8303 279.422 28.8303C281.785 28.8303 284.443 28.3072 284.68 29.5278C284.916 30.7485 284.68 30.2835 284.68 30.2835Z" fill="#3F3D56"/>
<path d="M283.291 48.9991C287.549 48.9991 291 45.1476 291 40.3965C291 35.6455 287.549 31.7939 283.291 31.7939C279.034 31.7939 275.582 35.6455 275.582 40.3965C275.582 45.1476 279.034 48.9991 283.291 48.9991Z" fill="#36334A"/>
<path d="M283.646 46.7906C286.859 46.7906 289.464 43.928 289.464 40.3967C289.464 36.8655 286.859 34.0029 283.646 34.0029C280.432 34.0029 277.827 36.8655 277.827 40.3967C277.827 43.928 280.432 46.7906 283.646 46.7906Z" fill="#3F3D56"/>
<path d="M285.152 40.31C285.152 40.1984 285.141 40.0874 285.118 39.9781L289.464 37.8397L289.169 37.2003L284.779 39.305C284.734 39.2603 284.685 39.2202 284.633 39.1853H284.636L285.92 32.8996L284.785 32.874L284.03 39.0609L284.102 39.076C284.044 39.0877 283.987 39.1068 283.933 39.133L280.136 35.2979L279.599 36.0384L283.5 39.5695C283.402 39.7544 283.344 39.9566 283.328 40.1647L277.828 42.3741L277.71 43.3041L283.443 40.9314C283.497 41.0622 283.572 41.1825 283.667 41.2877L281.904 47.1985H282.553L284.034 41.5283C284.099 41.5493 284.168 41.5597 284.237 41.5603C284.371 41.5592 284.5 41.5208 284.613 41.4493L287.693 45.4547L288.638 44.8153L285.029 40.936C285.111 40.7378 285.153 40.5251 285.153 40.3106L285.152 40.31Z" fill="#36334A"/>
<path d="M276.627 13.0955C276.731 12.8386 277.066 12.7323 277.176 12.4771C277.294 12.2033 277.109 11.8546 277.27 11.6023C277.432 11.3483 277.81 11.3779 278.111 11.4273C278.466 11.4855 278.843 11.5244 279.174 11.3855C279.322 11.3239 279.453 11.2297 279.595 11.1582C279.822 11.0449 280.074 10.9908 280.328 11.0013C280.385 11.0001 280.442 11.0135 280.492 11.0396C280.54 11.0739 280.577 11.121 280.599 11.1751C280.703 11.3959 280.717 11.6715 280.905 11.8296C280.995 11.9057 281.112 11.9417 281.22 11.99C281.735 12.2341 282.04 12.7689 281.985 13.328C281.96 13.4548 281.944 13.5826 281.938 13.7111C281.945 13.9936 282.133 14.2761 282.037 14.5429C281.966 14.7411 281.757 14.8585 281.553 14.9195C281.495 14.9428 281.43 14.9463 281.37 14.9288C281.266 14.887 281.244 14.7544 281.211 14.6481C281.114 14.3621 280.839 14.172 280.533 14.1778C280.295 14.1877 280.053 14.3197 279.829 14.2412C279.719 14.2028 279.632 14.1186 279.544 14.043C279.34 13.8686 279.1 13.7233 278.833 13.6861C278.566 13.6489 278.27 13.7378 278.113 13.9529C278.049 14.0401 278.011 14.1424 277.951 14.2313C277.406 15.0317 276.403 13.6495 276.627 13.0944L276.627 13.0955Z" fill="#36334A"/>
<path d="M277.854 26.9108C277.649 26.8846 277.444 26.9596 277.306 27.1119C276.789 27.5751 276.241 28.0977 276.148 28.7795C276.134 28.8417 276.141 28.9068 276.169 28.9643C276.219 29.0445 276.328 29.062 276.424 29.0637C276.912 29.0684 277.379 28.8655 277.705 28.5069C277.793 28.4081 277.875 28.2947 277.997 28.2389C278.108 28.1982 278.227 28.1837 278.345 28.1965C278.669 28.207 279.41 28.3703 279.692 28.2122C279.989 28.0459 279.908 27.524 279.769 27.2723C279.439 26.6742 278.416 26.9049 277.854 26.9113V26.9108Z" fill="#FBBEBE"/>
<path d="M285.069 21.8897C285.268 22.5186 285.151 23.2266 285.433 23.8242C285.62 24.2206 285.971 24.5403 286.08 24.964C286.183 25.3645 286.045 25.7958 285.803 26.1335C285.562 26.4712 285.226 26.7304 284.888 26.9763C284.519 27.2454 284.136 27.5082 283.7 27.6535C283.266 27.7988 282.801 27.8203 282.344 27.8412L279.308 27.9784L278.75 26.3294L280.727 25.5673C280.925 25.4912 281.127 25.4139 281.339 25.3982C281.705 25.3715 282.151 25.504 282.386 25.2261C282.461 25.1244 282.508 25.0053 282.524 24.8809C282.716 23.9119 282.549 22.8872 282.844 21.9438C282.99 21.477 283.412 20.5406 283.988 20.4581C284.597 20.3709 284.932 21.4538 285.07 21.8897H285.069Z" fill="#F5F4F4"/>
</g>
<defs>
<clipPath id="clip0_282_33364">
<rect width="433.31" height="315.48" fill="white"/>
</clipPath>
</defs>
</svg>
