<svg width="434" height="316" viewBox="0 0 434 316" fill="none" xmlns="http://www.w3.org/2000/svg">
<g clip-path="url(#clip0_282_28102)">
<path d="M309.28 109.979C307.38 110.529 305.94 111.659 304.58 112.859C302.7 114.519 300.69 115.759 297.81 115.769C296.01 115.769 294.61 116.399 294.23 118.399C293.95 119.869 292.7 121.019 290.64 121.129C289.6 121.189 288.59 121.589 287.56 121.809C286.35 122.079 285.48 122.709 285.33 123.789C284.91 126.909 282.72 128.839 279.77 130.229C278.08 131.029 276.96 132.289 275.65 133.449C272.86 135.909 270.32 138.609 267.06 140.629C266.37 141.059 266.46 141.549 266.47 142.089C266.48 143.839 266.32 145.579 265.93 147.369C268.74 150.209 275.14 149.139 277.91 147.619C279.46 146.769 280.73 145.529 282.26 144.629C283.34 143.999 284.47 143.899 285.75 144.749C289.08 146.949 291.58 149.819 294.31 152.509C297.39 155.549 300.58 158.549 305.2 159.609C308.43 160.349 311.87 159.759 315.22 159.849C315.9 159.869 316.01 159.459 316.28 158.969C317.84 156.139 319.59 153.389 321.81 150.909C322.43 150.209 322.52 149.529 322.62 148.739C322.9 146.409 323.45 144.069 323.16 141.749C322.8 138.889 321.2 136.359 319.3 134.049C317.04 131.309 314.95 128.599 314.53 125.079C314.4 124.009 313.27 123.029 312.56 122.029C310.69 119.389 310.89 118.039 313.37 115.919C314.08 115.319 315.01 115.019 315.65 114.329C316.8 113.099 316.86 111.659 316.86 110.019H309.48" fill="#D1FF00"/>
<path d="M296.874 133.408C299.696 133.408 301.983 130.855 301.983 127.706C301.983 124.557 299.696 122.004 296.874 122.004C294.051 122.004 291.764 124.557 291.764 127.706C291.764 130.855 294.051 133.408 296.874 133.408Z" fill="#36334A"/>
<path d="M303.432 108.732C302.204 109.259 300.865 109.488 299.529 109.398C299.872 109.156 300.092 108.77 300.181 108.364C300.269 107.958 300.236 107.535 300.144 107.13C300.128 107.083 300.128 107.032 300.147 106.987C300.185 106.941 300.243 106.914 300.303 106.914C300.821 106.843 302.303 106.535 302.697 106.971C302.884 107.178 302.812 107.579 302.881 107.832C302.909 107.936 303.27 108.803 303.432 108.733V108.732Z" fill="#FBBEBE"/>
<path opacity="0.1" d="M303.432 108.732C302.204 109.259 300.865 109.488 299.529 109.398C299.872 109.156 300.092 108.77 300.181 108.364C300.269 107.958 300.236 107.535 300.144 107.13C300.128 107.083 300.128 107.032 300.147 106.987C300.185 106.941 300.243 106.914 300.303 106.914C300.821 106.843 302.303 106.535 302.697 106.971C302.884 107.178 302.812 107.579 302.881 107.832C302.909 107.936 303.27 108.803 303.432 108.733V108.732Z" fill="black"/>
<path d="M299.118 117.389L291.439 117.621C291.439 117.621 284.646 124.131 290.257 126.108C290.257 126.108 297.169 127.212 298.823 125.933C298.823 125.933 300.89 117.912 299.118 117.389ZM298.764 119.539L290.553 120.062C290.553 120.062 291.144 118.086 293.506 118.086C295.869 118.086 298.527 117.563 298.764 118.784C299 120.004 298.764 119.539 298.764 119.539Z" fill="#3F3D56"/>
<path d="M293.064 116.345C292.681 116.287 292.265 116.254 291.929 116.445C291.818 116.513 291.714 116.594 291.62 116.685C291.485 116.807 291.351 116.93 291.218 117.054C291.121 117.145 291.02 117.245 290.994 117.374C290.943 117.64 291.256 117.856 291.531 117.845C291.806 117.835 292.053 117.686 292.314 117.596C292.838 117.416 294.764 117.724 294.869 117.17C295.003 116.464 293.49 116.412 293.064 116.346V116.345Z" fill="#FBBEBE"/>
<path d="M296.654 115.9C296.153 116.151 295.608 116.303 295.048 116.349C294.961 116.35 294.875 116.369 294.794 116.402C294.746 116.432 294.709 116.476 294.688 116.529C294.492 116.934 294.37 117.371 294.329 117.819C294.319 117.863 294.335 117.909 294.371 117.937C294.424 117.964 294.484 117.977 294.544 117.975C295.463 118.033 296.386 118.064 297.311 118.068C297.351 118.071 297.393 118.065 297.431 118.051C297.458 118.038 297.478 118.013 297.487 117.984C297.703 117.453 297.806 116.883 297.787 116.311C297.763 115.638 297.563 115.427 296.655 115.901L296.654 115.9Z" fill="#D7E5F2"/>
<path d="M296.654 115.9C296.153 116.151 295.608 116.303 295.048 116.349C294.961 116.35 294.875 116.369 294.794 116.402C294.746 116.432 294.709 116.476 294.688 116.529C294.492 116.934 294.37 117.371 294.329 117.819C294.319 117.863 294.335 117.909 294.371 117.937C294.424 117.964 294.484 117.977 294.544 117.975C295.463 118.033 296.386 118.064 297.311 118.068C297.351 118.071 297.393 118.065 297.431 118.051C297.458 118.038 297.478 118.013 297.487 117.984C297.703 117.453 297.806 116.883 297.787 116.311C297.763 115.638 297.563 115.427 296.655 115.901L296.654 115.9Z" fill="#F5F4F4"/>
<path d="M306.975 121.981L296.873 121.632L299.236 111.809C299.236 111.809 308.688 111.111 308.451 113.495C308.215 115.878 306.975 121.981 306.975 121.981Z" fill="#36334A"/>
<path d="M297.223 126.676C297.223 126.676 291.143 127.734 288.958 124.596C286.772 121.457 297.228 123.142 297.228 123.142L298.114 125.526L297.223 126.676Z" fill="#36334A"/>
<path d="M295.397 140C296.93 140 298.173 138.777 298.173 137.268C298.173 135.759 296.93 134.536 295.397 134.536C293.863 134.536 292.62 135.759 292.62 137.268C292.62 138.777 293.863 140 295.397 140Z" fill="#36334A"/>
<path d="M295.663 139.244C296.625 139.244 297.405 138.359 297.405 137.267C297.405 136.176 296.625 135.291 295.663 135.291C294.7 135.291 293.92 136.176 293.92 137.267C293.92 138.359 294.7 139.244 295.663 139.244Z" fill="#3F3D56"/>
<path d="M310.578 111.519C310.578 111.519 308.274 110.24 308.156 113.262L306.207 127.329H307.034L309.279 112.274C309.279 112.274 310.401 112.449 310.578 112.449C310.755 112.449 310.578 111.519 310.578 111.519Z" fill="#3F3D56"/>
<path d="M312.874 113.07C312.792 113.36 312.487 113.529 312.194 113.449C312.17 113.442 312.147 113.434 312.125 113.425L309.452 112.301L309.937 111.25L312.571 112.431C312.819 112.542 312.947 112.813 312.874 113.07H312.874Z" fill="#36334A"/>
<path d="M296.637 126.34C296.637 126.34 292.384 125.875 291.202 129.885C290.021 133.896 290.139 136.977 289.135 136.744C288.131 136.512 286.004 135.698 286.004 135.698L286.181 136.919C286.181 136.919 289.903 138.779 290.494 136.802C291.084 134.826 291.439 127.56 294.806 127.735C298.173 127.909 298.764 127.56 298.764 127.56L296.637 126.34Z" fill="#3F3D56"/>
<path d="M288.544 124.422C288.544 124.422 285.236 124.829 283.937 127.212C282.637 129.595 281.987 133.896 281.987 133.896H283.228C283.228 133.896 283.937 125.352 287.658 125.817L288.544 124.422Z" fill="#3F3D56"/>
<path d="M286.3 137.734L281.042 134.537C281.042 134.537 280.747 133.374 284.114 132.909C284.114 132.909 290.48 135.1 289.866 135.922C289.253 136.745 287.186 138.024 286.3 137.734Z" fill="#36334A"/>
<path d="M294.452 127.328V134.129H295.219V127.212L294.452 127.328Z" fill="#3F3D56"/>
<path d="M295.574 131.513C295.574 131.513 297.051 137.209 296.106 138.023C296.106 138.023 294.865 134.419 293.92 134.884L294.215 131.513H295.574Z" fill="#36334A"/>
<path d="M301.304 107.798C302.576 107.798 303.608 106.784 303.608 105.532C303.608 104.28 302.576 103.265 301.304 103.265C300.031 103.265 299 104.28 299 105.532C299 106.784 300.031 107.798 301.304 107.798Z" fill="#FBBEBE"/>
<path d="M300.868 108.967C301.807 109.124 302.619 108.049 303.56 108.2C303.764 108.241 303.96 108.317 304.138 108.424C305.539 109.204 306.542 110.526 306.904 112.07C307.011 112.536 307.052 113.041 306.852 113.477C306.746 113.708 306.577 113.906 306.409 114.098C305.783 114.814 305.096 115.528 304.204 115.874C304.116 116.172 304.2 116.494 304.305 116.785C304.741 118.004 304.047 119.317 304.012 120.608C304.006 120.829 304.012 121.07 303.872 121.243C303.716 121.434 303.438 121.468 303.189 121.482C300.908 121.609 298.63 121.264 296.373 120.922C296.313 120.917 296.256 120.898 296.207 120.866C296.133 120.808 296.121 120.704 296.106 120.612C296.022 120.124 296.463 119.728 296.254 119.278C295.895 118.504 296.678 117.658 296.904 116.836C297.129 116.015 297.218 115.871 297.376 115.035C297.435 114.722 297.265 113.779 297.317 113.465C297.487 112.44 297.358 111.272 297.908 110.385C298.238 109.852 298.152 109.437 298.741 109.205C299.363 108.96 300.204 109.043 300.869 108.967H300.868Z" fill="#F5F4F4"/>
<path d="M290.464 122.486C289.777 122.617 289.046 122.741 288.517 123.192C288.194 123.468 287.977 123.842 287.766 124.208L285.613 127.944C284.956 129.083 284.299 130.223 283.703 131.394C283.651 131.479 283.621 131.575 283.614 131.675C283.617 131.815 283.712 131.935 283.81 132.036C284.499 132.739 285.484 133.08 286.468 132.956C286.616 132.201 287.345 131.703 287.703 131.019C287.899 130.644 287.978 130.222 288.104 129.818C288.577 128.313 289.699 127.104 290.789 125.951C291.304 125.405 291.831 124.85 292.494 124.492C293.272 124.072 294.175 123.956 295.045 123.782C295.914 123.607 296.815 123.343 297.43 122.714C297.959 122.165 298.209 121.411 298.112 120.661C297.555 120.622 296.935 120.551 296.397 120.727C295.773 120.932 295.169 121.212 294.544 121.421C293.21 121.868 291.847 122.224 290.464 122.486H290.464Z" fill="#696880"/>
<path opacity="0.1" d="M290.464 122.486C289.777 122.617 289.046 122.741 288.517 123.192C288.194 123.468 287.977 123.842 287.766 124.208L285.613 127.944C284.956 129.083 284.299 130.223 283.703 131.394C283.651 131.479 283.621 131.575 283.614 131.675C283.617 131.815 283.712 131.935 283.81 132.036C284.499 132.739 285.484 133.08 286.468 132.956C286.616 132.201 287.345 131.703 287.703 131.019C287.899 130.644 287.978 130.222 288.104 129.818C288.577 128.313 289.699 127.104 290.789 125.951C291.304 125.405 291.831 124.85 292.494 124.492C293.272 124.072 294.175 123.956 295.045 123.782C295.914 123.607 296.815 123.343 297.43 122.714C297.959 122.165 298.209 121.411 298.112 120.661C297.555 120.622 296.935 120.551 296.397 120.727C295.773 120.932 295.169 121.212 294.544 121.421C293.21 121.868 291.847 122.224 290.464 122.486H290.464Z" fill="black"/>
<path d="M281.181 134.332C281.104 134.386 281.045 134.461 281.012 134.547C280.934 134.809 281.267 134.994 281.534 135.07C282.133 135.239 282.773 135.41 283.371 135.235C283.738 135.127 284.057 134.898 284.421 134.783C284.962 134.612 285.548 134.709 286.106 134.807C286.231 134.116 286.147 133.403 285.865 132.759C285.685 132.352 284.968 132.154 284.54 132.136C284.073 132.116 283.911 132.455 283.641 132.767C282.985 133.528 281.938 133.704 281.182 134.332H281.181Z" fill="#3F3D56"/>
<path d="M290.903 123.599C290.572 123.729 290.233 123.863 289.974 124.103C289.7 124.356 289.54 124.703 289.394 125.043C288.962 126.049 288.595 127.081 288.293 128.132C288.141 128.663 288.006 129.2 287.801 129.714C287.391 130.74 286.697 131.721 286.762 132.82C286.762 132.954 286.798 133.085 286.868 133.2C286.961 133.333 287.118 133.403 287.268 133.467L288.054 133.802C288.476 133.982 288.99 134.156 289.367 133.896C289.619 133.723 289.719 133.409 289.796 133.115C290.07 132.056 290.24 130.956 290.732 129.977C291.288 128.87 292.228 127.975 292.725 126.841C292.796 126.681 292.863 126.509 293.001 126.399C293.116 126.308 293.264 126.273 293.407 126.241C296.357 125.58 299.374 125.219 302.3 124.463C302.716 124.356 303.152 124.228 303.449 123.922C303.861 123.497 303.897 122.851 303.91 122.265C303.918 121.897 303.917 121.498 303.689 121.206C303.432 120.877 302.972 120.791 302.553 120.747C300.946 120.581 299.463 120.843 297.879 121.035C296.431 121.21 294.972 122.015 293.62 122.541C292.715 122.893 291.81 123.247 290.905 123.601L290.903 123.599Z" fill="#696880"/>
<path d="M287.268 134.107C287.047 134.624 286.808 135.163 286.36 135.508C286.173 135.652 285.931 135.797 285.924 136.031C285.916 136.278 286.18 136.442 286.417 136.525C287.019 136.739 287.705 136.785 288.293 136.535C288.696 136.363 289.027 136.067 289.351 135.777C289.448 135.689 289.549 135.597 289.595 135.475C289.626 135.372 289.635 135.265 289.622 135.158C289.583 134.513 289.466 133.874 289.273 133.255C289.258 133.206 287.987 133.051 287.874 133.08C287.519 133.171 287.404 133.788 287.267 134.107H287.268Z" fill="#3F3D56"/>
<path d="M307.034 119.133L299.355 119.365C299.355 119.365 292.561 125.875 298.173 127.852C298.173 127.852 305.085 128.956 306.739 127.677C306.739 127.677 308.806 119.656 307.034 119.133ZM306.68 121.283L298.469 121.807C298.469 121.807 299.059 119.83 301.422 119.83C303.785 119.83 306.443 119.307 306.68 120.528C306.916 121.748 306.68 121.283 306.68 121.283Z" fill="#3F3D56"/>
<path d="M305.291 139.999C309.549 139.999 313 136.148 313 131.397C313 126.645 309.549 122.794 305.291 122.794C301.034 122.794 297.582 126.645 297.582 131.397C297.582 136.148 301.034 139.999 305.291 139.999Z" fill="#36334A"/>
<path d="M305.646 137.791C308.859 137.791 311.464 134.928 311.464 131.397C311.464 127.866 308.859 125.003 305.646 125.003C302.432 125.003 299.827 127.866 299.827 131.397C299.827 134.928 302.432 137.791 305.646 137.791Z" fill="#3F3D56"/>
<path d="M307.152 131.31C307.152 131.198 307.141 131.087 307.118 130.978L311.464 128.84L311.169 128.2L306.779 130.305C306.734 130.26 306.685 130.22 306.633 130.185H306.636L307.92 123.9L306.785 123.874L306.03 130.061L306.102 130.076C306.044 130.088 305.987 130.107 305.933 130.133L302.136 126.298L301.599 127.038L305.5 130.57C305.402 130.754 305.344 130.957 305.328 131.165L299.828 133.374L299.71 134.304L305.443 131.931C305.497 132.062 305.572 132.182 305.667 132.288L303.904 138.198H304.553L306.034 132.528C306.099 132.549 306.168 132.56 306.237 132.56C306.371 132.559 306.5 132.521 306.613 132.449L309.693 136.455L310.638 135.815L307.029 131.936C307.111 131.738 307.153 131.525 307.153 131.311L307.152 131.31Z" fill="#36334A"/>
<path d="M298.627 104.096C298.731 103.839 299.066 103.732 299.176 103.477C299.294 103.203 299.109 102.855 299.27 102.602C299.432 102.348 299.81 102.378 300.111 102.427C300.466 102.485 300.843 102.524 301.174 102.385C301.322 102.324 301.453 102.23 301.595 102.158C301.822 102.045 302.074 101.991 302.328 102.001C302.385 102 302.442 102.013 302.492 102.04C302.54 102.074 302.577 102.121 302.599 102.175C302.703 102.396 302.717 102.671 302.905 102.83C302.995 102.906 303.112 102.942 303.22 102.99C303.735 103.234 304.04 103.769 303.985 104.328C303.96 104.455 303.944 104.583 303.938 104.711C303.945 104.994 304.133 105.276 304.037 105.543C303.966 105.741 303.757 105.858 303.553 105.92C303.495 105.943 303.43 105.946 303.37 105.929C303.266 105.887 303.244 105.754 303.211 105.648C303.114 105.362 302.839 105.172 302.533 105.178C302.295 105.188 302.053 105.32 301.829 105.241C301.719 105.203 301.632 105.119 301.544 105.043C301.34 104.869 301.1 104.723 300.833 104.686C300.566 104.649 300.27 104.738 300.113 104.953C300.049 105.04 300.011 105.142 299.951 105.231C299.406 106.032 298.403 104.649 298.627 104.094L298.627 104.096Z" fill="#36334A"/>
<path d="M299.854 117.911C299.649 117.885 299.444 117.96 299.306 118.112C298.789 118.575 298.241 119.098 298.148 119.779C298.134 119.842 298.141 119.907 298.169 119.964C298.219 120.045 298.328 120.062 298.424 120.064C298.912 120.068 299.379 119.866 299.705 119.507C299.793 119.408 299.875 119.295 299.997 119.239C300.108 119.198 300.227 119.184 300.345 119.196C300.669 119.207 301.41 119.37 301.692 119.212C301.989 119.046 301.908 118.524 301.769 118.272C301.439 117.674 300.416 117.905 299.854 117.911V117.911Z" fill="#FBBEBE"/>
<path d="M307.069 112.89C307.268 113.519 307.151 114.227 307.433 114.824C307.62 115.221 307.971 115.54 308.08 115.964C308.183 116.364 308.045 116.796 307.803 117.133C307.562 117.471 307.226 117.73 306.888 117.976C306.519 118.245 306.136 118.508 305.7 118.653C305.266 118.799 304.801 118.82 304.344 118.841L301.308 118.978L300.75 117.329L302.727 116.567C302.925 116.491 303.127 116.414 303.339 116.398C303.705 116.371 304.151 116.504 304.386 116.226C304.461 116.124 304.508 116.005 304.524 115.881C304.716 114.912 304.549 113.887 304.844 112.944C304.99 112.477 305.412 111.541 305.988 111.458C306.597 111.371 306.932 112.454 307.07 112.89H307.069Z" fill="#F5F4F4"/>
</g>
<defs>
<clipPath id="clip0_282_28102">
<rect width="433.31" height="315.48" fill="white"/>
</clipPath>
</defs>
</svg>
