<svg width="434" height="316" viewBox="0 0 434 316" fill="none" xmlns="http://www.w3.org/2000/svg">
<g clip-path="url(#clip0_282_15824)">
<path d="M222.1 222.93C221.69 224.84 221.45 226.8 220.83 228.66C219.99 231.21 220.12 232.14 224.15 233.5C225.34 233.9 226.6 234.11 227.83 234.41C230.14 234.97 230.39 235.34 229.46 237.27C228.37 239.53 226.8 241.52 224.97 243.37C224.68 243.66 224.23 243.83 224.12 244.27C224.81 246.95 225.59 249.63 226.16 252.33C226.65 254.63 226.82 256.98 226.38 259.32C226.15 260.54 225.6 261.28 223.96 261.74C220.78 262.62 217.76 262.25 214.72 261.62C213.22 261.31 211.76 260.91 210.2 260.94C209.74 260.94 209.25 261.01 208.97 260.58C207.88 258.9 206.13 257.63 205.07 255.92C204.36 254.77 204.28 253.52 204.51 252.34C204.91 250.25 205.18 248.15 205.54 246.06C205.64 245.45 205.72 244.84 205.67 244.26C205.56 243.1 205.43 241.84 203.85 241.4C202.37 240.99 200.98 241.08 199.74 242.09C198.71 242.93 197.98 244.41 196.48 244.34C195.36 244.29 194.25 243.41 193.2 242.81C191.44 241.81 189.72 241.85 187.85 242.62C186.69 243.1 185.43 243.5 184.17 243.68C182.38 243.94 180.58 243.73 179.27 242.45C177.24 240.47 174.79 239.89 171.88 240.48C171.01 240.66 170.11 240.8 169.22 240.83C168.04 240.87 167.5 241.12 167.96 242.29C168.26 243.07 167.71 243.88 167.14 244.4C165.68 245.75 164.06 247.28 161.85 247.24C156.77 247.13 152.21 249.14 147.3 249.62C146.82 249.67 146.31 249.71 145.82 249.42C147.41 246.72 149.42 244.1 152.31 242.59C154.43 241.48 156.15 240.29 157.86 238.79C158.74 238.01 160.75 238.08 162.26 238.02C163.77 237.96 164.16 237.44 164.14 236.19C164.12 234.76 164.51 233.38 165.3 232.05C166.26 230.43 166.98 228.69 165.94 226.87C165.24 225.65 165.56 224.45 165.97 223.28C166.72 221.17 167.61 219.1 168.53 216.77C171.97 217.18 175.45 216.19 179.06 216.59C183.06 217.04 186.88 216.09 190.52 214.64C191.21 214.37 191.83 213.94 192.68 213.74C195.33 216.58 198.71 218.8 201.81 221.29C203.68 222.78 205.97 222.19 207.69 221.39C210.27 220.2 212.89 220.49 215.53 220.41C216.07 220.39 216.51 220.66 216.98 220.92C218.56 221.77 220.23 222.47 222.09 222.74" fill="#D1FF00"/>
<path d="M194.874 228.408C197.696 228.408 199.983 225.855 199.983 222.706C199.983 219.557 197.696 217.004 194.874 217.004C192.051 217.004 189.764 219.557 189.764 222.706C189.764 225.855 192.051 228.408 194.874 228.408Z" fill="#36334A"/>
<path d="M201.432 203.732C200.204 204.259 198.865 204.488 197.529 204.398C197.872 204.156 198.092 203.77 198.181 203.364C198.269 202.958 198.236 202.535 198.144 202.13C198.128 202.083 198.128 202.032 198.147 201.987C198.185 201.941 198.243 201.914 198.303 201.914C198.821 201.843 200.303 201.535 200.697 201.971C200.884 202.178 200.812 202.579 200.881 202.832C200.909 202.936 201.27 203.803 201.432 203.733V203.732Z" fill="#FBBEBE"/>
<path opacity="0.1" d="M201.432 203.732C200.204 204.259 198.865 204.488 197.529 204.398C197.872 204.156 198.092 203.77 198.181 203.364C198.269 202.958 198.236 202.535 198.144 202.13C198.128 202.083 198.128 202.032 198.147 201.987C198.185 201.941 198.243 201.914 198.303 201.914C198.821 201.843 200.303 201.535 200.697 201.971C200.884 202.178 200.812 202.579 200.881 202.832C200.909 202.936 201.27 203.803 201.432 203.733V203.732Z" fill="black"/>
<path d="M197.118 212.389L189.439 212.621C189.439 212.621 182.646 219.131 188.257 221.108C188.257 221.108 195.169 222.212 196.823 220.933C196.823 220.933 198.89 212.912 197.118 212.389ZM196.764 214.539L188.553 215.062C188.553 215.062 189.144 213.086 191.506 213.086C193.869 213.086 196.527 212.563 196.764 213.784C197 215.004 196.764 214.539 196.764 214.539Z" fill="#3F3D56"/>
<path d="M191.064 211.345C190.681 211.287 190.265 211.254 189.929 211.445C189.818 211.513 189.714 211.594 189.62 211.685C189.485 211.807 189.351 211.93 189.218 212.054C189.121 212.145 189.02 212.245 188.994 212.374C188.943 212.64 189.256 212.856 189.531 212.845C189.806 212.835 190.053 212.686 190.314 212.596C190.838 212.416 192.764 212.724 192.869 212.17C193.003 211.464 191.49 211.412 191.064 211.346V211.345Z" fill="#FBBEBE"/>
<path d="M194.654 210.9C194.153 211.151 193.608 211.303 193.048 211.349C192.961 211.35 192.875 211.369 192.794 211.402C192.746 211.432 192.709 211.476 192.688 211.529C192.492 211.934 192.37 212.371 192.329 212.819C192.319 212.863 192.335 212.909 192.371 212.937C192.424 212.964 192.484 212.977 192.544 212.975C193.463 213.033 194.386 213.064 195.311 213.068C195.351 213.071 195.393 213.065 195.431 213.051C195.458 213.038 195.478 213.013 195.487 212.984C195.703 212.453 195.806 211.883 195.787 211.311C195.763 210.638 195.563 210.427 194.655 210.901L194.654 210.9Z" fill="#D7E5F2"/>
<path d="M194.654 210.9C194.153 211.151 193.608 211.303 193.048 211.349C192.961 211.35 192.875 211.369 192.794 211.402C192.746 211.432 192.709 211.476 192.688 211.529C192.492 211.934 192.37 212.371 192.329 212.819C192.319 212.863 192.335 212.909 192.371 212.937C192.424 212.964 192.484 212.977 192.544 212.975C193.463 213.033 194.386 213.064 195.311 213.068C195.351 213.071 195.393 213.065 195.431 213.051C195.458 213.038 195.478 213.013 195.487 212.984C195.703 212.453 195.806 211.883 195.787 211.311C195.763 210.638 195.563 210.427 194.655 210.901L194.654 210.9Z" fill="#F5F4F4"/>
<path d="M204.975 216.981L194.873 216.632L197.236 206.809C197.236 206.809 206.688 206.111 206.451 208.495C206.215 210.878 204.975 216.981 204.975 216.981Z" fill="#36334A"/>
<path d="M195.223 221.676C195.223 221.676 189.143 222.734 186.958 219.596C184.772 216.457 195.228 218.142 195.228 218.142L196.114 220.526L195.223 221.676Z" fill="#36334A"/>
<path d="M193.397 235C194.93 235 196.173 233.777 196.173 232.268C196.173 230.759 194.93 229.536 193.397 229.536C191.863 229.536 190.62 230.759 190.62 232.268C190.62 233.777 191.863 235 193.397 235Z" fill="#36334A"/>
<path d="M193.663 234.244C194.625 234.244 195.405 233.359 195.405 232.267C195.405 231.176 194.625 230.291 193.663 230.291C192.7 230.291 191.92 231.176 191.92 232.267C191.92 233.359 192.7 234.244 193.663 234.244Z" fill="#3F3D56"/>
<path d="M208.578 206.519C208.578 206.519 206.274 205.24 206.156 208.262L204.207 222.329H205.034L207.279 207.274C207.279 207.274 208.401 207.449 208.578 207.449C208.755 207.449 208.578 206.519 208.578 206.519Z" fill="#3F3D56"/>
<path d="M210.874 208.07C210.792 208.36 210.487 208.529 210.194 208.449C210.17 208.442 210.147 208.434 210.125 208.425L207.452 207.301L207.937 206.25L210.571 207.431C210.819 207.542 210.947 207.813 210.874 208.07H210.874Z" fill="#36334A"/>
<path d="M194.637 221.34C194.637 221.34 190.384 220.875 189.202 224.885C188.021 228.896 188.139 231.977 187.135 231.744C186.131 231.512 184.004 230.698 184.004 230.698L184.181 231.919C184.181 231.919 187.903 233.779 188.494 231.802C189.084 229.826 189.439 222.56 192.806 222.735C196.173 222.909 196.764 222.56 196.764 222.56L194.637 221.34Z" fill="#3F3D56"/>
<path d="M186.544 219.422C186.544 219.422 183.236 219.829 181.937 222.212C180.637 224.595 179.987 228.896 179.987 228.896H181.228C181.228 228.896 181.937 220.352 185.658 220.817L186.544 219.422Z" fill="#3F3D56"/>
<path d="M184.3 232.734L179.042 229.537C179.042 229.537 178.747 228.374 182.114 227.909C182.114 227.909 188.48 230.1 187.866 230.922C187.253 231.745 185.186 233.024 184.3 232.734Z" fill="#36334A"/>
<path d="M192.452 222.328V229.129H193.219V222.212L192.452 222.328Z" fill="#3F3D56"/>
<path d="M193.574 226.513C193.574 226.513 195.051 232.209 194.106 233.023C194.106 233.023 192.865 229.419 191.92 229.884L192.215 226.513H193.574Z" fill="#36334A"/>
<path d="M199.304 202.798C200.576 202.798 201.608 201.784 201.608 200.532C201.608 199.28 200.576 198.265 199.304 198.265C198.031 198.265 197 199.28 197 200.532C197 201.784 198.031 202.798 199.304 202.798Z" fill="#FBBEBE"/>
<path d="M198.868 203.967C199.807 204.124 200.619 203.049 201.56 203.2C201.764 203.241 201.96 203.317 202.138 203.424C203.539 204.204 204.542 205.526 204.904 207.07C205.011 207.536 205.052 208.041 204.852 208.477C204.746 208.708 204.577 208.906 204.409 209.098C203.783 209.814 203.096 210.528 202.204 210.874C202.116 211.172 202.2 211.494 202.305 211.785C202.741 213.004 202.047 214.317 202.012 215.608C202.006 215.829 202.012 216.07 201.872 216.243C201.716 216.434 201.438 216.468 201.189 216.482C198.908 216.609 196.63 216.264 194.373 215.922C194.313 215.917 194.256 215.898 194.207 215.866C194.133 215.808 194.121 215.704 194.106 215.612C194.022 215.124 194.463 214.728 194.254 214.278C193.895 213.504 194.678 212.658 194.904 211.836C195.129 211.015 195.218 210.871 195.376 210.035C195.435 209.722 195.265 208.779 195.317 208.465C195.487 207.44 195.358 206.272 195.908 205.385C196.238 204.852 196.152 204.437 196.741 204.205C197.363 203.96 198.204 204.043 198.869 203.967H198.868Z" fill="#F5F4F4"/>
<path d="M188.464 217.486C187.777 217.617 187.046 217.741 186.517 218.192C186.194 218.468 185.977 218.842 185.766 219.208L183.613 222.944C182.956 224.083 182.299 225.223 181.703 226.394C181.651 226.479 181.621 226.575 181.614 226.675C181.617 226.815 181.712 226.935 181.81 227.036C182.499 227.739 183.484 228.08 184.468 227.956C184.616 227.201 185.345 226.703 185.703 226.019C185.899 225.644 185.978 225.222 186.104 224.818C186.577 223.313 187.699 222.104 188.789 220.951C189.304 220.405 189.831 219.85 190.494 219.492C191.272 219.072 192.175 218.956 193.045 218.782C193.914 218.607 194.815 218.343 195.43 217.714C195.959 217.165 196.209 216.411 196.112 215.661C195.555 215.622 194.935 215.551 194.397 215.727C193.773 215.932 193.169 216.212 192.544 216.421C191.21 216.868 189.847 217.224 188.464 217.486H188.464Z" fill="#696880"/>
<path opacity="0.1" d="M188.464 217.486C187.777 217.617 187.046 217.741 186.517 218.192C186.194 218.468 185.977 218.842 185.766 219.208L183.613 222.944C182.956 224.083 182.299 225.223 181.703 226.394C181.651 226.479 181.621 226.575 181.614 226.675C181.617 226.815 181.712 226.935 181.81 227.036C182.499 227.739 183.484 228.08 184.468 227.956C184.616 227.201 185.345 226.703 185.703 226.019C185.899 225.644 185.978 225.222 186.104 224.818C186.577 223.313 187.699 222.104 188.789 220.951C189.304 220.405 189.831 219.85 190.494 219.492C191.272 219.072 192.175 218.956 193.045 218.782C193.914 218.607 194.815 218.343 195.43 217.714C195.959 217.165 196.209 216.411 196.112 215.661C195.555 215.622 194.935 215.551 194.397 215.727C193.773 215.932 193.169 216.212 192.544 216.421C191.21 216.868 189.847 217.224 188.464 217.486H188.464Z" fill="black"/>
<path d="M179.181 229.332C179.104 229.386 179.045 229.461 179.012 229.547C178.934 229.809 179.267 229.994 179.534 230.07C180.133 230.239 180.773 230.41 181.371 230.235C181.738 230.127 182.057 229.898 182.421 229.783C182.962 229.612 183.548 229.709 184.106 229.807C184.231 229.116 184.147 228.403 183.865 227.759C183.685 227.352 182.968 227.154 182.54 227.136C182.073 227.116 181.911 227.455 181.641 227.767C180.985 228.528 179.938 228.704 179.182 229.332H179.181Z" fill="#3F3D56"/>
<path d="M188.903 218.599C188.572 218.729 188.233 218.863 187.974 219.103C187.7 219.356 187.54 219.703 187.394 220.043C186.962 221.049 186.595 222.081 186.293 223.132C186.141 223.663 186.006 224.2 185.801 224.714C185.391 225.74 184.697 226.721 184.762 227.82C184.762 227.954 184.798 228.085 184.868 228.2C184.961 228.333 185.118 228.403 185.268 228.467L186.054 228.802C186.476 228.982 186.99 229.156 187.367 228.896C187.619 228.723 187.719 228.409 187.796 228.115C188.07 227.056 188.24 225.956 188.732 224.977C189.288 223.87 190.228 222.975 190.725 221.841C190.796 221.681 190.863 221.509 191.001 221.399C191.116 221.308 191.264 221.273 191.407 221.241C194.357 220.58 197.374 220.219 200.3 219.463C200.716 219.356 201.152 219.228 201.449 218.922C201.861 218.497 201.897 217.851 201.91 217.265C201.918 216.897 201.917 216.498 201.689 216.206C201.432 215.877 200.972 215.791 200.553 215.747C198.946 215.581 197.463 215.843 195.879 216.035C194.431 216.21 192.972 217.015 191.62 217.541C190.715 217.893 189.81 218.247 188.905 218.601L188.903 218.599Z" fill="#696880"/>
<path d="M185.268 229.107C185.047 229.624 184.808 230.163 184.36 230.508C184.173 230.652 183.931 230.797 183.924 231.031C183.916 231.278 184.18 231.442 184.417 231.525C185.019 231.739 185.705 231.785 186.293 231.535C186.696 231.363 187.027 231.067 187.351 230.777C187.448 230.689 187.549 230.597 187.595 230.475C187.626 230.372 187.635 230.265 187.622 230.158C187.583 229.513 187.466 228.874 187.273 228.255C187.258 228.206 185.987 228.051 185.874 228.08C185.519 228.171 185.404 228.788 185.267 229.107H185.268Z" fill="#3F3D56"/>
<path d="M205.034 214.133L197.355 214.365C197.355 214.365 190.561 220.875 196.173 222.852C196.173 222.852 203.085 223.956 204.739 222.677C204.739 222.677 206.806 214.656 205.034 214.133ZM204.68 216.283L196.469 216.807C196.469 216.807 197.059 214.83 199.422 214.83C201.785 214.83 204.443 214.307 204.68 215.528C204.916 216.748 204.68 216.283 204.68 216.283Z" fill="#3F3D56"/>
<path d="M203.291 234.999C207.549 234.999 211 231.148 211 226.397C211 221.645 207.549 217.794 203.291 217.794C199.034 217.794 195.582 221.645 195.582 226.397C195.582 231.148 199.034 234.999 203.291 234.999Z" fill="#36334A"/>
<path d="M203.646 232.791C206.859 232.791 209.464 229.928 209.464 226.397C209.464 222.866 206.859 220.003 203.646 220.003C200.432 220.003 197.827 222.866 197.827 226.397C197.827 229.928 200.432 232.791 203.646 232.791Z" fill="#3F3D56"/>
<path d="M205.152 226.31C205.152 226.198 205.141 226.087 205.118 225.978L209.464 223.84L209.169 223.2L204.779 225.305C204.734 225.26 204.685 225.22 204.633 225.185H204.636L205.92 218.9L204.785 218.874L204.03 225.061L204.102 225.076C204.044 225.088 203.987 225.107 203.933 225.133L200.136 221.298L199.599 222.038L203.5 225.57C203.402 225.754 203.344 225.957 203.328 226.165L197.828 228.374L197.71 229.304L203.443 226.931C203.497 227.062 203.572 227.182 203.667 227.288L201.904 233.198H202.553L204.034 227.528C204.099 227.549 204.168 227.56 204.237 227.56C204.371 227.559 204.5 227.521 204.613 227.449L207.693 231.455L208.638 230.815L205.029 226.936C205.111 226.738 205.153 226.525 205.153 226.311L205.152 226.31Z" fill="#36334A"/>
<path d="M196.627 199.096C196.731 198.839 197.066 198.732 197.176 198.477C197.294 198.203 197.109 197.855 197.27 197.602C197.432 197.348 197.81 197.378 198.111 197.427C198.466 197.485 198.843 197.524 199.175 197.385C199.322 197.324 199.453 197.23 199.595 197.158C199.822 197.045 200.074 196.991 200.328 197.001C200.386 197 200.442 197.013 200.492 197.04C200.54 197.074 200.577 197.121 200.599 197.175C200.703 197.396 200.717 197.671 200.905 197.83C200.995 197.906 201.112 197.942 201.22 197.99C201.735 198.234 202.04 198.769 201.985 199.328C201.96 199.455 201.944 199.583 201.938 199.711C201.945 199.994 202.133 200.276 202.037 200.543C201.966 200.741 201.757 200.858 201.553 200.92C201.495 200.943 201.43 200.946 201.37 200.929C201.266 200.887 201.244 200.754 201.211 200.648C201.114 200.362 200.839 200.172 200.533 200.178C200.295 200.188 200.054 200.32 199.829 200.241C199.719 200.203 199.632 200.119 199.544 200.043C199.341 199.869 199.1 199.723 198.833 199.686C198.566 199.649 198.27 199.738 198.113 199.953C198.049 200.04 198.011 200.142 197.951 200.231C197.406 201.032 196.403 199.649 196.627 199.094L196.627 199.096Z" fill="#36334A"/>
<path d="M197.854 212.911C197.649 212.885 197.444 212.96 197.306 213.112C196.789 213.575 196.241 214.098 196.148 214.779C196.134 214.842 196.141 214.907 196.169 214.964C196.219 215.045 196.328 215.062 196.424 215.064C196.912 215.068 197.379 214.866 197.705 214.507C197.793 214.408 197.875 214.295 197.997 214.239C198.108 214.198 198.227 214.184 198.345 214.196C198.669 214.207 199.41 214.37 199.692 214.212C199.989 214.046 199.908 213.524 199.769 213.272C199.439 212.674 198.416 212.905 197.854 212.911V212.911Z" fill="#FBBEBE"/>
<path d="M205.069 207.89C205.268 208.519 205.151 209.227 205.433 209.824C205.62 210.221 205.971 210.54 206.08 210.964C206.183 211.364 206.045 211.796 205.803 212.133C205.562 212.471 205.226 212.73 204.888 212.976C204.519 213.245 204.136 213.508 203.7 213.653C203.266 213.799 202.801 213.82 202.344 213.841L199.308 213.978L198.75 212.329L200.727 211.567C200.925 211.491 201.127 211.414 201.339 211.398C201.705 211.371 202.151 211.504 202.386 211.226C202.461 211.124 202.508 211.005 202.524 210.881C202.716 209.912 202.549 208.887 202.844 207.944C202.99 207.477 203.412 206.541 203.988 206.458C204.597 206.371 204.932 207.454 205.07 207.89H205.069Z" fill="#F5F4F4"/>
</g>
<defs>
<clipPath id="clip0_282_15824">
<rect width="433.31" height="315.48" fill="white"/>
</clipPath>
</defs>
</svg>
