<svg width="434" height="316" viewBox="0 0 434 316" fill="none" xmlns="http://www.w3.org/2000/svg">
<g clip-path="url(#clip0_282_29856)">
<path d="M207.41 71.0995C206.35 70.2595 205.13 69.4395 204.62 68.2695C204.23 67.3795 203.7 66.5895 203.1 65.8495L201.69 62.8495L200.3 58.0695C200.3 58.0695 199.3 55.0695 198.3 54.0695C197.3 53.0695 196.3 53.0695 196.3 53.0695C193.12 53.0895 190.46 52.3195 187.96 50.6695C185.45 49.0095 181.52 49.4195 180.02 51.1695C179.25 52.0595 179.17 53.1895 179.03 54.2195C178.55 57.7595 176.12 59.5295 172.44 60.5295C169.93 61.2095 167.44 61.9795 165.04 62.9795C163 63.8395 160.69 63.9095 158.49 64.2195C154.77 64.7495 152.46 66.6595 151.37 69.6395C150.4 72.2995 149.65 74.9795 147.49 77.1995C146.76 77.9495 146.27 79.0895 147.02 80.2195C147.15 80.4195 147.12 80.6995 147.2 80.9395C147.75 82.6595 148.62 84.4095 148.56 86.1295C148.48 88.1995 146.3 89.5395 144.96 91.1395C141.66 95.0895 140.65 99.4895 141.52 104.239C142.23 108.169 143.2 112.049 144.38 115.899C144.84 117.399 144.52 118.719 143.33 119.839C142.27 120.839 141.33 121.819 141.06 123.249C140.72 125.049 132.7 129.079 130.23 128.629C129.53 128.499 128.86 128.289 127.99 128.079C127.23 128.969 126.41 129.929 125.49 131.019C129.77 135.209 134.43 138.749 140.48 140.639C141.54 140.969 142.59 141.079 143.59 140.159C144.31 139.509 145.17 138.909 146.02 138.349C148.17 136.919 149.02 135.119 148.69 132.769C148.38 130.559 149 129.969 151.95 129.409C154.66 128.899 156.26 130.289 156.69 131.869C156.82 132.349 156.72 132.879 157.06 133.309C158.33 134.939 159.89 133.899 161.36 133.669L163.69 128.289C164.1 128.219 164.6 128.179 165.21 128.159C166.37 128.129 167.5 127.679 168.6 127.199C170.28 126.459 171.37 124.919 171.01 123.649C170.397 121.509 171.067 119.859 173.02 118.699C173.67 118.319 174.35 117.979 175.03 117.639C177.54 116.389 180.25 115.439 182.51 113.849C181.46 111.239 181.55 110.099 183.29 109.549C185.86 108.739 187.68 107.299 189.34 105.459C191.29 103.299 191.71 101.239 190.08 99.0795C189.81 98.7295 189.5 98.3895 189.31 97.9995C188.57 96.4495 189.31 94.3595 190.92 94.1995C192.12 94.0795 192.48 93.6695 192.71 92.8695C192.92 92.1395 193.47 91.5295 193.54 90.7495C193.67 89.2595 194.53 88.3895 196.13 88.5995C197.45 85.4695 198.28 82.4695 202.55 81.4795C205.76 80.7395 208.96 79.6795 211.3 77.6595C211.03 74.8895 209.59 72.8295 207.4 71.1095L207.41 71.0995Z" fill="#D1FF00"/>
<path d="M163.874 94.4082C166.696 94.4082 168.983 91.8552 168.983 88.706C168.983 85.5568 166.696 83.0039 163.874 83.0039C161.051 83.0039 158.764 85.5568 158.764 88.706C158.764 91.8552 161.051 94.4082 163.874 94.4082Z" fill="#36334A"/>
<path d="M170.432 69.7321C169.204 70.2593 167.865 70.4877 166.529 70.3976C166.872 70.1564 167.092 69.7699 167.181 69.3641C167.269 68.9584 167.236 68.5347 167.144 68.1296C167.128 68.0831 167.128 68.0325 167.147 67.9871C167.185 67.9406 167.243 67.9139 167.303 67.9139C167.821 67.843 169.303 67.5349 169.697 67.9715C169.884 68.1778 169.812 68.5794 169.881 68.8317C169.909 68.9358 170.27 69.803 170.432 69.7327V69.7321Z" fill="#FBBEBE"/>
<path opacity="0.1" d="M170.432 69.7321C169.204 70.2593 167.865 70.4877 166.529 70.3976C166.872 70.1564 167.092 69.7699 167.181 69.3641C167.269 68.9584 167.236 68.5347 167.144 68.1296C167.128 68.0831 167.128 68.0325 167.147 67.9871C167.185 67.9406 167.243 67.9139 167.303 67.9139C167.821 67.843 169.303 67.5349 169.697 67.9715C169.884 68.1778 169.812 68.5794 169.881 68.8317C169.909 68.9358 170.27 69.803 170.432 69.7327V69.7321Z" fill="black"/>
<path d="M166.118 78.3887L158.439 78.6212C158.439 78.6212 151.646 85.1312 157.257 87.1075C157.257 87.1075 164.169 88.2119 165.823 86.9331C165.823 86.9331 167.89 78.9118 166.118 78.3887ZM165.764 80.5393L157.553 81.0624C157.553 81.0624 158.144 79.0862 160.506 79.0862C162.869 79.0862 165.527 78.563 165.764 79.7837C166 81.0043 165.764 80.5393 165.764 80.5393Z" fill="#3F3D56"/>
<path d="M160.064 77.3448C159.681 77.2873 159.265 77.2536 158.929 77.4448C158.818 77.5134 158.714 77.5942 158.62 77.6849C158.485 77.8069 158.351 77.9296 158.218 78.054C158.121 78.1446 158.02 78.2446 157.994 78.3742C157.943 78.6404 158.256 78.8555 158.531 78.8451C158.806 78.8346 159.053 78.6858 159.314 78.5963C159.838 78.4155 161.764 78.7241 161.869 78.1696C162.003 77.464 160.49 77.4123 160.064 77.346V77.3448Z" fill="#FBBEBE"/>
<path d="M163.654 76.9003C163.153 77.1508 162.608 77.3031 162.048 77.349C161.961 77.3502 161.875 77.3688 161.794 77.4025C161.746 77.4321 161.709 77.4763 161.688 77.5292C161.492 77.9343 161.37 78.3714 161.329 78.819C161.319 78.8626 161.335 78.9091 161.371 78.937C161.424 78.9637 161.484 78.9765 161.544 78.9753C162.463 79.0329 163.386 79.0637 164.311 79.0678C164.351 79.0707 164.393 79.0654 164.431 79.0515C164.458 79.0375 164.478 79.0131 164.487 78.9841C164.703 78.4528 164.806 77.8832 164.787 77.3112C164.763 76.6375 164.563 76.4265 163.655 76.9008L163.654 76.9003Z" fill="#D7E5F2"/>
<path d="M163.654 76.9003C163.153 77.1508 162.608 77.3031 162.048 77.349C161.961 77.3502 161.875 77.3688 161.794 77.4025C161.746 77.4321 161.709 77.4763 161.688 77.5292C161.492 77.9343 161.37 78.3714 161.329 78.819C161.319 78.8626 161.335 78.9091 161.371 78.937C161.424 78.9637 161.484 78.9765 161.544 78.9753C162.463 79.0329 163.386 79.0637 164.311 79.0678C164.351 79.0707 164.393 79.0654 164.431 79.0515C164.458 79.0375 164.478 79.0131 164.487 78.9841C164.703 78.4528 164.806 77.8832 164.787 77.3112C164.763 76.6375 164.563 76.4265 163.655 76.9008L163.654 76.9003Z" fill="#F5F4F4"/>
<path d="M173.975 82.9809L163.873 82.6322L166.236 72.809C166.236 72.809 175.688 72.1115 175.451 74.4946C175.215 76.8778 173.975 82.9809 173.975 82.9809Z" fill="#36334A"/>
<path d="M164.223 87.6759C164.223 87.6759 158.143 88.7344 155.958 85.5956C153.772 82.4568 164.228 84.1425 164.228 84.1425L165.114 86.5256L164.223 87.6759Z" fill="#36334A"/>
<path d="M162.397 101C163.93 101 165.173 99.7768 165.173 98.268C165.173 96.7592 163.93 95.5361 162.397 95.5361C160.863 95.5361 159.62 96.7592 159.62 98.268C159.62 99.7768 160.863 101 162.397 101Z" fill="#36334A"/>
<path d="M162.663 100.244C163.625 100.244 164.405 99.3588 164.405 98.2673C164.405 97.1758 163.625 96.291 162.663 96.291C161.7 96.291 160.92 97.1758 160.92 98.2673C160.92 99.3588 161.7 100.244 162.663 100.244Z" fill="#3F3D56"/>
<path d="M177.578 72.5186C177.578 72.5186 175.274 71.2399 175.156 74.2624L173.207 88.3288H174.034L176.279 73.2743C176.279 73.2743 177.401 73.4486 177.578 73.4486C177.755 73.4486 177.578 72.5186 177.578 72.5186Z" fill="#3F3D56"/>
<path d="M179.874 74.0705C179.792 74.36 179.487 74.5291 179.194 74.4489C179.17 74.4425 179.147 74.4344 179.125 74.4251L176.452 73.3009L176.937 72.25L179.571 73.4305C179.819 73.5416 179.947 73.813 179.874 74.0705H179.874Z" fill="#36334A"/>
<path d="M163.637 87.3397C163.637 87.3397 159.384 86.8747 158.202 90.8854C157.021 94.896 157.139 97.9767 156.135 97.7442C155.131 97.5117 153.004 96.6979 153.004 96.6979L153.181 97.9186C153.181 97.9186 156.903 99.7786 157.494 97.8023C158.084 95.8261 158.439 88.5604 161.806 88.7347C165.173 88.9091 165.764 88.5604 165.764 88.5604L163.637 87.3397Z" fill="#3F3D56"/>
<path d="M155.544 85.4219C155.544 85.4219 152.236 85.8288 150.937 88.2119C149.637 90.5951 148.987 94.8963 148.987 94.8963H150.228C150.228 94.8963 150.937 86.3519 154.658 86.8169L155.544 85.4219Z" fill="#3F3D56"/>
<path d="M153.3 98.7336L148.042 95.5367C148.042 95.5367 147.747 94.3742 151.114 93.9092C151.114 93.9092 157.48 96.0999 156.866 96.9224C156.253 97.7449 154.186 99.0242 153.3 98.7336Z" fill="#36334A"/>
<path d="M161.452 88.3282V95.1289H162.219V88.2119L161.452 88.3282Z" fill="#3F3D56"/>
<path d="M162.574 92.5127C162.574 92.5127 164.051 98.209 163.106 99.0228C163.106 99.0228 161.865 95.419 160.92 95.884L161.215 92.5127H162.574Z" fill="#36334A"/>
<path d="M168.304 68.7984C169.576 68.7984 170.608 67.7835 170.608 66.5315C170.608 65.2796 169.576 64.2646 168.304 64.2646C167.031 64.2646 166 65.2796 166 66.5315C166 67.7835 167.031 68.7984 168.304 68.7984Z" fill="#FBBEBE"/>
<path d="M167.868 69.9668C168.807 70.1238 169.619 69.049 170.56 69.2002C170.764 69.2414 170.96 69.317 171.138 69.4239C172.539 70.204 173.542 71.5263 173.904 73.0696C174.011 73.5357 174.052 74.0414 173.852 74.4768C173.746 74.7081 173.577 74.9058 173.409 75.0982C172.783 75.8143 172.096 76.5281 171.204 76.8745C171.116 77.1715 171.2 77.4935 171.305 77.7853C171.741 79.0036 171.047 80.3167 171.012 81.6077C171.006 81.8285 171.012 82.0703 170.872 82.243C170.716 82.4342 170.438 82.4685 170.189 82.4824C167.908 82.6092 165.63 82.2645 163.373 81.9215C163.313 81.9175 163.256 81.8983 163.207 81.8663C163.133 81.8082 163.121 81.7036 163.106 81.6117C163.022 81.124 163.463 80.7282 163.254 80.2777C162.895 79.5041 163.678 78.6578 163.904 77.8365C164.129 77.0151 164.218 76.871 164.376 76.0346C164.435 75.7219 164.265 74.7791 164.317 74.4652C164.487 73.4398 164.358 72.2715 164.908 71.3845C165.238 70.8515 165.152 70.4371 165.741 70.2051C166.363 69.9604 167.204 70.043 167.869 69.9668H167.868Z" fill="#F5F4F4"/>
<path d="M157.464 83.4862C156.777 83.617 156.046 83.7414 155.517 84.1925C155.194 84.468 154.977 84.8417 154.766 85.2079L152.613 88.9437C151.956 90.0829 151.299 91.2228 150.703 92.394C150.651 92.4794 150.621 92.5753 150.614 92.6747C150.617 92.8148 150.712 92.9346 150.81 93.0363C151.499 93.739 152.484 94.0796 153.468 93.9558C153.616 93.2014 154.345 92.7026 154.703 92.0191C154.899 91.6436 154.978 91.2216 155.104 90.8176C155.577 89.3128 156.699 88.1043 157.789 86.9505C158.304 86.4053 158.831 85.8502 159.494 85.4922C160.272 85.0725 161.175 84.9562 162.045 84.7819C162.914 84.6075 163.815 84.343 164.43 83.7135C164.959 83.1648 165.209 82.4109 165.112 81.6605C164.555 81.6222 163.935 81.5507 163.397 81.7274C162.773 81.932 162.169 82.2121 161.544 82.4214C160.21 82.8678 158.847 83.2235 157.464 83.4862H157.464Z" fill="#696880"/>
<path opacity="0.1" d="M157.464 83.4862C156.777 83.617 156.046 83.7414 155.517 84.1925C155.194 84.468 154.977 84.8417 154.766 85.2079L152.613 88.9437C151.956 90.0829 151.299 91.2228 150.703 92.394C150.651 92.4794 150.621 92.5753 150.614 92.6747C150.617 92.8148 150.712 92.9346 150.81 93.0363C151.499 93.739 152.484 94.0796 153.468 93.9558C153.616 93.2014 154.345 92.7026 154.703 92.0191C154.899 91.6436 154.978 91.2216 155.104 90.8176C155.577 89.3128 156.699 88.1043 157.789 86.9505C158.304 86.4053 158.831 85.8502 159.494 85.4922C160.272 85.0725 161.175 84.9562 162.045 84.7819C162.914 84.6075 163.815 84.343 164.43 83.7135C164.959 83.1648 165.209 82.4109 165.112 81.6605C164.555 81.6222 163.935 81.5507 163.397 81.7274C162.773 81.932 162.169 82.2121 161.544 82.4214C160.21 82.8678 158.847 83.2235 157.464 83.4862H157.464Z" fill="black"/>
<path d="M148.181 95.3316C148.104 95.3856 148.045 95.4606 148.012 95.5472C147.934 95.8094 148.267 95.9942 148.534 96.0698C149.133 96.2395 149.773 96.4098 150.371 96.2348C150.738 96.1273 151.057 95.8977 151.421 95.7826C151.962 95.6123 152.548 95.7088 153.106 95.807C153.231 95.1159 153.147 94.4033 152.865 93.7587C152.685 93.3518 151.968 93.1536 151.54 93.1356C151.073 93.1158 150.911 93.4553 150.641 93.7674C149.985 94.5277 148.938 94.7038 148.182 95.3316H148.181Z" fill="#3F3D56"/>
<path d="M157.903 84.5994C157.572 84.729 157.233 84.8633 156.974 85.1028C156.7 85.3556 156.54 85.7026 156.394 86.0432C155.962 87.0494 155.595 88.0811 155.293 89.132C155.141 89.6633 155.006 90.2004 154.801 90.7142C154.391 91.7395 153.697 92.7213 153.762 93.8204C153.762 93.9541 153.798 94.0849 153.868 94.2C153.961 94.3325 154.118 94.4029 154.268 94.4668L155.054 94.8022C155.476 94.9824 155.99 95.1556 156.367 94.8963C156.619 94.7231 156.719 94.4087 156.796 94.1151C157.07 93.0561 157.24 91.9564 157.732 90.9769C158.288 89.8696 159.228 88.9745 159.725 87.8411C159.796 87.6806 159.863 87.5086 160.001 87.3987C160.116 87.308 160.264 87.2732 160.407 87.2412C163.357 86.5803 166.374 86.2188 169.3 85.4631C169.716 85.3556 170.152 85.2283 170.449 84.922C170.861 84.4971 170.897 83.8513 170.91 83.2648C170.918 82.8975 170.917 82.4976 170.689 82.2064C170.432 81.8774 169.972 81.7908 169.553 81.7472C167.946 81.5809 166.463 81.8431 164.879 82.0349C163.431 82.2104 161.972 83.0149 160.62 83.5409C159.715 83.8932 158.81 84.2466 157.905 84.6006L157.903 84.5994Z" fill="#696880"/>
<path d="M154.268 95.1074C154.047 95.6236 153.808 96.163 153.36 96.5082C153.173 96.6524 152.931 96.7971 152.924 97.0308C152.916 97.2784 153.18 97.4417 153.417 97.5254C154.019 97.7393 154.705 97.7853 155.293 97.5347C155.696 97.3633 156.027 97.0674 156.351 96.7768C156.448 96.689 156.549 96.5966 156.595 96.4751C156.626 96.3722 156.635 96.2647 156.622 96.1583C156.583 95.5126 156.466 94.8738 156.273 94.2553C156.258 94.2065 154.987 94.0507 154.874 94.0798C154.519 94.171 154.404 94.7877 154.267 95.1074H154.268Z" fill="#3F3D56"/>
<path d="M174.034 80.1328L166.355 80.3653C166.355 80.3653 159.561 86.8754 165.173 88.8517C165.173 88.8517 172.085 89.956 173.739 88.6773C173.739 88.6773 175.806 80.6559 174.034 80.1328ZM173.68 82.2835L165.469 82.8066C165.469 82.8066 166.059 80.8303 168.422 80.8303C170.785 80.8303 173.443 80.3072 173.68 81.5278C173.916 82.7485 173.68 82.2835 173.68 82.2835Z" fill="#3F3D56"/>
<path d="M172.291 100.999C176.549 100.999 180 97.1476 180 92.3965C180 87.6455 176.549 83.7939 172.291 83.7939C168.034 83.7939 164.582 87.6455 164.582 92.3965C164.582 97.1476 168.034 100.999 172.291 100.999Z" fill="#36334A"/>
<path d="M172.646 98.7906C175.859 98.7906 178.464 95.928 178.464 92.3967C178.464 88.8655 175.859 86.0029 172.646 86.0029C169.432 86.0029 166.827 88.8655 166.827 92.3967C166.827 95.928 169.432 98.7906 172.646 98.7906Z" fill="#3F3D56"/>
<path d="M174.152 92.31C174.152 92.1984 174.141 92.0874 174.118 91.9781L178.464 89.8397L178.169 89.2003L173.779 91.305C173.734 91.2603 173.685 91.2202 173.633 91.1853H173.636L174.92 84.8996L173.785 84.874L173.03 91.0609L173.102 91.076C173.044 91.0877 172.987 91.1068 172.933 91.133L169.136 87.2979L168.599 88.0384L172.5 91.5695C172.402 91.7544 172.344 91.9566 172.328 92.1647L166.828 94.3741L166.71 95.3041L172.443 92.9314C172.497 93.0622 172.572 93.1825 172.667 93.2877L170.904 99.1985H171.553L173.034 93.5283C173.099 93.5493 173.168 93.5597 173.237 93.5603C173.371 93.5592 173.5 93.5208 173.613 93.4493L176.693 97.4547L177.638 96.8153L174.029 92.936C174.111 92.7378 174.153 92.5251 174.153 92.3106L174.152 92.31Z" fill="#36334A"/>
<path d="M165.627 65.0955C165.731 64.8386 166.066 64.7323 166.176 64.4771C166.294 64.2033 166.109 63.8546 166.27 63.6023C166.432 63.3483 166.81 63.3779 167.111 63.4273C167.466 63.4855 167.843 63.5244 168.175 63.3855C168.322 63.3239 168.453 63.2297 168.595 63.1582C168.822 63.0449 169.074 62.9908 169.328 63.0013C169.385 63.0001 169.442 63.0135 169.492 63.0396C169.54 63.0739 169.577 63.121 169.599 63.1751C169.703 63.3959 169.717 63.6715 169.905 63.8296C169.995 63.9057 170.112 63.9417 170.22 63.99C170.735 64.2341 171.04 64.7689 170.985 65.328C170.96 65.4548 170.944 65.5826 170.938 65.7111C170.945 65.9936 171.133 66.2761 171.037 66.5429C170.966 66.7411 170.757 66.8585 170.553 66.9195C170.495 66.9428 170.43 66.9463 170.37 66.9288C170.266 66.887 170.244 66.7544 170.211 66.6481C170.114 66.3621 169.839 66.172 169.533 66.1778C169.295 66.1877 169.054 66.3197 168.829 66.2412C168.719 66.2028 168.632 66.1186 168.544 66.043C168.341 65.8686 168.1 65.7233 167.833 65.6861C167.566 65.6489 167.27 65.7378 167.113 65.9529C167.049 66.0401 167.011 66.1424 166.951 66.2313C166.406 67.0317 165.403 65.6495 165.627 65.0944L165.627 65.0955Z" fill="#36334A"/>
<path d="M166.854 78.9108C166.649 78.8846 166.444 78.9596 166.306 79.1119C165.789 79.5751 165.241 80.0977 165.148 80.7795C165.134 80.8417 165.141 80.9068 165.169 80.9643C165.219 81.0445 165.328 81.062 165.424 81.0637C165.912 81.0684 166.379 80.8655 166.705 80.5069C166.793 80.4081 166.875 80.2947 166.997 80.2389C167.108 80.1982 167.227 80.1837 167.345 80.1965C167.669 80.207 168.41 80.3703 168.692 80.2122C168.989 80.0459 168.908 79.524 168.769 79.2723C168.439 78.6742 167.416 78.9049 166.854 78.9113V78.9108Z" fill="#FBBEBE"/>
<path d="M174.069 73.8897C174.268 74.5186 174.151 75.2266 174.433 75.8242C174.62 76.2206 174.971 76.5403 175.08 76.964C175.183 77.3645 175.045 77.7958 174.803 78.1335C174.562 78.4712 174.226 78.7304 173.888 78.9763C173.519 79.2454 173.136 79.5082 172.7 79.6535C172.266 79.7988 171.801 79.8203 171.344 79.8412L168.308 79.9784L167.75 78.3294L169.727 77.5673C169.925 77.4912 170.127 77.4139 170.339 77.3982C170.705 77.3715 171.151 77.504 171.386 77.2261C171.461 77.1244 171.508 77.0053 171.524 76.8809C171.716 75.9119 171.549 74.8872 171.844 73.9438C171.99 73.477 172.412 72.5406 172.988 72.4581C173.597 72.3709 173.932 73.4538 174.07 73.8897H174.069Z" fill="#F5F4F4"/>
</g>
<defs>
<clipPath id="clip0_282_29856">
<rect width="433.31" height="315.48" fill="white"/>
</clipPath>
</defs>
</svg>
