<svg width="434" height="316" viewBox="0 0 434 316" fill="none" xmlns="http://www.w3.org/2000/svg">
<g clip-path="url(#clip0_282_31610)">
<path d="M277.12 102.09C279.44 99.58 282.39 97.62 284.91 95.28C285.62 94.62 286.59 94.31 287.56 94.02C290.41 93.17 292.32 90.77 292.51 88.11C292.59 86.99 291.77 86.47 291.02 85.98C286.42 82.97 282.62 79.23 278.55 75.73C276.69 74.13 275.34 72.24 274.63 70C273.88 67.62 271.36 66.55 269.52 64.98C266.67 62.54 263.13 61.43 259.28 60.84C255.89 60.32 253.48 57.39 254.34 53.14C254.96 50.05 256.56 47.32 258.06 44.54C259.32 42.22 260.39 39.86 261.16 37.37C261.53 36.18 261.14 35.41 260.07 34.9C259.79 34.76 259.45 34.57 259.08 34.48C256.28 33.82 254.76 32.27 254.76 29.65C254.76 28.88 254.17 28.44 253.34 28.21C252.07 27.86 250.98 27.21 249.85 26.61C247.5 25.36 247.51 23.19 246.96 21.1C245.18 20.97 243.53 20.89 242.03 22.26C240.66 23.51 238.6 23.39 236.75 23.55C234.44 23.75 231.8 25.45 231.76 27.68C231.75 28.28 231.71 28.81 232.06 29.28C232.27 29.58 232.32 29.92 232.64 30.2C235.61 32.91 235.86 36.38 236.17 39.87C236.39 42.39 234.64 43.78 232.65 45.06C230.32 46.56 227.56 47.38 225.05 48.62C224.09 49.09 223.09 49.53 222.22 50.11C220.03 51.56 219.57 52.85 220.6 55.11C221.35 56.75 222.17 58.41 223.47 59.76C226.33 62.75 227.66 66.14 227.53 70C227.5 70.77 227.8 71.33 228.3 72.01C230.2 74.62 232.88 76.19 236.14 77.19C239.37 78.19 241.97 79.71 242.97 82.9C243.47 84.49 245.2 85.62 246.83 86.26C250.77 87.81 252.55 90.45 252.94 94.03C252.95 94.15 252.91 94.28 252.94 94.39C254.22 98.72 254.48 98.33 258.46 97.61C260.37 97.26 261.92 97.42 262.79 99.22C263 99.65 263.74 99.89 263.96 100.32C265.06 102.48 267.03 102.87 269.3 102.24C270.53 101.9 271.35 102.42 272.16 102.86C273.05 103.34 273.66 104.2 274.74 104.68C275.26 103.67 275.25 102.23 277.11 102.28" fill="#D1FF00"/>
<path d="M247.874 69.4082C250.696 69.4082 252.983 66.8552 252.983 63.706C252.983 60.5568 250.696 58.0039 247.874 58.0039C245.051 58.0039 242.764 60.5568 242.764 63.706C242.764 66.8552 245.051 69.4082 247.874 69.4082Z" fill="#36334A"/>
<path d="M254.432 44.7321C253.204 45.2593 251.865 45.4877 250.529 45.3976C250.872 45.1564 251.092 44.7699 251.181 44.3641C251.269 43.9584 251.236 43.5347 251.144 43.1296C251.128 43.0831 251.128 43.0325 251.147 42.9871C251.185 42.9406 251.243 42.9139 251.303 42.9139C251.821 42.843 253.303 42.5349 253.697 42.9715C253.884 43.1778 253.812 43.5794 253.881 43.8317C253.909 43.9358 254.27 44.803 254.432 44.7327V44.7321Z" fill="#FBBEBE"/>
<path opacity="0.1" d="M254.432 44.7321C253.204 45.2593 251.865 45.4877 250.529 45.3976C250.872 45.1564 251.092 44.7699 251.181 44.3641C251.269 43.9584 251.236 43.5347 251.144 43.1296C251.128 43.0831 251.128 43.0325 251.147 42.9871C251.185 42.9406 251.243 42.9139 251.303 42.9139C251.821 42.843 253.303 42.5349 253.697 42.9715C253.884 43.1778 253.812 43.5794 253.881 43.8317C253.909 43.9358 254.27 44.803 254.432 44.7327V44.7321Z" fill="black"/>
<path d="M250.118 53.3887L242.439 53.6212C242.439 53.6212 235.646 60.1312 241.257 62.1075C241.257 62.1075 248.169 63.2119 249.823 61.9331C249.823 61.9331 251.89 53.9118 250.118 53.3887ZM249.764 55.5393L241.553 56.0624C241.553 56.0624 242.144 54.0862 244.506 54.0862C246.869 54.0862 249.527 53.563 249.764 54.7837C250 56.0043 249.764 55.5393 249.764 55.5393Z" fill="#3F3D56"/>
<path d="M244.064 52.3448C243.681 52.2873 243.265 52.2536 242.929 52.4448C242.818 52.5134 242.714 52.5942 242.62 52.6849C242.485 52.8069 242.351 52.9296 242.218 53.054C242.121 53.1446 242.02 53.2446 241.994 53.3742C241.943 53.6404 242.256 53.8555 242.531 53.8451C242.806 53.8346 243.053 53.6858 243.314 53.5963C243.838 53.4155 245.764 53.7241 245.869 53.1696C246.003 52.464 244.49 52.4123 244.064 52.346V52.3448Z" fill="#FBBEBE"/>
<path d="M247.654 51.9003C247.153 52.1508 246.608 52.3031 246.048 52.349C245.961 52.3502 245.875 52.3688 245.794 52.4025C245.746 52.4321 245.709 52.4763 245.688 52.5292C245.492 52.9343 245.37 53.3714 245.329 53.819C245.319 53.8626 245.335 53.9091 245.371 53.937C245.424 53.9637 245.484 53.9765 245.544 53.9753C246.463 54.0329 247.386 54.0637 248.311 54.0678C248.351 54.0707 248.393 54.0654 248.431 54.0515C248.458 54.0375 248.478 54.0131 248.487 53.9841C248.703 53.4528 248.806 52.8832 248.787 52.3112C248.763 51.6375 248.563 51.4265 247.655 51.9008L247.654 51.9003Z" fill="#D7E5F2"/>
<path d="M247.654 51.9003C247.153 52.1508 246.608 52.3031 246.048 52.349C245.961 52.3502 245.875 52.3688 245.794 52.4025C245.746 52.4321 245.709 52.4763 245.688 52.5292C245.492 52.9343 245.37 53.3714 245.329 53.819C245.319 53.8626 245.335 53.9091 245.371 53.937C245.424 53.9637 245.484 53.9765 245.544 53.9753C246.463 54.0329 247.386 54.0637 248.311 54.0678C248.351 54.0707 248.393 54.0654 248.431 54.0515C248.458 54.0375 248.478 54.0131 248.487 53.9841C248.703 53.4528 248.806 52.8832 248.787 52.3112C248.763 51.6375 248.563 51.4265 247.655 51.9008L247.654 51.9003Z" fill="#F5F4F4"/>
<path d="M257.975 57.9809L247.873 57.6322L250.236 47.809C250.236 47.809 259.688 47.1115 259.451 49.4946C259.215 51.8778 257.975 57.9809 257.975 57.9809Z" fill="#36334A"/>
<path d="M248.223 62.6759C248.223 62.6759 242.143 63.7344 239.958 60.5956C237.772 57.4568 248.228 59.1425 248.228 59.1425L249.114 61.5256L248.223 62.6759Z" fill="#36334A"/>
<path d="M246.397 75.9999C247.93 75.9999 249.173 74.7768 249.173 73.268C249.173 71.7592 247.93 70.5361 246.397 70.5361C244.863 70.5361 243.62 71.7592 243.62 73.268C243.62 74.7768 244.863 75.9999 246.397 75.9999Z" fill="#36334A"/>
<path d="M246.663 75.2436C247.625 75.2436 248.405 74.3588 248.405 73.2673C248.405 72.1758 247.625 71.291 246.663 71.291C245.7 71.291 244.92 72.1758 244.92 73.2673C244.92 74.3588 245.7 75.2436 246.663 75.2436Z" fill="#3F3D56"/>
<path d="M261.578 47.5186C261.578 47.5186 259.274 46.2399 259.156 49.2624L257.207 63.3288H258.034L260.279 48.2743C260.279 48.2743 261.401 48.4486 261.578 48.4486C261.755 48.4486 261.578 47.5186 261.578 47.5186Z" fill="#3F3D56"/>
<path d="M263.874 49.0705C263.792 49.36 263.487 49.5291 263.194 49.4489C263.17 49.4425 263.147 49.4344 263.125 49.4251L260.452 48.3009L260.937 47.25L263.571 48.4305C263.819 48.5416 263.947 48.813 263.874 49.0705H263.874Z" fill="#36334A"/>
<path d="M247.637 62.3397C247.637 62.3397 243.384 61.8747 242.202 65.8854C241.021 69.896 241.139 72.9767 240.135 72.7442C239.131 72.5117 237.004 71.6979 237.004 71.6979L237.181 72.9186C237.181 72.9186 240.903 74.7786 241.494 72.8023C242.084 70.8261 242.439 63.5604 245.806 63.7347C249.173 63.9091 249.764 63.5604 249.764 63.5604L247.637 62.3397Z" fill="#3F3D56"/>
<path d="M239.544 60.4219C239.544 60.4219 236.236 60.8288 234.937 63.2119C233.637 65.5951 232.987 69.8963 232.987 69.8963H234.228C234.228 69.8963 234.937 61.3519 238.658 61.8169L239.544 60.4219Z" fill="#3F3D56"/>
<path d="M237.3 73.7336L232.042 70.5367C232.042 70.5367 231.747 69.3742 235.114 68.9092C235.114 68.9092 241.48 71.0999 240.866 71.9224C240.253 72.7449 238.186 74.0242 237.3 73.7336Z" fill="#36334A"/>
<path d="M245.452 63.3282V70.1289H246.219V63.2119L245.452 63.3282Z" fill="#3F3D56"/>
<path d="M246.574 67.5127C246.574 67.5127 248.051 73.209 247.106 74.0228C247.106 74.0228 245.865 70.419 244.92 70.884L245.215 67.5127H246.574Z" fill="#36334A"/>
<path d="M252.304 43.7984C253.576 43.7984 254.608 42.7835 254.608 41.5315C254.608 40.2796 253.576 39.2646 252.304 39.2646C251.031 39.2646 250 40.2796 250 41.5315C250 42.7835 251.031 43.7984 252.304 43.7984Z" fill="#FBBEBE"/>
<path d="M251.868 44.9668C252.807 45.1238 253.619 44.049 254.56 44.2002C254.764 44.2414 254.96 44.317 255.138 44.4239C256.539 45.204 257.542 46.5263 257.904 48.0696C258.011 48.5357 258.052 49.0414 257.852 49.4768C257.746 49.7081 257.577 49.9058 257.409 50.0982C256.783 50.8143 256.096 51.5281 255.204 51.8745C255.116 52.1715 255.2 52.4935 255.305 52.7853C255.741 54.0036 255.047 55.3167 255.012 56.6077C255.006 56.8285 255.012 57.0703 254.872 57.243C254.716 57.4342 254.438 57.4685 254.189 57.4824C251.908 57.6092 249.63 57.2645 247.373 56.9215C247.313 56.9175 247.256 56.8983 247.207 56.8663C247.133 56.8082 247.121 56.7036 247.106 56.6117C247.022 56.124 247.463 55.7282 247.254 55.2777C246.895 54.5041 247.678 53.6578 247.904 52.8365C248.129 52.0151 248.218 51.871 248.376 51.0346C248.435 50.7219 248.265 49.7791 248.317 49.4652C248.487 48.4398 248.358 47.2715 248.908 46.3845C249.238 45.8515 249.152 45.4371 249.741 45.2051C250.363 44.9604 251.204 45.043 251.869 44.9668H251.868Z" fill="#F5F4F4"/>
<path d="M241.464 58.4862C240.777 58.617 240.046 58.7414 239.517 59.1925C239.194 59.468 238.977 59.8417 238.766 60.2079L236.613 63.9437C235.956 65.0829 235.299 66.2228 234.703 67.394C234.651 67.4794 234.621 67.5753 234.614 67.6747C234.617 67.8148 234.712 67.9346 234.81 68.0363C235.499 68.739 236.484 69.0796 237.468 68.9558C237.616 68.2014 238.345 67.7026 238.703 67.0191C238.899 66.6436 238.978 66.2216 239.104 65.8176C239.577 64.3128 240.699 63.1043 241.789 61.9505C242.304 61.4053 242.831 60.8502 243.494 60.4922C244.272 60.0725 245.175 59.9562 246.045 59.7819C246.914 59.6075 247.815 59.343 248.43 58.7135C248.959 58.1648 249.209 57.4109 249.112 56.6605C248.555 56.6222 247.935 56.5507 247.397 56.7274C246.773 56.932 246.169 57.2121 245.544 57.4214C244.21 57.8678 242.847 58.2235 241.464 58.4862H241.464Z" fill="#696880"/>
<path opacity="0.1" d="M241.464 58.4862C240.777 58.617 240.046 58.7414 239.517 59.1925C239.194 59.468 238.977 59.8417 238.766 60.2079L236.613 63.9437C235.956 65.0829 235.299 66.2228 234.703 67.394C234.651 67.4794 234.621 67.5753 234.614 67.6747C234.617 67.8148 234.712 67.9346 234.81 68.0363C235.499 68.739 236.484 69.0796 237.468 68.9558C237.616 68.2014 238.345 67.7026 238.703 67.0191C238.899 66.6436 238.978 66.2216 239.104 65.8176C239.577 64.3128 240.699 63.1043 241.789 61.9505C242.304 61.4053 242.831 60.8502 243.494 60.4922C244.272 60.0725 245.175 59.9562 246.045 59.7819C246.914 59.6075 247.815 59.343 248.43 58.7135C248.959 58.1648 249.209 57.4109 249.112 56.6605C248.555 56.6222 247.935 56.5507 247.397 56.7274C246.773 56.932 246.169 57.2121 245.544 57.4214C244.21 57.8678 242.847 58.2235 241.464 58.4862H241.464Z" fill="black"/>
<path d="M232.181 70.3316C232.104 70.3856 232.045 70.4606 232.012 70.5472C231.934 70.8094 232.267 70.9942 232.534 71.0698C233.133 71.2395 233.773 71.4098 234.371 71.2348C234.738 71.1273 235.057 70.8977 235.421 70.7826C235.962 70.6123 236.548 70.7088 237.106 70.807C237.231 70.1159 237.147 69.4033 236.865 68.7587C236.685 68.3518 235.968 68.1536 235.54 68.1356C235.073 68.1158 234.911 68.4553 234.641 68.7674C233.985 69.5277 232.938 69.7038 232.182 70.3316H232.181Z" fill="#3F3D56"/>
<path d="M241.903 59.5994C241.572 59.729 241.233 59.8633 240.974 60.1028C240.7 60.3556 240.54 60.7026 240.394 61.0432C239.962 62.0494 239.595 63.0811 239.293 64.132C239.141 64.6633 239.006 65.2004 238.801 65.7142C238.391 66.7395 237.697 67.7213 237.762 68.8204C237.762 68.9541 237.798 69.0849 237.868 69.2C237.961 69.3325 238.118 69.4029 238.268 69.4668L239.054 69.8022C239.476 69.9824 239.99 70.1556 240.367 69.8963C240.619 69.7231 240.719 69.4087 240.796 69.1151C241.07 68.0561 241.24 66.9564 241.732 65.9769C242.288 64.8696 243.228 63.9745 243.725 62.8411C243.796 62.6806 243.863 62.5086 244.001 62.3987C244.116 62.308 244.264 62.2732 244.407 62.2412C247.357 61.5803 250.374 61.2188 253.3 60.4631C253.716 60.3556 254.152 60.2283 254.449 59.922C254.861 59.4971 254.897 58.8513 254.91 58.2648C254.918 57.8975 254.917 57.4976 254.689 57.2064C254.432 56.8774 253.972 56.7908 253.553 56.7472C251.946 56.5809 250.463 56.8431 248.879 57.0349C247.431 57.2104 245.972 58.0149 244.62 58.5409C243.715 58.8932 242.81 59.2466 241.905 59.6006L241.903 59.5994Z" fill="#696880"/>
<path d="M238.268 70.1074C238.047 70.6236 237.808 71.163 237.36 71.5082C237.173 71.6524 236.931 71.7971 236.924 72.0308C236.916 72.2784 237.18 72.4417 237.417 72.5254C238.019 72.7393 238.705 72.7853 239.293 72.5347C239.696 72.3633 240.027 72.0674 240.351 71.7768C240.448 71.689 240.549 71.5966 240.595 71.4751C240.626 71.3722 240.635 71.2647 240.622 71.1583C240.583 70.5126 240.466 69.8738 240.273 69.2553C240.258 69.2065 238.987 69.0507 238.874 69.0798C238.519 69.171 238.404 69.7877 238.267 70.1074H238.268Z" fill="#3F3D56"/>
<path d="M258.034 55.1328L250.355 55.3653C250.355 55.3653 243.561 61.8754 249.173 63.8517C249.173 63.8517 256.085 64.956 257.739 63.6773C257.739 63.6773 259.806 55.6559 258.034 55.1328ZM257.68 57.2835L249.469 57.8066C249.469 57.8066 250.059 55.8303 252.422 55.8303C254.785 55.8303 257.443 55.3072 257.68 56.5278C257.916 57.7485 257.68 57.2835 257.68 57.2835Z" fill="#3F3D56"/>
<path d="M256.291 75.9991C260.549 75.9991 264 72.1476 264 67.3965C264 62.6455 260.549 58.7939 256.291 58.7939C252.034 58.7939 248.582 62.6455 248.582 67.3965C248.582 72.1476 252.034 75.9991 256.291 75.9991Z" fill="#36334A"/>
<path d="M256.646 73.7906C259.859 73.7906 262.464 70.928 262.464 67.3967C262.464 63.8655 259.859 61.0029 256.646 61.0029C253.432 61.0029 250.827 63.8655 250.827 67.3967C250.827 70.928 253.432 73.7906 256.646 73.7906Z" fill="#3F3D56"/>
<path d="M258.152 67.31C258.152 67.1984 258.141 67.0874 258.118 66.9781L262.464 64.8397L262.169 64.2003L257.779 66.305C257.734 66.2603 257.685 66.2202 257.633 66.1853H257.636L258.92 59.8996L257.785 59.874L257.03 66.0609L257.102 66.076C257.044 66.0877 256.987 66.1068 256.933 66.133L253.136 62.2979L252.599 63.0384L256.5 66.5695C256.402 66.7544 256.344 66.9566 256.328 67.1647L250.828 69.3741L250.71 70.3041L256.443 67.9314C256.497 68.0622 256.572 68.1825 256.667 68.2877L254.904 74.1985H255.553L257.034 68.5283C257.099 68.5493 257.168 68.5597 257.237 68.5603C257.371 68.5592 257.5 68.5208 257.613 68.4493L260.693 72.4547L261.638 71.8153L258.029 67.936C258.111 67.7378 258.153 67.5251 258.153 67.3106L258.152 67.31Z" fill="#36334A"/>
<path d="M249.627 40.0955C249.731 39.8386 250.066 39.7323 250.176 39.4771C250.294 39.2033 250.109 38.8546 250.27 38.6023C250.432 38.3483 250.81 38.3779 251.111 38.4273C251.466 38.4855 251.843 38.5244 252.175 38.3855C252.322 38.3239 252.453 38.2297 252.595 38.1582C252.822 38.0449 253.074 37.9908 253.328 38.0013C253.386 38.0001 253.442 38.0135 253.492 38.0396C253.54 38.0739 253.577 38.121 253.599 38.1751C253.703 38.3959 253.717 38.6715 253.905 38.8296C253.995 38.9057 254.112 38.9417 254.22 38.99C254.735 39.2341 255.04 39.7689 254.985 40.328C254.96 40.4548 254.944 40.5826 254.938 40.7111C254.945 40.9936 255.133 41.2761 255.037 41.5429C254.966 41.7411 254.757 41.8585 254.553 41.9195C254.495 41.9428 254.43 41.9463 254.37 41.9288C254.266 41.887 254.244 41.7544 254.211 41.6481C254.114 41.3621 253.839 41.172 253.533 41.1778C253.295 41.1877 253.054 41.3197 252.829 41.2412C252.719 41.2028 252.632 41.1186 252.544 41.043C252.341 40.8686 252.1 40.7233 251.833 40.6861C251.566 40.6489 251.27 40.7378 251.113 40.9529C251.049 41.0401 251.011 41.1424 250.951 41.2313C250.406 42.0317 249.403 40.6495 249.627 40.0944L249.627 40.0955Z" fill="#36334A"/>
<path d="M250.854 53.9108C250.649 53.8846 250.444 53.9596 250.306 54.1119C249.789 54.5751 249.241 55.0977 249.148 55.7795C249.134 55.8417 249.141 55.9068 249.169 55.9643C249.219 56.0445 249.328 56.062 249.424 56.0637C249.912 56.0684 250.379 55.8655 250.705 55.5069C250.793 55.4081 250.875 55.2947 250.997 55.2389C251.108 55.1982 251.227 55.1837 251.345 55.1965C251.669 55.207 252.41 55.3703 252.692 55.2122C252.989 55.0459 252.908 54.524 252.769 54.2723C252.439 53.6742 251.416 53.9049 250.854 53.9113V53.9108Z" fill="#FBBEBE"/>
<path d="M258.069 48.8897C258.268 49.5186 258.151 50.2266 258.433 50.8242C258.62 51.2206 258.971 51.5403 259.08 51.964C259.183 52.3645 259.045 52.7958 258.803 53.1335C258.562 53.4712 258.226 53.7304 257.888 53.9763C257.519 54.2454 257.136 54.5082 256.7 54.6535C256.266 54.7988 255.801 54.8203 255.344 54.8412L252.308 54.9784L251.75 53.3294L253.727 52.5673C253.925 52.4912 254.127 52.4139 254.339 52.3982C254.705 52.3715 255.151 52.504 255.386 52.2261C255.461 52.1244 255.508 52.0053 255.524 51.8809C255.716 50.9119 255.549 49.8872 255.844 48.9438C255.99 48.477 256.412 47.5406 256.988 47.4581C257.597 47.3709 257.932 48.4538 258.07 48.8897H258.069Z" fill="#F5F4F4"/>
</g>
<defs>
<clipPath id="clip0_282_31610">
<rect width="433.31" height="315.48" fill="white"/>
</clipPath>
</defs>
</svg>
