<svg width="434" height="316" viewBox="0 0 434 316" fill="none" xmlns="http://www.w3.org/2000/svg">
<g clip-path="url(#clip0_282_9684)">
<path d="M129.22 178.46C128.26 177.86 127.4 177.04 126.34 176.71C122.55 175.54 119.86 173.07 117.19 170.71C113.16 167.14 108.53 164.48 103.43 162.3C101.41 161.44 99.44 160.44 97.85 158.95C97.25 158.38 97.09 157.85 97.04 157.13C96.88 155.22 96.4 153.37 95.67 151.56C95.34 150.75 94.9 150.54 93.99 150.48C90.61 150.26 87.55 149.38 85.17 147.1C82.83 144.85 79.9 143.48 76.59 142.57C75.37 142.23 74.3 141.6 73.42 140.51C71.54 138.18 68.48 136.86 66.12 134.9C62.09 131.55 57.29 129.1 52.77 126.34C50.85 125.17 49.66 123.54 48.15 122.13C47.02 121.08 45.98 119.99 44.65 119.09C42.03 117.32 39 117.94 37.21 120.53C36.08 122.16 36.62 123.91 36.3 125.58C36.19 126.15 36.37 126.88 36.44 127.54C36.58 128.82 37.05 129.89 38.69 130.24C39.19 130.35 39.68 130.54 40.12 130.77C41.76 131.63 41.96 132.45 40.73 133.62C39.49 134.8 38.33 136.17 36.81 136.97C34.49 138.19 33.54 140.06 32.8 142.07C32.15 143.81 31.3 145.42 30.09 147.04C26.97 145.85 24.6 146.49 22.66 149.01C21.78 150.15 20.14 150.86 18.84 151.74C17.69 152.52 17.33 153.33 17.97 154.63C18.72 156.14 18.3 156.61 16.38 157.12C15.49 157.36 14.55 157.5 13.73 157.86C11.76 158.71 11.16 160.39 12.31 162.13C13.37 163.73 14.48 165.28 14.83 167.34H8.07004C7.93004 168.54 7.67004 169.56 9.08004 170.18C8.00004 170.71 7.12004 171.24 5.72004 170.98C2.95004 170.45 2.33004 170.79 0.0400391 173.06C4.35004 176.15 8.57004 179.31 13.72 181.33C14.47 181.63 15.3 181.84 15.96 182.24C17.71 183.32 19.64 183.63 21.71 183.48C23.9 183.32 25.48 184.1 26.88 185.6C28.16 186.97 29.35 188.4 30.88 189.63C32.67 191.07 34.5 191.11 36.45 190.45C39.7 189.35 42.81 187.9 46.11 186.93C50.39 185.68 54.47 186.54 58.15 188.71C58.91 189.16 59.67 189.64 60.53 190.23C61.94 188.63 62.81 186.98 62.93 184.91C63.16 180.82 65.18 180.11 67.81 180.2C68.45 180.22 68.86 180.59 69.44 180.63C69.66 180.64 69.87 180.95 70.05 181.14C71.41 182.52 73.54 183.44 74.07 185.28C74.49 186.75 72.85 187.87 72.29 189.21C71.72 190.57 71.76 191.82 73.12 192.79C77.08 195.6 79.42 199.22 80.52 203.55C80.93 205.15 82.8 205.25 84.19 205.67C85.7 206.13 87.31 206.34 88.8 206.64C89.6 206.24 89.59 205.52 89.9 204.98C91.13 202.82 92.53 202.09 95.24 202.5C96.61 202.7 97.95 203.03 99.45 202.65C98.82 201.07 98.96 199.54 100.59 198.56C102.82 197.22 102.66 195.4 102.19 193.51C101.22 189.67 100.12 185.86 99.15 182.03C98.43 179.18 100.97 176.86 104.25 177.39C107 177.83 109.61 178.73 112.01 179.92C115.5 181.66 119.31 182.52 123.1 183.44C125.58 184.05 126.57 183.5 128.03 181.32C128.6 180.47 129.02 179.61 129.04 178.62" fill="#D1FF00"/>
<path d="M57.8735 166.408C60.6955 166.408 62.9832 163.855 62.9832 160.706C62.9832 157.557 60.6955 155.004 57.8735 155.004C55.0515 155.004 52.7638 157.557 52.7638 160.706C52.7638 163.855 55.0515 166.408 57.8735 166.408Z" fill="#36334A"/>
<path d="M64.4321 141.732C63.204 142.259 61.8655 142.488 60.5287 142.398C60.8719 142.156 61.0922 141.77 61.1808 141.364C61.2694 140.958 61.2358 140.535 61.1442 140.13C61.1277 140.083 61.1283 140.032 61.1472 139.987C61.185 139.941 61.2429 139.914 61.3031 139.914C61.8206 139.843 63.3033 139.535 63.6973 139.971C63.884 140.178 63.8125 140.579 63.881 140.832C63.9094 140.936 64.2697 141.803 64.4321 141.733V141.732Z" fill="#FBBEBE"/>
<path opacity="0.1" d="M64.4321 141.732C63.204 142.259 61.8655 142.488 60.5287 142.398C60.8719 142.156 61.0922 141.77 61.1808 141.364C61.2694 140.958 61.2358 140.535 61.1442 140.13C61.1277 140.083 61.1283 140.032 61.1472 139.987C61.185 139.941 61.2429 139.914 61.3031 139.914C61.8206 139.843 63.3033 139.535 63.6973 139.971C63.884 140.178 63.8125 140.579 63.881 140.832C63.9094 140.936 64.2697 141.803 64.4321 141.733V141.732Z" fill="black"/>
<path d="M60.1182 150.389L52.4389 150.621C52.4389 150.621 45.6456 157.131 51.2574 159.108C51.2574 159.108 58.1688 160.212 59.8228 158.933C59.8228 158.933 61.8904 150.912 60.1182 150.389ZM59.7638 152.539L51.5528 153.062C51.5528 153.062 52.1435 151.086 54.5064 151.086C56.8693 151.086 59.5275 150.563 59.7638 151.784C60.0001 153.004 59.7638 152.539 59.7638 152.539Z" fill="#3F3D56"/>
<path d="M54.064 149.345C53.6812 149.287 53.2647 149.254 52.9292 149.445C52.8176 149.513 52.7136 149.594 52.6197 149.685C52.485 149.807 52.3509 149.93 52.218 150.054C52.1211 150.145 52.0195 150.245 51.9941 150.374C51.9427 150.64 52.2558 150.856 52.5311 150.845C52.8063 150.835 53.0533 150.686 53.3138 150.596C53.8377 150.416 55.7641 150.724 55.8692 150.17C56.0033 149.464 54.4899 149.412 54.064 149.346V149.345Z" fill="#FBBEBE"/>
<path d="M57.6544 148.9C57.1534 149.151 56.6082 149.303 56.0482 149.349C55.9608 149.35 55.8745 149.369 55.7942 149.402C55.7457 149.432 55.7085 149.476 55.6884 149.529C55.4917 149.934 55.3701 150.371 55.3293 150.819C55.3187 150.863 55.3346 150.909 55.3706 150.937C55.4244 150.964 55.4841 150.977 55.5443 150.975C56.4635 151.033 57.3856 151.064 58.3106 151.068C58.3514 151.071 58.3928 151.065 58.4312 151.051C58.4583 151.038 58.4778 151.013 58.4867 150.984C58.7035 150.453 58.8063 149.883 58.7874 149.311C58.7631 148.638 58.5629 148.427 57.6549 148.901L57.6544 148.9Z" fill="#D7E5F2"/>
<path d="M57.6544 148.9C57.1534 149.151 56.6082 149.303 56.0482 149.349C55.9608 149.35 55.8745 149.369 55.7942 149.402C55.7457 149.432 55.7085 149.476 55.6884 149.529C55.4917 149.934 55.3701 150.371 55.3293 150.819C55.3187 150.863 55.3346 150.909 55.3706 150.937C55.4244 150.964 55.4841 150.977 55.5443 150.975C56.4635 151.033 57.3856 151.064 58.3106 151.068C58.3514 151.071 58.3928 151.065 58.4312 151.051C58.4583 151.038 58.4778 151.013 58.4867 150.984C58.7035 150.453 58.8063 149.883 58.7874 149.311C58.7631 148.638 58.5629 148.427 57.6549 148.901L57.6544 148.9Z" fill="#F5F4F4"/>
<path d="M67.9747 154.981L57.8734 154.632L60.2363 144.809C60.2363 144.809 69.6878 144.111 69.4515 146.495C69.2152 148.878 67.9747 154.981 67.9747 154.981Z" fill="#36334A"/>
<path d="M58.2231 159.676C58.2231 159.676 52.1435 160.734 49.9578 157.596C47.7721 154.457 58.2278 156.142 58.2278 156.142L59.1139 158.526L58.2231 159.676Z" fill="#36334A"/>
<path d="M56.3966 173C57.93 173 59.173 171.777 59.173 170.268C59.173 168.759 57.93 167.536 56.3966 167.536C54.8633 167.536 53.6202 168.759 53.6202 170.268C53.6202 171.777 54.8633 173 56.3966 173Z" fill="#36334A"/>
<path d="M56.6625 172.244C57.625 172.244 58.4052 171.359 58.4052 170.267C58.4052 169.176 57.625 168.291 56.6625 168.291C55.7001 168.291 54.9199 169.176 54.9199 170.267C54.9199 171.359 55.7001 172.244 56.6625 172.244Z" fill="#3F3D56"/>
<path d="M71.5781 144.519C71.5781 144.519 69.2743 143.24 69.1562 146.262L67.2068 160.329H68.0338L70.2785 145.274C70.2785 145.274 71.4009 145.449 71.5781 145.449C71.7553 145.449 71.5781 144.519 71.5781 144.519Z" fill="#3F3D56"/>
<path d="M73.8736 146.07C73.7921 146.36 73.4873 146.529 73.1937 146.449C73.17 146.442 73.147 146.434 73.1246 146.425L70.4521 145.301L70.9371 144.25L73.5711 145.431C73.8186 145.542 73.9474 145.813 73.8742 146.07H73.8736Z" fill="#36334A"/>
<path d="M57.6371 159.34C57.6371 159.34 53.3839 158.875 52.2025 162.885C51.021 166.896 51.1392 169.977 50.135 169.744C49.1307 169.512 47.0042 168.698 47.0042 168.698L47.1814 169.919C47.1814 169.919 50.9029 171.779 51.4936 169.802C52.0843 167.826 52.4388 160.56 55.8058 160.735C59.1729 160.909 59.7636 160.56 59.7636 160.56L57.6371 159.34Z" fill="#3F3D56"/>
<path d="M49.5444 157.422C49.5444 157.422 46.2364 157.829 44.9368 160.212C43.6372 162.595 42.9874 166.896 42.9874 166.896H44.2279C44.2279 166.896 44.9368 158.352 48.6583 158.817L49.5444 157.422Z" fill="#3F3D56"/>
<path d="M47.2996 170.734L42.0422 167.537C42.0422 167.537 41.7469 166.374 45.114 165.909C45.114 165.909 51.4801 168.1 50.8664 168.922C50.2526 169.745 48.1857 171.024 47.2996 170.734Z" fill="#36334A"/>
<path d="M55.4515 160.328V167.129H56.2187V160.212L55.4515 160.328Z" fill="#3F3D56"/>
<path d="M56.5739 164.513C56.5739 164.513 58.0507 170.209 57.1056 171.023C57.1056 171.023 55.8651 167.419 54.9199 167.884L55.2153 164.513H56.5739Z" fill="#36334A"/>
<path d="M62.3038 140.798C63.5762 140.798 64.6076 139.784 64.6076 138.532C64.6076 137.28 63.5762 136.265 62.3038 136.265C61.0314 136.265 60 137.28 60 138.532C60 139.784 61.0314 140.798 62.3038 140.798Z" fill="#FBBEBE"/>
<path d="M61.8679 141.967C62.8071 142.124 63.6193 141.049 64.5598 141.2C64.7642 141.241 64.9603 141.317 65.1381 141.424C66.5387 142.204 67.5423 143.526 67.9044 145.07C68.0107 145.536 68.0515 146.041 67.8518 146.477C67.7455 146.708 67.5772 146.906 67.4088 147.098C66.7832 147.814 66.0962 148.528 65.2037 148.874C65.1162 149.172 65.2001 149.494 65.3047 149.785C65.7412 151.004 65.0471 152.317 65.0117 153.608C65.0058 153.829 65.0123 154.07 64.8723 154.243C64.7163 154.434 64.4381 154.468 64.1894 154.482C61.908 154.609 59.6302 154.264 57.3725 153.922C57.3134 153.917 57.2561 153.898 57.2071 153.866C57.1327 153.808 57.1215 153.704 57.1061 153.612C57.0222 153.124 57.4629 152.728 57.2538 152.278C56.8946 151.504 57.6779 150.658 57.9036 149.836C58.1292 149.015 58.2184 148.871 58.3761 148.035C58.4352 147.722 58.2651 146.779 58.3171 146.465C58.4866 145.44 58.3584 144.272 58.9078 143.385C59.238 142.852 59.1523 142.437 59.7413 142.205C60.3627 141.96 61.2039 142.043 61.8691 141.967H61.8679Z" fill="#F5F4F4"/>
<path d="M51.4642 155.486C50.7766 155.617 50.0465 155.741 49.5172 156.192C49.1941 156.468 48.9767 156.842 48.7658 157.208L46.6127 160.944C45.9558 162.083 45.2989 163.223 44.7035 164.394C44.6515 164.479 44.6208 164.575 44.6143 164.675C44.6166 164.815 44.7123 164.935 44.8098 165.036C45.4986 165.739 46.4845 166.08 47.468 165.956C47.6163 165.201 48.3452 164.703 48.7026 164.019C48.8987 163.644 48.9779 163.222 49.1043 162.818C49.5769 161.313 50.6992 160.104 51.7885 158.951C52.3036 158.405 52.8305 157.85 53.4939 157.492C54.2719 157.072 55.1751 156.956 56.0446 156.782C56.9142 156.607 57.815 156.343 58.43 155.714C58.9586 155.165 59.2091 154.411 59.1122 153.661C58.5552 153.622 57.9349 153.551 57.3974 153.727C56.773 153.932 56.1693 154.212 55.5443 154.421C54.2105 154.868 52.8471 155.224 51.4636 155.486H51.4642Z" fill="#696880"/>
<path opacity="0.1" d="M51.4642 155.486C50.7766 155.617 50.0465 155.741 49.5172 156.192C49.1941 156.468 48.9767 156.842 48.7658 157.208L46.6127 160.944C45.9558 162.083 45.2989 163.223 44.7035 164.394C44.6515 164.479 44.6208 164.575 44.6143 164.675C44.6166 164.815 44.7123 164.935 44.8098 165.036C45.4986 165.739 46.4845 166.08 47.468 165.956C47.6163 165.201 48.3452 164.703 48.7026 164.019C48.8987 163.644 48.9779 163.222 49.1043 162.818C49.5769 161.313 50.6992 160.104 51.7885 158.951C52.3036 158.405 52.8305 157.85 53.4939 157.492C54.2719 157.072 55.1751 156.956 56.0446 156.782C56.9142 156.607 57.815 156.343 58.43 155.714C58.9586 155.165 59.2091 154.411 59.1122 153.661C58.5552 153.622 57.9349 153.551 57.3974 153.727C56.773 153.932 56.1693 154.212 55.5443 154.421C54.2105 154.868 52.8471 155.224 51.4636 155.486H51.4642Z" fill="black"/>
<path d="M42.1811 167.332C42.1043 167.386 42.0452 167.461 42.0115 167.547C41.9336 167.809 42.2667 167.994 42.5337 168.07C43.1333 168.239 43.7731 168.41 44.3709 168.235C44.7377 168.127 45.0567 167.898 45.4212 167.783C45.9617 167.612 46.5477 167.709 47.1065 167.807C47.2311 167.116 47.1472 166.403 46.8649 165.759C46.6853 165.352 45.9676 165.154 45.5405 165.136C45.0732 165.116 44.9114 165.455 44.6414 165.767C43.9845 166.528 42.9384 166.704 42.1817 167.332H42.1811Z" fill="#3F3D56"/>
<path d="M51.9025 156.599C51.5723 156.729 51.2332 156.863 50.9739 157.103C50.7004 157.356 50.5397 157.703 50.3938 158.043C49.962 159.049 49.5946 160.081 49.2933 161.132C49.1409 161.663 49.0057 162.2 48.8007 162.714C48.3913 163.74 47.6972 164.721 47.7622 165.82C47.7622 165.954 47.7982 166.085 47.8679 166.2C47.9607 166.333 48.1184 166.403 48.2684 166.467L49.0541 166.802C49.4759 166.982 49.9898 167.156 50.3667 166.896C50.6189 166.723 50.7193 166.409 50.7955 166.115C51.0702 165.056 51.2397 163.956 51.7318 162.977C52.2877 161.87 53.2281 160.975 53.7255 159.841C53.7958 159.681 53.8625 159.509 54.0013 159.399C54.1159 159.308 54.2642 159.273 54.4072 159.241C57.3572 158.58 60.374 158.219 63.3004 157.463C63.7163 157.356 64.1516 157.228 64.4488 156.922C64.8605 156.497 64.8971 155.851 64.9101 155.265C64.9184 154.897 64.9166 154.498 64.6892 154.206C64.4322 153.877 63.9721 153.791 63.5532 153.747C61.9459 153.581 60.4632 153.843 58.8795 154.035C57.4311 154.21 55.972 155.015 54.6204 155.541C53.7149 155.893 52.8099 156.247 51.9049 156.601L51.9025 156.599Z" fill="#696880"/>
<path d="M48.2678 167.107C48.0468 167.624 47.8082 168.163 47.3604 168.508C47.1732 168.652 46.931 168.797 46.9239 169.031C46.9162 169.278 47.1802 169.442 47.4165 169.525C48.0191 169.739 48.7055 169.785 49.2932 169.535C49.6955 169.363 50.0269 169.067 50.3506 168.777C50.4481 168.689 50.5491 168.597 50.5946 168.475C50.6259 168.372 50.6353 168.265 50.6218 168.158C50.5828 167.513 50.4658 166.874 50.2732 166.255C50.2585 166.206 48.9872 166.051 48.8744 166.08C48.5194 166.171 48.4042 166.788 48.2672 167.107H48.2678Z" fill="#3F3D56"/>
<path d="M68.034 152.133L60.3546 152.365C60.3546 152.365 53.5614 158.875 59.1732 160.852C59.1732 160.852 66.0846 161.956 67.7386 160.677C67.7386 160.677 69.8061 152.656 68.034 152.133ZM67.6795 154.283L59.4686 154.807C59.4686 154.807 60.0593 152.83 62.4222 152.83C64.785 152.83 67.4433 152.307 67.6795 153.528C67.9158 154.748 67.6795 154.283 67.6795 154.283Z" fill="#3F3D56"/>
<path d="M66.2911 172.999C70.5486 172.999 74 169.148 74 164.397C74 159.645 70.5486 155.794 66.2911 155.794C62.0337 155.794 58.5823 159.645 58.5823 164.397C58.5823 169.148 62.0337 172.999 66.2911 172.999Z" fill="#36334A"/>
<path d="M66.6457 170.791C69.8592 170.791 72.4643 167.928 72.4643 164.397C72.4643 160.866 69.8592 158.003 66.6457 158.003C63.4322 158.003 60.8271 160.866 60.8271 164.397C60.8271 167.928 63.4322 170.791 66.6457 170.791Z" fill="#3F3D56"/>
<path d="M68.152 164.31C68.152 164.198 68.1408 164.087 68.1184 163.978L72.4643 161.84L72.1689 161.2L67.7787 163.305C67.7344 163.26 67.6854 163.22 67.6328 163.185H67.6363L68.92 156.9L67.7846 156.874L67.0297 163.061L67.1023 163.076C67.0439 163.088 66.9866 163.107 66.9328 163.133L63.1357 159.298L62.5993 160.038L66.5004 163.57C66.4023 163.754 66.3439 163.957 66.3279 164.165L60.8277 166.374L60.7096 167.304L66.4431 164.931C66.4969 165.062 66.5725 165.182 66.667 165.288L64.9037 171.198H65.5535L67.0338 165.528C67.0994 165.549 67.1679 165.56 67.237 165.56C67.3705 165.559 67.5005 165.521 67.6127 165.449L70.6927 169.455L71.6379 168.815L68.0286 164.936C68.1113 164.738 68.1532 164.525 68.1526 164.311L68.152 164.31Z" fill="#36334A"/>
<path d="M59.6267 137.096C59.7307 136.839 60.0662 136.732 60.1761 136.477C60.2942 136.203 60.1087 135.855 60.27 135.602C60.4319 135.348 60.8099 135.378 61.1106 135.427C61.4656 135.485 61.8431 135.524 62.1745 135.385C62.3216 135.324 62.4527 135.23 62.5951 135.158C62.8219 135.045 63.0741 134.991 63.3282 135.001C63.3855 135 63.4422 135.013 63.4924 135.04C63.5402 135.074 63.5774 135.121 63.5993 135.175C63.7027 135.396 63.7174 135.671 63.9053 135.83C63.9951 135.906 64.112 135.942 64.2201 135.99C64.7347 136.234 65.0401 136.769 64.9845 137.328C64.9597 137.455 64.9444 137.583 64.9379 137.711C64.9449 137.994 65.1328 138.276 65.0371 138.543C64.9656 138.741 64.7571 138.858 64.5527 138.92C64.4948 138.943 64.4304 138.946 64.3702 138.929C64.2656 138.887 64.2444 138.754 64.2107 138.648C64.1138 138.362 63.8391 138.172 63.5331 138.178C63.2951 138.188 63.0535 138.32 62.829 138.241C62.7185 138.203 62.6323 138.119 62.5437 138.043C62.3405 137.869 62.1001 137.723 61.833 137.686C61.566 137.649 61.2701 137.738 61.113 137.953C61.0492 138.04 61.0108 138.142 60.9505 138.231C60.4059 139.032 59.4028 137.649 59.6273 137.094L59.6267 137.096Z" fill="#36334A"/>
<path d="M60.8543 150.911C60.6493 150.885 60.4437 150.96 60.3061 151.112C59.7892 151.575 59.241 152.098 59.1477 152.779C59.1335 152.842 59.1412 152.907 59.169 152.964C59.2186 153.045 59.3285 153.062 59.4236 153.064C59.9121 153.068 60.3794 152.866 60.7048 152.507C60.7934 152.408 60.875 152.295 60.9967 152.239C61.1077 152.198 61.227 152.184 61.3446 152.196C61.6689 152.207 62.4096 152.37 62.692 152.212C62.9891 152.046 62.9076 151.524 62.7688 151.272C62.4386 150.674 61.4161 150.905 60.8543 150.911V150.911Z" fill="#FBBEBE"/>
<path d="M68.0691 145.89C68.2676 146.519 68.1512 147.227 68.433 147.824C68.6197 148.221 68.9712 148.54 69.0798 148.964C69.1826 149.364 69.045 149.796 68.8034 150.133C68.5618 150.471 68.2257 150.73 67.8884 150.976C67.5192 151.245 67.1358 151.508 66.7004 151.653C66.2663 151.799 65.8014 151.82 65.3436 151.841L62.3085 151.978L61.7496 150.329L63.7274 149.567C63.9252 149.491 64.1267 149.414 64.3387 149.398C64.705 149.371 65.151 149.504 65.3861 149.226C65.4605 149.124 65.5084 149.005 65.5243 148.881C65.7163 147.912 65.5491 146.887 65.8445 145.944C65.9904 145.477 66.4122 144.541 66.9875 144.458C67.5971 144.371 67.9321 145.454 68.0697 145.89H68.0691Z" fill="#F5F4F4"/>
</g>
<defs>
<clipPath id="clip0_282_9684">
<rect width="433.31" height="315.48" fill="white"/>
</clipPath>
</defs>
</svg>
