<svg width="434" height="316" viewBox="0 0 434 316" fill="none" xmlns="http://www.w3.org/2000/svg">
<g clip-path="url(#clip0_282_19332)">
<path d="M369.48 270.99C367.58 268.23 365.66 265.47 364.61 262.37C364.07 260.78 362.82 259.82 361.45 259.02C359.95 258.15 359.3 257.16 358.94 255.58C358.11 251.97 355.74 248.88 353.71 245.7C353.32 245.09 352.56 245.02 352.06 245.03C347.46 245.12 343.91 242.89 340.17 241.05C334.66 238.34 329 236 322.78 234.71C318.29 233.78 316.27 230.46 315.24 226.87C313.9 222.23 313.66 217.48 314.37 212.72C314.67 210.71 314.18 209.09 311.93 208.03C309.39 206.84 307.01 205.39 304.51 204.16C301.9 202.88 299.56 201.38 297.59 199.44C296.14 198.01 294.37 197.25 292.25 196.93C288.05 196.29 284.11 194.89 280.16 193.53C276.56 192.29 273.45 192.8 270.5 195.11C267.25 197.65 264.03 200.24 260.51 202.51C259.78 202.98 259.2 203.63 258.59 204.17C259.79 206.27 261.07 208.14 262.69 209.89C264.44 211.78 265.17 214.14 265.25 216.66C265.37 220.45 266.88 223.99 268.56 227.4C271.4 233.17 273.88 239.03 276.08 245C277.04 247.61 278.67 249.79 281.39 251.3C282.18 251.74 283.08 252.17 283.86 252.12C287.63 251.92 289.06 254.52 291 256.5C291.3 256.8 291.21 257.43 291.23 257.91C291.26 258.81 291.23 259.7 291.23 260.6C291.23 263.66 291.23 263.67 294.51 264.72C296.26 265.28 297.41 266.19 297.39 267.95C297.38 268.87 297.71 269.4 299.01 269.62C301.74 270.07 304.47 270.07 307.22 270.12C308.08 270.14 308.39 269.59 308.85 269.2C311.43 267.04 313.82 264.7 316.62 262.73C317.82 261.88 318.84 261.76 319.91 262.75C321.86 264.56 323.59 265.01 326.36 263.41C328.6 262.12 331.62 262.95 334.25 263.64C334.99 263.83 335.12 264.39 335.26 264.9C335.4 265.42 335.53 265.98 335.46 266.51C334.92 270.5 337.25 272.9 341.24 274.17C342.7 274.64 343.65 275.11 343.7 276.55C343.71 276.97 343.91 277.41 344.1 277.8C344.68 278.99 345.24 279.71 347.11 280.13C349.96 280.77 351.95 280.18 354.14 278.9C356.06 277.78 356.5 277.94 358.01 279.59C359.53 281.25 363.49 281.24 364.99 279.59C365.16 279.41 365.24 279.23 365.18 279.05C364.35 276.61 366.64 275.96 368.26 274.92C368.66 274.66 369.32 274.75 369.46 274.16C369.7 273.18 367.97 272.25 369.29 271.16" fill="#D1FF00"/>
<path d="M293.874 236.408C296.696 236.408 298.983 233.855 298.983 230.706C298.983 227.557 296.696 225.004 293.874 225.004C291.051 225.004 288.764 227.557 288.764 230.706C288.764 233.855 291.051 236.408 293.874 236.408Z" fill="#36334A"/>
<path d="M300.432 211.732C299.204 212.259 297.865 212.488 296.529 212.398C296.872 212.156 297.092 211.77 297.181 211.364C297.269 210.958 297.236 210.535 297.144 210.13C297.128 210.083 297.128 210.032 297.147 209.987C297.185 209.941 297.243 209.914 297.303 209.914C297.821 209.843 299.303 209.535 299.697 209.971C299.884 210.178 299.812 210.579 299.881 210.832C299.909 210.936 300.27 211.803 300.432 211.733V211.732Z" fill="#FBBEBE"/>
<path opacity="0.1" d="M300.432 211.732C299.204 212.259 297.865 212.488 296.529 212.398C296.872 212.156 297.092 211.77 297.181 211.364C297.269 210.958 297.236 210.535 297.144 210.13C297.128 210.083 297.128 210.032 297.147 209.987C297.185 209.941 297.243 209.914 297.303 209.914C297.821 209.843 299.303 209.535 299.697 209.971C299.884 210.178 299.812 210.579 299.881 210.832C299.909 210.936 300.27 211.803 300.432 211.733V211.732Z" fill="black"/>
<path d="M296.118 220.389L288.439 220.621C288.439 220.621 281.646 227.131 287.257 229.108C287.257 229.108 294.169 230.212 295.823 228.933C295.823 228.933 297.89 220.912 296.118 220.389ZM295.764 222.539L287.553 223.062C287.553 223.062 288.144 221.086 290.506 221.086C292.869 221.086 295.527 220.563 295.764 221.784C296 223.004 295.764 222.539 295.764 222.539Z" fill="#3F3D56"/>
<path d="M290.064 219.345C289.681 219.287 289.265 219.254 288.929 219.445C288.818 219.513 288.714 219.594 288.62 219.685C288.485 219.807 288.351 219.93 288.218 220.054C288.121 220.145 288.02 220.245 287.994 220.374C287.943 220.64 288.256 220.856 288.531 220.845C288.806 220.835 289.053 220.686 289.314 220.596C289.838 220.416 291.764 220.724 291.869 220.17C292.003 219.464 290.49 219.412 290.064 219.346V219.345Z" fill="#FBBEBE"/>
<path d="M293.654 218.9C293.153 219.151 292.608 219.303 292.048 219.349C291.961 219.35 291.875 219.369 291.794 219.402C291.746 219.432 291.709 219.476 291.688 219.529C291.492 219.934 291.37 220.371 291.329 220.819C291.319 220.863 291.335 220.909 291.371 220.937C291.424 220.964 291.484 220.977 291.544 220.975C292.463 221.033 293.386 221.064 294.311 221.068C294.351 221.071 294.393 221.065 294.431 221.051C294.458 221.038 294.478 221.013 294.487 220.984C294.703 220.453 294.806 219.883 294.787 219.311C294.763 218.638 294.563 218.427 293.655 218.901L293.654 218.9Z" fill="#D7E5F2"/>
<path d="M293.654 218.9C293.153 219.151 292.608 219.303 292.048 219.349C291.961 219.35 291.875 219.369 291.794 219.402C291.746 219.432 291.709 219.476 291.688 219.529C291.492 219.934 291.37 220.371 291.329 220.819C291.319 220.863 291.335 220.909 291.371 220.937C291.424 220.964 291.484 220.977 291.544 220.975C292.463 221.033 293.386 221.064 294.311 221.068C294.351 221.071 294.393 221.065 294.431 221.051C294.458 221.038 294.478 221.013 294.487 220.984C294.703 220.453 294.806 219.883 294.787 219.311C294.763 218.638 294.563 218.427 293.655 218.901L293.654 218.9Z" fill="#D9D9D9"/>
<path d="M303.975 224.981L293.873 224.632L296.236 214.809C296.236 214.809 305.688 214.111 305.451 216.495C305.215 218.878 303.975 224.981 303.975 224.981Z" fill="#36334A"/>
<path d="M294.223 229.676C294.223 229.676 288.143 230.734 285.958 227.596C283.772 224.457 294.228 226.142 294.228 226.142L295.114 228.526L294.223 229.676Z" fill="#36334A"/>
<path d="M292.397 243C293.93 243 295.173 241.777 295.173 240.268C295.173 238.759 293.93 237.536 292.397 237.536C290.863 237.536 289.62 238.759 289.62 240.268C289.62 241.777 290.863 243 292.397 243Z" fill="#36334A"/>
<path d="M292.663 242.244C293.625 242.244 294.405 241.359 294.405 240.267C294.405 239.176 293.625 238.291 292.663 238.291C291.7 238.291 290.92 239.176 290.92 240.267C290.92 241.359 291.7 242.244 292.663 242.244Z" fill="#3F3D56"/>
<path d="M307.578 214.519C307.578 214.519 305.274 213.24 305.156 216.262L303.207 230.329H304.034L306.279 215.274C306.279 215.274 307.401 215.449 307.578 215.449C307.755 215.449 307.578 214.519 307.578 214.519Z" fill="#3F3D56"/>
<path d="M309.874 216.07C309.792 216.36 309.487 216.529 309.194 216.449C309.17 216.442 309.147 216.434 309.125 216.425L306.452 215.301L306.937 214.25L309.571 215.431C309.819 215.542 309.947 215.813 309.874 216.07H309.874Z" fill="#36334A"/>
<path d="M293.637 229.34C293.637 229.34 289.384 228.875 288.202 232.885C287.021 236.896 287.139 239.977 286.135 239.744C285.131 239.512 283.004 238.698 283.004 238.698L283.181 239.919C283.181 239.919 286.903 241.779 287.494 239.802C288.084 237.826 288.439 230.56 291.806 230.735C295.173 230.909 295.764 230.56 295.764 230.56L293.637 229.34Z" fill="#3F3D56"/>
<path d="M285.544 227.422C285.544 227.422 282.236 227.829 280.937 230.212C279.637 232.595 278.987 236.896 278.987 236.896H280.228C280.228 236.896 280.937 228.352 284.658 228.817L285.544 227.422Z" fill="#3F3D56"/>
<path d="M283.3 240.734L278.042 237.537C278.042 237.537 277.747 236.374 281.114 235.909C281.114 235.909 287.48 238.1 286.866 238.922C286.253 239.745 284.186 241.024 283.3 240.734Z" fill="#36334A"/>
<path d="M291.452 230.328V237.129H292.219V230.212L291.452 230.328Z" fill="#3F3D56"/>
<path d="M292.574 234.513C292.574 234.513 294.051 240.209 293.106 241.023C293.106 241.023 291.865 237.419 290.92 237.884L291.215 234.513H292.574Z" fill="#36334A"/>
<path d="M298.304 210.798C299.576 210.798 300.608 209.784 300.608 208.532C300.608 207.28 299.576 206.265 298.304 206.265C297.031 206.265 296 207.28 296 208.532C296 209.784 297.031 210.798 298.304 210.798Z" fill="#FBBEBE"/>
<path d="M297.868 211.967C298.807 212.124 299.619 211.049 300.56 211.2C300.764 211.241 300.96 211.317 301.138 211.424C302.539 212.204 303.542 213.526 303.904 215.07C304.011 215.536 304.052 216.041 303.852 216.477C303.746 216.708 303.577 216.906 303.409 217.098C302.783 217.814 302.096 218.528 301.204 218.874C301.116 219.172 301.2 219.494 301.305 219.785C301.741 221.004 301.047 222.317 301.012 223.608C301.006 223.829 301.012 224.07 300.872 224.243C300.716 224.434 300.438 224.468 300.189 224.482C297.908 224.609 295.63 224.264 293.373 223.922C293.313 223.917 293.256 223.898 293.207 223.866C293.133 223.808 293.121 223.704 293.106 223.612C293.022 223.124 293.463 222.728 293.254 222.278C292.895 221.504 293.678 220.658 293.904 219.836C294.129 219.015 294.218 218.871 294.376 218.035C294.435 217.722 294.265 216.779 294.317 216.465C294.487 215.44 294.358 214.272 294.908 213.385C295.238 212.852 295.152 212.437 295.741 212.205C296.363 211.96 297.204 212.043 297.869 211.967H297.868Z" fill="#D9D9D9"/>
<path d="M287.464 225.486C286.777 225.617 286.046 225.741 285.517 226.192C285.194 226.468 284.977 226.842 284.766 227.208L282.613 230.944C281.956 232.083 281.299 233.223 280.703 234.394C280.651 234.479 280.621 234.575 280.614 234.675C280.617 234.815 280.712 234.935 280.81 235.036C281.499 235.739 282.484 236.08 283.468 235.956C283.616 235.201 284.345 234.703 284.703 234.019C284.899 233.644 284.978 233.222 285.104 232.818C285.577 231.313 286.699 230.104 287.789 228.951C288.304 228.405 288.831 227.85 289.494 227.492C290.272 227.072 291.175 226.956 292.045 226.782C292.914 226.607 293.815 226.343 294.43 225.714C294.959 225.165 295.209 224.411 295.112 223.661C294.555 223.622 293.935 223.551 293.397 223.727C292.773 223.932 292.169 224.212 291.544 224.421C290.21 224.868 288.847 225.224 287.464 225.486H287.464Z" fill="#696880"/>
<path opacity="0.1" d="M287.464 225.486C286.777 225.617 286.046 225.741 285.517 226.192C285.194 226.468 284.977 226.842 284.766 227.208L282.613 230.944C281.956 232.083 281.299 233.223 280.703 234.394C280.651 234.479 280.621 234.575 280.614 234.675C280.617 234.815 280.712 234.935 280.81 235.036C281.499 235.739 282.484 236.08 283.468 235.956C283.616 235.201 284.345 234.703 284.703 234.019C284.899 233.644 284.978 233.222 285.104 232.818C285.577 231.313 286.699 230.104 287.789 228.951C288.304 228.405 288.831 227.85 289.494 227.492C290.272 227.072 291.175 226.956 292.045 226.782C292.914 226.607 293.815 226.343 294.43 225.714C294.959 225.165 295.209 224.411 295.112 223.661C294.555 223.622 293.935 223.551 293.397 223.727C292.773 223.932 292.169 224.212 291.544 224.421C290.21 224.868 288.847 225.224 287.464 225.486H287.464Z" fill="black"/>
<path d="M278.181 237.332C278.104 237.386 278.045 237.461 278.012 237.547C277.934 237.809 278.267 237.994 278.534 238.07C279.133 238.239 279.773 238.41 280.371 238.235C280.738 238.127 281.057 237.898 281.421 237.783C281.962 237.612 282.548 237.709 283.106 237.807C283.231 237.116 283.147 236.403 282.865 235.759C282.685 235.352 281.968 235.154 281.54 235.136C281.073 235.116 280.911 235.455 280.641 235.767C279.985 236.528 278.938 236.704 278.182 237.332H278.181Z" fill="#3F3D56"/>
<path d="M287.903 226.599C287.572 226.729 287.233 226.863 286.974 227.103C286.7 227.356 286.54 227.703 286.394 228.043C285.962 229.049 285.595 230.081 285.293 231.132C285.141 231.663 285.006 232.2 284.801 232.714C284.391 233.74 283.697 234.721 283.762 235.82C283.762 235.954 283.798 236.085 283.868 236.2C283.961 236.333 284.118 236.403 284.268 236.467L285.054 236.802C285.476 236.982 285.99 237.156 286.367 236.896C286.619 236.723 286.719 236.409 286.796 236.115C287.07 235.056 287.24 233.956 287.732 232.977C288.288 231.87 289.228 230.975 289.725 229.841C289.796 229.681 289.863 229.509 290.001 229.399C290.116 229.308 290.264 229.273 290.407 229.241C293.357 228.58 296.374 228.219 299.3 227.463C299.716 227.356 300.152 227.228 300.449 226.922C300.861 226.497 300.897 225.851 300.91 225.265C300.918 224.897 300.917 224.498 300.689 224.206C300.432 223.877 299.972 223.791 299.553 223.747C297.946 223.581 296.463 223.843 294.879 224.035C293.431 224.21 291.972 225.015 290.62 225.541C289.715 225.893 288.81 226.247 287.905 226.601L287.903 226.599Z" fill="#696880"/>
<path d="M284.268 237.107C284.047 237.624 283.808 238.163 283.36 238.508C283.173 238.652 282.931 238.797 282.924 239.031C282.916 239.278 283.18 239.442 283.417 239.525C284.019 239.739 284.705 239.785 285.293 239.535C285.696 239.363 286.027 239.067 286.351 238.777C286.448 238.689 286.549 238.597 286.595 238.475C286.626 238.372 286.635 238.265 286.622 238.158C286.583 237.513 286.466 236.874 286.273 236.255C286.258 236.206 284.987 236.051 284.874 236.08C284.519 236.171 284.404 236.788 284.267 237.107H284.268Z" fill="#3F3D56"/>
<path d="M304.034 222.133L296.355 222.365C296.355 222.365 289.561 228.875 295.173 230.852C295.173 230.852 302.085 231.956 303.739 230.677C303.739 230.677 305.806 222.656 304.034 222.133ZM303.68 224.283L295.469 224.807C295.469 224.807 296.059 222.83 298.422 222.83C300.785 222.83 303.443 222.307 303.68 223.528C303.916 224.748 303.68 224.283 303.68 224.283Z" fill="#3F3D56"/>
<path d="M302.291 242.999C306.549 242.999 310 239.148 310 234.397C310 229.645 306.549 225.794 302.291 225.794C298.034 225.794 294.582 229.645 294.582 234.397C294.582 239.148 298.034 242.999 302.291 242.999Z" fill="#36334A"/>
<path d="M302.646 240.791C305.859 240.791 308.464 237.928 308.464 234.397C308.464 230.866 305.859 228.003 302.646 228.003C299.432 228.003 296.827 230.866 296.827 234.397C296.827 237.928 299.432 240.791 302.646 240.791Z" fill="#3F3D56"/>
<path d="M304.152 234.31C304.152 234.198 304.141 234.087 304.118 233.978L308.464 231.84L308.169 231.2L303.779 233.305C303.734 233.26 303.685 233.22 303.633 233.185H303.636L304.92 226.9L303.785 226.874L303.03 233.061L303.102 233.076C303.044 233.088 302.987 233.107 302.933 233.133L299.136 229.298L298.599 230.038L302.5 233.57C302.402 233.754 302.344 233.957 302.328 234.165L296.828 236.374L296.71 237.304L302.443 234.931C302.497 235.062 302.572 235.182 302.667 235.288L300.904 241.198H301.553L303.034 235.528C303.099 235.549 303.168 235.56 303.237 235.56C303.371 235.559 303.5 235.521 303.613 235.449L306.693 239.455L307.638 238.815L304.029 234.936C304.111 234.738 304.153 234.525 304.153 234.311L304.152 234.31Z" fill="#36334A"/>
<path d="M295.627 207.096C295.731 206.839 296.066 206.732 296.176 206.477C296.294 206.203 296.109 205.855 296.27 205.602C296.432 205.348 296.81 205.378 297.111 205.427C297.466 205.485 297.843 205.524 298.175 205.385C298.322 205.324 298.453 205.23 298.595 205.158C298.822 205.045 299.074 204.991 299.328 205.001C299.385 205 299.442 205.013 299.492 205.04C299.54 205.074 299.577 205.121 299.599 205.175C299.703 205.396 299.717 205.671 299.905 205.83C299.995 205.906 300.112 205.942 300.22 205.99C300.735 206.234 301.04 206.769 300.985 207.328C300.96 207.455 300.944 207.583 300.938 207.711C300.945 207.994 301.133 208.276 301.037 208.543C300.966 208.741 300.757 208.858 300.553 208.92C300.495 208.943 300.43 208.946 300.37 208.929C300.266 208.887 300.244 208.754 300.211 208.648C300.114 208.362 299.839 208.172 299.533 208.178C299.295 208.188 299.054 208.32 298.829 208.241C298.719 208.203 298.632 208.119 298.544 208.043C298.341 207.869 298.1 207.723 297.833 207.686C297.566 207.649 297.27 207.738 297.113 207.953C297.049 208.04 297.011 208.142 296.951 208.231C296.406 209.032 295.403 207.649 295.627 207.094L295.627 207.096Z" fill="#36334A"/>
<path d="M296.854 220.911C296.649 220.885 296.444 220.96 296.306 221.112C295.789 221.575 295.241 222.098 295.148 222.779C295.134 222.842 295.141 222.907 295.169 222.964C295.219 223.045 295.328 223.062 295.424 223.064C295.912 223.068 296.379 222.866 296.705 222.507C296.793 222.408 296.875 222.295 296.997 222.239C297.108 222.198 297.227 222.184 297.345 222.196C297.669 222.207 298.41 222.37 298.692 222.212C298.989 222.046 298.908 221.524 298.769 221.272C298.439 220.674 297.416 220.905 296.854 220.911V220.911Z" fill="#FBBEBE"/>
<path d="M304.069 215.89C304.268 216.519 304.151 217.227 304.433 217.824C304.62 218.221 304.971 218.54 305.08 218.964C305.183 219.364 305.045 219.796 304.803 220.133C304.562 220.471 304.226 220.73 303.888 220.976C303.519 221.245 303.136 221.508 302.7 221.653C302.266 221.799 301.801 221.82 301.344 221.841L298.308 221.978L297.75 220.329L299.727 219.567C299.925 219.491 300.127 219.414 300.339 219.398C300.705 219.371 301.151 219.504 301.386 219.226C301.461 219.124 301.508 219.005 301.524 218.881C301.716 217.912 301.549 216.887 301.844 215.944C301.99 215.477 302.412 214.541 302.988 214.458C303.597 214.371 303.932 215.454 304.07 215.89H304.069Z" fill="#D9D9D9"/>
</g>
<defs>
<clipPath id="clip0_282_19332">
<rect width="433.31" height="315.48" fill="white"/>
</clipPath>
</defs>
</svg>
