<svg width="434" height="316" viewBox="0 0 434 316" fill="none" xmlns="http://www.w3.org/2000/svg">
<g clip-path="url(#clip0_282_21086)">
<path d="M423.83 151.31C423.81 151.97 423.72 152.9 424.46 153.05C426.7 153.5 426.91 155.28 427 156.52C427.25 159.95 428.95 162.81 430.82 165.65C431.6 166.84 431.86 168.09 432.07 169.42C432.63 172.94 433.01 176.46 433.3 180C433.45 181.83 432.56 182.95 430.8 183.57C428.22 184.47 425.59 184.98 422.81 183.98C420.76 183.24 418.6 182.73 416.47 182.12C413.98 183.76 412.21 185.97 410.17 187.94C409.57 188.51 409.03 189.06 408.32 189.56C406.53 190.8 404.98 192.29 403.79 194.01C403.01 195.14 402.75 196.21 403.51 197.61C405.4 201.06 404.02 204.56 400.29 206.55C400 206.71 399.88 207.01 399.47 207.1C396.57 207.74 395.9 209.6 395.97 211.93C396.01 213.08 395.23 213.87 394.04 214.5C391.18 212.84 387.66 212.58 384.49 211.45C382.95 210.9 381.63 210.38 381.25 208.88C380.94 207.67 379.8 207.48 378.77 207.3C377.64 207.1 376.46 207.1 375.3 207.1C371.98 207.08 368.98 204.79 368.55 201.89C368.47 201.33 368.47 200.7 369.17 200.48C370.36 200.09 370.94 199.15 371.82 198.48C374.08 196.77 374.34 194.49 373.61 192.22C372.84 189.82 370.77 188.44 367.94 187.88C366.11 187.52 364.27 187.12 362.48 186.21C363.54 184.15 364.76 182.14 365.34 179.85C366.12 176.77 366.67 173.79 364.86 170.88C363.8 169.18 365.15 167.53 364.9 165.85C364.87 165.66 365.42 165.6 365.67 165.47C369.63 163.4 373.58 161.32 378.18 160.47C380.07 160.12 381.7 159.36 383.12 158.16C384.74 156.79 386.62 155.95 389.04 155.94C391.58 155.92 393.84 155.22 395.87 153.55C398.02 151.8 400.97 150.93 403.41 149.4C406.18 147.65 409.21 146.21 412.39 145.05C413.45 144.67 414.51 144.33 415.67 144.34C416.81 144.35 417.71 144.01 418.56 143.28C421.44 140.78 423.64 141.23 425.97 144.31C427.71 146.62 426.23 148.27 425.08 150.07C424.81 150.5 424.28 150.8 423.87 151.16" fill="#D1FF00"/>
<path d="M389.874 176.408C392.696 176.408 394.983 173.855 394.983 170.706C394.983 167.557 392.696 165.004 389.874 165.004C387.051 165.004 384.764 167.557 384.764 170.706C384.764 173.855 387.051 176.408 389.874 176.408Z" fill="#36334A"/>
<path d="M396.432 151.732C395.204 152.259 393.865 152.488 392.529 152.398C392.872 152.156 393.092 151.77 393.181 151.364C393.269 150.958 393.236 150.535 393.144 150.13C393.128 150.083 393.128 150.032 393.147 149.987C393.185 149.941 393.243 149.914 393.303 149.914C393.821 149.843 395.303 149.535 395.697 149.971C395.884 150.178 395.812 150.579 395.881 150.832C395.909 150.936 396.27 151.803 396.432 151.733V151.732Z" fill="#FBBEBE"/>
<path opacity="0.1" d="M396.432 151.732C395.204 152.259 393.865 152.488 392.529 152.398C392.872 152.156 393.092 151.77 393.181 151.364C393.269 150.958 393.236 150.535 393.144 150.13C393.128 150.083 393.128 150.032 393.147 149.987C393.185 149.941 393.243 149.914 393.303 149.914C393.821 149.843 395.303 149.535 395.697 149.971C395.884 150.178 395.812 150.579 395.881 150.832C395.909 150.936 396.27 151.803 396.432 151.733V151.732Z" fill="black"/>
<path d="M392.118 160.389L384.439 160.621C384.439 160.621 377.646 167.131 383.257 169.108C383.257 169.108 390.169 170.212 391.823 168.933C391.823 168.933 393.89 160.912 392.118 160.389ZM391.764 162.539L383.553 163.062C383.553 163.062 384.144 161.086 386.506 161.086C388.869 161.086 391.527 160.563 391.764 161.784C392 163.004 391.764 162.539 391.764 162.539Z" fill="#3F3D56"/>
<path d="M386.064 159.345C385.681 159.287 385.265 159.254 384.929 159.445C384.818 159.513 384.714 159.594 384.62 159.685C384.485 159.807 384.351 159.93 384.218 160.054C384.121 160.145 384.02 160.245 383.994 160.374C383.943 160.64 384.256 160.856 384.531 160.845C384.806 160.835 385.053 160.686 385.314 160.596C385.838 160.416 387.764 160.724 387.869 160.17C388.003 159.464 386.49 159.412 386.064 159.346V159.345Z" fill="#FBBEBE"/>
<path d="M389.654 158.9C389.153 159.151 388.608 159.303 388.048 159.349C387.961 159.35 387.875 159.369 387.794 159.402C387.746 159.432 387.709 159.476 387.688 159.529C387.492 159.934 387.37 160.371 387.329 160.819C387.319 160.863 387.335 160.909 387.371 160.937C387.424 160.964 387.484 160.977 387.544 160.975C388.463 161.033 389.386 161.064 390.311 161.068C390.351 161.071 390.393 161.065 390.431 161.051C390.458 161.038 390.478 161.013 390.487 160.984C390.703 160.453 390.806 159.883 390.787 159.311C390.763 158.638 390.563 158.427 389.655 158.901L389.654 158.9Z" fill="#D7E5F2"/>
<path d="M389.654 158.9C389.153 159.151 388.608 159.303 388.048 159.349C387.961 159.35 387.875 159.369 387.794 159.402C387.746 159.432 387.709 159.476 387.688 159.529C387.492 159.934 387.37 160.371 387.329 160.819C387.319 160.863 387.335 160.909 387.371 160.937C387.424 160.964 387.484 160.977 387.544 160.975C388.463 161.033 389.386 161.064 390.311 161.068C390.351 161.071 390.393 161.065 390.431 161.051C390.458 161.038 390.478 161.013 390.487 160.984C390.703 160.453 390.806 159.883 390.787 159.311C390.763 158.638 390.563 158.427 389.655 158.901L389.654 158.9Z" fill="#F5F4F4"/>
<path d="M399.975 164.981L389.873 164.632L392.236 154.809C392.236 154.809 401.688 154.111 401.451 156.495C401.215 158.878 399.975 164.981 399.975 164.981Z" fill="#36334A"/>
<path d="M390.223 169.676C390.223 169.676 384.143 170.734 381.958 167.596C379.772 164.457 390.228 166.142 390.228 166.142L391.114 168.526L390.223 169.676Z" fill="#36334A"/>
<path d="M388.397 183C389.93 183 391.173 181.777 391.173 180.268C391.173 178.759 389.93 177.536 388.397 177.536C386.863 177.536 385.62 178.759 385.62 180.268C385.62 181.777 386.863 183 388.397 183Z" fill="#36334A"/>
<path d="M388.663 182.244C389.625 182.244 390.405 181.359 390.405 180.267C390.405 179.176 389.625 178.291 388.663 178.291C387.7 178.291 386.92 179.176 386.92 180.267C386.92 181.359 387.7 182.244 388.663 182.244Z" fill="#3F3D56"/>
<path d="M403.578 154.519C403.578 154.519 401.274 153.24 401.156 156.262L399.207 170.329H400.034L402.279 155.274C402.279 155.274 403.401 155.449 403.578 155.449C403.755 155.449 403.578 154.519 403.578 154.519Z" fill="#3F3D56"/>
<path d="M405.874 156.07C405.792 156.36 405.487 156.529 405.194 156.449C405.17 156.442 405.147 156.434 405.125 156.425L402.452 155.301L402.937 154.25L405.571 155.431C405.819 155.542 405.947 155.813 405.874 156.07H405.874Z" fill="#36334A"/>
<path d="M389.637 169.34C389.637 169.34 385.384 168.875 384.202 172.885C383.021 176.896 383.139 179.977 382.135 179.744C381.131 179.512 379.004 178.698 379.004 178.698L379.181 179.919C379.181 179.919 382.903 181.779 383.494 179.802C384.084 177.826 384.439 170.56 387.806 170.735C391.173 170.909 391.764 170.56 391.764 170.56L389.637 169.34Z" fill="#3F3D56"/>
<path d="M381.544 167.422C381.544 167.422 378.236 167.829 376.937 170.212C375.637 172.595 374.987 176.896 374.987 176.896H376.228C376.228 176.896 376.937 168.352 380.658 168.817L381.544 167.422Z" fill="#3F3D56"/>
<path d="M379.3 180.734L374.042 177.537C374.042 177.537 373.747 176.374 377.114 175.909C377.114 175.909 383.48 178.1 382.866 178.922C382.253 179.745 380.186 181.024 379.3 180.734Z" fill="#36334A"/>
<path d="M387.452 170.328V177.129H388.219V170.212L387.452 170.328Z" fill="#3F3D56"/>
<path d="M388.574 174.513C388.574 174.513 390.051 180.209 389.106 181.023C389.106 181.023 387.865 177.419 386.92 177.884L387.215 174.513H388.574Z" fill="#36334A"/>
<path d="M394.304 150.798C395.576 150.798 396.608 149.784 396.608 148.532C396.608 147.28 395.576 146.265 394.304 146.265C393.031 146.265 392 147.28 392 148.532C392 149.784 393.031 150.798 394.304 150.798Z" fill="#FBBEBE"/>
<path d="M393.868 151.967C394.807 152.124 395.619 151.049 396.56 151.2C396.764 151.241 396.96 151.317 397.138 151.424C398.539 152.204 399.542 153.526 399.904 155.07C400.011 155.536 400.052 156.041 399.852 156.477C399.746 156.708 399.577 156.906 399.409 157.098C398.783 157.814 398.096 158.528 397.204 158.874C397.116 159.172 397.2 159.494 397.305 159.785C397.741 161.004 397.047 162.317 397.012 163.608C397.006 163.829 397.012 164.07 396.872 164.243C396.716 164.434 396.438 164.468 396.189 164.482C393.908 164.609 391.63 164.264 389.373 163.922C389.313 163.917 389.256 163.898 389.207 163.866C389.133 163.808 389.121 163.704 389.106 163.612C389.022 163.124 389.463 162.728 389.254 162.278C388.895 161.504 389.678 160.658 389.904 159.836C390.129 159.015 390.218 158.871 390.376 158.035C390.435 157.722 390.265 156.779 390.317 156.465C390.487 155.44 390.358 154.272 390.908 153.385C391.238 152.852 391.152 152.437 391.741 152.205C392.363 151.96 393.204 152.043 393.869 151.967H393.868Z" fill="#F5F4F4"/>
<path d="M383.464 165.486C382.777 165.617 382.046 165.741 381.517 166.192C381.194 166.468 380.977 166.842 380.766 167.208L378.613 170.944C377.956 172.083 377.299 173.223 376.703 174.394C376.651 174.479 376.621 174.575 376.614 174.675C376.617 174.815 376.712 174.935 376.81 175.036C377.499 175.739 378.484 176.08 379.468 175.956C379.616 175.201 380.345 174.703 380.703 174.019C380.899 173.644 380.978 173.222 381.104 172.818C381.577 171.313 382.699 170.104 383.789 168.951C384.304 168.405 384.831 167.85 385.494 167.492C386.272 167.072 387.175 166.956 388.045 166.782C388.914 166.607 389.815 166.343 390.43 165.714C390.959 165.165 391.209 164.411 391.112 163.661C390.555 163.622 389.935 163.551 389.397 163.727C388.773 163.932 388.169 164.212 387.544 164.421C386.21 164.868 384.847 165.224 383.464 165.486H383.464Z" fill="#696880"/>
<path opacity="0.1" d="M383.464 165.486C382.777 165.617 382.046 165.741 381.517 166.192C381.194 166.468 380.977 166.842 380.766 167.208L378.613 170.944C377.956 172.083 377.299 173.223 376.703 174.394C376.651 174.479 376.621 174.575 376.614 174.675C376.617 174.815 376.712 174.935 376.81 175.036C377.499 175.739 378.484 176.08 379.468 175.956C379.616 175.201 380.345 174.703 380.703 174.019C380.899 173.644 380.978 173.222 381.104 172.818C381.577 171.313 382.699 170.104 383.789 168.951C384.304 168.405 384.831 167.85 385.494 167.492C386.272 167.072 387.175 166.956 388.045 166.782C388.914 166.607 389.815 166.343 390.43 165.714C390.959 165.165 391.209 164.411 391.112 163.661C390.555 163.622 389.935 163.551 389.397 163.727C388.773 163.932 388.169 164.212 387.544 164.421C386.21 164.868 384.847 165.224 383.464 165.486H383.464Z" fill="black"/>
<path d="M374.181 177.332C374.104 177.386 374.045 177.461 374.012 177.547C373.934 177.809 374.267 177.994 374.534 178.07C375.133 178.239 375.773 178.41 376.371 178.235C376.738 178.127 377.057 177.898 377.421 177.783C377.962 177.612 378.548 177.709 379.106 177.807C379.231 177.116 379.147 176.403 378.865 175.759C378.685 175.352 377.968 175.154 377.54 175.136C377.073 175.116 376.911 175.455 376.641 175.767C375.985 176.528 374.938 176.704 374.182 177.332H374.181Z" fill="#3F3D56"/>
<path d="M383.903 166.599C383.572 166.729 383.233 166.863 382.974 167.103C382.7 167.356 382.54 167.703 382.394 168.043C381.962 169.049 381.595 170.081 381.293 171.132C381.141 171.663 381.006 172.2 380.801 172.714C380.391 173.74 379.697 174.721 379.762 175.82C379.762 175.954 379.798 176.085 379.868 176.2C379.961 176.333 380.118 176.403 380.268 176.467L381.054 176.802C381.476 176.982 381.99 177.156 382.367 176.896C382.619 176.723 382.719 176.409 382.796 176.115C383.07 175.056 383.24 173.956 383.732 172.977C384.288 171.87 385.228 170.975 385.725 169.841C385.796 169.681 385.863 169.509 386.001 169.399C386.116 169.308 386.264 169.273 386.407 169.241C389.357 168.58 392.374 168.219 395.3 167.463C395.716 167.356 396.152 167.228 396.449 166.922C396.861 166.497 396.897 165.851 396.91 165.265C396.918 164.897 396.917 164.498 396.689 164.206C396.432 163.877 395.972 163.791 395.553 163.747C393.946 163.581 392.463 163.843 390.879 164.035C389.431 164.21 387.972 165.015 386.62 165.541C385.715 165.893 384.81 166.247 383.905 166.601L383.903 166.599Z" fill="#696880"/>
<path d="M380.268 177.107C380.047 177.624 379.808 178.163 379.36 178.508C379.173 178.652 378.931 178.797 378.924 179.031C378.916 179.278 379.18 179.442 379.417 179.525C380.019 179.739 380.705 179.785 381.293 179.535C381.696 179.363 382.027 179.067 382.351 178.777C382.448 178.689 382.549 178.597 382.595 178.475C382.626 178.372 382.635 178.265 382.622 178.158C382.583 177.513 382.466 176.874 382.273 176.255C382.258 176.206 380.987 176.051 380.874 176.08C380.519 176.171 380.404 176.788 380.267 177.107H380.268Z" fill="#3F3D56"/>
<path d="M400.034 162.133L392.355 162.365C392.355 162.365 385.561 168.875 391.173 170.852C391.173 170.852 398.085 171.956 399.739 170.677C399.739 170.677 401.806 162.656 400.034 162.133ZM399.68 164.283L391.469 164.807C391.469 164.807 392.059 162.83 394.422 162.83C396.785 162.83 399.443 162.307 399.68 163.528C399.916 164.748 399.68 164.283 399.68 164.283Z" fill="#3F3D56"/>
<path d="M398.291 182.999C402.549 182.999 406 179.148 406 174.397C406 169.645 402.549 165.794 398.291 165.794C394.034 165.794 390.582 169.645 390.582 174.397C390.582 179.148 394.034 182.999 398.291 182.999Z" fill="#36334A"/>
<path d="M398.646 180.791C401.859 180.791 404.464 177.928 404.464 174.397C404.464 170.866 401.859 168.003 398.646 168.003C395.432 168.003 392.827 170.866 392.827 174.397C392.827 177.928 395.432 180.791 398.646 180.791Z" fill="#3F3D56"/>
<path d="M400.152 174.31C400.152 174.198 400.141 174.087 400.118 173.978L404.464 171.84L404.169 171.2L399.779 173.305C399.734 173.26 399.685 173.22 399.633 173.185H399.636L400.92 166.9L399.785 166.874L399.03 173.061L399.102 173.076C399.044 173.088 398.987 173.107 398.933 173.133L395.136 169.298L394.599 170.038L398.5 173.57C398.402 173.754 398.344 173.957 398.328 174.165L392.828 176.374L392.71 177.304L398.443 174.931C398.497 175.062 398.572 175.182 398.667 175.288L396.904 181.198H397.553L399.034 175.528C399.099 175.549 399.168 175.56 399.237 175.56C399.371 175.559 399.5 175.521 399.613 175.449L402.693 179.455L403.638 178.815L400.029 174.936C400.111 174.738 400.153 174.525 400.153 174.311L400.152 174.31Z" fill="#36334A"/>
<path d="M391.627 147.096C391.731 146.839 392.066 146.732 392.176 146.477C392.294 146.203 392.109 145.855 392.27 145.602C392.432 145.348 392.81 145.378 393.111 145.427C393.466 145.485 393.843 145.524 394.174 145.385C394.322 145.324 394.453 145.23 394.595 145.158C394.822 145.045 395.074 144.991 395.328 145.001C395.385 145 395.442 145.013 395.492 145.04C395.54 145.074 395.577 145.121 395.599 145.175C395.703 145.396 395.717 145.671 395.905 145.83C395.995 145.906 396.112 145.942 396.22 145.99C396.735 146.234 397.04 146.769 396.985 147.328C396.96 147.455 396.944 147.583 396.938 147.711C396.945 147.994 397.133 148.276 397.037 148.543C396.966 148.741 396.757 148.858 396.553 148.92C396.495 148.943 396.43 148.946 396.37 148.929C396.266 148.887 396.244 148.754 396.211 148.648C396.114 148.362 395.839 148.172 395.533 148.178C395.295 148.188 395.053 148.32 394.829 148.241C394.719 148.203 394.632 148.119 394.544 148.043C394.34 147.869 394.1 147.723 393.833 147.686C393.566 147.649 393.27 147.738 393.113 147.953C393.049 148.04 393.011 148.142 392.951 148.231C392.406 149.032 391.403 147.649 391.627 147.094L391.627 147.096Z" fill="#36334A"/>
<path d="M392.854 160.911C392.649 160.885 392.444 160.96 392.306 161.112C391.789 161.575 391.241 162.098 391.148 162.779C391.134 162.842 391.141 162.907 391.169 162.964C391.219 163.045 391.328 163.062 391.424 163.064C391.912 163.068 392.379 162.866 392.705 162.507C392.793 162.408 392.875 162.295 392.997 162.239C393.108 162.198 393.227 162.184 393.345 162.196C393.669 162.207 394.41 162.37 394.692 162.212C394.989 162.046 394.908 161.524 394.769 161.272C394.439 160.674 393.416 160.905 392.854 160.911V160.911Z" fill="#FBBEBE"/>
<path d="M400.069 155.89C400.268 156.519 400.151 157.227 400.433 157.824C400.62 158.221 400.971 158.54 401.08 158.964C401.183 159.364 401.045 159.796 400.803 160.133C400.562 160.471 400.226 160.73 399.888 160.976C399.519 161.245 399.136 161.508 398.7 161.653C398.266 161.799 397.801 161.82 397.344 161.841L394.308 161.978L393.75 160.329L395.727 159.567C395.925 159.491 396.127 159.414 396.339 159.398C396.705 159.371 397.151 159.504 397.386 159.226C397.461 159.124 397.508 159.005 397.524 158.881C397.716 157.912 397.549 156.887 397.844 155.944C397.99 155.477 398.412 154.541 398.988 154.458C399.597 154.371 399.932 155.454 400.07 155.89H400.069Z" fill="#F5F4F4"/>
</g>
<defs>
<clipPath id="clip0_282_21086">
<rect width="433.31" height="315.48" fill="white"/>
</clipPath>
</defs>
</svg>
