<svg width="434" height="316" viewBox="0 0 434 316" fill="none" xmlns="http://www.w3.org/2000/svg">
<g clip-path="url(#clip0_282_17578)">
<path d="M125.12 276.19C125.46 276.85 125.78 277.51 126.15 278.16C127.25 280.12 127.04 281.86 125.52 283.38C125.68 285.34 127.28 286.3 129.02 287.12C131.41 288.26 134 289.04 136.2 290.51C137.47 291.36 138.15 292.36 138.5 293.74C138.86 295.18 139.15 296.64 139.63 298.07C140.71 301.27 143.09 302.78 146.83 302.15C148.2 301.92 149.64 301.85 150.94 301.3C152.08 300.82 153.35 300.88 154.4 301.33C156.2 302.09 157.58 301.62 159.15 300.79C162.55 298.99 164.06 295.94 166.08 293.22C166.2 293.05 166.21 292.66 166.08 292.53C164.21 290.68 163.77 288.39 163.6 285.89C161.73 285.87 160.02 285.89 158.31 285.72C155.94 285.5 154.29 284.3 154.47 282.3C154.79 278.62 153.27 275.4 151.49 272.28C150.67 270.84 150.43 269.04 148.52 268.07C147.8 267.71 147.65 266.83 148.87 266.3C149.85 265.87 150.74 265.2 151.54 264.53C153.39 262.97 153.24 262.26 150.94 260.96C148.06 259.32 145.08 258.63 141.71 259.86C140.15 260.43 138.43 260.69 136.81 261.15C133.84 262 131.08 261.38 128.41 260.23C126.15 259.26 124.07 258.01 122.27 256.46C120.9 255.29 119.82 253.95 119.79 252.16C118.84 251.88 117.89 251.88 116.92 252.16C117.02 254.85 116.22 257.55 117.13 260.23C117.74 262.01 118.81 263.55 119.98 265.08C122.27 268.07 122.88 271.69 124.51 274.93" fill="#D1FF00"/>
<path d="M138.874 273.408C141.696 273.408 143.983 270.855 143.983 267.706C143.983 264.557 141.696 262.004 138.874 262.004C136.051 262.004 133.764 264.557 133.764 267.706C133.764 270.855 136.051 273.408 138.874 273.408Z" fill="#36334A"/>
<path d="M145.432 248.732C144.204 249.259 142.865 249.488 141.529 249.398C141.872 249.156 142.092 248.77 142.181 248.364C142.269 247.958 142.236 247.535 142.144 247.13C142.128 247.083 142.128 247.032 142.147 246.987C142.185 246.941 142.243 246.914 142.303 246.914C142.821 246.843 144.303 246.535 144.697 246.971C144.884 247.178 144.812 247.579 144.881 247.832C144.909 247.936 145.27 248.803 145.432 248.733V248.732Z" fill="#FBBEBE"/>
<path opacity="0.1" d="M145.432 248.732C144.204 249.259 142.865 249.488 141.529 249.398C141.872 249.156 142.092 248.77 142.181 248.364C142.269 247.958 142.236 247.535 142.144 247.13C142.128 247.083 142.128 247.032 142.147 246.987C142.185 246.941 142.243 246.914 142.303 246.914C142.821 246.843 144.303 246.535 144.697 246.971C144.884 247.178 144.812 247.579 144.881 247.832C144.909 247.936 145.27 248.803 145.432 248.733V248.732Z" fill="black"/>
<path d="M141.118 257.389L133.439 257.621C133.439 257.621 126.646 264.131 132.257 266.108C132.257 266.108 139.169 267.212 140.823 265.933C140.823 265.933 142.89 257.912 141.118 257.389ZM140.764 259.539L132.553 260.062C132.553 260.062 133.144 258.086 135.506 258.086C137.869 258.086 140.527 257.563 140.764 258.784C141 260.004 140.764 259.539 140.764 259.539Z" fill="#3F3D56"/>
<path d="M135.064 256.345C134.681 256.287 134.265 256.254 133.929 256.445C133.818 256.513 133.714 256.594 133.62 256.685C133.485 256.807 133.351 256.93 133.218 257.054C133.121 257.145 133.02 257.245 132.994 257.374C132.943 257.64 133.256 257.856 133.531 257.845C133.806 257.835 134.053 257.686 134.314 257.596C134.838 257.416 136.764 257.724 136.869 257.17C137.003 256.464 135.49 256.412 135.064 256.346V256.345Z" fill="#FBBEBE"/>
<path d="M138.654 255.9C138.153 256.151 137.608 256.303 137.048 256.349C136.961 256.35 136.875 256.369 136.794 256.402C136.746 256.432 136.709 256.476 136.688 256.529C136.492 256.934 136.37 257.371 136.329 257.819C136.319 257.863 136.335 257.909 136.371 257.937C136.424 257.964 136.484 257.977 136.544 257.975C137.463 258.033 138.386 258.064 139.311 258.068C139.351 258.071 139.393 258.065 139.431 258.051C139.458 258.038 139.478 258.013 139.487 257.984C139.703 257.453 139.806 256.883 139.787 256.311C139.763 255.638 139.563 255.427 138.655 255.901L138.654 255.9Z" fill="#D7E5F2"/>
<path d="M138.654 255.9C138.153 256.151 137.608 256.303 137.048 256.349C136.961 256.35 136.875 256.369 136.794 256.402C136.746 256.432 136.709 256.476 136.688 256.529C136.492 256.934 136.37 257.371 136.329 257.819C136.319 257.863 136.335 257.909 136.371 257.937C136.424 257.964 136.484 257.977 136.544 257.975C137.463 258.033 138.386 258.064 139.311 258.068C139.351 258.071 139.393 258.065 139.431 258.051C139.458 258.038 139.478 258.013 139.487 257.984C139.703 257.453 139.806 256.883 139.787 256.311C139.763 255.638 139.563 255.427 138.655 255.901L138.654 255.9Z" fill="#F5F4F4"/>
<path d="M148.975 261.981L138.873 261.632L141.236 251.809C141.236 251.809 150.688 251.111 150.451 253.495C150.215 255.878 148.975 261.981 148.975 261.981Z" fill="#36334A"/>
<path d="M139.223 266.676C139.223 266.676 133.143 267.734 130.958 264.596C128.772 261.457 139.228 263.142 139.228 263.142L140.114 265.526L139.223 266.676Z" fill="#36334A"/>
<path d="M137.397 280C138.93 280 140.173 278.777 140.173 277.268C140.173 275.759 138.93 274.536 137.397 274.536C135.863 274.536 134.62 275.759 134.62 277.268C134.62 278.777 135.863 280 137.397 280Z" fill="#36334A"/>
<path d="M137.663 279.244C138.625 279.244 139.405 278.359 139.405 277.267C139.405 276.176 138.625 275.291 137.663 275.291C136.7 275.291 135.92 276.176 135.92 277.267C135.92 278.359 136.7 279.244 137.663 279.244Z" fill="#3F3D56"/>
<path d="M152.578 251.519C152.578 251.519 150.274 250.24 150.156 253.262L148.207 267.329H149.034L151.279 252.274C151.279 252.274 152.401 252.449 152.578 252.449C152.755 252.449 152.578 251.519 152.578 251.519Z" fill="#3F3D56"/>
<path d="M154.874 253.07C154.792 253.36 154.487 253.529 154.194 253.449C154.17 253.442 154.147 253.434 154.125 253.425L151.452 252.301L151.937 251.25L154.571 252.431C154.819 252.542 154.947 252.813 154.874 253.07H154.874Z" fill="#36334A"/>
<path d="M138.637 266.34C138.637 266.34 134.384 265.875 133.202 269.885C132.021 273.896 132.139 276.977 131.135 276.744C130.131 276.512 128.004 275.698 128.004 275.698L128.181 276.919C128.181 276.919 131.903 278.779 132.494 276.802C133.084 274.826 133.439 267.56 136.806 267.735C140.173 267.909 140.764 267.56 140.764 267.56L138.637 266.34Z" fill="#3F3D56"/>
<path d="M130.544 264.422C130.544 264.422 127.236 264.829 125.937 267.212C124.637 269.595 123.987 273.896 123.987 273.896H125.228C125.228 273.896 125.937 265.352 129.658 265.817L130.544 264.422Z" fill="#3F3D56"/>
<path d="M128.3 277.734L123.042 274.537C123.042 274.537 122.747 273.374 126.114 272.909C126.114 272.909 132.48 275.1 131.866 275.922C131.253 276.745 129.186 278.024 128.3 277.734Z" fill="#36334A"/>
<path d="M136.452 267.328V274.129H137.219V267.212L136.452 267.328Z" fill="#3F3D56"/>
<path d="M137.574 271.513C137.574 271.513 139.051 277.209 138.106 278.023C138.106 278.023 136.865 274.419 135.92 274.884L136.215 271.513H137.574Z" fill="#36334A"/>
<path d="M143.304 247.798C144.576 247.798 145.608 246.784 145.608 245.532C145.608 244.28 144.576 243.265 143.304 243.265C142.031 243.265 141 244.28 141 245.532C141 246.784 142.031 247.798 143.304 247.798Z" fill="#FBBEBE"/>
<path d="M142.868 248.967C143.807 249.124 144.619 248.049 145.56 248.2C145.764 248.241 145.96 248.317 146.138 248.424C147.539 249.204 148.542 250.526 148.904 252.07C149.011 252.536 149.052 253.041 148.852 253.477C148.746 253.708 148.577 253.906 148.409 254.098C147.783 254.814 147.096 255.528 146.204 255.874C146.116 256.172 146.2 256.494 146.305 256.785C146.741 258.004 146.047 259.317 146.012 260.608C146.006 260.829 146.012 261.07 145.872 261.243C145.716 261.434 145.438 261.468 145.189 261.482C142.908 261.609 140.63 261.264 138.373 260.922C138.313 260.917 138.256 260.898 138.207 260.866C138.133 260.808 138.121 260.704 138.106 260.612C138.022 260.124 138.463 259.728 138.254 259.278C137.895 258.504 138.678 257.658 138.904 256.836C139.129 256.015 139.218 255.871 139.376 255.035C139.435 254.722 139.265 253.779 139.317 253.465C139.487 252.44 139.358 251.272 139.908 250.385C140.238 249.852 140.152 249.437 140.741 249.205C141.363 248.96 142.204 249.043 142.869 248.967H142.868Z" fill="#F5F4F4"/>
<path d="M132.464 262.486C131.777 262.617 131.046 262.741 130.517 263.192C130.194 263.468 129.977 263.842 129.766 264.208L127.613 267.944C126.956 269.083 126.299 270.223 125.703 271.394C125.651 271.479 125.621 271.575 125.614 271.675C125.617 271.815 125.712 271.935 125.81 272.036C126.499 272.739 127.484 273.08 128.468 272.956C128.616 272.201 129.345 271.703 129.703 271.019C129.899 270.644 129.978 270.222 130.104 269.818C130.577 268.313 131.699 267.104 132.789 265.951C133.304 265.405 133.831 264.85 134.494 264.492C135.272 264.072 136.175 263.956 137.045 263.782C137.914 263.607 138.815 263.343 139.43 262.714C139.959 262.165 140.209 261.411 140.112 260.661C139.555 260.622 138.935 260.551 138.397 260.727C137.773 260.932 137.169 261.212 136.544 261.421C135.21 261.868 133.847 262.224 132.464 262.486H132.464Z" fill="#696880"/>
<path opacity="0.1" d="M132.464 262.486C131.777 262.617 131.046 262.741 130.517 263.192C130.194 263.468 129.977 263.842 129.766 264.208L127.613 267.944C126.956 269.083 126.299 270.223 125.703 271.394C125.651 271.479 125.621 271.575 125.614 271.675C125.617 271.815 125.712 271.935 125.81 272.036C126.499 272.739 127.484 273.08 128.468 272.956C128.616 272.201 129.345 271.703 129.703 271.019C129.899 270.644 129.978 270.222 130.104 269.818C130.577 268.313 131.699 267.104 132.789 265.951C133.304 265.405 133.831 264.85 134.494 264.492C135.272 264.072 136.175 263.956 137.045 263.782C137.914 263.607 138.815 263.343 139.43 262.714C139.959 262.165 140.209 261.411 140.112 260.661C139.555 260.622 138.935 260.551 138.397 260.727C137.773 260.932 137.169 261.212 136.544 261.421C135.21 261.868 133.847 262.224 132.464 262.486H132.464Z" fill="black"/>
<path d="M123.181 274.332C123.104 274.386 123.045 274.461 123.012 274.547C122.934 274.809 123.267 274.994 123.534 275.07C124.133 275.239 124.773 275.41 125.371 275.235C125.738 275.127 126.057 274.898 126.421 274.783C126.962 274.612 127.548 274.709 128.106 274.807C128.231 274.116 128.147 273.403 127.865 272.759C127.685 272.352 126.968 272.154 126.54 272.136C126.073 272.116 125.911 272.455 125.641 272.767C124.985 273.528 123.938 273.704 123.182 274.332H123.181Z" fill="#3F3D56"/>
<path d="M132.903 263.599C132.572 263.729 132.233 263.863 131.974 264.103C131.7 264.356 131.54 264.703 131.394 265.043C130.962 266.049 130.595 267.081 130.293 268.132C130.141 268.663 130.006 269.2 129.801 269.714C129.391 270.74 128.697 271.721 128.762 272.82C128.762 272.954 128.798 273.085 128.868 273.2C128.961 273.333 129.118 273.403 129.268 273.467L130.054 273.802C130.476 273.982 130.99 274.156 131.367 273.896C131.619 273.723 131.719 273.409 131.796 273.115C132.07 272.056 132.24 270.956 132.732 269.977C133.288 268.87 134.228 267.975 134.725 266.841C134.796 266.681 134.863 266.509 135.001 266.399C135.116 266.308 135.264 266.273 135.407 266.241C138.357 265.58 141.374 265.219 144.3 264.463C144.716 264.356 145.152 264.228 145.449 263.922C145.861 263.497 145.897 262.851 145.91 262.265C145.918 261.897 145.917 261.498 145.689 261.206C145.432 260.877 144.972 260.791 144.553 260.747C142.946 260.581 141.463 260.843 139.879 261.035C138.431 261.21 136.972 262.015 135.62 262.541C134.715 262.893 133.81 263.247 132.905 263.601L132.903 263.599Z" fill="#696880"/>
<path d="M129.268 274.107C129.047 274.624 128.808 275.163 128.36 275.508C128.173 275.652 127.931 275.797 127.924 276.031C127.916 276.278 128.18 276.442 128.417 276.525C129.019 276.739 129.705 276.785 130.293 276.535C130.696 276.363 131.027 276.067 131.351 275.777C131.448 275.689 131.549 275.597 131.595 275.475C131.626 275.372 131.635 275.265 131.622 275.158C131.583 274.513 131.466 273.874 131.273 273.255C131.258 273.206 129.987 273.051 129.874 273.08C129.519 273.171 129.404 273.788 129.267 274.107H129.268Z" fill="#3F3D56"/>
<path d="M149.034 259.133L141.355 259.365C141.355 259.365 134.561 265.875 140.173 267.852C140.173 267.852 147.085 268.956 148.739 267.677C148.739 267.677 150.806 259.656 149.034 259.133ZM148.68 261.283L140.469 261.807C140.469 261.807 141.059 259.83 143.422 259.83C145.785 259.83 148.443 259.307 148.68 260.528C148.916 261.748 148.68 261.283 148.68 261.283Z" fill="#3F3D56"/>
<path d="M147.291 279.999C151.549 279.999 155 276.148 155 271.397C155 266.645 151.549 262.794 147.291 262.794C143.034 262.794 139.582 266.645 139.582 271.397C139.582 276.148 143.034 279.999 147.291 279.999Z" fill="#36334A"/>
<path d="M147.646 277.791C150.859 277.791 153.464 274.928 153.464 271.397C153.464 267.866 150.859 265.003 147.646 265.003C144.432 265.003 141.827 267.866 141.827 271.397C141.827 274.928 144.432 277.791 147.646 277.791Z" fill="#3F3D56"/>
<path d="M149.152 271.31C149.152 271.198 149.141 271.087 149.118 270.978L153.464 268.84L153.169 268.2L148.779 270.305C148.734 270.26 148.685 270.22 148.633 270.185H148.636L149.92 263.9L148.785 263.874L148.03 270.061L148.102 270.076C148.044 270.088 147.987 270.107 147.933 270.133L144.136 266.298L143.599 267.038L147.5 270.57C147.402 270.754 147.344 270.957 147.328 271.165L141.828 273.374L141.71 274.304L147.443 271.931C147.497 272.062 147.572 272.182 147.667 272.288L145.904 278.198H146.553L148.034 272.528C148.099 272.549 148.168 272.56 148.237 272.56C148.371 272.559 148.5 272.521 148.613 272.449L151.693 276.455L152.638 275.815L149.029 271.936C149.111 271.738 149.153 271.525 149.153 271.311L149.152 271.31Z" fill="#36334A"/>
<path d="M140.627 244.096C140.731 243.839 141.066 243.732 141.176 243.477C141.294 243.203 141.109 242.855 141.27 242.602C141.432 242.348 141.81 242.378 142.111 242.427C142.466 242.485 142.843 242.524 143.174 242.385C143.322 242.324 143.453 242.23 143.595 242.158C143.822 242.045 144.074 241.991 144.328 242.001C144.385 242 144.442 242.013 144.492 242.04C144.54 242.074 144.577 242.121 144.599 242.175C144.703 242.396 144.717 242.671 144.905 242.83C144.995 242.906 145.112 242.942 145.22 242.99C145.735 243.234 146.04 243.769 145.985 244.328C145.96 244.455 145.944 244.583 145.938 244.711C145.945 244.994 146.133 245.276 146.037 245.543C145.966 245.741 145.757 245.858 145.553 245.92C145.495 245.943 145.43 245.946 145.37 245.929C145.266 245.887 145.244 245.754 145.211 245.648C145.114 245.362 144.839 245.172 144.533 245.178C144.295 245.188 144.053 245.32 143.829 245.241C143.719 245.203 143.632 245.119 143.544 245.043C143.34 244.869 143.1 244.723 142.833 244.686C142.566 244.649 142.27 244.738 142.113 244.953C142.049 245.04 142.011 245.142 141.951 245.231C141.406 246.032 140.403 244.649 140.627 244.094L140.627 244.096Z" fill="#36334A"/>
<path d="M141.854 257.911C141.649 257.885 141.444 257.96 141.306 258.112C140.789 258.575 140.241 259.098 140.148 259.779C140.134 259.842 140.141 259.907 140.169 259.964C140.219 260.045 140.328 260.062 140.424 260.064C140.912 260.068 141.379 259.866 141.705 259.507C141.793 259.408 141.875 259.295 141.997 259.239C142.108 259.198 142.227 259.184 142.345 259.196C142.669 259.207 143.41 259.37 143.692 259.212C143.989 259.046 143.908 258.524 143.769 258.272C143.439 257.674 142.416 257.905 141.854 257.911V257.911Z" fill="#FBBEBE"/>
<path d="M149.069 252.89C149.268 253.519 149.151 254.227 149.433 254.824C149.62 255.221 149.971 255.54 150.08 255.964C150.183 256.364 150.045 256.796 149.803 257.133C149.562 257.471 149.226 257.73 148.888 257.976C148.519 258.245 148.136 258.508 147.7 258.653C147.266 258.799 146.801 258.82 146.344 258.841L143.308 258.978L142.75 257.329L144.727 256.567C144.925 256.491 145.127 256.414 145.339 256.398C145.705 256.371 146.151 256.504 146.386 256.226C146.461 256.124 146.508 256.005 146.524 255.881C146.716 254.912 146.549 253.887 146.844 252.944C146.99 252.477 147.412 251.541 147.988 251.458C148.597 251.371 148.932 252.454 149.07 252.89H149.069Z" fill="#F5F4F4"/>
</g>
<defs>
<clipPath id="clip0_282_17578">
<rect width="433.31" height="315.48" fill="white"/>
</clipPath>
</defs>
</svg>
