<svg width="434" height="316" viewBox="0 0 434 316" fill="none" xmlns="http://www.w3.org/2000/svg">
<g clip-path="url(#clip0_282_14070)">
<path d="M119.79 217.73C118.37 219.3 117.25 221.04 115.53 222.43C114.71 223.09 114.87 224.27 114.87 225.26C114.86 228.58 113.85 229.69 110.16 230.65C105.92 231.75 102.49 230.65 99.72 227.76C98.88 226.88 98.02 226.01 97.03 225.27C94.79 223.61 92.48 223.04 89.64 224.49C86.3 226.2 83.15 228 80.84 230.79C79.88 231.95 79.29 233.2 79.05 234.58C78.95 235.15 78.94 235.62 78.2 235.84C75.21 236.72 71.86 235.1 71.24 232.43C70.77 230.43 69.56 228.74 68.35 227.06C68 226.58 67.5 226.3 66.72 226.31C64.74 226.33 62.76 226.24 60.78 226.15C59.68 226.09 59.04 226.27 58.89 227.41C58.76 228.45 58.39 229.51 57.88 230.45C57 232.06 55.56 233.25 53.83 234.25C50.78 236.02 50.84 236.82 51.38 238.7C51.75 239.99 53.06 240.68 54.23 241.39C55.29 242.03 56.44 242.55 57.49 243.2C60.31 244.93 60.22 247.38 57.29 248.93C56.9 249.14 56.46 249.27 56.07 249.47C53.82 250.63 53.27 252.21 54.87 253.93C57.2 256.42 59.69 258.79 62.24 261.1C63.6 262.33 67.01 261.75 68.36 260.23C68.78 259.76 69.14 259.24 69.6 258.81C69.93 258.5 70.45 258.38 70.67 257.98C72.13 258.47 73.43 258.89 74.71 259.34C75.94 259.77 76.81 260.43 77.2 261.66C78.01 264.18 79.94 264.76 82.51 263.48C83.08 263.2 83.6 262.87 84.12 262.54C86.02 261.35 86.31 260.41 85.76 258.43C85.12 256.14 85.36 255.52 87.62 254.31C88.48 253.85 89.36 253.41 90.28 253.06C92.68 252.15 94.96 251.2 96.46 249.13C97.55 247.63 99.53 246.83 100.96 245.55C102.03 244.59 102.55 243.7 102.44 242.29C102.36 241.17 101.49 239.57 103.4 238.92C104.89 238.42 105.94 239.48 107.08 240.13C109.85 241.74 112.12 243.83 114.45 245.88C115.74 247.02 115.79 248.64 116.56 250.02C118.43 250.56 120.58 249.71 122.63 250.61C121.38 252.36 122.31 253.65 123.47 254.84C125.5 256.92 128.19 258.18 131.05 259.13C134.68 260.35 137.97 258.91 141.38 258.01C140.62 255.82 140.66 253.72 141.13 251.55C133.81 249.29 131.29 243.77 129.23 237.98C128.87 236.96 128.76 235.83 128.51 234.77C128.11 233.1 128.88 231.77 129.66 230.48C130.17 229.64 130.73 228.8 131.24 227.94C133.06 224.91 132.1 222.35 128.58 220.96C125.74 219.84 122.85 218.8 119.98 217.72" fill="#D1FF00"/>
<path d="M76.8735 244.408C79.6955 244.408 81.9832 241.855 81.9832 238.706C81.9832 235.557 79.6955 233.004 76.8735 233.004C74.0515 233.004 71.7638 235.557 71.7638 238.706C71.7638 241.855 74.0515 244.408 76.8735 244.408Z" fill="#36334A"/>
<path d="M83.4321 219.732C82.204 220.259 80.8655 220.488 79.5287 220.398C79.8719 220.156 80.0922 219.77 80.1808 219.364C80.2694 218.958 80.2358 218.535 80.1442 218.13C80.1277 218.083 80.1283 218.032 80.1472 217.987C80.185 217.941 80.2429 217.914 80.3031 217.914C80.8206 217.843 82.3033 217.535 82.6973 217.971C82.884 218.178 82.8125 218.579 82.881 218.832C82.9094 218.936 83.2697 219.803 83.4321 219.733V219.732Z" fill="#FBBEBE"/>
<path opacity="0.1" d="M83.4321 219.732C82.204 220.259 80.8655 220.488 79.5287 220.398C79.8719 220.156 80.0922 219.77 80.1808 219.364C80.2694 218.958 80.2358 218.535 80.1442 218.13C80.1277 218.083 80.1283 218.032 80.1472 217.987C80.185 217.941 80.2429 217.914 80.3031 217.914C80.8206 217.843 82.3033 217.535 82.6973 217.971C82.884 218.178 82.8125 218.579 82.881 218.832C82.9094 218.936 83.2697 219.803 83.4321 219.733V219.732Z" fill="black"/>
<path d="M79.1182 228.389L71.4389 228.621C71.4389 228.621 64.6456 235.131 70.2574 237.108C70.2574 237.108 77.1688 238.212 78.8228 236.933C78.8228 236.933 80.8904 228.912 79.1182 228.389ZM78.7638 230.539L70.5528 231.062C70.5528 231.062 71.1435 229.086 73.5064 229.086C75.8693 229.086 78.5275 228.563 78.7638 229.784C79.0001 231.004 78.7638 230.539 78.7638 230.539Z" fill="#3F3D56"/>
<path d="M73.064 227.345C72.6812 227.287 72.2647 227.254 71.9292 227.445C71.8176 227.513 71.7136 227.594 71.6197 227.685C71.485 227.807 71.3509 227.93 71.218 228.054C71.1211 228.145 71.0195 228.245 70.9941 228.374C70.9427 228.64 71.2558 228.856 71.5311 228.845C71.8063 228.835 72.0533 228.686 72.3138 228.596C72.8377 228.416 74.7641 228.724 74.8692 228.17C75.0033 227.464 73.4899 227.412 73.064 227.346V227.345Z" fill="#FBBEBE"/>
<path d="M76.6544 226.9C76.1534 227.151 75.6082 227.303 75.0482 227.349C74.9608 227.35 74.8745 227.369 74.7942 227.402C74.7457 227.432 74.7085 227.476 74.6884 227.529C74.4917 227.934 74.3701 228.371 74.3293 228.819C74.3187 228.863 74.3346 228.909 74.3706 228.937C74.4244 228.964 74.4841 228.977 74.5443 228.975C75.4635 229.033 76.3856 229.064 77.3106 229.068C77.3514 229.071 77.3928 229.065 77.4312 229.051C77.4583 229.038 77.4778 229.013 77.4867 228.984C77.7035 228.453 77.8063 227.883 77.7874 227.311C77.7631 226.638 77.5629 226.427 76.6549 226.901L76.6544 226.9Z" fill="#D7E5F2"/>
<path d="M76.6544 226.9C76.1534 227.151 75.6082 227.303 75.0482 227.349C74.9608 227.35 74.8745 227.369 74.7942 227.402C74.7457 227.432 74.7085 227.476 74.6884 227.529C74.4917 227.934 74.3701 228.371 74.3293 228.819C74.3187 228.863 74.3346 228.909 74.3706 228.937C74.4244 228.964 74.4841 228.977 74.5443 228.975C75.4635 229.033 76.3856 229.064 77.3106 229.068C77.3514 229.071 77.3928 229.065 77.4312 229.051C77.4583 229.038 77.4778 229.013 77.4867 228.984C77.7035 228.453 77.8063 227.883 77.7874 227.311C77.7631 226.638 77.5629 226.427 76.6549 226.901L76.6544 226.9Z" fill="#F5F4F4"/>
<path d="M86.9747 232.981L76.8734 232.632L79.2363 222.809C79.2363 222.809 88.6878 222.111 88.4515 224.495C88.2152 226.878 86.9747 232.981 86.9747 232.981Z" fill="#36334A"/>
<path d="M77.2231 237.676C77.2231 237.676 71.1435 238.734 68.9578 235.596C66.7721 232.457 77.2278 234.142 77.2278 234.142L78.1139 236.526L77.2231 237.676Z" fill="#36334A"/>
<path d="M75.3966 251C76.93 251 78.173 249.777 78.173 248.268C78.173 246.759 76.93 245.536 75.3966 245.536C73.8633 245.536 72.6202 246.759 72.6202 248.268C72.6202 249.777 73.8633 251 75.3966 251Z" fill="#36334A"/>
<path d="M75.6625 250.244C76.625 250.244 77.4052 249.359 77.4052 248.267C77.4052 247.176 76.625 246.291 75.6625 246.291C74.7001 246.291 73.9199 247.176 73.9199 248.267C73.9199 249.359 74.7001 250.244 75.6625 250.244Z" fill="#3F3D56"/>
<path d="M90.5781 222.519C90.5781 222.519 88.2743 221.24 88.1562 224.262L86.2068 238.329H87.0338L89.2785 223.274C89.2785 223.274 90.4009 223.449 90.5781 223.449C90.7553 223.449 90.5781 222.519 90.5781 222.519Z" fill="#3F3D56"/>
<path d="M92.8736 224.07C92.7921 224.36 92.4873 224.529 92.1937 224.449C92.17 224.442 92.147 224.434 92.1246 224.425L89.4521 223.301L89.9371 222.25L92.5711 223.431C92.8186 223.542 92.9474 223.813 92.8742 224.07H92.8736Z" fill="#36334A"/>
<path d="M76.6371 237.34C76.6371 237.34 72.3839 236.875 71.2025 240.885C70.021 244.896 70.1392 247.977 69.135 247.744C68.1307 247.512 66.0042 246.698 66.0042 246.698L66.1814 247.919C66.1814 247.919 69.9029 249.779 70.4936 247.802C71.0843 245.826 71.4388 238.56 74.8058 238.735C78.1729 238.909 78.7636 238.56 78.7636 238.56L76.6371 237.34Z" fill="#3F3D56"/>
<path d="M68.5444 235.422C68.5444 235.422 65.2364 235.829 63.9368 238.212C62.6372 240.595 61.9874 244.896 61.9874 244.896H63.2279C63.2279 244.896 63.9368 236.352 67.6583 236.817L68.5444 235.422Z" fill="#3F3D56"/>
<path d="M66.2996 248.734L61.0422 245.537C61.0422 245.537 60.7469 244.374 64.114 243.909C64.114 243.909 70.4801 246.1 69.8664 246.922C69.2526 247.745 67.1857 249.024 66.2996 248.734Z" fill="#36334A"/>
<path d="M74.4515 238.328V245.129H75.2187V238.212L74.4515 238.328Z" fill="#3F3D56"/>
<path d="M75.5739 242.513C75.5739 242.513 77.0507 248.209 76.1056 249.023C76.1056 249.023 74.8651 245.419 73.9199 245.884L74.2153 242.513H75.5739Z" fill="#36334A"/>
<path d="M81.3038 218.798C82.5762 218.798 83.6076 217.784 83.6076 216.532C83.6076 215.28 82.5762 214.265 81.3038 214.265C80.0314 214.265 79 215.28 79 216.532C79 217.784 80.0314 218.798 81.3038 218.798Z" fill="#FBBEBE"/>
<path d="M80.8679 219.967C81.8071 220.124 82.6193 219.049 83.5598 219.2C83.7642 219.241 83.9603 219.317 84.1381 219.424C85.5387 220.204 86.5423 221.526 86.9044 223.07C87.0107 223.536 87.0515 224.041 86.8518 224.477C86.7455 224.708 86.5772 224.906 86.4088 225.098C85.7832 225.814 85.0962 226.528 84.2037 226.874C84.1162 227.172 84.2001 227.494 84.3047 227.785C84.7412 229.004 84.0471 230.317 84.0117 231.608C84.0058 231.829 84.0123 232.07 83.8723 232.243C83.7163 232.434 83.4381 232.468 83.1894 232.482C80.908 232.609 78.6302 232.264 76.3725 231.922C76.3134 231.917 76.2561 231.898 76.2071 231.866C76.1327 231.808 76.1215 231.704 76.1061 231.612C76.0222 231.124 76.4629 230.728 76.2538 230.278C75.8946 229.504 76.6779 228.658 76.9036 227.836C77.1292 227.015 77.2184 226.871 77.3761 226.035C77.4352 225.722 77.2651 224.779 77.3171 224.465C77.4866 223.44 77.3584 222.272 77.9078 221.385C78.238 220.852 78.1523 220.437 78.7413 220.205C79.3627 219.96 80.2039 220.043 80.8691 219.967H80.8679Z" fill="#F5F4F4"/>
<path d="M70.4642 233.486C69.7766 233.617 69.0465 233.741 68.5172 234.192C68.1941 234.468 67.9767 234.842 67.7658 235.208L65.6127 238.944C64.9558 240.083 64.2989 241.223 63.7035 242.394C63.6515 242.479 63.6208 242.575 63.6143 242.675C63.6166 242.815 63.7123 242.935 63.8098 243.036C64.4986 243.739 65.4845 244.08 66.468 243.956C66.6163 243.201 67.3452 242.703 67.7026 242.019C67.8987 241.644 67.9779 241.222 68.1043 240.818C68.5769 239.313 69.6992 238.104 70.7885 236.951C71.3036 236.405 71.8305 235.85 72.4939 235.492C73.2719 235.072 74.1751 234.956 75.0446 234.782C75.9142 234.607 76.815 234.343 77.43 233.714C77.9586 233.165 78.2091 232.411 78.1122 231.661C77.5552 231.622 76.9349 231.551 76.3974 231.727C75.773 231.932 75.1693 232.212 74.5443 232.421C73.2105 232.868 71.8471 233.224 70.4636 233.486H70.4642Z" fill="#696880"/>
<path opacity="0.1" d="M70.4642 233.486C69.7766 233.617 69.0465 233.741 68.5172 234.192C68.1941 234.468 67.9767 234.842 67.7658 235.208L65.6127 238.944C64.9558 240.083 64.2989 241.223 63.7035 242.394C63.6515 242.479 63.6208 242.575 63.6143 242.675C63.6166 242.815 63.7123 242.935 63.8098 243.036C64.4986 243.739 65.4845 244.08 66.468 243.956C66.6163 243.201 67.3452 242.703 67.7026 242.019C67.8987 241.644 67.9779 241.222 68.1043 240.818C68.5769 239.313 69.6992 238.104 70.7885 236.951C71.3036 236.405 71.8305 235.85 72.4939 235.492C73.2719 235.072 74.1751 234.956 75.0446 234.782C75.9142 234.607 76.815 234.343 77.43 233.714C77.9586 233.165 78.2091 232.411 78.1122 231.661C77.5552 231.622 76.9349 231.551 76.3974 231.727C75.773 231.932 75.1693 232.212 74.5443 232.421C73.2105 232.868 71.8471 233.224 70.4636 233.486H70.4642Z" fill="black"/>
<path d="M61.1811 245.332C61.1043 245.386 61.0452 245.461 61.0115 245.547C60.9336 245.809 61.2667 245.994 61.5337 246.07C62.1333 246.239 62.7731 246.41 63.3709 246.235C63.7377 246.127 64.0567 245.898 64.4212 245.783C64.9617 245.612 65.5477 245.709 66.1065 245.807C66.2311 245.116 66.1472 244.403 65.8649 243.759C65.6853 243.352 64.9676 243.154 64.5405 243.136C64.0732 243.116 63.9114 243.455 63.6414 243.767C62.9845 244.528 61.9384 244.704 61.1817 245.332H61.1811Z" fill="#3F3D56"/>
<path d="M70.9025 234.599C70.5723 234.729 70.2332 234.863 69.9739 235.103C69.7004 235.356 69.5397 235.703 69.3938 236.043C68.962 237.049 68.5946 238.081 68.2933 239.132C68.1409 239.663 68.0057 240.2 67.8007 240.714C67.3913 241.74 66.6972 242.721 66.7622 243.82C66.7622 243.954 66.7982 244.085 66.8679 244.2C66.9607 244.333 67.1184 244.403 67.2684 244.467L68.0541 244.802C68.4759 244.982 68.9898 245.156 69.3667 244.896C69.6189 244.723 69.7193 244.409 69.7955 244.115C70.0702 243.056 70.2397 241.956 70.7318 240.977C71.2877 239.87 72.2281 238.975 72.7255 237.841C72.7958 237.681 72.8625 237.509 73.0013 237.399C73.1159 237.308 73.2642 237.273 73.4072 237.241C76.3572 236.58 79.374 236.219 82.3004 235.463C82.7163 235.356 83.1516 235.228 83.4488 234.922C83.8605 234.497 83.8971 233.851 83.9101 233.265C83.9184 232.897 83.9166 232.498 83.6892 232.206C83.4322 231.877 82.9721 231.791 82.5532 231.747C80.9459 231.581 79.4632 231.843 77.8795 232.035C76.4311 232.21 74.972 233.015 73.6204 233.541C72.7149 233.893 71.8099 234.247 70.9049 234.601L70.9025 234.599Z" fill="#696880"/>
<path d="M67.2678 245.107C67.0468 245.624 66.8082 246.163 66.3604 246.508C66.1732 246.652 65.931 246.797 65.9239 247.031C65.9162 247.278 66.1802 247.442 66.4165 247.525C67.0191 247.739 67.7055 247.785 68.2932 247.535C68.6955 247.363 69.0269 247.067 69.3506 246.777C69.4481 246.689 69.5491 246.597 69.5946 246.475C69.6259 246.372 69.6353 246.265 69.6218 246.158C69.5828 245.513 69.4658 244.874 69.2732 244.255C69.2585 244.206 67.9872 244.051 67.8744 244.08C67.5194 244.171 67.4042 244.788 67.2672 245.107H67.2678Z" fill="#3F3D56"/>
<path d="M87.034 230.133L79.3546 230.365C79.3546 230.365 72.5614 236.875 78.1732 238.852C78.1732 238.852 85.0846 239.956 86.7386 238.677C86.7386 238.677 88.8061 230.656 87.034 230.133ZM86.6795 232.283L78.4686 232.807C78.4686 232.807 79.0593 230.83 81.4222 230.83C83.785 230.83 86.4433 230.307 86.6795 231.528C86.9158 232.748 86.6795 232.283 86.6795 232.283Z" fill="#3F3D56"/>
<path d="M85.2911 250.999C89.5486 250.999 93 247.148 93 242.397C93 237.645 89.5486 233.794 85.2911 233.794C81.0337 233.794 77.5823 237.645 77.5823 242.397C77.5823 247.148 81.0337 250.999 85.2911 250.999Z" fill="#36334A"/>
<path d="M85.6457 248.791C88.8592 248.791 91.4643 245.928 91.4643 242.397C91.4643 238.866 88.8592 236.003 85.6457 236.003C82.4322 236.003 79.8271 238.866 79.8271 242.397C79.8271 245.928 82.4322 248.791 85.6457 248.791Z" fill="#3F3D56"/>
<path d="M87.152 242.31C87.152 242.198 87.1408 242.087 87.1184 241.978L91.4643 239.84L91.1689 239.2L86.7787 241.305C86.7344 241.26 86.6854 241.22 86.6328 241.185H86.6363L87.92 234.9L86.7846 234.874L86.0297 241.061L86.1023 241.076C86.0439 241.088 85.9866 241.107 85.9328 241.133L82.1357 237.298L81.5993 238.038L85.5004 241.57C85.4023 241.754 85.3439 241.957 85.3279 242.165L79.8277 244.374L79.7096 245.304L85.4431 242.931C85.4969 243.062 85.5725 243.182 85.667 243.288L83.9037 249.198H84.5535L86.0338 243.528C86.0994 243.549 86.1679 243.56 86.237 243.56C86.3705 243.559 86.5005 243.521 86.6127 243.449L89.6927 247.455L90.6379 246.815L87.0286 242.936C87.1113 242.738 87.1532 242.525 87.1526 242.311L87.152 242.31Z" fill="#36334A"/>
<path d="M78.6267 215.096C78.7307 214.839 79.0662 214.732 79.1761 214.477C79.2943 214.203 79.1088 213.855 79.27 213.602C79.4319 213.348 79.81 213.378 80.1106 213.427C80.4656 213.485 80.8431 213.524 81.1745 213.385C81.3216 213.324 81.4527 213.23 81.5951 213.158C81.8219 213.045 82.0742 212.991 82.3282 213.001C82.3855 213 82.4422 213.013 82.4924 213.04C82.5402 213.074 82.5775 213.121 82.5993 213.175C82.7027 213.396 82.7175 213.671 82.9053 213.83C82.9951 213.906 83.1121 213.942 83.2202 213.99C83.7347 214.234 84.0401 214.769 83.9846 215.328C83.9597 215.455 83.9444 215.583 83.9379 215.711C83.945 215.994 84.1328 216.276 84.0371 216.543C83.9657 216.741 83.7571 216.858 83.5527 216.92C83.4948 216.943 83.4305 216.946 83.3702 216.929C83.2657 216.887 83.2444 216.754 83.2107 216.648C83.1138 216.362 82.8392 216.172 82.5332 216.178C82.2951 216.188 82.0535 216.32 81.829 216.241C81.7186 216.203 81.6323 216.119 81.5437 216.043C81.3405 215.869 81.1001 215.723 80.8331 215.686C80.5661 215.649 80.2701 215.738 80.113 215.953C80.0492 216.04 80.0108 216.142 79.9505 216.231C79.4059 217.032 78.4029 215.649 78.6273 215.094L78.6267 215.096Z" fill="#36334A"/>
<path d="M79.8543 228.911C79.6493 228.885 79.4437 228.96 79.3061 229.112C78.7892 229.575 78.241 230.098 78.1477 230.779C78.1335 230.842 78.1412 230.907 78.169 230.964C78.2186 231.045 78.3285 231.062 78.4236 231.064C78.9121 231.068 79.3794 230.866 79.7048 230.507C79.7934 230.408 79.875 230.295 79.9967 230.239C80.1077 230.198 80.227 230.184 80.3446 230.196C80.6689 230.207 81.4096 230.37 81.692 230.212C81.9891 230.046 81.9076 229.524 81.7688 229.272C81.4386 228.674 80.4161 228.905 79.8543 228.911V228.911Z" fill="#FBBEBE"/>
<path d="M87.0691 223.89C87.2676 224.519 87.1512 225.227 87.433 225.824C87.6197 226.221 87.9712 226.54 88.0798 226.964C88.1826 227.364 88.045 227.796 87.8034 228.133C87.5618 228.471 87.2257 228.73 86.8884 228.976C86.5192 229.245 86.1358 229.508 85.7004 229.653C85.2663 229.799 84.8014 229.82 84.3436 229.841L81.3085 229.978L80.7496 228.329L82.7274 227.567C82.9252 227.491 83.1267 227.414 83.3387 227.398C83.705 227.371 84.151 227.504 84.3861 227.226C84.4605 227.124 84.5084 227.005 84.5243 226.881C84.7163 225.912 84.5491 224.887 84.8445 223.944C84.9904 223.477 85.4122 222.541 85.9875 222.458C86.5971 222.371 86.9321 223.454 87.0697 223.89H87.0691Z" fill="#F5F4F4"/>
</g>
<defs>
<clipPath id="clip0_282_14070">
<rect width="433.31" height="315.48" fill="white"/>
</clipPath>
</defs>
</svg>
