<svg width="434" height="316" viewBox="0 0 434 316" fill="none" xmlns="http://www.w3.org/2000/svg">
<g clip-path="url(#clip0_282_24594)">
<path d="M359.05 161.089C358.5 163.129 358.73 164.969 360.01 166.859C361.18 168.579 360.03 170.529 359.88 172.389C359.63 175.479 357.94 178.109 355.9 180.409C352.59 184.139 350.04 188.249 347.41 192.319C345.92 194.629 343.74 195.939 341.36 197.479C337.98 199.659 334.46 199.159 330.98 199.409C325.39 199.809 319.75 199.749 314.2 200.589C313.43 200.709 313.1 200.479 312.54 200.209C308.88 198.509 305.51 196.389 301.82 194.669C303.21 192.989 304.83 191.489 304.61 189.239C304.57 188.789 305.06 188.249 305.6 187.999C309.73 186.089 310.09 182.719 310.1 179.199C310.1 177.579 310.04 175.969 310.3 174.359C310.61 172.459 310.85 170.579 312.33 168.969C315.19 165.849 316.79 162.079 318.89 158.579C320.3 156.229 321.69 153.879 323.82 151.959C327.32 148.819 329.89 148.499 334.25 150.719C335.18 151.189 336.13 151.629 336.94 152.299C337.95 153.119 338.98 153.219 340.22 152.349C342.71 150.619 345.36 149.059 347.94 147.439C349.53 148.879 349.98 151.419 348.77 153.019C348.07 153.939 347.38 154.869 346.58 155.749C344.77 157.739 345.26 159.249 347.99 160.569C350.78 161.919 353.79 161.819 356.79 161.439C357.47 161.349 358.09 160.909 358.84 160.929" fill="#D1FF00"/>
<path d="M329.874 173.408C332.696 173.408 334.983 170.855 334.983 167.706C334.983 164.557 332.696 162.004 329.874 162.004C327.051 162.004 324.764 164.557 324.764 167.706C324.764 170.855 327.051 173.408 329.874 173.408Z" fill="#36334A"/>
<path d="M336.432 148.732C335.204 149.259 333.865 149.488 332.529 149.398C332.872 149.156 333.092 148.77 333.181 148.364C333.269 147.958 333.236 147.535 333.144 147.13C333.128 147.083 333.128 147.032 333.147 146.987C333.185 146.941 333.243 146.914 333.303 146.914C333.821 146.843 335.303 146.535 335.697 146.971C335.884 147.178 335.812 147.579 335.881 147.832C335.909 147.936 336.27 148.803 336.432 148.733V148.732Z" fill="#FBBEBE"/>
<path opacity="0.1" d="M336.432 148.732C335.204 149.259 333.865 149.488 332.529 149.398C332.872 149.156 333.092 148.77 333.181 148.364C333.269 147.958 333.236 147.535 333.144 147.13C333.128 147.083 333.128 147.032 333.147 146.987C333.185 146.941 333.243 146.914 333.303 146.914C333.821 146.843 335.303 146.535 335.697 146.971C335.884 147.178 335.812 147.579 335.881 147.832C335.909 147.936 336.27 148.803 336.432 148.733V148.732Z" fill="black"/>
<path d="M332.118 157.389L324.439 157.621C324.439 157.621 317.646 164.131 323.257 166.108C323.257 166.108 330.169 167.212 331.823 165.933C331.823 165.933 333.89 157.912 332.118 157.389ZM331.764 159.539L323.553 160.062C323.553 160.062 324.144 158.086 326.506 158.086C328.869 158.086 331.527 157.563 331.764 158.784C332 160.004 331.764 159.539 331.764 159.539Z" fill="#3F3D56"/>
<path d="M326.064 156.345C325.681 156.287 325.265 156.254 324.929 156.445C324.818 156.513 324.714 156.594 324.62 156.685C324.485 156.807 324.351 156.93 324.218 157.054C324.121 157.145 324.02 157.245 323.994 157.374C323.943 157.64 324.256 157.856 324.531 157.845C324.806 157.835 325.053 157.686 325.314 157.596C325.838 157.416 327.764 157.724 327.869 157.17C328.003 156.464 326.49 156.412 326.064 156.346V156.345Z" fill="#FBBEBE"/>
<path d="M329.654 155.9C329.153 156.151 328.608 156.303 328.048 156.349C327.961 156.35 327.875 156.369 327.794 156.402C327.746 156.432 327.709 156.476 327.688 156.529C327.492 156.934 327.37 157.371 327.329 157.819C327.319 157.863 327.335 157.909 327.371 157.937C327.424 157.964 327.484 157.977 327.544 157.975C328.463 158.033 329.386 158.064 330.311 158.068C330.351 158.071 330.393 158.065 330.431 158.051C330.458 158.038 330.478 158.013 330.487 157.984C330.703 157.453 330.806 156.883 330.787 156.311C330.763 155.638 330.563 155.427 329.655 155.901L329.654 155.9Z" fill="#D7E5F2"/>
<path d="M329.654 155.9C329.153 156.151 328.608 156.303 328.048 156.349C327.961 156.35 327.875 156.369 327.794 156.402C327.746 156.432 327.709 156.476 327.688 156.529C327.492 156.934 327.37 157.371 327.329 157.819C327.319 157.863 327.335 157.909 327.371 157.937C327.424 157.964 327.484 157.977 327.544 157.975C328.463 158.033 329.386 158.064 330.311 158.068C330.351 158.071 330.393 158.065 330.431 158.051C330.458 158.038 330.478 158.013 330.487 157.984C330.703 157.453 330.806 156.883 330.787 156.311C330.763 155.638 330.563 155.427 329.655 155.901L329.654 155.9Z" fill="#F5F4F4"/>
<path d="M339.975 161.981L329.873 161.632L332.236 151.809C332.236 151.809 341.688 151.111 341.451 153.495C341.215 155.878 339.975 161.981 339.975 161.981Z" fill="#36334A"/>
<path d="M330.223 166.676C330.223 166.676 324.143 167.734 321.958 164.596C319.772 161.457 330.228 163.142 330.228 163.142L331.114 165.526L330.223 166.676Z" fill="#36334A"/>
<path d="M328.397 180C329.93 180 331.173 178.777 331.173 177.268C331.173 175.759 329.93 174.536 328.397 174.536C326.863 174.536 325.62 175.759 325.62 177.268C325.62 178.777 326.863 180 328.397 180Z" fill="#36334A"/>
<path d="M328.663 179.244C329.625 179.244 330.405 178.359 330.405 177.267C330.405 176.176 329.625 175.291 328.663 175.291C327.7 175.291 326.92 176.176 326.92 177.267C326.92 178.359 327.7 179.244 328.663 179.244Z" fill="#3F3D56"/>
<path d="M343.578 151.519C343.578 151.519 341.274 150.24 341.156 153.262L339.207 167.329H340.034L342.279 152.274C342.279 152.274 343.401 152.449 343.578 152.449C343.755 152.449 343.578 151.519 343.578 151.519Z" fill="#3F3D56"/>
<path d="M345.874 153.07C345.792 153.36 345.487 153.529 345.194 153.449C345.17 153.442 345.147 153.434 345.125 153.425L342.452 152.301L342.937 151.25L345.571 152.431C345.819 152.542 345.947 152.813 345.874 153.07H345.874Z" fill="#36334A"/>
<path d="M329.637 166.34C329.637 166.34 325.384 165.875 324.202 169.885C323.021 173.896 323.139 176.977 322.135 176.744C321.131 176.512 319.004 175.698 319.004 175.698L319.181 176.919C319.181 176.919 322.903 178.779 323.494 176.802C324.084 174.826 324.439 167.56 327.806 167.735C331.173 167.909 331.764 167.56 331.764 167.56L329.637 166.34Z" fill="#3F3D56"/>
<path d="M321.544 164.422C321.544 164.422 318.236 164.829 316.937 167.212C315.637 169.595 314.987 173.896 314.987 173.896H316.228C316.228 173.896 316.937 165.352 320.658 165.817L321.544 164.422Z" fill="#3F3D56"/>
<path d="M319.3 177.734L314.042 174.537C314.042 174.537 313.747 173.374 317.114 172.909C317.114 172.909 323.48 175.1 322.866 175.922C322.253 176.745 320.186 178.024 319.3 177.734Z" fill="#36334A"/>
<path d="M327.452 167.328V174.129H328.219V167.212L327.452 167.328Z" fill="#3F3D56"/>
<path d="M328.574 171.513C328.574 171.513 330.051 177.209 329.106 178.023C329.106 178.023 327.865 174.419 326.92 174.884L327.215 171.513H328.574Z" fill="#36334A"/>
<path d="M334.304 147.798C335.576 147.798 336.608 146.784 336.608 145.532C336.608 144.28 335.576 143.265 334.304 143.265C333.031 143.265 332 144.28 332 145.532C332 146.784 333.031 147.798 334.304 147.798Z" fill="#FBBEBE"/>
<path d="M333.868 148.967C334.807 149.124 335.619 148.049 336.56 148.2C336.764 148.241 336.96 148.317 337.138 148.424C338.539 149.204 339.542 150.526 339.904 152.07C340.011 152.536 340.052 153.041 339.852 153.477C339.746 153.708 339.577 153.906 339.409 154.098C338.783 154.814 338.096 155.528 337.204 155.874C337.116 156.172 337.2 156.494 337.305 156.785C337.741 158.004 337.047 159.317 337.012 160.608C337.006 160.829 337.012 161.07 336.872 161.243C336.716 161.434 336.438 161.468 336.189 161.482C333.908 161.609 331.63 161.264 329.373 160.922C329.313 160.917 329.256 160.898 329.207 160.866C329.133 160.808 329.121 160.704 329.106 160.612C329.022 160.124 329.463 159.728 329.254 159.278C328.895 158.504 329.678 157.658 329.904 156.836C330.129 156.015 330.218 155.871 330.376 155.035C330.435 154.722 330.265 153.779 330.317 153.465C330.487 152.44 330.358 151.272 330.908 150.385C331.238 149.852 331.152 149.437 331.741 149.205C332.363 148.96 333.204 149.043 333.869 148.967H333.868Z" fill="#F5F4F4"/>
<path d="M323.464 162.486C322.777 162.617 322.046 162.741 321.517 163.192C321.194 163.468 320.977 163.842 320.766 164.208L318.613 167.944C317.956 169.083 317.299 170.223 316.703 171.394C316.651 171.479 316.621 171.575 316.614 171.675C316.617 171.815 316.712 171.935 316.81 172.036C317.499 172.739 318.484 173.08 319.468 172.956C319.616 172.201 320.345 171.703 320.703 171.019C320.899 170.644 320.978 170.222 321.104 169.818C321.577 168.313 322.699 167.104 323.789 165.951C324.304 165.405 324.831 164.85 325.494 164.492C326.272 164.072 327.175 163.956 328.045 163.782C328.914 163.607 329.815 163.343 330.43 162.714C330.959 162.165 331.209 161.411 331.112 160.661C330.555 160.622 329.935 160.551 329.397 160.727C328.773 160.932 328.169 161.212 327.544 161.421C326.21 161.868 324.847 162.224 323.464 162.486H323.464Z" fill="#696880"/>
<path opacity="0.1" d="M323.464 162.486C322.777 162.617 322.046 162.741 321.517 163.192C321.194 163.468 320.977 163.842 320.766 164.208L318.613 167.944C317.956 169.083 317.299 170.223 316.703 171.394C316.651 171.479 316.621 171.575 316.614 171.675C316.617 171.815 316.712 171.935 316.81 172.036C317.499 172.739 318.484 173.08 319.468 172.956C319.616 172.201 320.345 171.703 320.703 171.019C320.899 170.644 320.978 170.222 321.104 169.818C321.577 168.313 322.699 167.104 323.789 165.951C324.304 165.405 324.831 164.85 325.494 164.492C326.272 164.072 327.175 163.956 328.045 163.782C328.914 163.607 329.815 163.343 330.43 162.714C330.959 162.165 331.209 161.411 331.112 160.661C330.555 160.622 329.935 160.551 329.397 160.727C328.773 160.932 328.169 161.212 327.544 161.421C326.21 161.868 324.847 162.224 323.464 162.486H323.464Z" fill="black"/>
<path d="M314.181 174.332C314.104 174.386 314.045 174.461 314.012 174.547C313.934 174.809 314.267 174.994 314.534 175.07C315.133 175.239 315.773 175.41 316.371 175.235C316.738 175.127 317.057 174.898 317.421 174.783C317.962 174.612 318.548 174.709 319.106 174.807C319.231 174.116 319.147 173.403 318.865 172.759C318.685 172.352 317.968 172.154 317.54 172.136C317.073 172.116 316.911 172.455 316.641 172.767C315.985 173.528 314.938 173.704 314.182 174.332H314.181Z" fill="#3F3D56"/>
<path d="M323.903 163.599C323.572 163.729 323.233 163.863 322.974 164.103C322.7 164.356 322.54 164.703 322.394 165.043C321.962 166.049 321.595 167.081 321.293 168.132C321.141 168.663 321.006 169.2 320.801 169.714C320.391 170.74 319.697 171.721 319.762 172.82C319.762 172.954 319.798 173.085 319.868 173.2C319.961 173.333 320.118 173.403 320.268 173.467L321.054 173.802C321.476 173.982 321.99 174.156 322.367 173.896C322.619 173.723 322.719 173.409 322.796 173.115C323.07 172.056 323.24 170.956 323.732 169.977C324.288 168.87 325.228 167.975 325.725 166.841C325.796 166.681 325.863 166.509 326.001 166.399C326.116 166.308 326.264 166.273 326.407 166.241C329.357 165.58 332.374 165.219 335.3 164.463C335.716 164.356 336.152 164.228 336.449 163.922C336.861 163.497 336.897 162.851 336.91 162.265C336.918 161.897 336.917 161.498 336.689 161.206C336.432 160.877 335.972 160.791 335.553 160.747C333.946 160.581 332.463 160.843 330.879 161.035C329.431 161.21 327.972 162.015 326.62 162.541C325.715 162.893 324.81 163.247 323.905 163.601L323.903 163.599Z" fill="#696880"/>
<path d="M320.268 174.107C320.047 174.624 319.808 175.163 319.36 175.508C319.173 175.652 318.931 175.797 318.924 176.031C318.916 176.278 319.18 176.442 319.417 176.525C320.019 176.739 320.705 176.785 321.293 176.535C321.696 176.363 322.027 176.067 322.351 175.777C322.448 175.689 322.549 175.597 322.595 175.475C322.626 175.372 322.635 175.265 322.622 175.158C322.583 174.513 322.466 173.874 322.273 173.255C322.258 173.206 320.987 173.051 320.874 173.08C320.519 173.171 320.404 173.788 320.267 174.107H320.268Z" fill="#3F3D56"/>
<path d="M340.034 159.133L332.355 159.365C332.355 159.365 325.561 165.875 331.173 167.852C331.173 167.852 338.085 168.956 339.739 167.677C339.739 167.677 341.806 159.656 340.034 159.133ZM339.68 161.283L331.469 161.807C331.469 161.807 332.059 159.83 334.422 159.83C336.785 159.83 339.443 159.307 339.68 160.528C339.916 161.748 339.68 161.283 339.68 161.283Z" fill="#3F3D56"/>
<path d="M338.291 179.999C342.549 179.999 346 176.148 346 171.397C346 166.645 342.549 162.794 338.291 162.794C334.034 162.794 330.582 166.645 330.582 171.397C330.582 176.148 334.034 179.999 338.291 179.999Z" fill="#36334A"/>
<path d="M338.646 177.791C341.859 177.791 344.464 174.928 344.464 171.397C344.464 167.866 341.859 165.003 338.646 165.003C335.432 165.003 332.827 167.866 332.827 171.397C332.827 174.928 335.432 177.791 338.646 177.791Z" fill="#3F3D56"/>
<path d="M340.152 171.31C340.152 171.198 340.141 171.087 340.118 170.978L344.464 168.84L344.169 168.2L339.779 170.305C339.734 170.26 339.685 170.22 339.633 170.185H339.636L340.92 163.9L339.785 163.874L339.03 170.061L339.102 170.076C339.044 170.088 338.987 170.107 338.933 170.133L335.136 166.298L334.599 167.038L338.5 170.57C338.402 170.754 338.344 170.957 338.328 171.165L332.828 173.374L332.71 174.304L338.443 171.931C338.497 172.062 338.572 172.182 338.667 172.288L336.904 178.198H337.553L339.034 172.528C339.099 172.549 339.168 172.56 339.237 172.56C339.371 172.559 339.5 172.521 339.613 172.449L342.693 176.455L343.638 175.815L340.029 171.936C340.111 171.738 340.153 171.525 340.153 171.311L340.152 171.31Z" fill="#36334A"/>
<path d="M331.627 144.096C331.731 143.839 332.066 143.732 332.176 143.477C332.294 143.203 332.109 142.855 332.27 142.602C332.432 142.348 332.81 142.378 333.111 142.427C333.466 142.485 333.843 142.524 334.175 142.385C334.322 142.324 334.453 142.23 334.595 142.158C334.822 142.045 335.074 141.991 335.328 142.001C335.385 142 335.442 142.013 335.492 142.04C335.54 142.074 335.577 142.121 335.599 142.175C335.703 142.396 335.717 142.671 335.905 142.83C335.995 142.906 336.112 142.942 336.22 142.99C336.735 143.234 337.04 143.769 336.985 144.328C336.96 144.455 336.944 144.583 336.938 144.711C336.945 144.994 337.133 145.276 337.037 145.543C336.966 145.741 336.757 145.858 336.553 145.92C336.495 145.943 336.43 145.946 336.37 145.929C336.266 145.887 336.244 145.754 336.211 145.648C336.114 145.362 335.839 145.172 335.533 145.178C335.295 145.188 335.054 145.32 334.829 145.241C334.719 145.203 334.632 145.119 334.544 145.043C334.341 144.869 334.1 144.723 333.833 144.686C333.566 144.649 333.27 144.738 333.113 144.953C333.049 145.04 333.011 145.142 332.951 145.231C332.406 146.032 331.403 144.649 331.627 144.094L331.627 144.096Z" fill="#36334A"/>
<path d="M332.854 157.911C332.649 157.885 332.444 157.96 332.306 158.112C331.789 158.575 331.241 159.098 331.148 159.779C331.134 159.842 331.141 159.907 331.169 159.964C331.219 160.045 331.328 160.062 331.424 160.064C331.912 160.068 332.379 159.866 332.705 159.507C332.793 159.408 332.875 159.295 332.997 159.239C333.108 159.198 333.227 159.184 333.345 159.196C333.669 159.207 334.41 159.37 334.692 159.212C334.989 159.046 334.908 158.524 334.769 158.272C334.439 157.674 333.416 157.905 332.854 157.911V157.911Z" fill="#FBBEBE"/>
<path d="M340.069 152.89C340.268 153.519 340.151 154.227 340.433 154.824C340.62 155.221 340.971 155.54 341.08 155.964C341.183 156.364 341.045 156.796 340.803 157.133C340.562 157.471 340.226 157.73 339.888 157.976C339.519 158.245 339.136 158.508 338.7 158.653C338.266 158.799 337.801 158.82 337.344 158.841L334.308 158.978L333.75 157.329L335.727 156.567C335.925 156.491 336.127 156.414 336.339 156.398C336.705 156.371 337.151 156.504 337.386 156.226C337.461 156.124 337.508 156.005 337.524 155.881C337.716 154.912 337.549 153.887 337.844 152.944C337.99 152.477 338.412 151.541 338.988 151.458C339.597 151.371 339.932 152.454 340.07 152.89H340.069Z" fill="#F5F4F4"/>
</g>
<defs>
<clipPath id="clip0_282_24594">
<rect width="433.31" height="315.48" fill="white"/>
</clipPath>
</defs>
</svg>
