<svg width="434" height="316" viewBox="0 0 434 316" fill="none" xmlns="http://www.w3.org/2000/svg">
<g clip-path="url(#clip0_282_16701)">
<path d="M231.61 278.78C231.03 277.67 230.7 276.54 230.71 275.33C230.71 274.88 230.79 274.57 230.01 274.37C228.96 274.09 228.71 273.05 228.69 272.16C228.66 270.83 228.2 269.74 227.25 268.7C226.05 267.37 224.87 266.01 224.06 264.45C223.89 264.12 223.56 263.78 223.85 263.37L223.03 263.77C222.24 263.86 221.48 264.07 220.68 264.14C219.02 264.28 217.43 263.99 215.87 263.7C213.69 263.29 211.56 262.73 209.3 262.83C208.53 262.86 207.98 262.5 207.57 262.01C206.16 260.33 204.73 258.66 203.29 257.01C202.24 255.81 202.04 254.24 202.27 252.78C202.58 250.81 202.92 248.85 203.3 246.89C203.42 246.26 203.45 245.61 203.61 244.97C203.91 243.82 203.11 242.7 202.01 242.88C201.58 242.95 201.28 243.15 201 243.36C200.51 243.74 200.13 244.22 199.65 244.61C197.1 246.7 196.39 246.38 193.82 245.15C193.13 244.82 192.55 244.32 191.86 243.99C190.57 243.38 189.38 243.89 188.17 244.33C186.5 244.94 184.82 245.48 182.95 245.45C181.11 245.42 179.55 244.9 178.24 243.79C177.23 242.93 176.18 242.19 174.76 241.86C174 241.69 173.39 241.98 172.7 242.01C171.91 242.04 171.13 242.29 170.3 242.45C170.09 243.83 169.4 245.03 168.19 245.97C166.38 247.39 164.44 248.63 162.04 249.13C160.86 249.37 159.64 249.76 158.46 249.13C158.05 248.92 157.72 249.19 157.44 249.26C154.25 250.14 151 250.78 147.7 251.26C146.46 251.44 145.2 251.16 143.98 251.63C143.66 253.21 143.37 254.83 143.78 256.49C143.92 257.06 144.2 257.22 144.82 257.22C146.91 257.25 148.96 257.49 150.86 258.3C152.38 258.95 153.77 259.76 154.86 260.93C155.73 261.85 155.73 263.52 154.86 264.64C154.2 265.5 153.38 266.24 152.4 266.81C151.78 267.17 151.75 267.37 152.15 268.02C153.25 269.82 154.14 271.73 155.05 273.62C155.33 274.19 155.61 274.78 155.92 275.32C157.01 277.23 157.14 279.25 157.12 281.32C157.1 283.32 158 284.07 159.98 284.09C161.06 284.09 162.16 284.21 163.26 284.21C163.6 284.21 163.93 284.18 164.3 284.07C165.55 283.7 166.53 284.45 166.54 285.67C166.54 286.7 166.49 287.73 166.73 288.74C166.78 288.95 166.84 289.17 166.92 289.38C167.07 289.78 167.28 290.14 167.51 290.49L168.06 291.71C168.06 291.71 168.06 291.79 168.06 291.83L168.1 291.81L168.62 292.96L174.94 298.72C176.16 299.85 177.36 301 178.64 302.07C180.03 303.23 181.73 303.68 183.65 303.84C186.56 304.08 189.48 303.77 192.36 304.03C194.14 304.19 195.92 304.12 197.7 304.29C199.48 304.46 201.32 304.19 203.13 304.01C204.19 303.9 205.2 303.71 206.2 303.44C207.18 303.17 208.02 302.67 208.54 301.89C208.83 301.45 209 300.93 208.46 300.44C206.4 298.56 206.75 297.5 208.16 295.65C208.56 295.12 209.08 294.65 209.59 294.2C210.11 293.74 210.77 293.7 211.42 293.93C212.52 294.3 213.6 294.72 214.7 295.1C216.11 295.59 218.89 295.28 219.58 293.82C220.59 291.7 222.5 290.52 224.63 289.47C225.59 288.99 226.45 288.33 227.42 287.87C227.97 287.61 228.04 287.31 228.03 286.85C228 286.16 228.03 285.46 228.03 284.76C227.85 284.39 227.33 284.47 227.1 284.45C226.19 284.35 225.62 284.09 225.57 283.22C225.52 282.37 225.91 281.7 226.81 281.42C227.63 281.16 228.47 280.92 229.36 280.96C229.6 280.97 229.87 280.85 230.08 281.05C231.14 282.07 232.2 281.74 233.3 281.01C232.87 280.2 232.04 279.62 231.6 278.79L231.61 278.78Z" fill="#D1FF00"/>
<path d="M188.874 280.408C191.696 280.408 193.983 277.855 193.983 274.706C193.983 271.557 191.696 269.004 188.874 269.004C186.051 269.004 183.764 271.557 183.764 274.706C183.764 277.855 186.051 280.408 188.874 280.408Z" fill="#36334A"/>
<path d="M195.432 255.732C194.204 256.259 192.865 256.488 191.529 256.398C191.872 256.156 192.092 255.77 192.181 255.364C192.269 254.958 192.236 254.535 192.144 254.13C192.128 254.083 192.128 254.032 192.147 253.987C192.185 253.941 192.243 253.914 192.303 253.914C192.821 253.843 194.303 253.535 194.697 253.971C194.884 254.178 194.812 254.579 194.881 254.832C194.909 254.936 195.27 255.803 195.432 255.733V255.732Z" fill="#FBBEBE"/>
<path opacity="0.1" d="M195.432 255.732C194.204 256.259 192.865 256.488 191.529 256.398C191.872 256.156 192.092 255.77 192.181 255.364C192.269 254.958 192.236 254.535 192.144 254.13C192.128 254.083 192.128 254.032 192.147 253.987C192.185 253.941 192.243 253.914 192.303 253.914C192.821 253.843 194.303 253.535 194.697 253.971C194.884 254.178 194.812 254.579 194.881 254.832C194.909 254.936 195.27 255.803 195.432 255.733V255.732Z" fill="black"/>
<path d="M191.118 264.389L183.439 264.621C183.439 264.621 176.646 271.131 182.257 273.108C182.257 273.108 189.169 274.212 190.823 272.933C190.823 272.933 192.89 264.912 191.118 264.389ZM190.764 266.539L182.553 267.062C182.553 267.062 183.144 265.086 185.506 265.086C187.869 265.086 190.527 264.563 190.764 265.784C191 267.004 190.764 266.539 190.764 266.539Z" fill="#3F3D56"/>
<path d="M185.064 263.345C184.681 263.287 184.265 263.254 183.929 263.445C183.818 263.513 183.714 263.594 183.62 263.685C183.485 263.807 183.351 263.93 183.218 264.054C183.121 264.145 183.02 264.245 182.994 264.374C182.943 264.64 183.256 264.856 183.531 264.845C183.806 264.835 184.053 264.686 184.314 264.596C184.838 264.416 186.764 264.724 186.869 264.17C187.003 263.464 185.49 263.412 185.064 263.346V263.345Z" fill="#FBBEBE"/>
<path d="M188.654 262.9C188.153 263.151 187.608 263.303 187.048 263.349C186.961 263.35 186.875 263.369 186.794 263.402C186.746 263.432 186.709 263.476 186.688 263.529C186.492 263.934 186.37 264.371 186.329 264.819C186.319 264.863 186.335 264.909 186.371 264.937C186.424 264.964 186.484 264.977 186.544 264.975C187.463 265.033 188.386 265.064 189.311 265.068C189.351 265.071 189.393 265.065 189.431 265.051C189.458 265.038 189.478 265.013 189.487 264.984C189.703 264.453 189.806 263.883 189.787 263.311C189.763 262.638 189.563 262.427 188.655 262.901L188.654 262.9Z" fill="#D7E5F2"/>
<path d="M188.654 262.9C188.153 263.151 187.608 263.303 187.048 263.349C186.961 263.35 186.875 263.369 186.794 263.402C186.746 263.432 186.709 263.476 186.688 263.529C186.492 263.934 186.37 264.371 186.329 264.819C186.319 264.863 186.335 264.909 186.371 264.937C186.424 264.964 186.484 264.977 186.544 264.975C187.463 265.033 188.386 265.064 189.311 265.068C189.351 265.071 189.393 265.065 189.431 265.051C189.458 265.038 189.478 265.013 189.487 264.984C189.703 264.453 189.806 263.883 189.787 263.311C189.763 262.638 189.563 262.427 188.655 262.901L188.654 262.9Z" fill="#F5F4F4"/>
<path d="M198.975 268.981L188.873 268.632L191.236 258.809C191.236 258.809 200.688 258.111 200.451 260.495C200.215 262.878 198.975 268.981 198.975 268.981Z" fill="#36334A"/>
<path d="M189.223 273.676C189.223 273.676 183.143 274.734 180.958 271.596C178.772 268.457 189.228 270.142 189.228 270.142L190.114 272.526L189.223 273.676Z" fill="#36334A"/>
<path d="M187.397 287C188.93 287 190.173 285.777 190.173 284.268C190.173 282.759 188.93 281.536 187.397 281.536C185.863 281.536 184.62 282.759 184.62 284.268C184.62 285.777 185.863 287 187.397 287Z" fill="#36334A"/>
<path d="M187.663 286.244C188.625 286.244 189.405 285.359 189.405 284.267C189.405 283.176 188.625 282.291 187.663 282.291C186.7 282.291 185.92 283.176 185.92 284.267C185.92 285.359 186.7 286.244 187.663 286.244Z" fill="#3F3D56"/>
<path d="M202.578 258.519C202.578 258.519 200.274 257.24 200.156 260.262L198.207 274.329H199.034L201.279 259.274C201.279 259.274 202.401 259.449 202.578 259.449C202.755 259.449 202.578 258.519 202.578 258.519Z" fill="#3F3D56"/>
<path d="M204.874 260.07C204.792 260.36 204.487 260.529 204.194 260.449C204.17 260.442 204.147 260.434 204.125 260.425L201.452 259.301L201.937 258.25L204.571 259.431C204.819 259.542 204.947 259.813 204.874 260.07H204.874Z" fill="#36334A"/>
<path d="M188.637 273.34C188.637 273.34 184.384 272.875 183.202 276.885C182.021 280.896 182.139 283.977 181.135 283.744C180.131 283.512 178.004 282.698 178.004 282.698L178.181 283.919C178.181 283.919 181.903 285.779 182.494 283.802C183.084 281.826 183.439 274.56 186.806 274.735C190.173 274.909 190.764 274.56 190.764 274.56L188.637 273.34Z" fill="#3F3D56"/>
<path d="M180.544 271.422C180.544 271.422 177.236 271.829 175.937 274.212C174.637 276.595 173.987 280.896 173.987 280.896H175.228C175.228 280.896 175.937 272.352 179.658 272.817L180.544 271.422Z" fill="#3F3D56"/>
<path d="M178.3 284.734L173.042 281.537C173.042 281.537 172.747 280.374 176.114 279.909C176.114 279.909 182.48 282.1 181.866 282.922C181.253 283.745 179.186 285.024 178.3 284.734Z" fill="#36334A"/>
<path d="M186.452 274.328V281.129H187.219V274.212L186.452 274.328Z" fill="#3F3D56"/>
<path d="M187.574 278.513C187.574 278.513 189.051 284.209 188.106 285.023C188.106 285.023 186.865 281.419 185.92 281.884L186.215 278.513H187.574Z" fill="#36334A"/>
<path d="M193.304 254.798C194.576 254.798 195.608 253.784 195.608 252.532C195.608 251.28 194.576 250.265 193.304 250.265C192.031 250.265 191 251.28 191 252.532C191 253.784 192.031 254.798 193.304 254.798Z" fill="#FBBEBE"/>
<path d="M192.868 255.967C193.807 256.124 194.619 255.049 195.56 255.2C195.764 255.241 195.96 255.317 196.138 255.424C197.539 256.204 198.542 257.526 198.904 259.07C199.011 259.536 199.052 260.041 198.852 260.477C198.746 260.708 198.577 260.906 198.409 261.098C197.783 261.814 197.096 262.528 196.204 262.874C196.116 263.172 196.2 263.494 196.305 263.785C196.741 265.004 196.047 266.317 196.012 267.608C196.006 267.829 196.012 268.07 195.872 268.243C195.716 268.434 195.438 268.468 195.189 268.482C192.908 268.609 190.63 268.264 188.373 267.922C188.313 267.917 188.256 267.898 188.207 267.866C188.133 267.808 188.121 267.704 188.106 267.612C188.022 267.124 188.463 266.728 188.254 266.278C187.895 265.504 188.678 264.658 188.904 263.836C189.129 263.015 189.218 262.871 189.376 262.035C189.435 261.722 189.265 260.779 189.317 260.465C189.487 259.44 189.358 258.272 189.908 257.385C190.238 256.852 190.152 256.437 190.741 256.205C191.363 255.96 192.204 256.043 192.869 255.967H192.868Z" fill="#F5F4F4"/>
<path d="M182.464 269.486C181.777 269.617 181.046 269.741 180.517 270.192C180.194 270.468 179.977 270.842 179.766 271.208L177.613 274.944C176.956 276.083 176.299 277.223 175.703 278.394C175.651 278.479 175.621 278.575 175.614 278.675C175.617 278.815 175.712 278.935 175.81 279.036C176.499 279.739 177.484 280.08 178.468 279.956C178.616 279.201 179.345 278.703 179.703 278.019C179.899 277.644 179.978 277.222 180.104 276.818C180.577 275.313 181.699 274.104 182.789 272.951C183.304 272.405 183.831 271.85 184.494 271.492C185.272 271.072 186.175 270.956 187.045 270.782C187.914 270.607 188.815 270.343 189.43 269.714C189.959 269.165 190.209 268.411 190.112 267.661C189.555 267.622 188.935 267.551 188.397 267.727C187.773 267.932 187.169 268.212 186.544 268.421C185.21 268.868 183.847 269.224 182.464 269.486H182.464Z" fill="#696880"/>
<path opacity="0.1" d="M182.464 269.486C181.777 269.617 181.046 269.741 180.517 270.192C180.194 270.468 179.977 270.842 179.766 271.208L177.613 274.944C176.956 276.083 176.299 277.223 175.703 278.394C175.651 278.479 175.621 278.575 175.614 278.675C175.617 278.815 175.712 278.935 175.81 279.036C176.499 279.739 177.484 280.08 178.468 279.956C178.616 279.201 179.345 278.703 179.703 278.019C179.899 277.644 179.978 277.222 180.104 276.818C180.577 275.313 181.699 274.104 182.789 272.951C183.304 272.405 183.831 271.85 184.494 271.492C185.272 271.072 186.175 270.956 187.045 270.782C187.914 270.607 188.815 270.343 189.43 269.714C189.959 269.165 190.209 268.411 190.112 267.661C189.555 267.622 188.935 267.551 188.397 267.727C187.773 267.932 187.169 268.212 186.544 268.421C185.21 268.868 183.847 269.224 182.464 269.486H182.464Z" fill="black"/>
<path d="M173.181 281.332C173.104 281.386 173.045 281.461 173.012 281.547C172.934 281.809 173.267 281.994 173.534 282.07C174.133 282.239 174.773 282.41 175.371 282.235C175.738 282.127 176.057 281.898 176.421 281.783C176.962 281.612 177.548 281.709 178.106 281.807C178.231 281.116 178.147 280.403 177.865 279.759C177.685 279.352 176.968 279.154 176.54 279.136C176.073 279.116 175.911 279.455 175.641 279.767C174.985 280.528 173.938 280.704 173.182 281.332H173.181Z" fill="#3F3D56"/>
<path d="M182.903 270.599C182.572 270.729 182.233 270.863 181.974 271.103C181.7 271.356 181.54 271.703 181.394 272.043C180.962 273.049 180.595 274.081 180.293 275.132C180.141 275.663 180.006 276.2 179.801 276.714C179.391 277.74 178.697 278.721 178.762 279.82C178.762 279.954 178.798 280.085 178.868 280.2C178.961 280.333 179.118 280.403 179.268 280.467L180.054 280.802C180.476 280.982 180.99 281.156 181.367 280.896C181.619 280.723 181.719 280.409 181.796 280.115C182.07 279.056 182.24 277.956 182.732 276.977C183.288 275.87 184.228 274.975 184.725 273.841C184.796 273.681 184.863 273.509 185.001 273.399C185.116 273.308 185.264 273.273 185.407 273.241C188.357 272.58 191.374 272.219 194.3 271.463C194.716 271.356 195.152 271.228 195.449 270.922C195.861 270.497 195.897 269.851 195.91 269.265C195.918 268.897 195.917 268.498 195.689 268.206C195.432 267.877 194.972 267.791 194.553 267.747C192.946 267.581 191.463 267.843 189.879 268.035C188.431 268.21 186.972 269.015 185.62 269.541C184.715 269.893 183.81 270.247 182.905 270.601L182.903 270.599Z" fill="#696880"/>
<path d="M179.268 281.107C179.047 281.624 178.808 282.163 178.36 282.508C178.173 282.652 177.931 282.797 177.924 283.031C177.916 283.278 178.18 283.442 178.417 283.525C179.019 283.739 179.705 283.785 180.293 283.535C180.696 283.363 181.027 283.067 181.351 282.777C181.448 282.689 181.549 282.597 181.595 282.475C181.626 282.372 181.635 282.265 181.622 282.158C181.583 281.513 181.466 280.874 181.273 280.255C181.258 280.206 179.987 280.051 179.874 280.08C179.519 280.171 179.404 280.788 179.267 281.107H179.268Z" fill="#3F3D56"/>
<path d="M199.034 266.133L191.355 266.365C191.355 266.365 184.561 272.875 190.173 274.852C190.173 274.852 197.085 275.956 198.739 274.677C198.739 274.677 200.806 266.656 199.034 266.133ZM198.68 268.283L190.469 268.807C190.469 268.807 191.059 266.83 193.422 266.83C195.785 266.83 198.443 266.307 198.68 267.528C198.916 268.748 198.68 268.283 198.68 268.283Z" fill="#3F3D56"/>
<path d="M197.291 286.999C201.549 286.999 205 283.148 205 278.397C205 273.645 201.549 269.794 197.291 269.794C193.034 269.794 189.582 273.645 189.582 278.397C189.582 283.148 193.034 286.999 197.291 286.999Z" fill="#36334A"/>
<path d="M197.646 284.791C200.859 284.791 203.464 281.928 203.464 278.397C203.464 274.866 200.859 272.003 197.646 272.003C194.432 272.003 191.827 274.866 191.827 278.397C191.827 281.928 194.432 284.791 197.646 284.791Z" fill="#3F3D56"/>
<path d="M199.152 278.31C199.152 278.198 199.141 278.087 199.118 277.978L203.464 275.84L203.169 275.2L198.779 277.305C198.734 277.26 198.685 277.22 198.633 277.185H198.636L199.92 270.9L198.785 270.874L198.03 277.061L198.102 277.076C198.044 277.088 197.987 277.107 197.933 277.133L194.136 273.298L193.599 274.038L197.5 277.57C197.402 277.754 197.344 277.957 197.328 278.165L191.828 280.374L191.71 281.304L197.443 278.931C197.497 279.062 197.572 279.182 197.667 279.288L195.904 285.198H196.553L198.034 279.528C198.099 279.549 198.168 279.56 198.237 279.56C198.371 279.559 198.5 279.521 198.613 279.449L201.693 283.455L202.638 282.815L199.029 278.936C199.111 278.738 199.153 278.525 199.153 278.311L199.152 278.31Z" fill="#36334A"/>
<path d="M190.627 251.096C190.731 250.839 191.066 250.732 191.176 250.477C191.294 250.203 191.109 249.855 191.27 249.602C191.432 249.348 191.81 249.378 192.111 249.427C192.466 249.485 192.843 249.524 193.174 249.385C193.322 249.324 193.453 249.23 193.595 249.158C193.822 249.045 194.074 248.991 194.328 249.001C194.385 249 194.442 249.013 194.492 249.04C194.54 249.074 194.577 249.121 194.599 249.175C194.703 249.396 194.717 249.671 194.905 249.83C194.995 249.906 195.112 249.942 195.22 249.99C195.735 250.234 196.04 250.769 195.985 251.328C195.96 251.455 195.944 251.583 195.938 251.711C195.945 251.994 196.133 252.276 196.037 252.543C195.966 252.741 195.757 252.858 195.553 252.92C195.495 252.943 195.43 252.946 195.37 252.929C195.266 252.887 195.244 252.754 195.211 252.648C195.114 252.362 194.839 252.172 194.533 252.178C194.295 252.188 194.053 252.32 193.829 252.241C193.719 252.203 193.632 252.119 193.544 252.043C193.34 251.869 193.1 251.723 192.833 251.686C192.566 251.649 192.27 251.738 192.113 251.953C192.049 252.04 192.011 252.142 191.951 252.231C191.406 253.032 190.403 251.649 190.627 251.094L190.627 251.096Z" fill="#36334A"/>
<path d="M191.854 264.911C191.649 264.885 191.444 264.96 191.306 265.112C190.789 265.575 190.241 266.098 190.148 266.779C190.134 266.842 190.141 266.907 190.169 266.964C190.219 267.045 190.328 267.062 190.424 267.064C190.912 267.068 191.379 266.866 191.705 266.507C191.793 266.408 191.875 266.295 191.997 266.239C192.108 266.198 192.227 266.184 192.345 266.196C192.669 266.207 193.41 266.37 193.692 266.212C193.989 266.046 193.908 265.524 193.769 265.272C193.439 264.674 192.416 264.905 191.854 264.911V264.911Z" fill="#FBBEBE"/>
<path d="M199.069 259.89C199.268 260.519 199.151 261.227 199.433 261.824C199.62 262.221 199.971 262.54 200.08 262.964C200.183 263.364 200.045 263.796 199.803 264.133C199.562 264.471 199.226 264.73 198.888 264.976C198.519 265.245 198.136 265.508 197.7 265.653C197.266 265.799 196.801 265.82 196.344 265.841L193.308 265.978L192.75 264.329L194.727 263.567C194.925 263.491 195.127 263.414 195.339 263.398C195.705 263.371 196.151 263.504 196.386 263.226C196.461 263.124 196.508 263.005 196.524 262.881C196.716 261.912 196.549 260.887 196.844 259.944C196.99 259.477 197.412 258.541 197.988 258.458C198.597 258.371 198.932 259.454 199.07 259.89H199.069Z" fill="#F5F4F4"/>
</g>
<defs>
<clipPath id="clip0_282_16701">
<rect width="433.31" height="315.48" fill="white"/>
</clipPath>
</defs>
</svg>
