<svg width="434" height="316" viewBox="0 0 434 316" fill="none" xmlns="http://www.w3.org/2000/svg">
<g clip-path="url(#clip0_282_26348)">
<path d="M201.32 84.3397C203.88 83.4097 206.65 82.9997 209.11 81.8397C210.47 81.1997 211.87 80.6397 213 79.6797C213.68 80.4797 214.68 80.4097 215.65 80.3897C215.91 81.3597 216.53 82.2197 216.52 83.2597C216.52 83.5197 216.43 84.0897 217.28 84.1997C219.65 84.4997 220.27 86.2997 220.72 87.9397C221.42 90.4797 222.33 92.7897 224.15 94.9797C226.26 97.5097 227.32 100.63 228.72 103.54C229.09 104.32 228.76 105.3 228.31 106.02C227.33 107.61 227.41 109.1 228.58 110.5C229.01 111.02 228.97 111.64 229.47 112.05C228.76 113.17 227.68 113.73 226.5 114.08C225.04 114.51 224.11 115.26 223.83 116.61C223.78 116.86 223.57 117.09 223.43 117.33C221.95 119.92 222.35 121.37 225.29 122.68C229.07 124.37 233.04 125.69 237.16 126.65C238.75 127.02 240.05 126.16 241.47 125.8C242.16 125.63 242.91 125 243.71 125.58C244.59 126.22 244.19 126.96 243.93 127.73C242.66 131.45 244.15 133.25 248.63 133.45C249 133.47 249.3 133.47 249.48 133.96C248.31 135.22 247.67 136.7 248.2 138.48C248.79 140.48 251.01 141.72 253.12 140.96C254.55 140.44 255.87 139.68 257.23 139.01C258.38 138.44 259.39 138.21 260.54 139.16C261.39 139.86 262.56 140.26 263.57 140.81C263.87 140.97 264.14 141.16 264.2 141.52C264.51 143.53 264.4 145.46 263.19 147.27C262.96 147.61 262.75 147.4 262.55 147.42C259.85 147.69 257.28 148.43 254.79 149.27C252.04 150.2 249.24 150.46 246.37 150.47C243.29 150.48 240.22 150.63 237.15 150.83C232.82 151.12 228.68 150.52 224.64 149.06C220.73 147.65 216.96 148.12 213.37 150.09C211.74 150.98 211.09 152.64 209.41 153.65C206.84 151.21 205.17 148.33 203.58 145.44C201.9 142.38 198.11 141.24 195.51 138.72C197.12 137.72 198.42 136.97 199.64 136.12C201.26 135 201.28 134.37 199.85 133.08C197.63 131.07 197.48 130.99 199.07 128.62C201.53 124.94 200.66 121.2 199.6 117.49C198.55 113.81 196.41 110.53 193.93 107.43C193.06 106.35 192.63 105.19 193.48 103.84C194.46 102.28 194.35 100.68 192.87 99.3897C191.8 98.4597 192.16 97.6097 192.77 96.5097C194.16 96.7697 194.73 96.1297 194.98 94.8897C195.34 93.0497 196.16 91.3997 197.77 90.0097C199.43 88.5797 200.3 86.6497 200.88 84.6697" fill="#D1FF00"/>
<path d="M218.874 126.408C221.696 126.408 223.983 123.855 223.983 120.706C223.983 117.557 221.696 115.004 218.874 115.004C216.051 115.004 213.764 117.557 213.764 120.706C213.764 123.855 216.051 126.408 218.874 126.408Z" fill="#36334A"/>
<path d="M225.432 101.732C224.204 102.259 222.865 102.488 221.529 102.398C221.872 102.156 222.092 101.77 222.181 101.364C222.269 100.958 222.236 100.535 222.144 100.13C222.128 100.083 222.128 100.032 222.147 99.9871C222.185 99.9406 222.243 99.9139 222.303 99.9139C222.821 99.843 224.303 99.5349 224.697 99.9715C224.884 100.178 224.812 100.579 224.881 100.832C224.909 100.936 225.27 101.803 225.432 101.733V101.732Z" fill="#FBBEBE"/>
<path opacity="0.1" d="M225.432 101.732C224.204 102.259 222.865 102.488 221.529 102.398C221.872 102.156 222.092 101.77 222.181 101.364C222.269 100.958 222.236 100.535 222.144 100.13C222.128 100.083 222.128 100.032 222.147 99.9871C222.185 99.9406 222.243 99.9139 222.303 99.9139C222.821 99.843 224.303 99.5349 224.697 99.9715C224.884 100.178 224.812 100.579 224.881 100.832C224.909 100.936 225.27 101.803 225.432 101.733V101.732Z" fill="black"/>
<path d="M221.118 110.389L213.439 110.621C213.439 110.621 206.646 117.131 212.257 119.108C212.257 119.108 219.169 120.212 220.823 118.933C220.823 118.933 222.89 110.912 221.118 110.389ZM220.764 112.539L212.553 113.062C212.553 113.062 213.144 111.086 215.506 111.086C217.869 111.086 220.527 110.563 220.764 111.784C221 113.004 220.764 112.539 220.764 112.539Z" fill="#3F3D56"/>
<path d="M215.064 109.345C214.681 109.287 214.265 109.254 213.929 109.445C213.818 109.513 213.714 109.594 213.62 109.685C213.485 109.807 213.351 109.93 213.218 110.054C213.121 110.145 213.02 110.245 212.994 110.374C212.943 110.64 213.256 110.856 213.531 110.845C213.806 110.835 214.053 110.686 214.314 110.596C214.838 110.416 216.764 110.724 216.869 110.17C217.003 109.464 215.49 109.412 215.064 109.346V109.345Z" fill="#FBBEBE"/>
<path d="M218.654 108.9C218.153 109.151 217.608 109.303 217.048 109.349C216.961 109.35 216.875 109.369 216.794 109.402C216.746 109.432 216.709 109.476 216.688 109.529C216.492 109.934 216.37 110.371 216.329 110.819C216.319 110.863 216.335 110.909 216.371 110.937C216.424 110.964 216.484 110.977 216.544 110.975C217.463 111.033 218.386 111.064 219.311 111.068C219.351 111.071 219.393 111.065 219.431 111.051C219.458 111.038 219.478 111.013 219.487 110.984C219.703 110.453 219.806 109.883 219.787 109.311C219.763 108.638 219.563 108.427 218.655 108.901L218.654 108.9Z" fill="#D7E5F2"/>
<path d="M218.654 108.9C218.153 109.151 217.608 109.303 217.048 109.349C216.961 109.35 216.875 109.369 216.794 109.402C216.746 109.432 216.709 109.476 216.688 109.529C216.492 109.934 216.37 110.371 216.329 110.819C216.319 110.863 216.335 110.909 216.371 110.937C216.424 110.964 216.484 110.977 216.544 110.975C217.463 111.033 218.386 111.064 219.311 111.068C219.351 111.071 219.393 111.065 219.431 111.051C219.458 111.038 219.478 111.013 219.487 110.984C219.703 110.453 219.806 109.883 219.787 109.311C219.763 108.638 219.563 108.427 218.655 108.901L218.654 108.9Z" fill="#F5F4F4"/>
<path d="M228.975 114.981L218.873 114.632L221.236 104.809C221.236 104.809 230.688 104.111 230.451 106.495C230.215 108.878 228.975 114.981 228.975 114.981Z" fill="#36334A"/>
<path d="M219.223 119.676C219.223 119.676 213.143 120.734 210.958 117.596C208.772 114.457 219.228 116.142 219.228 116.142L220.114 118.526L219.223 119.676Z" fill="#36334A"/>
<path d="M217.397 133C218.93 133 220.173 131.777 220.173 130.268C220.173 128.759 218.93 127.536 217.397 127.536C215.863 127.536 214.62 128.759 214.62 130.268C214.62 131.777 215.863 133 217.397 133Z" fill="#36334A"/>
<path d="M217.663 132.244C218.625 132.244 219.405 131.359 219.405 130.267C219.405 129.176 218.625 128.291 217.663 128.291C216.7 128.291 215.92 129.176 215.92 130.267C215.92 131.359 216.7 132.244 217.663 132.244Z" fill="#3F3D56"/>
<path d="M232.578 104.519C232.578 104.519 230.274 103.24 230.156 106.262L228.207 120.329H229.034L231.279 105.274C231.279 105.274 232.401 105.449 232.578 105.449C232.755 105.449 232.578 104.519 232.578 104.519Z" fill="#3F3D56"/>
<path d="M234.874 106.07C234.792 106.36 234.487 106.529 234.194 106.449C234.17 106.442 234.147 106.434 234.125 106.425L231.452 105.301L231.937 104.25L234.571 105.431C234.819 105.542 234.947 105.813 234.874 106.07H234.874Z" fill="#36334A"/>
<path d="M218.637 119.34C218.637 119.34 214.384 118.875 213.202 122.885C212.021 126.896 212.139 129.977 211.135 129.744C210.131 129.512 208.004 128.698 208.004 128.698L208.181 129.919C208.181 129.919 211.903 131.779 212.494 129.802C213.084 127.826 213.439 120.56 216.806 120.735C220.173 120.909 220.764 120.56 220.764 120.56L218.637 119.34Z" fill="#3F3D56"/>
<path d="M210.544 117.422C210.544 117.422 207.236 117.829 205.937 120.212C204.637 122.595 203.987 126.896 203.987 126.896H205.228C205.228 126.896 205.937 118.352 209.658 118.817L210.544 117.422Z" fill="#3F3D56"/>
<path d="M208.3 130.734L203.042 127.537C203.042 127.537 202.747 126.374 206.114 125.909C206.114 125.909 212.48 128.1 211.866 128.922C211.253 129.745 209.186 131.024 208.3 130.734Z" fill="#36334A"/>
<path d="M216.452 120.328V127.129H217.219V120.212L216.452 120.328Z" fill="#3F3D56"/>
<path d="M217.574 124.513C217.574 124.513 219.051 130.209 218.106 131.023C218.106 131.023 216.865 127.419 215.92 127.884L216.215 124.513H217.574Z" fill="#36334A"/>
<path d="M223.304 100.798C224.576 100.798 225.608 99.7835 225.608 98.5315C225.608 97.2796 224.576 96.2646 223.304 96.2646C222.031 96.2646 221 97.2796 221 98.5315C221 99.7835 222.031 100.798 223.304 100.798Z" fill="#FBBEBE"/>
<path d="M222.868 101.967C223.807 102.124 224.619 101.049 225.56 101.2C225.764 101.241 225.96 101.317 226.138 101.424C227.539 102.204 228.542 103.526 228.904 105.07C229.011 105.536 229.052 106.041 228.852 106.477C228.746 106.708 228.577 106.906 228.409 107.098C227.783 107.814 227.096 108.528 226.204 108.874C226.116 109.172 226.2 109.494 226.305 109.785C226.741 111.004 226.047 112.317 226.012 113.608C226.006 113.829 226.012 114.07 225.872 114.243C225.716 114.434 225.438 114.468 225.189 114.482C222.908 114.609 220.63 114.264 218.373 113.922C218.313 113.917 218.256 113.898 218.207 113.866C218.133 113.808 218.121 113.704 218.106 113.612C218.022 113.124 218.463 112.728 218.254 112.278C217.895 111.504 218.678 110.658 218.904 109.836C219.129 109.015 219.218 108.871 219.376 108.035C219.435 107.722 219.265 106.779 219.317 106.465C219.487 105.44 219.358 104.272 219.908 103.385C220.238 102.852 220.152 102.437 220.741 102.205C221.363 101.96 222.204 102.043 222.869 101.967H222.868Z" fill="#F5F4F4"/>
<path d="M212.464 115.486C211.777 115.617 211.046 115.741 210.517 116.192C210.194 116.468 209.977 116.842 209.766 117.208L207.613 120.944C206.956 122.083 206.299 123.223 205.703 124.394C205.651 124.479 205.621 124.575 205.614 124.675C205.617 124.815 205.712 124.935 205.81 125.036C206.499 125.739 207.484 126.08 208.468 125.956C208.616 125.201 209.345 124.703 209.703 124.019C209.899 123.644 209.978 123.222 210.104 122.818C210.577 121.313 211.699 120.104 212.789 118.951C213.304 118.405 213.831 117.85 214.494 117.492C215.272 117.072 216.175 116.956 217.045 116.782C217.914 116.607 218.815 116.343 219.43 115.714C219.959 115.165 220.209 114.411 220.112 113.661C219.555 113.622 218.935 113.551 218.397 113.727C217.773 113.932 217.169 114.212 216.544 114.421C215.21 114.868 213.847 115.224 212.464 115.486H212.464Z" fill="#696880"/>
<path opacity="0.1" d="M212.464 115.486C211.777 115.617 211.046 115.741 210.517 116.192C210.194 116.468 209.977 116.842 209.766 117.208L207.613 120.944C206.956 122.083 206.299 123.223 205.703 124.394C205.651 124.479 205.621 124.575 205.614 124.675C205.617 124.815 205.712 124.935 205.81 125.036C206.499 125.739 207.484 126.08 208.468 125.956C208.616 125.201 209.345 124.703 209.703 124.019C209.899 123.644 209.978 123.222 210.104 122.818C210.577 121.313 211.699 120.104 212.789 118.951C213.304 118.405 213.831 117.85 214.494 117.492C215.272 117.072 216.175 116.956 217.045 116.782C217.914 116.607 218.815 116.343 219.43 115.714C219.959 115.165 220.209 114.411 220.112 113.661C219.555 113.622 218.935 113.551 218.397 113.727C217.773 113.932 217.169 114.212 216.544 114.421C215.21 114.868 213.847 115.224 212.464 115.486H212.464Z" fill="black"/>
<path d="M203.181 127.332C203.104 127.386 203.045 127.461 203.012 127.547C202.934 127.809 203.267 127.994 203.534 128.07C204.133 128.239 204.773 128.41 205.371 128.235C205.738 128.127 206.057 127.898 206.421 127.783C206.962 127.612 207.548 127.709 208.106 127.807C208.231 127.116 208.147 126.403 207.865 125.759C207.685 125.352 206.968 125.154 206.54 125.136C206.073 125.116 205.911 125.455 205.641 125.767C204.985 126.528 203.938 126.704 203.182 127.332H203.181Z" fill="#3F3D56"/>
<path d="M212.903 116.599C212.572 116.729 212.233 116.863 211.974 117.103C211.7 117.356 211.54 117.703 211.394 118.043C210.962 119.049 210.595 120.081 210.293 121.132C210.141 121.663 210.006 122.2 209.801 122.714C209.391 123.74 208.697 124.721 208.762 125.82C208.762 125.954 208.798 126.085 208.868 126.2C208.961 126.333 209.118 126.403 209.268 126.467L210.054 126.802C210.476 126.982 210.99 127.156 211.367 126.896C211.619 126.723 211.719 126.409 211.796 126.115C212.07 125.056 212.24 123.956 212.732 122.977C213.288 121.87 214.228 120.975 214.725 119.841C214.796 119.681 214.863 119.509 215.001 119.399C215.116 119.308 215.264 119.273 215.407 119.241C218.357 118.58 221.374 118.219 224.3 117.463C224.716 117.356 225.152 117.228 225.449 116.922C225.861 116.497 225.897 115.851 225.91 115.265C225.918 114.897 225.917 114.498 225.689 114.206C225.432 113.877 224.972 113.791 224.553 113.747C222.946 113.581 221.463 113.843 219.879 114.035C218.431 114.21 216.972 115.015 215.62 115.541C214.715 115.893 213.81 116.247 212.905 116.601L212.903 116.599Z" fill="#696880"/>
<path d="M209.268 127.107C209.047 127.624 208.808 128.163 208.36 128.508C208.173 128.652 207.931 128.797 207.924 129.031C207.916 129.278 208.18 129.442 208.417 129.525C209.019 129.739 209.705 129.785 210.293 129.535C210.696 129.363 211.027 129.067 211.351 128.777C211.448 128.689 211.549 128.597 211.595 128.475C211.626 128.372 211.635 128.265 211.622 128.158C211.583 127.513 211.466 126.874 211.273 126.255C211.258 126.206 209.987 126.051 209.874 126.08C209.519 126.171 209.404 126.788 209.267 127.107H209.268Z" fill="#3F3D56"/>
<path d="M229.034 112.133L221.355 112.365C221.355 112.365 214.561 118.875 220.173 120.852C220.173 120.852 227.085 121.956 228.739 120.677C228.739 120.677 230.806 112.656 229.034 112.133ZM228.68 114.283L220.469 114.807C220.469 114.807 221.059 112.83 223.422 112.83C225.785 112.83 228.443 112.307 228.68 113.528C228.916 114.748 228.68 114.283 228.68 114.283Z" fill="#3F3D56"/>
<path d="M227.291 132.999C231.549 132.999 235 129.148 235 124.397C235 119.645 231.549 115.794 227.291 115.794C223.034 115.794 219.582 119.645 219.582 124.397C219.582 129.148 223.034 132.999 227.291 132.999Z" fill="#36334A"/>
<path d="M227.646 130.791C230.859 130.791 233.464 127.928 233.464 124.397C233.464 120.866 230.859 118.003 227.646 118.003C224.432 118.003 221.827 120.866 221.827 124.397C221.827 127.928 224.432 130.791 227.646 130.791Z" fill="#3F3D56"/>
<path d="M229.152 124.31C229.152 124.198 229.141 124.087 229.118 123.978L233.464 121.84L233.169 121.2L228.779 123.305C228.734 123.26 228.685 123.22 228.633 123.185H228.636L229.92 116.9L228.785 116.874L228.03 123.061L228.102 123.076C228.044 123.088 227.987 123.107 227.933 123.133L224.136 119.298L223.599 120.038L227.5 123.57C227.402 123.754 227.344 123.957 227.328 124.165L221.828 126.374L221.71 127.304L227.443 124.931C227.497 125.062 227.572 125.182 227.667 125.288L225.904 131.198H226.553L228.034 125.528C228.099 125.549 228.168 125.56 228.237 125.56C228.371 125.559 228.5 125.521 228.613 125.449L231.693 129.455L232.638 128.815L229.029 124.936C229.111 124.738 229.153 124.525 229.153 124.311L229.152 124.31Z" fill="#36334A"/>
<path d="M220.627 97.0955C220.731 96.8386 221.066 96.7323 221.176 96.4771C221.294 96.2033 221.109 95.8546 221.27 95.6023C221.432 95.3483 221.81 95.3779 222.111 95.4273C222.466 95.4855 222.843 95.5244 223.175 95.3855C223.322 95.3239 223.453 95.2297 223.595 95.1582C223.822 95.0449 224.074 94.9908 224.328 95.0013C224.386 95.0001 224.442 95.0135 224.492 95.0396C224.54 95.0739 224.577 95.121 224.599 95.1751C224.703 95.3959 224.717 95.6715 224.905 95.8296C224.995 95.9057 225.112 95.9417 225.22 95.99C225.735 96.2341 226.04 96.7689 225.985 97.328C225.96 97.4548 225.944 97.5826 225.938 97.7111C225.945 97.9936 226.133 98.2761 226.037 98.5429C225.966 98.7411 225.757 98.8585 225.553 98.9195C225.495 98.9428 225.43 98.9463 225.37 98.9288C225.266 98.887 225.244 98.7544 225.211 98.6481C225.114 98.3621 224.839 98.172 224.533 98.1778C224.295 98.1877 224.054 98.3197 223.829 98.2412C223.719 98.2028 223.632 98.1186 223.544 98.043C223.341 97.8686 223.1 97.7233 222.833 97.6861C222.566 97.6489 222.27 97.7378 222.113 97.9529C222.049 98.0401 222.011 98.1424 221.951 98.2313C221.406 99.0317 220.403 97.6495 220.627 97.0944L220.627 97.0955Z" fill="#36334A"/>
<path d="M221.854 110.911C221.649 110.885 221.444 110.96 221.306 111.112C220.789 111.575 220.241 112.098 220.148 112.779C220.134 112.842 220.141 112.907 220.169 112.964C220.219 113.045 220.328 113.062 220.424 113.064C220.912 113.068 221.379 112.866 221.705 112.507C221.793 112.408 221.875 112.295 221.997 112.239C222.108 112.198 222.227 112.184 222.345 112.196C222.669 112.207 223.41 112.37 223.692 112.212C223.989 112.046 223.908 111.524 223.769 111.272C223.439 110.674 222.416 110.905 221.854 110.911V110.911Z" fill="#FBBEBE"/>
<path d="M229.069 105.89C229.268 106.519 229.151 107.227 229.433 107.824C229.62 108.221 229.971 108.54 230.08 108.964C230.183 109.364 230.045 109.796 229.803 110.133C229.562 110.471 229.226 110.73 228.888 110.976C228.519 111.245 228.136 111.508 227.7 111.653C227.266 111.799 226.801 111.82 226.344 111.841L223.308 111.978L222.75 110.329L224.727 109.567C224.925 109.491 225.127 109.414 225.339 109.398C225.705 109.371 226.151 109.504 226.386 109.226C226.461 109.124 226.508 109.005 226.524 108.881C226.716 107.912 226.549 106.887 226.844 105.944C226.99 105.477 227.412 104.541 227.988 104.458C228.597 104.371 228.932 105.454 229.07 105.89H229.069Z" fill="#F5F4F4"/>
</g>
<defs>
<clipPath id="clip0_282_26348">
<rect width="433.31" height="315.48" fill="white"/>
</clipPath>
</defs>
</svg>
