<svg width="434" height="316" viewBox="0 0 434 316" fill="none" xmlns="http://www.w3.org/2000/svg">
<g clip-path="url(#clip0_282_28979)">
<path d="M366.22 110.52C364.89 108.82 363.19 107.43 361.3 106.22C360.32 105.59 360.26 104.79 360.69 103.89C361.44 102.32 362.14 100.73 362.54 99.0498C363.14 96.4898 362.51 95.5198 359.89 94.1798C357.83 93.1198 355.45 93.1598 353.3 92.4498C352.73 92.2598 352.19 92.7798 351.66 93.1098C349.42 94.5298 347.08 95.8198 344.76 97.1498C342.48 98.4498 340.66 97.9998 338.78 96.8798C337.34 96.0198 335.98 95.0398 334.68 94.0098C333.5 93.0798 332.59 92.9598 331.15 93.7998C327.15 96.1298 322.98 98.2598 318.91 100.45C318.66 100.99 319.12 101.41 319.34 101.71C321.02 103.95 320.64 106.24 319.68 108.54C319.41 109.2 319.14 109.86 319.12 110.52C319.01 113.42 317.67 115.57 314.83 117.2C312.96 118.28 313.1 119.32 314.36 121.11C315.53 122.76 316.69 124.33 316.96 126.47C317.26 128.83 319.06 130.84 320.72 132.76C322.68 135.03 324.41 137.43 325.02 140.29C325.53 142.68 325.2 145.08 324.83 147.46C324.78 147.82 324.75 148.21 325.1 148.62C328.22 146.46 331.35 147.31 334.44 148.73C335.85 149.38 337.19 150.13 338.71 150.91C340.99 149.44 343.35 147.92 345.78 146.36C344.96 144.1 344.76 141.72 345.17 139.41C345.5 137.5 347.05 136.09 349.21 135.48C351.95 134.71 353.91 133.22 355.12 130.97C355.3 130.64 355.58 130.15 355.5 129.91C354.64 127.13 357.05 126.27 359.01 125.04C363.06 122.51 363.02 122.48 361.08 118.6C359.29 115.03 359.44 112.66 365.38 110.53" fill="#D1FF00"/>
<path d="M338.874 118.408C341.696 118.408 343.983 115.855 343.983 112.706C343.983 109.557 341.696 107.004 338.874 107.004C336.051 107.004 333.764 109.557 333.764 112.706C333.764 115.855 336.051 118.408 338.874 118.408Z" fill="#36334A"/>
<path d="M345.432 93.7321C344.204 94.2593 342.865 94.4877 341.529 94.3976C341.872 94.1564 342.092 93.7699 342.181 93.3641C342.269 92.9584 342.236 92.5347 342.144 92.1296C342.128 92.0831 342.128 92.0325 342.147 91.9871C342.185 91.9406 342.243 91.9139 342.303 91.9139C342.821 91.843 344.303 91.5349 344.697 91.9715C344.884 92.1778 344.812 92.5794 344.881 92.8317C344.909 92.9358 345.27 93.803 345.432 93.7327V93.7321Z" fill="#FBBEBE"/>
<path opacity="0.1" d="M345.432 93.7321C344.204 94.2593 342.865 94.4877 341.529 94.3976C341.872 94.1564 342.092 93.7699 342.181 93.3641C342.269 92.9584 342.236 92.5347 342.144 92.1296C342.128 92.0831 342.128 92.0325 342.147 91.9871C342.185 91.9406 342.243 91.9139 342.303 91.9139C342.821 91.843 344.303 91.5349 344.697 91.9715C344.884 92.1778 344.812 92.5794 344.881 92.8317C344.909 92.9358 345.27 93.803 345.432 93.7327V93.7321Z" fill="black"/>
<path d="M341.118 102.389L333.439 102.621C333.439 102.621 326.646 109.131 332.257 111.108C332.257 111.108 339.169 112.212 340.823 110.933C340.823 110.933 342.89 102.912 341.118 102.389ZM340.764 104.539L332.553 105.062C332.553 105.062 333.144 103.086 335.506 103.086C337.869 103.086 340.527 102.563 340.764 103.784C341 105.004 340.764 104.539 340.764 104.539Z" fill="#3F3D56"/>
<path d="M335.064 101.345C334.681 101.287 334.265 101.254 333.929 101.445C333.818 101.513 333.714 101.594 333.62 101.685C333.485 101.807 333.351 101.93 333.218 102.054C333.121 102.145 333.02 102.245 332.994 102.374C332.943 102.64 333.256 102.856 333.531 102.845C333.806 102.835 334.053 102.686 334.314 102.596C334.838 102.416 336.764 102.724 336.869 102.17C337.003 101.464 335.49 101.412 335.064 101.346V101.345Z" fill="#FBBEBE"/>
<path d="M338.654 100.9C338.153 101.151 337.608 101.303 337.048 101.349C336.961 101.35 336.875 101.369 336.794 101.402C336.746 101.432 336.709 101.476 336.688 101.529C336.492 101.934 336.37 102.371 336.329 102.819C336.319 102.863 336.335 102.909 336.371 102.937C336.424 102.964 336.484 102.977 336.544 102.975C337.463 103.033 338.386 103.064 339.311 103.068C339.351 103.071 339.393 103.065 339.431 103.051C339.458 103.038 339.478 103.013 339.487 102.984C339.703 102.453 339.806 101.883 339.787 101.311C339.763 100.638 339.563 100.427 338.655 100.901L338.654 100.9Z" fill="#D7E5F2"/>
<path d="M338.654 100.9C338.153 101.151 337.608 101.303 337.048 101.349C336.961 101.35 336.875 101.369 336.794 101.402C336.746 101.432 336.709 101.476 336.688 101.529C336.492 101.934 336.37 102.371 336.329 102.819C336.319 102.863 336.335 102.909 336.371 102.937C336.424 102.964 336.484 102.977 336.544 102.975C337.463 103.033 338.386 103.064 339.311 103.068C339.351 103.071 339.393 103.065 339.431 103.051C339.458 103.038 339.478 103.013 339.487 102.984C339.703 102.453 339.806 101.883 339.787 101.311C339.763 100.638 339.563 100.427 338.655 100.901L338.654 100.9Z" fill="#9E9E9E"/>
<path d="M348.975 106.981L338.873 106.632L341.236 96.809C341.236 96.809 350.688 96.1115 350.451 98.4946C350.215 100.878 348.975 106.981 348.975 106.981Z" fill="#36334A"/>
<path d="M339.223 111.676C339.223 111.676 333.143 112.734 330.958 109.596C328.772 106.457 339.228 108.142 339.228 108.142L340.114 110.526L339.223 111.676Z" fill="#36334A"/>
<path d="M337.397 125C338.93 125 340.173 123.777 340.173 122.268C340.173 120.759 338.93 119.536 337.397 119.536C335.863 119.536 334.62 120.759 334.62 122.268C334.62 123.777 335.863 125 337.397 125Z" fill="#36334A"/>
<path d="M337.663 124.244C338.625 124.244 339.405 123.359 339.405 122.267C339.405 121.176 338.625 120.291 337.663 120.291C336.7 120.291 335.92 121.176 335.92 122.267C335.92 123.359 336.7 124.244 337.663 124.244Z" fill="#3F3D56"/>
<path d="M352.578 96.5186C352.578 96.5186 350.274 95.2399 350.156 98.2624L348.207 112.329H349.034L351.279 97.2743C351.279 97.2743 352.401 97.4486 352.578 97.4486C352.755 97.4486 352.578 96.5186 352.578 96.5186Z" fill="#3F3D56"/>
<path d="M354.874 98.0705C354.792 98.36 354.487 98.5291 354.194 98.4489C354.17 98.4425 354.147 98.4344 354.125 98.4251L351.452 97.3009L351.937 96.25L354.571 97.4305C354.819 97.5416 354.947 97.813 354.874 98.0705H354.874Z" fill="#36334A"/>
<path d="M338.637 111.34C338.637 111.34 334.384 110.875 333.202 114.885C332.021 118.896 332.139 121.977 331.135 121.744C330.131 121.512 328.004 120.698 328.004 120.698L328.181 121.919C328.181 121.919 331.903 123.779 332.494 121.802C333.084 119.826 333.439 112.56 336.806 112.735C340.173 112.909 340.764 112.56 340.764 112.56L338.637 111.34Z" fill="#3F3D56"/>
<path d="M330.544 109.422C330.544 109.422 327.236 109.829 325.937 112.212C324.637 114.595 323.987 118.896 323.987 118.896H325.228C325.228 118.896 325.937 110.352 329.658 110.817L330.544 109.422Z" fill="#3F3D56"/>
<path d="M328.3 122.734L323.042 119.537C323.042 119.537 322.747 118.374 326.114 117.909C326.114 117.909 332.48 120.1 331.866 120.922C331.253 121.745 329.186 123.024 328.3 122.734Z" fill="#36334A"/>
<path d="M336.452 112.328V119.129H337.219V112.212L336.452 112.328Z" fill="#3F3D56"/>
<path d="M337.574 116.513C337.574 116.513 339.051 122.209 338.106 123.023C338.106 123.023 336.865 119.419 335.92 119.884L336.215 116.513H337.574Z" fill="#36334A"/>
<path d="M343.304 92.7984C344.576 92.7984 345.608 91.7835 345.608 90.5315C345.608 89.2796 344.576 88.2646 343.304 88.2646C342.031 88.2646 341 89.2796 341 90.5315C341 91.7835 342.031 92.7984 343.304 92.7984Z" fill="#FBBEBE"/>
<path d="M342.868 93.9668C343.807 94.1238 344.619 93.049 345.56 93.2002C345.764 93.2414 345.96 93.317 346.138 93.4239C347.539 94.204 348.542 95.5263 348.904 97.0696C349.011 97.5357 349.052 98.0414 348.852 98.4768C348.746 98.7081 348.577 98.9058 348.409 99.0982C347.783 99.8143 347.096 100.528 346.204 100.874C346.116 101.172 346.2 101.494 346.305 101.785C346.741 103.004 346.047 104.317 346.012 105.608C346.006 105.829 346.012 106.07 345.872 106.243C345.716 106.434 345.438 106.468 345.189 106.482C342.908 106.609 340.63 106.264 338.373 105.922C338.313 105.917 338.256 105.898 338.207 105.866C338.133 105.808 338.121 105.704 338.106 105.612C338.022 105.124 338.463 104.728 338.254 104.278C337.895 103.504 338.678 102.658 338.904 101.836C339.129 101.015 339.218 100.871 339.376 100.035C339.435 99.7219 339.265 98.7791 339.317 98.4652C339.487 97.4398 339.358 96.2715 339.908 95.3845C340.238 94.8515 340.152 94.4371 340.741 94.2051C341.363 93.9604 342.204 94.043 342.869 93.9668H342.868Z" fill="#9E9E9E"/>
<path d="M332.464 107.486C331.777 107.617 331.046 107.741 330.517 108.192C330.194 108.468 329.977 108.842 329.766 109.208L327.613 112.944C326.956 114.083 326.299 115.223 325.703 116.394C325.651 116.479 325.621 116.575 325.614 116.675C325.617 116.815 325.712 116.935 325.81 117.036C326.499 117.739 327.484 118.08 328.468 117.956C328.616 117.201 329.345 116.703 329.703 116.019C329.899 115.644 329.978 115.222 330.104 114.818C330.577 113.313 331.699 112.104 332.789 110.951C333.304 110.405 333.831 109.85 334.494 109.492C335.272 109.072 336.175 108.956 337.045 108.782C337.914 108.607 338.815 108.343 339.43 107.714C339.959 107.165 340.209 106.411 340.112 105.661C339.555 105.622 338.935 105.551 338.397 105.727C337.773 105.932 337.169 106.212 336.544 106.421C335.21 106.868 333.847 107.224 332.464 107.486H332.464Z" fill="#696880"/>
<path opacity="0.1" d="M332.464 107.486C331.777 107.617 331.046 107.741 330.517 108.192C330.194 108.468 329.977 108.842 329.766 109.208L327.613 112.944C326.956 114.083 326.299 115.223 325.703 116.394C325.651 116.479 325.621 116.575 325.614 116.675C325.617 116.815 325.712 116.935 325.81 117.036C326.499 117.739 327.484 118.08 328.468 117.956C328.616 117.201 329.345 116.703 329.703 116.019C329.899 115.644 329.978 115.222 330.104 114.818C330.577 113.313 331.699 112.104 332.789 110.951C333.304 110.405 333.831 109.85 334.494 109.492C335.272 109.072 336.175 108.956 337.045 108.782C337.914 108.607 338.815 108.343 339.43 107.714C339.959 107.165 340.209 106.411 340.112 105.661C339.555 105.622 338.935 105.551 338.397 105.727C337.773 105.932 337.169 106.212 336.544 106.421C335.21 106.868 333.847 107.224 332.464 107.486H332.464Z" fill="black"/>
<path d="M323.181 119.332C323.104 119.386 323.045 119.461 323.012 119.547C322.934 119.809 323.267 119.994 323.534 120.07C324.133 120.239 324.773 120.41 325.371 120.235C325.738 120.127 326.057 119.898 326.421 119.783C326.962 119.612 327.548 119.709 328.106 119.807C328.231 119.116 328.147 118.403 327.865 117.759C327.685 117.352 326.968 117.154 326.54 117.136C326.073 117.116 325.911 117.455 325.641 117.767C324.985 118.528 323.938 118.704 323.182 119.332H323.181Z" fill="#3F3D56"/>
<path d="M332.903 108.599C332.572 108.729 332.233 108.863 331.974 109.103C331.7 109.356 331.54 109.703 331.394 110.043C330.962 111.049 330.595 112.081 330.293 113.132C330.141 113.663 330.006 114.2 329.801 114.714C329.391 115.74 328.697 116.721 328.762 117.82C328.762 117.954 328.798 118.085 328.868 118.2C328.961 118.333 329.118 118.403 329.268 118.467L330.054 118.802C330.476 118.982 330.99 119.156 331.367 118.896C331.619 118.723 331.719 118.409 331.796 118.115C332.07 117.056 332.24 115.956 332.732 114.977C333.288 113.87 334.228 112.975 334.725 111.841C334.796 111.681 334.863 111.509 335.001 111.399C335.116 111.308 335.264 111.273 335.407 111.241C338.357 110.58 341.374 110.219 344.3 109.463C344.716 109.356 345.152 109.228 345.449 108.922C345.861 108.497 345.897 107.851 345.91 107.265C345.918 106.897 345.917 106.498 345.689 106.206C345.432 105.877 344.972 105.791 344.553 105.747C342.946 105.581 341.463 105.843 339.879 106.035C338.431 106.21 336.972 107.015 335.62 107.541C334.715 107.893 333.81 108.247 332.905 108.601L332.903 108.599Z" fill="#696880"/>
<path d="M329.268 119.107C329.047 119.624 328.808 120.163 328.36 120.508C328.173 120.652 327.931 120.797 327.924 121.031C327.916 121.278 328.18 121.442 328.417 121.525C329.019 121.739 329.705 121.785 330.293 121.535C330.696 121.363 331.027 121.067 331.351 120.777C331.448 120.689 331.549 120.597 331.595 120.475C331.626 120.372 331.635 120.265 331.622 120.158C331.583 119.513 331.466 118.874 331.273 118.255C331.258 118.206 329.987 118.051 329.874 118.08C329.519 118.171 329.404 118.788 329.267 119.107H329.268Z" fill="#3F3D56"/>
<path d="M349.034 104.133L341.355 104.365C341.355 104.365 334.561 110.875 340.173 112.852C340.173 112.852 347.085 113.956 348.739 112.677C348.739 112.677 350.806 104.656 349.034 104.133ZM348.68 106.283L340.469 106.807C340.469 106.807 341.059 104.83 343.422 104.83C345.785 104.83 348.443 104.307 348.68 105.528C348.916 106.748 348.68 106.283 348.68 106.283Z" fill="#3F3D56"/>
<path d="M347.291 124.999C351.549 124.999 355 121.148 355 116.397C355 111.645 351.549 107.794 347.291 107.794C343.034 107.794 339.582 111.645 339.582 116.397C339.582 121.148 343.034 124.999 347.291 124.999Z" fill="#36334A"/>
<path d="M347.646 122.791C350.859 122.791 353.464 119.928 353.464 116.397C353.464 112.866 350.859 110.003 347.646 110.003C344.432 110.003 341.827 112.866 341.827 116.397C341.827 119.928 344.432 122.791 347.646 122.791Z" fill="#3F3D56"/>
<path d="M349.152 116.31C349.152 116.198 349.141 116.087 349.118 115.978L353.464 113.84L353.169 113.2L348.779 115.305C348.734 115.26 348.685 115.22 348.633 115.185H348.636L349.92 108.9L348.785 108.874L348.03 115.061L348.102 115.076C348.044 115.088 347.987 115.107 347.933 115.133L344.136 111.298L343.599 112.038L347.5 115.57C347.402 115.754 347.344 115.957 347.328 116.165L341.828 118.374L341.71 119.304L347.443 116.931C347.497 117.062 347.572 117.182 347.667 117.288L345.904 123.198H346.553L348.034 117.528C348.099 117.549 348.168 117.56 348.237 117.56C348.371 117.559 348.5 117.521 348.613 117.449L351.693 121.455L352.638 120.815L349.029 116.936C349.111 116.738 349.153 116.525 349.153 116.311L349.152 116.31Z" fill="#36334A"/>
<path d="M340.627 89.0955C340.731 88.8386 341.066 88.7323 341.176 88.4771C341.294 88.2033 341.109 87.8546 341.27 87.6023C341.432 87.3483 341.81 87.3779 342.111 87.4273C342.466 87.4855 342.843 87.5244 343.175 87.3855C343.322 87.3239 343.453 87.2297 343.595 87.1582C343.822 87.0449 344.074 86.9908 344.328 87.0013C344.386 87.0001 344.442 87.0135 344.492 87.0396C344.54 87.0739 344.577 87.121 344.599 87.1751C344.703 87.3959 344.717 87.6715 344.905 87.8296C344.995 87.9057 345.112 87.9417 345.22 87.99C345.735 88.2341 346.04 88.7689 345.985 89.328C345.96 89.4548 345.944 89.5826 345.938 89.7111C345.945 89.9936 346.133 90.2761 346.037 90.5429C345.966 90.7411 345.757 90.8585 345.553 90.9195C345.495 90.9428 345.43 90.9463 345.37 90.9288C345.266 90.887 345.244 90.7544 345.211 90.6481C345.114 90.3621 344.839 90.172 344.533 90.1778C344.295 90.1877 344.054 90.3197 343.829 90.2412C343.719 90.2028 343.632 90.1186 343.544 90.043C343.341 89.8686 343.1 89.7233 342.833 89.6861C342.566 89.6489 342.27 89.7378 342.113 89.9529C342.049 90.0401 342.011 90.1424 341.951 90.2313C341.406 91.0317 340.403 89.6495 340.627 89.0944L340.627 89.0955Z" fill="#36334A"/>
<path d="M341.854 102.911C341.649 102.885 341.444 102.96 341.306 103.112C340.789 103.575 340.241 104.098 340.148 104.779C340.134 104.842 340.141 104.907 340.169 104.964C340.219 105.045 340.328 105.062 340.424 105.064C340.912 105.068 341.379 104.866 341.705 104.507C341.793 104.408 341.875 104.295 341.997 104.239C342.108 104.198 342.227 104.184 342.345 104.196C342.669 104.207 343.41 104.37 343.692 104.212C343.989 104.046 343.908 103.524 343.769 103.272C343.439 102.674 342.416 102.905 341.854 102.911V102.911Z" fill="#FBBEBE"/>
<path d="M349.069 97.8897C349.268 98.5186 349.151 99.2266 349.433 99.8242C349.62 100.221 349.971 100.54 350.08 100.964C350.183 101.364 350.045 101.796 349.803 102.133C349.562 102.471 349.226 102.73 348.888 102.976C348.519 103.245 348.136 103.508 347.7 103.653C347.266 103.799 346.801 103.82 346.344 103.841L343.308 103.978L342.75 102.329L344.727 101.567C344.925 101.491 345.127 101.414 345.339 101.398C345.705 101.371 346.151 101.504 346.386 101.226C346.461 101.124 346.508 101.005 346.524 100.881C346.716 99.9119 346.549 98.8872 346.844 97.9438C346.99 97.477 347.412 96.5406 347.988 96.4581C348.597 96.3709 348.932 97.4538 349.07 97.8897H349.069Z" fill="#9E9E9E"/>
</g>
<defs>
<clipPath id="clip0_282_28979">
<rect width="433.31" height="315.48" fill="white"/>
</clipPath>
</defs>
</svg>
