<svg width="434" height="316" viewBox="0 0 434 316" fill="none" xmlns="http://www.w3.org/2000/svg">
<g clip-path="url(#clip0_282_27225)">
<path d="M251.51 175.44C255.04 172.49 258.6 169.56 260.31 165.39C260.51 164.9 260.99 164.66 261.35 164.32C262.81 162.95 265 162.23 265.53 160.03C265.75 159.13 267.66 159.2 268.3 158.14C267.55 156 267.38 153.58 265.4 151.74C265.47 151.18 266.12 150.77 266.04 150.15C266.11 150.03 266.03 149.93 265.84 149.79C264.39 148.74 262.85 149.41 261.33 149.61C259.13 149.91 257.05 150.6 254.99 151.26C251.24 152.46 247.35 152.2 243.5 152.47C242.21 152.56 240.9 152.58 239.61 152.66C233.7 153.01 228 152.33 222.38 150.56C218.43 149.31 213.65 151.19 211.75 154.27C211.39 154.86 211.52 155.59 211.8 156.04C212.64 157.43 212.11 157.81 210.53 158.08C209.04 158.33 207.59 158.81 206.2 159.43C204.6 160.14 204.17 160.99 204.54 162.53C205.07 164.76 205.89 166.86 207.12 168.7C212.89 167.08 218.51 165.32 224.66 166.1C228.45 166.57 231.74 167.98 234.47 170.25C237.54 172.8 240.91 173.62 244.95 172.39C246.6 171.89 248.09 172.24 249.25 173.45C249.9 174.13 250.82 174.61 251.3 175.42" fill="#D1FF00"/>
<path d="M244.874 159.408C247.696 159.408 249.983 156.855 249.983 153.706C249.983 150.557 247.696 148.004 244.874 148.004C242.051 148.004 239.764 150.557 239.764 153.706C239.764 156.855 242.051 159.408 244.874 159.408Z" fill="#36334A"/>
<path d="M251.432 134.732C250.204 135.259 248.865 135.488 247.529 135.398C247.872 135.156 248.092 134.77 248.181 134.364C248.269 133.958 248.236 133.535 248.144 133.13C248.128 133.083 248.128 133.032 248.147 132.987C248.185 132.941 248.243 132.914 248.303 132.914C248.821 132.843 250.303 132.535 250.697 132.971C250.884 133.178 250.812 133.579 250.881 133.832C250.909 133.936 251.27 134.803 251.432 134.733V134.732Z" fill="#FBBEBE"/>
<path opacity="0.1" d="M251.432 134.732C250.204 135.259 248.865 135.488 247.529 135.398C247.872 135.156 248.092 134.77 248.181 134.364C248.269 133.958 248.236 133.535 248.144 133.13C248.128 133.083 248.128 133.032 248.147 132.987C248.185 132.941 248.243 132.914 248.303 132.914C248.821 132.843 250.303 132.535 250.697 132.971C250.884 133.178 250.812 133.579 250.881 133.832C250.909 133.936 251.27 134.803 251.432 134.733V134.732Z" fill="black"/>
<path d="M247.118 143.389L239.439 143.621C239.439 143.621 232.646 150.131 238.257 152.108C238.257 152.108 245.169 153.212 246.823 151.933C246.823 151.933 248.89 143.912 247.118 143.389ZM246.764 145.539L238.553 146.062C238.553 146.062 239.144 144.086 241.506 144.086C243.869 144.086 246.527 143.563 246.764 144.784C247 146.004 246.764 145.539 246.764 145.539Z" fill="#3F3D56"/>
<path d="M241.064 142.345C240.681 142.287 240.265 142.254 239.929 142.445C239.818 142.513 239.714 142.594 239.62 142.685C239.485 142.807 239.351 142.93 239.218 143.054C239.121 143.145 239.02 143.245 238.994 143.374C238.943 143.64 239.256 143.856 239.531 143.845C239.806 143.835 240.053 143.686 240.314 143.596C240.838 143.416 242.764 143.724 242.869 143.17C243.003 142.464 241.49 142.412 241.064 142.346V142.345Z" fill="#FBBEBE"/>
<path d="M244.654 141.9C244.153 142.151 243.608 142.303 243.048 142.349C242.961 142.35 242.875 142.369 242.794 142.402C242.746 142.432 242.709 142.476 242.688 142.529C242.492 142.934 242.37 143.371 242.329 143.819C242.319 143.863 242.335 143.909 242.371 143.937C242.424 143.964 242.484 143.977 242.544 143.975C243.463 144.033 244.386 144.064 245.311 144.068C245.351 144.071 245.393 144.065 245.431 144.051C245.458 144.038 245.478 144.013 245.487 143.984C245.703 143.453 245.806 142.883 245.787 142.311C245.763 141.638 245.563 141.427 244.655 141.901L244.654 141.9Z" fill="#D7E5F2"/>
<path d="M244.654 141.9C244.153 142.151 243.608 142.303 243.048 142.349C242.961 142.35 242.875 142.369 242.794 142.402C242.746 142.432 242.709 142.476 242.688 142.529C242.492 142.934 242.37 143.371 242.329 143.819C242.319 143.863 242.335 143.909 242.371 143.937C242.424 143.964 242.484 143.977 242.544 143.975C243.463 144.033 244.386 144.064 245.311 144.068C245.351 144.071 245.393 144.065 245.431 144.051C245.458 144.038 245.478 144.013 245.487 143.984C245.703 143.453 245.806 142.883 245.787 142.311C245.763 141.638 245.563 141.427 244.655 141.901L244.654 141.9Z" fill="#F5F4F4"/>
<path d="M254.975 147.981L244.873 147.632L247.236 137.809C247.236 137.809 256.688 137.111 256.451 139.495C256.215 141.878 254.975 147.981 254.975 147.981Z" fill="#36334A"/>
<path d="M245.223 152.676C245.223 152.676 239.143 153.734 236.958 150.596C234.772 147.457 245.228 149.142 245.228 149.142L246.114 151.526L245.223 152.676Z" fill="#36334A"/>
<path d="M243.397 166C244.93 166 246.173 164.777 246.173 163.268C246.173 161.759 244.93 160.536 243.397 160.536C241.863 160.536 240.62 161.759 240.62 163.268C240.62 164.777 241.863 166 243.397 166Z" fill="#36334A"/>
<path d="M243.663 165.244C244.625 165.244 245.405 164.359 245.405 163.267C245.405 162.176 244.625 161.291 243.663 161.291C242.7 161.291 241.92 162.176 241.92 163.267C241.92 164.359 242.7 165.244 243.663 165.244Z" fill="#3F3D56"/>
<path d="M258.578 137.519C258.578 137.519 256.274 136.24 256.156 139.262L254.207 153.329H255.034L257.279 138.274C257.279 138.274 258.401 138.449 258.578 138.449C258.755 138.449 258.578 137.519 258.578 137.519Z" fill="#3F3D56"/>
<path d="M260.874 139.07C260.792 139.36 260.487 139.529 260.194 139.449C260.17 139.442 260.147 139.434 260.125 139.425L257.452 138.301L257.937 137.25L260.571 138.431C260.819 138.542 260.947 138.813 260.874 139.07H260.874Z" fill="#36334A"/>
<path d="M244.637 152.34C244.637 152.34 240.384 151.875 239.202 155.885C238.021 159.896 238.139 162.977 237.135 162.744C236.131 162.512 234.004 161.698 234.004 161.698L234.181 162.919C234.181 162.919 237.903 164.779 238.494 162.802C239.084 160.826 239.439 153.56 242.806 153.735C246.173 153.909 246.764 153.56 246.764 153.56L244.637 152.34Z" fill="#3F3D56"/>
<path d="M236.544 150.422C236.544 150.422 233.236 150.829 231.937 153.212C230.637 155.595 229.987 159.896 229.987 159.896H231.228C231.228 159.896 231.937 151.352 235.658 151.817L236.544 150.422Z" fill="#3F3D56"/>
<path d="M234.3 163.734L229.042 160.537C229.042 160.537 228.747 159.374 232.114 158.909C232.114 158.909 238.48 161.1 237.866 161.922C237.253 162.745 235.186 164.024 234.3 163.734Z" fill="#36334A"/>
<path d="M242.452 153.328V160.129H243.219V153.212L242.452 153.328Z" fill="#3F3D56"/>
<path d="M243.574 157.513C243.574 157.513 245.051 163.209 244.106 164.023C244.106 164.023 242.865 160.419 241.92 160.884L242.215 157.513H243.574Z" fill="#36334A"/>
<path d="M249.304 133.798C250.576 133.798 251.608 132.784 251.608 131.532C251.608 130.28 250.576 129.265 249.304 129.265C248.031 129.265 247 130.28 247 131.532C247 132.784 248.031 133.798 249.304 133.798Z" fill="#FBBEBE"/>
<path d="M248.868 134.967C249.807 135.124 250.619 134.049 251.56 134.2C251.764 134.241 251.96 134.317 252.138 134.424C253.539 135.204 254.542 136.526 254.904 138.07C255.011 138.536 255.052 139.041 254.852 139.477C254.746 139.708 254.577 139.906 254.409 140.098C253.783 140.814 253.096 141.528 252.204 141.874C252.116 142.172 252.2 142.494 252.305 142.785C252.741 144.004 252.047 145.317 252.012 146.608C252.006 146.829 252.012 147.07 251.872 147.243C251.716 147.434 251.438 147.468 251.189 147.482C248.908 147.609 246.63 147.264 244.373 146.922C244.313 146.917 244.256 146.898 244.207 146.866C244.133 146.808 244.121 146.704 244.106 146.612C244.022 146.124 244.463 145.728 244.254 145.278C243.895 144.504 244.678 143.658 244.904 142.836C245.129 142.015 245.218 141.871 245.376 141.035C245.435 140.722 245.265 139.779 245.317 139.465C245.487 138.44 245.358 137.272 245.908 136.385C246.238 135.852 246.152 135.437 246.741 135.205C247.363 134.96 248.204 135.043 248.869 134.967H248.868Z" fill="#F5F4F4"/>
<path d="M238.464 148.486C237.777 148.617 237.046 148.741 236.517 149.192C236.194 149.468 235.977 149.842 235.766 150.208L233.613 153.944C232.956 155.083 232.299 156.223 231.703 157.394C231.651 157.479 231.621 157.575 231.614 157.675C231.617 157.815 231.712 157.935 231.81 158.036C232.499 158.739 233.484 159.08 234.468 158.956C234.616 158.201 235.345 157.703 235.703 157.019C235.899 156.644 235.978 156.222 236.104 155.818C236.577 154.313 237.699 153.104 238.789 151.951C239.304 151.405 239.831 150.85 240.494 150.492C241.272 150.072 242.175 149.956 243.045 149.782C243.914 149.607 244.815 149.343 245.43 148.714C245.959 148.165 246.209 147.411 246.112 146.661C245.555 146.622 244.935 146.551 244.397 146.727C243.773 146.932 243.169 147.212 242.544 147.421C241.21 147.868 239.847 148.224 238.464 148.486H238.464Z" fill="#696880"/>
<path opacity="0.1" d="M238.464 148.486C237.777 148.617 237.046 148.741 236.517 149.192C236.194 149.468 235.977 149.842 235.766 150.208L233.613 153.944C232.956 155.083 232.299 156.223 231.703 157.394C231.651 157.479 231.621 157.575 231.614 157.675C231.617 157.815 231.712 157.935 231.81 158.036C232.499 158.739 233.484 159.08 234.468 158.956C234.616 158.201 235.345 157.703 235.703 157.019C235.899 156.644 235.978 156.222 236.104 155.818C236.577 154.313 237.699 153.104 238.789 151.951C239.304 151.405 239.831 150.85 240.494 150.492C241.272 150.072 242.175 149.956 243.045 149.782C243.914 149.607 244.815 149.343 245.43 148.714C245.959 148.165 246.209 147.411 246.112 146.661C245.555 146.622 244.935 146.551 244.397 146.727C243.773 146.932 243.169 147.212 242.544 147.421C241.21 147.868 239.847 148.224 238.464 148.486H238.464Z" fill="black"/>
<path d="M229.181 160.332C229.104 160.386 229.045 160.461 229.012 160.547C228.934 160.809 229.267 160.994 229.534 161.07C230.133 161.239 230.773 161.41 231.371 161.235C231.738 161.127 232.057 160.898 232.421 160.783C232.962 160.612 233.548 160.709 234.106 160.807C234.231 160.116 234.147 159.403 233.865 158.759C233.685 158.352 232.968 158.154 232.54 158.136C232.073 158.116 231.911 158.455 231.641 158.767C230.985 159.528 229.938 159.704 229.182 160.332H229.181Z" fill="#3F3D56"/>
<path d="M238.903 149.599C238.572 149.729 238.233 149.863 237.974 150.103C237.7 150.356 237.54 150.703 237.394 151.043C236.962 152.049 236.595 153.081 236.293 154.132C236.141 154.663 236.006 155.2 235.801 155.714C235.391 156.74 234.697 157.721 234.762 158.82C234.762 158.954 234.798 159.085 234.868 159.2C234.961 159.333 235.118 159.403 235.268 159.467L236.054 159.802C236.476 159.982 236.99 160.156 237.367 159.896C237.619 159.723 237.719 159.409 237.796 159.115C238.07 158.056 238.24 156.956 238.732 155.977C239.288 154.87 240.228 153.975 240.725 152.841C240.796 152.681 240.863 152.509 241.001 152.399C241.116 152.308 241.264 152.273 241.407 152.241C244.357 151.58 247.374 151.219 250.3 150.463C250.716 150.356 251.152 150.228 251.449 149.922C251.861 149.497 251.897 148.851 251.91 148.265C251.918 147.897 251.917 147.498 251.689 147.206C251.432 146.877 250.972 146.791 250.553 146.747C248.946 146.581 247.463 146.843 245.879 147.035C244.431 147.21 242.972 148.015 241.62 148.541C240.715 148.893 239.81 149.247 238.905 149.601L238.903 149.599Z" fill="#696880"/>
<path d="M235.268 160.107C235.047 160.624 234.808 161.163 234.36 161.508C234.173 161.652 233.931 161.797 233.924 162.031C233.916 162.278 234.18 162.442 234.417 162.525C235.019 162.739 235.705 162.785 236.293 162.535C236.696 162.363 237.027 162.067 237.351 161.777C237.448 161.689 237.549 161.597 237.595 161.475C237.626 161.372 237.635 161.265 237.622 161.158C237.583 160.513 237.466 159.874 237.273 159.255C237.258 159.206 235.987 159.051 235.874 159.08C235.519 159.171 235.404 159.788 235.267 160.107H235.268Z" fill="#3F3D56"/>
<path d="M255.034 145.133L247.355 145.365C247.355 145.365 240.561 151.875 246.173 153.852C246.173 153.852 253.085 154.956 254.739 153.677C254.739 153.677 256.806 145.656 255.034 145.133ZM254.68 147.283L246.469 147.807C246.469 147.807 247.059 145.83 249.422 145.83C251.785 145.83 254.443 145.307 254.68 146.528C254.916 147.748 254.68 147.283 254.68 147.283Z" fill="#3F3D56"/>
<path d="M253.291 165.999C257.549 165.999 261 162.148 261 157.397C261 152.645 257.549 148.794 253.291 148.794C249.034 148.794 245.582 152.645 245.582 157.397C245.582 162.148 249.034 165.999 253.291 165.999Z" fill="#36334A"/>
<path d="M253.646 163.791C256.859 163.791 259.464 160.928 259.464 157.397C259.464 153.866 256.859 151.003 253.646 151.003C250.432 151.003 247.827 153.866 247.827 157.397C247.827 160.928 250.432 163.791 253.646 163.791Z" fill="#3F3D56"/>
<path d="M255.152 157.31C255.152 157.198 255.141 157.087 255.118 156.978L259.464 154.84L259.169 154.2L254.779 156.305C254.734 156.26 254.685 156.22 254.633 156.185H254.636L255.92 149.9L254.785 149.874L254.03 156.061L254.102 156.076C254.044 156.088 253.987 156.107 253.933 156.133L250.136 152.298L249.599 153.038L253.5 156.57C253.402 156.754 253.344 156.957 253.328 157.165L247.828 159.374L247.71 160.304L253.443 157.931C253.497 158.062 253.572 158.182 253.667 158.288L251.904 164.198H252.553L254.034 158.528C254.099 158.549 254.168 158.56 254.237 158.56C254.371 158.559 254.5 158.521 254.613 158.449L257.693 162.455L258.638 161.815L255.029 157.936C255.111 157.738 255.153 157.525 255.153 157.311L255.152 157.31Z" fill="#36334A"/>
<path d="M246.627 130.096C246.731 129.839 247.066 129.732 247.176 129.477C247.294 129.203 247.109 128.855 247.27 128.602C247.432 128.348 247.81 128.378 248.111 128.427C248.466 128.485 248.843 128.524 249.174 128.385C249.322 128.324 249.453 128.23 249.595 128.158C249.822 128.045 250.074 127.991 250.328 128.001C250.385 128 250.442 128.013 250.492 128.04C250.54 128.074 250.577 128.121 250.599 128.175C250.703 128.396 250.717 128.671 250.905 128.83C250.995 128.906 251.112 128.942 251.22 128.99C251.735 129.234 252.04 129.769 251.985 130.328C251.96 130.455 251.944 130.583 251.938 130.711C251.945 130.994 252.133 131.276 252.037 131.543C251.966 131.741 251.757 131.858 251.553 131.92C251.495 131.943 251.43 131.946 251.37 131.929C251.266 131.887 251.244 131.754 251.211 131.648C251.114 131.362 250.839 131.172 250.533 131.178C250.295 131.188 250.053 131.32 249.829 131.241C249.719 131.203 249.632 131.119 249.544 131.043C249.34 130.869 249.1 130.723 248.833 130.686C248.566 130.649 248.27 130.738 248.113 130.953C248.049 131.04 248.011 131.142 247.951 131.231C247.406 132.032 246.403 130.649 246.627 130.094L246.627 130.096Z" fill="#36334A"/>
<path d="M247.854 143.911C247.649 143.885 247.444 143.96 247.306 144.112C246.789 144.575 246.241 145.098 246.148 145.779C246.134 145.842 246.141 145.907 246.169 145.964C246.219 146.045 246.328 146.062 246.424 146.064C246.912 146.068 247.379 145.866 247.705 145.507C247.793 145.408 247.875 145.295 247.997 145.239C248.108 145.198 248.227 145.184 248.345 145.196C248.669 145.207 249.41 145.37 249.692 145.212C249.989 145.046 249.908 144.524 249.769 144.272C249.439 143.674 248.416 143.905 247.854 143.911V143.911Z" fill="#FBBEBE"/>
<path d="M255.069 138.89C255.268 139.519 255.151 140.227 255.433 140.824C255.62 141.221 255.971 141.54 256.08 141.964C256.183 142.364 256.045 142.796 255.803 143.133C255.562 143.471 255.226 143.73 254.888 143.976C254.519 144.245 254.136 144.508 253.7 144.653C253.266 144.799 252.801 144.82 252.344 144.841L249.308 144.978L248.75 143.329L250.727 142.567C250.925 142.491 251.127 142.414 251.339 142.398C251.705 142.371 252.151 142.504 252.386 142.226C252.461 142.124 252.508 142.005 252.524 141.881C252.716 140.912 252.549 139.887 252.844 138.944C252.99 138.477 253.412 137.541 253.988 137.458C254.597 137.371 254.932 138.454 255.07 138.89H255.069Z" fill="#F5F4F4"/>
</g>
<defs>
<clipPath id="clip0_282_27225">
<rect width="433.31" height="315.48" fill="white"/>
</clipPath>
</defs>
</svg>
