<svg width="434" height="316" viewBox="0 0 434 316" fill="none" xmlns="http://www.w3.org/2000/svg">
<g clip-path="url(#clip0_282_21963)">
<path d="M185.34 194.98C186.34 193.07 186.84 191.15 185.99 189.05C185.61 188.11 186.2 187.51 187.38 187.24C188.94 186.88 190.54 186.76 192.11 186.39C196.16 185.45 197.8 183.67 197.85 180.09C197.92 175.04 196.75 174.98 203.37 172.37C204.01 172.12 204.61 171.8 205.21 171.47C205.45 171.34 205.63 171.12 205.88 170.89C205.21 169.13 203.86 167.59 203.37 165.74C203.14 164.87 202.29 165.17 201.74 165.22C195.14 165.87 188.5 166.09 181.87 166.3C176.48 166.47 171.77 164.72 167.11 162.71C166.86 162.6 166.69 162.47 166.51 162.33C165.85 161.77 165.2 161.2 164.61 160.67C164.89 158.9 166.15 157.54 166.34 155.69C163.46 155.14 160.54 154.72 157.88 153.4C154.16 151.56 149.92 150.63 146.41 148.36C144.42 147.07 142.57 145.75 142.16 143.49C142.02 142.7 141.39 142.73 140.89 142.62C136.33 141.56 132.52 139.33 129.04 136.66C127.52 135.5 125.89 134.48 124.64 132.97C122.91 130.88 123.39 130.82 124.54 128.81C124.88 128.22 125.58 127.8 126.14 127.28C122.15 125.34 119.26 126.85 117.95 129.87C117.06 131.91 116.24 133.96 115.87 136.14C115.75 136.87 115.45 137.45 114.53 138.02C112.79 139.1 111.06 140.22 109.33 141.33C106.67 143.03 103.61 143.7 100.33 143.69C99.41 143.69 98.39 143.43 97.65 144.23C98.48 146.12 99.09 148.08 99.08 150.13C99.08 151.29 100.11 151.62 100.95 152.09C103.37 153.45 105.94 154.58 108.52 155.7C113.06 157.66 116.55 160.81 120.18 163.78C122.43 165.62 124.8 167.18 127.54 168.49C132.52 170.87 137.06 173.9 140.42 177.97C141.43 179.19 142.46 179.65 143.97 179.53C146.35 179.35 148.74 179.9 150.23 181.23C153.23 183.9 157 184.25 160.76 184.92C164.82 185.65 168.99 185.65 173.05 186.36C176.09 186.9 178.63 188.2 179.77 190.84C180.54 192.61 181.81 193.8 183.69 194.61C184.29 194.87 185.11 194.93 185.34 195.67" fill="#D1FF00"/>
<path d="M138.874 159.408C141.696 159.408 143.983 156.855 143.983 153.706C143.983 150.557 141.696 148.004 138.874 148.004C136.051 148.004 133.764 150.557 133.764 153.706C133.764 156.855 136.051 159.408 138.874 159.408Z" fill="#36334A"/>
<path d="M145.432 134.732C144.204 135.259 142.865 135.488 141.529 135.398C141.872 135.156 142.092 134.77 142.181 134.364C142.269 133.958 142.236 133.535 142.144 133.13C142.128 133.083 142.128 133.032 142.147 132.987C142.185 132.941 142.243 132.914 142.303 132.914C142.821 132.843 144.303 132.535 144.697 132.971C144.884 133.178 144.812 133.579 144.881 133.832C144.909 133.936 145.27 134.803 145.432 134.733V134.732Z" fill="#FBBEBE"/>
<path opacity="0.1" d="M145.432 134.732C144.204 135.259 142.865 135.488 141.529 135.398C141.872 135.156 142.092 134.77 142.181 134.364C142.269 133.958 142.236 133.535 142.144 133.13C142.128 133.083 142.128 133.032 142.147 132.987C142.185 132.941 142.243 132.914 142.303 132.914C142.821 132.843 144.303 132.535 144.697 132.971C144.884 133.178 144.812 133.579 144.881 133.832C144.909 133.936 145.27 134.803 145.432 134.733V134.732Z" fill="black"/>
<path d="M141.118 143.389L133.439 143.621C133.439 143.621 126.646 150.131 132.257 152.108C132.257 152.108 139.169 153.212 140.823 151.933C140.823 151.933 142.89 143.912 141.118 143.389ZM140.764 145.539L132.553 146.062C132.553 146.062 133.144 144.086 135.506 144.086C137.869 144.086 140.527 143.563 140.764 144.784C141 146.004 140.764 145.539 140.764 145.539Z" fill="#3F3D56"/>
<path d="M135.064 142.345C134.681 142.287 134.265 142.254 133.929 142.445C133.818 142.513 133.714 142.594 133.62 142.685C133.485 142.807 133.351 142.93 133.218 143.054C133.121 143.145 133.02 143.245 132.994 143.374C132.943 143.64 133.256 143.856 133.531 143.845C133.806 143.835 134.053 143.686 134.314 143.596C134.838 143.416 136.764 143.724 136.869 143.17C137.003 142.464 135.49 142.412 135.064 142.346V142.345Z" fill="#FBBEBE"/>
<path d="M138.654 141.9C138.153 142.151 137.608 142.303 137.048 142.349C136.961 142.35 136.875 142.369 136.794 142.402C136.746 142.432 136.709 142.476 136.688 142.529C136.492 142.934 136.37 143.371 136.329 143.819C136.319 143.863 136.335 143.909 136.371 143.937C136.424 143.964 136.484 143.977 136.544 143.975C137.463 144.033 138.386 144.064 139.311 144.068C139.351 144.071 139.393 144.065 139.431 144.051C139.458 144.038 139.478 144.013 139.487 143.984C139.703 143.453 139.806 142.883 139.787 142.311C139.763 141.638 139.563 141.427 138.655 141.901L138.654 141.9Z" fill="#D7E5F2"/>
<path d="M138.654 141.9C138.153 142.151 137.608 142.303 137.048 142.349C136.961 142.35 136.875 142.369 136.794 142.402C136.746 142.432 136.709 142.476 136.688 142.529C136.492 142.934 136.37 143.371 136.329 143.819C136.319 143.863 136.335 143.909 136.371 143.937C136.424 143.964 136.484 143.977 136.544 143.975C137.463 144.033 138.386 144.064 139.311 144.068C139.351 144.071 139.393 144.065 139.431 144.051C139.458 144.038 139.478 144.013 139.487 143.984C139.703 143.453 139.806 142.883 139.787 142.311C139.763 141.638 139.563 141.427 138.655 141.901L138.654 141.9Z" fill="#D9D9D9"/>
<path d="M148.975 147.981L138.873 147.632L141.236 137.809C141.236 137.809 150.688 137.111 150.451 139.495C150.215 141.878 148.975 147.981 148.975 147.981Z" fill="#36334A"/>
<path d="M139.223 152.676C139.223 152.676 133.143 153.734 130.958 150.596C128.772 147.457 139.228 149.142 139.228 149.142L140.114 151.526L139.223 152.676Z" fill="#36334A"/>
<path d="M137.397 166C138.93 166 140.173 164.777 140.173 163.268C140.173 161.759 138.93 160.536 137.397 160.536C135.863 160.536 134.62 161.759 134.62 163.268C134.62 164.777 135.863 166 137.397 166Z" fill="#36334A"/>
<path d="M137.663 165.244C138.625 165.244 139.405 164.359 139.405 163.267C139.405 162.176 138.625 161.291 137.663 161.291C136.7 161.291 135.92 162.176 135.92 163.267C135.92 164.359 136.7 165.244 137.663 165.244Z" fill="#3F3D56"/>
<path d="M152.578 137.519C152.578 137.519 150.274 136.24 150.156 139.262L148.207 153.329H149.034L151.279 138.274C151.279 138.274 152.401 138.449 152.578 138.449C152.755 138.449 152.578 137.519 152.578 137.519Z" fill="#3F3D56"/>
<path d="M154.874 139.07C154.792 139.36 154.487 139.529 154.194 139.449C154.17 139.442 154.147 139.434 154.125 139.425L151.452 138.301L151.937 137.25L154.571 138.431C154.819 138.542 154.947 138.813 154.874 139.07H154.874Z" fill="#36334A"/>
<path d="M138.637 152.34C138.637 152.34 134.384 151.875 133.202 155.885C132.021 159.896 132.139 162.977 131.135 162.744C130.131 162.512 128.004 161.698 128.004 161.698L128.181 162.919C128.181 162.919 131.903 164.779 132.494 162.802C133.084 160.826 133.439 153.56 136.806 153.735C140.173 153.909 140.764 153.56 140.764 153.56L138.637 152.34Z" fill="#3F3D56"/>
<path d="M130.544 150.422C130.544 150.422 127.236 150.829 125.937 153.212C124.637 155.595 123.987 159.896 123.987 159.896H125.228C125.228 159.896 125.937 151.352 129.658 151.817L130.544 150.422Z" fill="#3F3D56"/>
<path d="M128.3 163.734L123.042 160.537C123.042 160.537 122.747 159.374 126.114 158.909C126.114 158.909 132.48 161.1 131.866 161.922C131.253 162.745 129.186 164.024 128.3 163.734Z" fill="#36334A"/>
<path d="M136.452 153.328V160.129H137.219V153.212L136.452 153.328Z" fill="#3F3D56"/>
<path d="M137.574 157.513C137.574 157.513 139.051 163.209 138.106 164.023C138.106 164.023 136.865 160.419 135.92 160.884L136.215 157.513H137.574Z" fill="#36334A"/>
<path d="M143.304 133.798C144.576 133.798 145.608 132.784 145.608 131.532C145.608 130.28 144.576 129.265 143.304 129.265C142.031 129.265 141 130.28 141 131.532C141 132.784 142.031 133.798 143.304 133.798Z" fill="#FBBEBE"/>
<path d="M142.868 134.967C143.807 135.124 144.619 134.049 145.56 134.2C145.764 134.241 145.96 134.317 146.138 134.424C147.539 135.204 148.542 136.526 148.904 138.07C149.011 138.536 149.052 139.041 148.852 139.477C148.746 139.708 148.577 139.906 148.409 140.098C147.783 140.814 147.096 141.528 146.204 141.874C146.116 142.172 146.2 142.494 146.305 142.785C146.741 144.004 146.047 145.317 146.012 146.608C146.006 146.829 146.012 147.07 145.872 147.243C145.716 147.434 145.438 147.468 145.189 147.482C142.908 147.609 140.63 147.264 138.373 146.922C138.313 146.917 138.256 146.898 138.207 146.866C138.133 146.808 138.121 146.704 138.106 146.612C138.022 146.124 138.463 145.728 138.254 145.278C137.895 144.504 138.678 143.658 138.904 142.836C139.129 142.015 139.218 141.871 139.376 141.035C139.435 140.722 139.265 139.779 139.317 139.465C139.487 138.44 139.358 137.272 139.908 136.385C140.238 135.852 140.152 135.437 140.741 135.205C141.363 134.96 142.204 135.043 142.869 134.967H142.868Z" fill="#D9D9D9"/>
<path d="M132.464 148.486C131.777 148.617 131.046 148.741 130.517 149.192C130.194 149.468 129.977 149.842 129.766 150.208L127.613 153.944C126.956 155.083 126.299 156.223 125.703 157.394C125.651 157.479 125.621 157.575 125.614 157.675C125.617 157.815 125.712 157.935 125.81 158.036C126.499 158.739 127.484 159.08 128.468 158.956C128.616 158.201 129.345 157.703 129.703 157.019C129.899 156.644 129.978 156.222 130.104 155.818C130.577 154.313 131.699 153.104 132.789 151.951C133.304 151.405 133.831 150.85 134.494 150.492C135.272 150.072 136.175 149.956 137.045 149.782C137.914 149.607 138.815 149.343 139.43 148.714C139.959 148.165 140.209 147.411 140.112 146.661C139.555 146.622 138.935 146.551 138.397 146.727C137.773 146.932 137.169 147.212 136.544 147.421C135.21 147.868 133.847 148.224 132.464 148.486H132.464Z" fill="#696880"/>
<path opacity="0.1" d="M132.464 148.486C131.777 148.617 131.046 148.741 130.517 149.192C130.194 149.468 129.977 149.842 129.766 150.208L127.613 153.944C126.956 155.083 126.299 156.223 125.703 157.394C125.651 157.479 125.621 157.575 125.614 157.675C125.617 157.815 125.712 157.935 125.81 158.036C126.499 158.739 127.484 159.08 128.468 158.956C128.616 158.201 129.345 157.703 129.703 157.019C129.899 156.644 129.978 156.222 130.104 155.818C130.577 154.313 131.699 153.104 132.789 151.951C133.304 151.405 133.831 150.85 134.494 150.492C135.272 150.072 136.175 149.956 137.045 149.782C137.914 149.607 138.815 149.343 139.43 148.714C139.959 148.165 140.209 147.411 140.112 146.661C139.555 146.622 138.935 146.551 138.397 146.727C137.773 146.932 137.169 147.212 136.544 147.421C135.21 147.868 133.847 148.224 132.464 148.486H132.464Z" fill="black"/>
<path d="M123.181 160.332C123.104 160.386 123.045 160.461 123.012 160.547C122.934 160.809 123.267 160.994 123.534 161.07C124.133 161.239 124.773 161.41 125.371 161.235C125.738 161.127 126.057 160.898 126.421 160.783C126.962 160.612 127.548 160.709 128.106 160.807C128.231 160.116 128.147 159.403 127.865 158.759C127.685 158.352 126.968 158.154 126.54 158.136C126.073 158.116 125.911 158.455 125.641 158.767C124.985 159.528 123.938 159.704 123.182 160.332H123.181Z" fill="#3F3D56"/>
<path d="M132.903 149.599C132.572 149.729 132.233 149.863 131.974 150.103C131.7 150.356 131.54 150.703 131.394 151.043C130.962 152.049 130.595 153.081 130.293 154.132C130.141 154.663 130.006 155.2 129.801 155.714C129.391 156.74 128.697 157.721 128.762 158.82C128.762 158.954 128.798 159.085 128.868 159.2C128.961 159.333 129.118 159.403 129.268 159.467L130.054 159.802C130.476 159.982 130.99 160.156 131.367 159.896C131.619 159.723 131.719 159.409 131.796 159.115C132.07 158.056 132.24 156.956 132.732 155.977C133.288 154.87 134.228 153.975 134.725 152.841C134.796 152.681 134.863 152.509 135.001 152.399C135.116 152.308 135.264 152.273 135.407 152.241C138.357 151.58 141.374 151.219 144.3 150.463C144.716 150.356 145.152 150.228 145.449 149.922C145.861 149.497 145.897 148.851 145.91 148.265C145.918 147.897 145.917 147.498 145.689 147.206C145.432 146.877 144.972 146.791 144.553 146.747C142.946 146.581 141.463 146.843 139.879 147.035C138.431 147.21 136.972 148.015 135.62 148.541C134.715 148.893 133.81 149.247 132.905 149.601L132.903 149.599Z" fill="#696880"/>
<path d="M129.268 160.107C129.047 160.624 128.808 161.163 128.36 161.508C128.173 161.652 127.931 161.797 127.924 162.031C127.916 162.278 128.18 162.442 128.417 162.525C129.019 162.739 129.705 162.785 130.293 162.535C130.696 162.363 131.027 162.067 131.351 161.777C131.448 161.689 131.549 161.597 131.595 161.475C131.626 161.372 131.635 161.265 131.622 161.158C131.583 160.513 131.466 159.874 131.273 159.255C131.258 159.206 129.987 159.051 129.874 159.08C129.519 159.171 129.404 159.788 129.267 160.107H129.268Z" fill="#3F3D56"/>
<path d="M149.034 145.133L141.355 145.365C141.355 145.365 134.561 151.875 140.173 153.852C140.173 153.852 147.085 154.956 148.739 153.677C148.739 153.677 150.806 145.656 149.034 145.133ZM148.68 147.283L140.469 147.807C140.469 147.807 141.059 145.83 143.422 145.83C145.785 145.83 148.443 145.307 148.68 146.528C148.916 147.748 148.68 147.283 148.68 147.283Z" fill="#3F3D56"/>
<path d="M147.291 165.999C151.549 165.999 155 162.148 155 157.397C155 152.645 151.549 148.794 147.291 148.794C143.034 148.794 139.582 152.645 139.582 157.397C139.582 162.148 143.034 165.999 147.291 165.999Z" fill="#36334A"/>
<path d="M147.646 163.791C150.859 163.791 153.464 160.928 153.464 157.397C153.464 153.866 150.859 151.003 147.646 151.003C144.432 151.003 141.827 153.866 141.827 157.397C141.827 160.928 144.432 163.791 147.646 163.791Z" fill="#3F3D56"/>
<path d="M149.152 157.31C149.152 157.198 149.141 157.087 149.118 156.978L153.464 154.84L153.169 154.2L148.779 156.305C148.734 156.26 148.685 156.22 148.633 156.185H148.636L149.92 149.9L148.785 149.874L148.03 156.061L148.102 156.076C148.044 156.088 147.987 156.107 147.933 156.133L144.136 152.298L143.599 153.038L147.5 156.57C147.402 156.754 147.344 156.957 147.328 157.165L141.828 159.374L141.71 160.304L147.443 157.931C147.497 158.062 147.572 158.182 147.667 158.288L145.904 164.198H146.553L148.034 158.528C148.099 158.549 148.168 158.56 148.237 158.56C148.371 158.559 148.5 158.521 148.613 158.449L151.693 162.455L152.638 161.815L149.029 157.936C149.111 157.738 149.153 157.525 149.153 157.311L149.152 157.31Z" fill="#36334A"/>
<path d="M140.627 130.096C140.731 129.839 141.066 129.732 141.176 129.477C141.294 129.203 141.109 128.855 141.27 128.602C141.432 128.348 141.81 128.378 142.111 128.427C142.466 128.485 142.843 128.524 143.174 128.385C143.322 128.324 143.453 128.23 143.595 128.158C143.822 128.045 144.074 127.991 144.328 128.001C144.385 128 144.442 128.013 144.492 128.04C144.54 128.074 144.577 128.121 144.599 128.175C144.703 128.396 144.717 128.671 144.905 128.83C144.995 128.906 145.112 128.942 145.22 128.99C145.735 129.234 146.04 129.769 145.985 130.328C145.96 130.455 145.944 130.583 145.938 130.711C145.945 130.994 146.133 131.276 146.037 131.543C145.966 131.741 145.757 131.858 145.553 131.92C145.495 131.943 145.43 131.946 145.37 131.929C145.266 131.887 145.244 131.754 145.211 131.648C145.114 131.362 144.839 131.172 144.533 131.178C144.295 131.188 144.053 131.32 143.829 131.241C143.719 131.203 143.632 131.119 143.544 131.043C143.34 130.869 143.1 130.723 142.833 130.686C142.566 130.649 142.27 130.738 142.113 130.953C142.049 131.04 142.011 131.142 141.951 131.231C141.406 132.032 140.403 130.649 140.627 130.094L140.627 130.096Z" fill="#36334A"/>
<path d="M141.854 143.911C141.649 143.885 141.444 143.96 141.306 144.112C140.789 144.575 140.241 145.098 140.148 145.779C140.134 145.842 140.141 145.907 140.169 145.964C140.219 146.045 140.328 146.062 140.424 146.064C140.912 146.068 141.379 145.866 141.705 145.507C141.793 145.408 141.875 145.295 141.997 145.239C142.108 145.198 142.227 145.184 142.345 145.196C142.669 145.207 143.41 145.37 143.692 145.212C143.989 145.046 143.908 144.524 143.769 144.272C143.439 143.674 142.416 143.905 141.854 143.911V143.911Z" fill="#FBBEBE"/>
<path d="M149.069 138.89C149.268 139.519 149.151 140.227 149.433 140.824C149.62 141.221 149.971 141.54 150.08 141.964C150.183 142.364 150.045 142.796 149.803 143.133C149.562 143.471 149.226 143.73 148.888 143.976C148.519 144.245 148.136 144.508 147.7 144.653C147.266 144.799 146.801 144.82 146.344 144.841L143.308 144.978L142.75 143.329L144.727 142.567C144.925 142.491 145.127 142.414 145.339 142.398C145.705 142.371 146.151 142.504 146.386 142.226C146.461 142.124 146.508 142.005 146.524 141.881C146.716 140.912 146.549 139.887 146.844 138.944C146.99 138.477 147.412 137.541 147.988 137.458C148.597 137.371 148.932 138.454 149.07 138.89H149.069Z" fill="#D9D9D9"/>
</g>
<defs>
<clipPath id="clip0_282_21963">
<rect width="433.31" height="315.48" fill="white"/>
</clipPath>
</defs>
</svg>
