<svg width="434" height="316" viewBox="0 0 434 316" fill="none" xmlns="http://www.w3.org/2000/svg">
<g clip-path="url(#clip0_282_32487)">
<path d="M338.16 64.44C340.53 60.82 339.33 57.18 335.09 55.11C333.4 54.29 331.43 53.84 330.18 52.41C329.64 51.8 328.99 51.15 329.53 50.3C332.35 49.93 335.16 49.6 337.95 49.18C340.9 48.73 341.67 47.61 341.04 45.06C340.51 42.9 339.55 40.87 338.8 38.78C338.07 36.75 338.04 34.62 338.18 32.51C338.28 30.96 337.98 29.65 336.34 28.72C335.72 28.36 335.07 27.87 334.77 27.16C335.53 25.66 337.18 25.05 338.41 24.12C342.58 20.95 340.9 16.71 337.34 14.58C335.33 13.38 333.27 14.19 331.44 14.83C330.2 15.27 329.13 15.35 327.93 15.13C327.44 13.94 327.68 12.9 328.75 12.07C329.96 11.15 330.91 10.12 330.15 8.66002C329.38 7.18002 327.68 6.80002 326.07 6.72002C324.02 6.62002 321.81 6.12002 320.45 8.43002C319.84 9.46002 318.01 9.29002 316.65 9.18002C313.87 8.95002 313.83 8.91002 313.18 11.17C312.68 12.9 310.86 13.37 309.48 13.4C306.77 13.46 304.68 14.48 302.49 15.61C301.43 16.15 300.36 17.19 298.83 16.55C297.88 18.28 297.28 20 298.17 21.95C298.49 22.65 298.23 23.51 297.82 24.27C296.16 27.37 294.77 30.6 292.82 33.55C291.1 36.15 291.71 38.24 293.51 40.4C296.16 43.57 298.83 46.74 300.47 50.44C302.86 55.8 303.92 61.37 303.72 67.12C303.67 68.58 302.9 69.93 301.88 71.05C300.09 73.01 297.31 72.82 295.78 70.7C295.31 70.05 295.04 69.29 294.61 68.45C291.57 70 290.16 72.54 289.21 75.37C288.67 76.95 288.41 78.58 288.21 80.21C288.13 80.88 288.13 81.47 288.97 82.05C290.48 83.1 291.97 84.18 293.35 85.38C294.36 86.25 294.68 87.16 294.53 88.28C294.4 89.26 294.48 90.01 295.76 90.45C299.19 91.65 300.84 94.39 302.72 96.89C304.27 98.94 306.31 99.77 309.08 99.22C311.53 98.74 313.99 98.23 316.45 99.21C317.23 99.52 317.78 98.89 318.26 98.63C322.41 96.43 326.48 94.12 330.58 91.86C332.04 91.05 333.37 90.95 334.92 91.99C336.39 92.97 337.94 93.88 339.38 94.91C341.49 96.42 342.49 96.56 344.69 95.23C345.65 94.65 346.66 94.1 347.58 93.47C348.46 92.87 349.35 92.27 350.24 91.68C346.94 89.29 346.89 87.34 350.26 85.07C351.78 84.04 353.57 83.32 355.15 82.35C359.43 79.72 360.36 79.38 358.38 74.13C357.52 71.83 356.73 69.41 354.56 67.65C353.66 66.92 352.72 66.49 351.47 66.58C350.4 66.65 349.38 66.58 348.39 66.07C346.28 65.01 344.06 65.58 341.84 65.84C340.53 65.99 339.05 66.04 338.36 64.62" fill="#D1FF00"/>
<path d="M320.874 64.4082C323.696 64.4082 325.983 61.8552 325.983 58.706C325.983 55.5568 323.696 53.0039 320.874 53.0039C318.051 53.0039 315.764 55.5568 315.764 58.706C315.764 61.8552 318.051 64.4082 320.874 64.4082Z" fill="#36334A"/>
<path d="M327.432 39.7321C326.204 40.2593 324.865 40.4877 323.529 40.3976C323.872 40.1564 324.092 39.7699 324.181 39.3641C324.269 38.9584 324.236 38.5347 324.144 38.1296C324.128 38.0831 324.128 38.0325 324.147 37.9871C324.185 37.9406 324.243 37.9139 324.303 37.9139C324.821 37.843 326.303 37.5349 326.697 37.9715C326.884 38.1778 326.812 38.5794 326.881 38.8317C326.909 38.9358 327.27 39.803 327.432 39.7327V39.7321Z" fill="#FBBEBE"/>
<path opacity="0.1" d="M327.432 39.7321C326.204 40.2593 324.865 40.4877 323.529 40.3976C323.872 40.1564 324.092 39.7699 324.181 39.3641C324.269 38.9584 324.236 38.5347 324.144 38.1296C324.128 38.0831 324.128 38.0325 324.147 37.9871C324.185 37.9406 324.243 37.9139 324.303 37.9139C324.821 37.843 326.303 37.5349 326.697 37.9715C326.884 38.1778 326.812 38.5794 326.881 38.8317C326.909 38.9358 327.27 39.803 327.432 39.7327V39.7321Z" fill="black"/>
<path d="M323.118 48.3887L315.439 48.6212C315.439 48.6212 308.646 55.1312 314.257 57.1075C314.257 57.1075 321.169 58.2119 322.823 56.9331C322.823 56.9331 324.89 48.9118 323.118 48.3887ZM322.764 50.5393L314.553 51.0624C314.553 51.0624 315.144 49.0862 317.506 49.0862C319.869 49.0862 322.527 48.563 322.764 49.7837C323 51.0043 322.764 50.5393 322.764 50.5393Z" fill="#3F3D56"/>
<path d="M317.064 47.3448C316.681 47.2873 316.265 47.2536 315.929 47.4448C315.818 47.5134 315.714 47.5942 315.62 47.6849C315.485 47.8069 315.351 47.9296 315.218 48.054C315.121 48.1446 315.02 48.2446 314.994 48.3742C314.943 48.6404 315.256 48.8555 315.531 48.8451C315.806 48.8346 316.053 48.6858 316.314 48.5963C316.838 48.4155 318.764 48.7241 318.869 48.1696C319.003 47.464 317.49 47.4123 317.064 47.346V47.3448Z" fill="#FBBEBE"/>
<path d="M320.654 46.9003C320.153 47.1508 319.608 47.3031 319.048 47.349C318.961 47.3502 318.875 47.3688 318.794 47.4025C318.746 47.4321 318.709 47.4763 318.688 47.5292C318.492 47.9343 318.37 48.3714 318.329 48.819C318.319 48.8626 318.335 48.9091 318.371 48.937C318.424 48.9637 318.484 48.9765 318.544 48.9753C319.463 49.0329 320.386 49.0637 321.311 49.0678C321.351 49.0707 321.393 49.0654 321.431 49.0515C321.458 49.0375 321.478 49.0131 321.487 48.9841C321.703 48.4528 321.806 47.8832 321.787 47.3112C321.763 46.6375 321.563 46.4265 320.655 46.9008L320.654 46.9003Z" fill="#D7E5F2"/>
<path d="M320.654 46.9003C320.153 47.1508 319.608 47.3031 319.048 47.349C318.961 47.3502 318.875 47.3688 318.794 47.4025C318.746 47.4321 318.709 47.4763 318.688 47.5292C318.492 47.9343 318.37 48.3714 318.329 48.819C318.319 48.8626 318.335 48.9091 318.371 48.937C318.424 48.9637 318.484 48.9765 318.544 48.9753C319.463 49.0329 320.386 49.0637 321.311 49.0678C321.351 49.0707 321.393 49.0654 321.431 49.0515C321.458 49.0375 321.478 49.0131 321.487 48.9841C321.703 48.4528 321.806 47.8832 321.787 47.3112C321.763 46.6375 321.563 46.4265 320.655 46.9008L320.654 46.9003Z" fill="#F5F4F4"/>
<path d="M330.975 52.9809L320.873 52.6322L323.236 42.809C323.236 42.809 332.688 42.1115 332.451 44.4946C332.215 46.8778 330.975 52.9809 330.975 52.9809Z" fill="#36334A"/>
<path d="M321.223 57.6759C321.223 57.6759 315.143 58.7344 312.958 55.5956C310.772 52.4568 321.228 54.1425 321.228 54.1425L322.114 56.5256L321.223 57.6759Z" fill="#36334A"/>
<path d="M319.397 70.9999C320.93 70.9999 322.173 69.7768 322.173 68.268C322.173 66.7592 320.93 65.5361 319.397 65.5361C317.863 65.5361 316.62 66.7592 316.62 68.268C316.62 69.7768 317.863 70.9999 319.397 70.9999Z" fill="#36334A"/>
<path d="M319.663 70.2436C320.625 70.2436 321.405 69.3588 321.405 68.2673C321.405 67.1758 320.625 66.291 319.663 66.291C318.7 66.291 317.92 67.1758 317.92 68.2673C317.92 69.3588 318.7 70.2436 319.663 70.2436Z" fill="#3F3D56"/>
<path d="M334.578 42.5186C334.578 42.5186 332.274 41.2399 332.156 44.2624L330.207 58.3288H331.034L333.279 43.2743C333.279 43.2743 334.401 43.4486 334.578 43.4486C334.755 43.4486 334.578 42.5186 334.578 42.5186Z" fill="#3F3D56"/>
<path d="M336.874 44.0705C336.792 44.36 336.487 44.5291 336.194 44.4489C336.17 44.4425 336.147 44.4344 336.125 44.4251L333.452 43.3009L333.937 42.25L336.571 43.4305C336.819 43.5416 336.947 43.813 336.874 44.0705H336.874Z" fill="#36334A"/>
<path d="M320.637 57.3397C320.637 57.3397 316.384 56.8747 315.202 60.8854C314.021 64.896 314.139 67.9767 313.135 67.7442C312.131 67.5117 310.004 66.6979 310.004 66.6979L310.181 67.9186C310.181 67.9186 313.903 69.7786 314.494 67.8023C315.084 65.8261 315.439 58.5604 318.806 58.7347C322.173 58.9091 322.764 58.5604 322.764 58.5604L320.637 57.3397Z" fill="#3F3D56"/>
<path d="M312.544 55.4219C312.544 55.4219 309.236 55.8288 307.937 58.2119C306.637 60.5951 305.987 64.8963 305.987 64.8963H307.228C307.228 64.8963 307.937 56.3519 311.658 56.8169L312.544 55.4219Z" fill="#3F3D56"/>
<path d="M310.3 68.7336L305.042 65.5367C305.042 65.5367 304.747 64.3742 308.114 63.9092C308.114 63.9092 314.48 66.0999 313.866 66.9224C313.253 67.7449 311.186 69.0242 310.3 68.7336Z" fill="#36334A"/>
<path d="M318.452 58.3282V65.1289H319.219V58.2119L318.452 58.3282Z" fill="#3F3D56"/>
<path d="M319.574 62.5127C319.574 62.5127 321.051 68.209 320.106 69.0228C320.106 69.0228 318.865 65.419 317.92 65.884L318.215 62.5127H319.574Z" fill="#36334A"/>
<path d="M325.304 38.7984C326.576 38.7984 327.608 37.7835 327.608 36.5315C327.608 35.2796 326.576 34.2646 325.304 34.2646C324.031 34.2646 323 35.2796 323 36.5315C323 37.7835 324.031 38.7984 325.304 38.7984Z" fill="#FBBEBE"/>
<path d="M324.868 39.9668C325.807 40.1238 326.619 39.049 327.56 39.2002C327.764 39.2414 327.96 39.317 328.138 39.4239C329.539 40.204 330.542 41.5263 330.904 43.0696C331.011 43.5357 331.052 44.0414 330.852 44.4768C330.746 44.7081 330.577 44.9058 330.409 45.0982C329.783 45.8143 329.096 46.5281 328.204 46.8745C328.116 47.1715 328.2 47.4935 328.305 47.7853C328.741 49.0036 328.047 50.3167 328.012 51.6077C328.006 51.8285 328.012 52.0703 327.872 52.243C327.716 52.4342 327.438 52.4685 327.189 52.4824C324.908 52.6092 322.63 52.2645 320.373 51.9215C320.313 51.9175 320.256 51.8983 320.207 51.8663C320.133 51.8082 320.121 51.7036 320.106 51.6117C320.022 51.124 320.463 50.7282 320.254 50.2777C319.895 49.5041 320.678 48.6578 320.904 47.8365C321.129 47.0151 321.218 46.871 321.376 46.0346C321.435 45.7219 321.265 44.7791 321.317 44.4652C321.487 43.4398 321.358 42.2715 321.908 41.3845C322.238 40.8515 322.152 40.4371 322.741 40.2051C323.363 39.9604 324.204 40.043 324.869 39.9668H324.868Z" fill="#F5F4F4"/>
<path d="M314.464 53.4862C313.777 53.617 313.046 53.7414 312.517 54.1925C312.194 54.468 311.977 54.8417 311.766 55.2079L309.613 58.9437C308.956 60.0829 308.299 61.2228 307.703 62.394C307.651 62.4794 307.621 62.5753 307.614 62.6747C307.617 62.8148 307.712 62.9346 307.81 63.0363C308.499 63.739 309.484 64.0796 310.468 63.9558C310.616 63.2014 311.345 62.7026 311.703 62.0191C311.899 61.6436 311.978 61.2216 312.104 60.8176C312.577 59.3128 313.699 58.1043 314.789 56.9505C315.304 56.4053 315.831 55.8502 316.494 55.4922C317.272 55.0725 318.175 54.9562 319.045 54.7819C319.914 54.6075 320.815 54.343 321.43 53.7135C321.959 53.1648 322.209 52.4109 322.112 51.6605C321.555 51.6222 320.935 51.5507 320.397 51.7274C319.773 51.932 319.169 52.2121 318.544 52.4214C317.21 52.8678 315.847 53.2235 314.464 53.4862H314.464Z" fill="#696880"/>
<path opacity="0.1" d="M314.464 53.4862C313.777 53.617 313.046 53.7414 312.517 54.1925C312.194 54.468 311.977 54.8417 311.766 55.2079L309.613 58.9437C308.956 60.0829 308.299 61.2228 307.703 62.394C307.651 62.4794 307.621 62.5753 307.614 62.6747C307.617 62.8148 307.712 62.9346 307.81 63.0363C308.499 63.739 309.484 64.0796 310.468 63.9558C310.616 63.2014 311.345 62.7026 311.703 62.0191C311.899 61.6436 311.978 61.2216 312.104 60.8176C312.577 59.3128 313.699 58.1043 314.789 56.9505C315.304 56.4053 315.831 55.8502 316.494 55.4922C317.272 55.0725 318.175 54.9562 319.045 54.7819C319.914 54.6075 320.815 54.343 321.43 53.7135C321.959 53.1648 322.209 52.4109 322.112 51.6605C321.555 51.6222 320.935 51.5507 320.397 51.7274C319.773 51.932 319.169 52.2121 318.544 52.4214C317.21 52.8678 315.847 53.2235 314.464 53.4862H314.464Z" fill="black"/>
<path d="M305.181 65.3316C305.104 65.3856 305.045 65.4606 305.012 65.5472C304.934 65.8094 305.267 65.9942 305.534 66.0698C306.133 66.2395 306.773 66.4098 307.371 66.2348C307.738 66.1273 308.057 65.8977 308.421 65.7826C308.962 65.6123 309.548 65.7088 310.106 65.807C310.231 65.1159 310.147 64.4033 309.865 63.7587C309.685 63.3518 308.968 63.1536 308.54 63.1356C308.073 63.1158 307.911 63.4553 307.641 63.7674C306.985 64.5277 305.938 64.7038 305.182 65.3316H305.181Z" fill="#3F3D56"/>
<path d="M314.903 54.5994C314.572 54.729 314.233 54.8633 313.974 55.1028C313.7 55.3556 313.54 55.7026 313.394 56.0432C312.962 57.0494 312.595 58.0811 312.293 59.132C312.141 59.6633 312.006 60.2004 311.801 60.7142C311.391 61.7395 310.697 62.7213 310.762 63.8204C310.762 63.9541 310.798 64.0849 310.868 64.2C310.961 64.3325 311.118 64.4029 311.268 64.4668L312.054 64.8022C312.476 64.9824 312.99 65.1556 313.367 64.8963C313.619 64.7231 313.719 64.4087 313.796 64.1151C314.07 63.0561 314.24 61.9564 314.732 60.9769C315.288 59.8696 316.228 58.9745 316.725 57.8411C316.796 57.6806 316.863 57.5086 317.001 57.3987C317.116 57.308 317.264 57.2732 317.407 57.2412C320.357 56.5803 323.374 56.2188 326.3 55.4631C326.716 55.3556 327.152 55.2283 327.449 54.922C327.861 54.4971 327.897 53.8513 327.91 53.2648C327.918 52.8975 327.917 52.4976 327.689 52.2064C327.432 51.8774 326.972 51.7908 326.553 51.7472C324.946 51.5809 323.463 51.8431 321.879 52.0349C320.431 52.2104 318.972 53.0149 317.62 53.5409C316.715 53.8932 315.81 54.2466 314.905 54.6006L314.903 54.5994Z" fill="#696880"/>
<path d="M311.268 65.1074C311.047 65.6236 310.808 66.163 310.36 66.5082C310.173 66.6524 309.931 66.7971 309.924 67.0308C309.916 67.2784 310.18 67.4417 310.417 67.5254C311.019 67.7393 311.705 67.7853 312.293 67.5347C312.696 67.3633 313.027 67.0674 313.351 66.7768C313.448 66.689 313.549 66.5966 313.595 66.4751C313.626 66.3722 313.635 66.2647 313.622 66.1583C313.583 65.5126 313.466 64.8738 313.273 64.2553C313.258 64.2065 311.987 64.0507 311.874 64.0798C311.519 64.171 311.404 64.7877 311.267 65.1074H311.268Z" fill="#3F3D56"/>
<path d="M331.034 50.1328L323.355 50.3653C323.355 50.3653 316.561 56.8754 322.173 58.8517C322.173 58.8517 329.085 59.956 330.739 58.6773C330.739 58.6773 332.806 50.6559 331.034 50.1328ZM330.68 52.2835L322.469 52.8066C322.469 52.8066 323.059 50.8303 325.422 50.8303C327.785 50.8303 330.443 50.3072 330.68 51.5278C330.916 52.7485 330.68 52.2835 330.68 52.2835Z" fill="#3F3D56"/>
<path d="M329.291 70.9991C333.549 70.9991 337 67.1476 337 62.3965C337 57.6455 333.549 53.7939 329.291 53.7939C325.034 53.7939 321.582 57.6455 321.582 62.3965C321.582 67.1476 325.034 70.9991 329.291 70.9991Z" fill="#36334A"/>
<path d="M329.646 68.7906C332.859 68.7906 335.464 65.928 335.464 62.3967C335.464 58.8655 332.859 56.0029 329.646 56.0029C326.432 56.0029 323.827 58.8655 323.827 62.3967C323.827 65.928 326.432 68.7906 329.646 68.7906Z" fill="#3F3D56"/>
<path d="M331.152 62.31C331.152 62.1984 331.141 62.0874 331.118 61.9781L335.464 59.8397L335.169 59.2003L330.779 61.305C330.734 61.2603 330.685 61.2202 330.633 61.1853H330.636L331.92 54.8996L330.785 54.874L330.03 61.0609L330.102 61.076C330.044 61.0877 329.987 61.1068 329.933 61.133L326.136 57.2979L325.599 58.0384L329.5 61.5695C329.402 61.7544 329.344 61.9566 329.328 62.1647L323.828 64.3741L323.71 65.3041L329.443 62.9314C329.497 63.0622 329.572 63.1825 329.667 63.2877L327.904 69.1985H328.553L330.034 63.5283C330.099 63.5493 330.168 63.5597 330.237 63.5603C330.371 63.5592 330.5 63.5208 330.613 63.4493L333.693 67.4547L334.638 66.8153L331.029 62.936C331.111 62.7378 331.153 62.5251 331.153 62.3106L331.152 62.31Z" fill="#36334A"/>
<path d="M322.627 35.0955C322.731 34.8386 323.066 34.7323 323.176 34.4771C323.294 34.2033 323.109 33.8546 323.27 33.6023C323.432 33.3483 323.81 33.3779 324.111 33.4273C324.466 33.4855 324.843 33.5244 325.174 33.3855C325.322 33.3239 325.453 33.2297 325.595 33.1582C325.822 33.0449 326.074 32.9908 326.328 33.0013C326.385 33.0001 326.442 33.0135 326.492 33.0396C326.54 33.0739 326.577 33.121 326.599 33.1751C326.703 33.3959 326.717 33.6715 326.905 33.8296C326.995 33.9057 327.112 33.9417 327.22 33.99C327.735 34.2341 328.04 34.7689 327.985 35.328C327.96 35.4548 327.944 35.5826 327.938 35.7111C327.945 35.9936 328.133 36.2761 328.037 36.5429C327.966 36.7411 327.757 36.8585 327.553 36.9195C327.495 36.9428 327.43 36.9463 327.37 36.9288C327.266 36.887 327.244 36.7544 327.211 36.6481C327.114 36.3621 326.839 36.172 326.533 36.1778C326.295 36.1877 326.053 36.3197 325.829 36.2412C325.719 36.2028 325.632 36.1186 325.544 36.043C325.34 35.8686 325.1 35.7233 324.833 35.6861C324.566 35.6489 324.27 35.7378 324.113 35.9529C324.049 36.0401 324.011 36.1424 323.951 36.2313C323.406 37.0317 322.403 35.6495 322.627 35.0944L322.627 35.0955Z" fill="#36334A"/>
<path d="M323.854 48.9108C323.649 48.8846 323.444 48.9596 323.306 49.1119C322.789 49.5751 322.241 50.0977 322.148 50.7795C322.134 50.8417 322.141 50.9068 322.169 50.9643C322.219 51.0445 322.328 51.062 322.424 51.0637C322.912 51.0684 323.379 50.8655 323.705 50.5069C323.793 50.4081 323.875 50.2947 323.997 50.2389C324.108 50.1982 324.227 50.1837 324.345 50.1965C324.669 50.207 325.41 50.3703 325.692 50.2122C325.989 50.0459 325.908 49.524 325.769 49.2723C325.439 48.6742 324.416 48.9049 323.854 48.9113V48.9108Z" fill="#FBBEBE"/>
<path d="M331.069 43.8897C331.268 44.5186 331.151 45.2266 331.433 45.8242C331.62 46.2206 331.971 46.5403 332.08 46.964C332.183 47.3645 332.045 47.7958 331.803 48.1335C331.562 48.4712 331.226 48.7304 330.888 48.9763C330.519 49.2454 330.136 49.5082 329.7 49.6535C329.266 49.7988 328.801 49.8203 328.344 49.8412L325.308 49.9784L324.75 48.3294L326.727 47.5673C326.925 47.4912 327.127 47.4139 327.339 47.3982C327.705 47.3715 328.151 47.504 328.386 47.2261C328.461 47.1244 328.508 47.0053 328.524 46.8809C328.716 45.9119 328.549 44.8872 328.844 43.9438C328.99 43.477 329.412 42.5406 329.988 42.4581C330.597 42.3709 330.932 43.4538 331.07 43.8897H331.069Z" fill="#F5F4F4"/>
</g>
<defs>
<clipPath id="clip0_282_32487">
<rect width="433.31" height="315.48" fill="white"/>
</clipPath>
</defs>
</svg>
