<svg width="434" height="316" viewBox="0 0 434 316" fill="none" xmlns="http://www.w3.org/2000/svg">
<g clip-path="url(#clip0_282_18455)">
<path d="M256.11 205.54C257.61 207.72 259.11 209.88 261 211.84C262.14 213.03 262.42 214.65 262.41 216.12C262.39 220.67 264.27 224.82 266.25 228.81C269.02 234.4 271.29 240.13 273.54 245.88C274.57 248.52 276.24 250.8 278.83 252.54C280.21 253.47 281.76 254.09 283.36 254.06C285.23 254.02 286.15 254.99 287.26 255.92C288.28 256.77 288.34 257.84 288.29 258.97C288.24 260.04 288.27 261.12 288.29 262.2C288.32 264.67 288.84 265.37 291.57 265.94C293.54 266.35 294.78 267.17 294.84 269.02C294.92 271.44 297.29 271.2 298.95 271.67C299.9 271.94 300.98 271.86 302.01 271.88C305.943 271.973 309.287 270.84 312.04 268.48C313.8 266.97 315.53 265.43 317.25 263.93C318.35 264.15 318.78 264.92 319.41 265.45C320.74 266.57 322.47 267.34 324.7 265.92C326.77 264.6 328.93 264.97 331.1 264.92C332.19 264.9 332.94 265.37 332.75 266.51C332.67 266.98 332.76 267.47 332.73 267.94C332.5 271.4 334.34 274.07 337.9 274.99C341.23 275.85 341.09 278.31 342.36 280.14C342.42 280.23 342.43 280.42 342.36 280.49C340.43 282.38 340.27 285.21 337.68 286.8C334.24 288.91 334.07 289.86 335.81 293.04C336.9 295.03 336.57 295.79 334.17 296.99C331.49 298.33 328.49 298.32 325.56 298.59C323.88 298.75 322.2 298.91 320.65 299.51C318.53 300.33 318.28 301.28 319.62 302.9C321.53 305.22 321.57 305.47 319.59 307.9C319.14 308.45 318.69 309.02 318.23 309.56C317.07 310.93 317.32 311.95 318.8 313.3C317.4 315.07 314.3 316.12 311.88 315.02C308.47 313.48 305.12 313.03 301.38 313.62C297.28 314.27 294.71 312.24 292.78 309.35C292.33 308.68 291.83 308.03 291.35 307.38C289.8 305.28 287.66 304.45 284.79 304.85C281.78 305.27 281.03 304.69 280.93 302C280.89 301.06 280.61 300.25 280.07 299.49C278.86 297.78 278.91 295.84 280.51 294.49C282.11 293.14 283.91 291.97 285.72 290.65C284.88 289.93 283.96 289.39 282.96 288.89C281.26 288.04 280.57 285.89 281.3 284.25C282.07 282.52 282.48 280.86 280.29 279.57C279.17 278.92 278.76 277.87 278.86 276.72C278.91 276.13 278.65 275.57 278.39 275.13C277.8 274.13 277.14 272.95 275.57 272.98C273.95 273.01 273.9 274.33 273.53 275.29C272.28 278.57 270.52 281.59 266.94 283.33C260.34 286.54 250.41 284.91 249.52 276.19C249.32 274.19 247.31 272.99 246.25 271.36C245.85 270.75 245.2 270.25 244.58 269.63C239.75 271.78 238.37 276.31 234.71 279.13C232.85 277.77 232.87 275.9 232.98 274.04C233.02 273.37 233.07 272.64 232.14 272.64C230.83 272.64 230.65 272.08 230.7 271.17C230.75 270.13 230.32 269.3 229.53 268.45C228.2 267.02 227.17 265.37 225.94 263.71C229.3 261.24 228.74 257.77 228.62 254.5C228.52 251.7 227.65 248.96 226.78 246.26C226.44 245.19 226.6 244.55 227.41 243.71C229.37 241.7 231.08 239.49 231.93 236.92C232.57 234.99 232.1 233.89 229.71 232.96C228.25 232.39 226.66 232.39 225.19 231.91C222.57 231.07 222.27 230.62 222.94 228.32C223.29 227.13 223.84 225.94 223.91 224.73C224.02 222.98 225.04 222.66 226.81 222.33C230.8 221.59 234.65 220.36 238.5 219.16C241.31 218.29 244.24 217.77 246.93 216.52C249.2 215.47 249.85 213.59 250.79 211.81C252.04 209.43 253.45 207.15 255.92 205.54" fill="#D1FF00"/>
<path d="M249.874 260.408C252.696 260.408 254.983 257.855 254.983 254.706C254.983 251.557 252.696 249.004 249.874 249.004C247.051 249.004 244.764 251.557 244.764 254.706C244.764 257.855 247.051 260.408 249.874 260.408Z" fill="#36334A"/>
<path d="M256.432 235.732C255.204 236.259 253.865 236.488 252.529 236.398C252.872 236.156 253.092 235.77 253.181 235.364C253.269 234.958 253.236 234.535 253.144 234.13C253.128 234.083 253.128 234.032 253.147 233.987C253.185 233.941 253.243 233.914 253.303 233.914C253.821 233.843 255.303 233.535 255.697 233.971C255.884 234.178 255.812 234.579 255.881 234.832C255.909 234.936 256.27 235.803 256.432 235.733V235.732Z" fill="#FBBEBE"/>
<path opacity="0.1" d="M256.432 235.732C255.204 236.259 253.865 236.488 252.529 236.398C252.872 236.156 253.092 235.77 253.181 235.364C253.269 234.958 253.236 234.535 253.144 234.13C253.128 234.083 253.128 234.032 253.147 233.987C253.185 233.941 253.243 233.914 253.303 233.914C253.821 233.843 255.303 233.535 255.697 233.971C255.884 234.178 255.812 234.579 255.881 234.832C255.909 234.936 256.27 235.803 256.432 235.733V235.732Z" fill="black"/>
<path d="M252.118 244.389L244.439 244.621C244.439 244.621 237.646 251.131 243.257 253.108C243.257 253.108 250.169 254.212 251.823 252.933C251.823 252.933 253.89 244.912 252.118 244.389ZM251.764 246.539L243.553 247.062C243.553 247.062 244.144 245.086 246.506 245.086C248.869 245.086 251.527 244.563 251.764 245.784C252 247.004 251.764 246.539 251.764 246.539Z" fill="#3F3D56"/>
<path d="M246.064 243.345C245.681 243.287 245.265 243.254 244.929 243.445C244.818 243.513 244.714 243.594 244.62 243.685C244.485 243.807 244.351 243.93 244.218 244.054C244.121 244.145 244.02 244.245 243.994 244.374C243.943 244.64 244.256 244.856 244.531 244.845C244.806 244.835 245.053 244.686 245.314 244.596C245.838 244.416 247.764 244.724 247.869 244.17C248.003 243.464 246.49 243.412 246.064 243.346V243.345Z" fill="#FBBEBE"/>
<path d="M249.654 242.9C249.153 243.151 248.608 243.303 248.048 243.349C247.961 243.35 247.875 243.369 247.794 243.402C247.746 243.432 247.709 243.476 247.688 243.529C247.492 243.934 247.37 244.371 247.329 244.819C247.319 244.863 247.335 244.909 247.371 244.937C247.424 244.964 247.484 244.977 247.544 244.975C248.463 245.033 249.386 245.064 250.311 245.068C250.351 245.071 250.393 245.065 250.431 245.051C250.458 245.038 250.478 245.013 250.487 244.984C250.703 244.453 250.806 243.883 250.787 243.311C250.763 242.638 250.563 242.427 249.655 242.901L249.654 242.9Z" fill="#D7E5F2"/>
<path d="M249.654 242.9C249.153 243.151 248.608 243.303 248.048 243.349C247.961 243.35 247.875 243.369 247.794 243.402C247.746 243.432 247.709 243.476 247.688 243.529C247.492 243.934 247.37 244.371 247.329 244.819C247.319 244.863 247.335 244.909 247.371 244.937C247.424 244.964 247.484 244.977 247.544 244.975C248.463 245.033 249.386 245.064 250.311 245.068C250.351 245.071 250.393 245.065 250.431 245.051C250.458 245.038 250.478 245.013 250.487 244.984C250.703 244.453 250.806 243.883 250.787 243.311C250.763 242.638 250.563 242.427 249.655 242.901L249.654 242.9Z" fill="#F5F4F4"/>
<path d="M259.975 248.981L249.873 248.632L252.236 238.809C252.236 238.809 261.688 238.111 261.451 240.495C261.215 242.878 259.975 248.981 259.975 248.981Z" fill="#36334A"/>
<path d="M250.223 253.676C250.223 253.676 244.143 254.734 241.958 251.596C239.772 248.457 250.228 250.142 250.228 250.142L251.114 252.526L250.223 253.676Z" fill="#36334A"/>
<path d="M248.397 267C249.93 267 251.173 265.777 251.173 264.268C251.173 262.759 249.93 261.536 248.397 261.536C246.863 261.536 245.62 262.759 245.62 264.268C245.62 265.777 246.863 267 248.397 267Z" fill="#36334A"/>
<path d="M248.663 266.244C249.625 266.244 250.405 265.359 250.405 264.267C250.405 263.176 249.625 262.291 248.663 262.291C247.7 262.291 246.92 263.176 246.92 264.267C246.92 265.359 247.7 266.244 248.663 266.244Z" fill="#3F3D56"/>
<path d="M263.578 238.519C263.578 238.519 261.274 237.24 261.156 240.262L259.207 254.329H260.034L262.279 239.274C262.279 239.274 263.401 239.449 263.578 239.449C263.755 239.449 263.578 238.519 263.578 238.519Z" fill="#3F3D56"/>
<path d="M265.874 240.07C265.792 240.36 265.487 240.529 265.194 240.449C265.17 240.442 265.147 240.434 265.125 240.425L262.452 239.301L262.937 238.25L265.571 239.431C265.819 239.542 265.947 239.813 265.874 240.07H265.874Z" fill="#36334A"/>
<path d="M249.637 253.34C249.637 253.34 245.384 252.875 244.202 256.885C243.021 260.896 243.139 263.977 242.135 263.744C241.131 263.512 239.004 262.698 239.004 262.698L239.181 263.919C239.181 263.919 242.903 265.779 243.494 263.802C244.084 261.826 244.439 254.56 247.806 254.735C251.173 254.909 251.764 254.56 251.764 254.56L249.637 253.34Z" fill="#3F3D56"/>
<path d="M241.544 251.422C241.544 251.422 238.236 251.829 236.937 254.212C235.637 256.595 234.987 260.896 234.987 260.896H236.228C236.228 260.896 236.937 252.352 240.658 252.817L241.544 251.422Z" fill="#3F3D56"/>
<path d="M239.3 264.734L234.042 261.537C234.042 261.537 233.747 260.374 237.114 259.909C237.114 259.909 243.48 262.1 242.866 262.922C242.253 263.745 240.186 265.024 239.3 264.734Z" fill="#36334A"/>
<path d="M247.452 254.328V261.129H248.219V254.212L247.452 254.328Z" fill="#3F3D56"/>
<path d="M248.574 258.513C248.574 258.513 250.051 264.209 249.106 265.023C249.106 265.023 247.865 261.419 246.92 261.884L247.215 258.513H248.574Z" fill="#36334A"/>
<path d="M254.304 234.798C255.576 234.798 256.608 233.784 256.608 232.532C256.608 231.28 255.576 230.265 254.304 230.265C253.031 230.265 252 231.28 252 232.532C252 233.784 253.031 234.798 254.304 234.798Z" fill="#FBBEBE"/>
<path d="M253.868 235.967C254.807 236.124 255.619 235.049 256.56 235.2C256.764 235.241 256.96 235.317 257.138 235.424C258.539 236.204 259.542 237.526 259.904 239.07C260.011 239.536 260.052 240.041 259.852 240.477C259.746 240.708 259.577 240.906 259.409 241.098C258.783 241.814 258.096 242.528 257.204 242.874C257.116 243.172 257.2 243.494 257.305 243.785C257.741 245.004 257.047 246.317 257.012 247.608C257.006 247.829 257.012 248.07 256.872 248.243C256.716 248.434 256.438 248.468 256.189 248.482C253.908 248.609 251.63 248.264 249.373 247.922C249.313 247.917 249.256 247.898 249.207 247.866C249.133 247.808 249.121 247.704 249.106 247.612C249.022 247.124 249.463 246.728 249.254 246.278C248.895 245.504 249.678 244.658 249.904 243.836C250.129 243.015 250.218 242.871 250.376 242.035C250.435 241.722 250.265 240.779 250.317 240.465C250.487 239.44 250.358 238.272 250.908 237.385C251.238 236.852 251.152 236.437 251.741 236.205C252.363 235.96 253.204 236.043 253.869 235.967H253.868Z" fill="#F5F4F4"/>
<path d="M243.464 249.486C242.777 249.617 242.046 249.741 241.517 250.192C241.194 250.468 240.977 250.842 240.766 251.208L238.613 254.944C237.956 256.083 237.299 257.223 236.703 258.394C236.651 258.479 236.621 258.575 236.614 258.675C236.617 258.815 236.712 258.935 236.81 259.036C237.499 259.739 238.484 260.08 239.468 259.956C239.616 259.201 240.345 258.703 240.703 258.019C240.899 257.644 240.978 257.222 241.104 256.818C241.577 255.313 242.699 254.104 243.789 252.951C244.304 252.405 244.831 251.85 245.494 251.492C246.272 251.072 247.175 250.956 248.045 250.782C248.914 250.607 249.815 250.343 250.43 249.714C250.959 249.165 251.209 248.411 251.112 247.661C250.555 247.622 249.935 247.551 249.397 247.727C248.773 247.932 248.169 248.212 247.544 248.421C246.21 248.868 244.847 249.224 243.464 249.486H243.464Z" fill="#696880"/>
<path opacity="0.1" d="M243.464 249.486C242.777 249.617 242.046 249.741 241.517 250.192C241.194 250.468 240.977 250.842 240.766 251.208L238.613 254.944C237.956 256.083 237.299 257.223 236.703 258.394C236.651 258.479 236.621 258.575 236.614 258.675C236.617 258.815 236.712 258.935 236.81 259.036C237.499 259.739 238.484 260.08 239.468 259.956C239.616 259.201 240.345 258.703 240.703 258.019C240.899 257.644 240.978 257.222 241.104 256.818C241.577 255.313 242.699 254.104 243.789 252.951C244.304 252.405 244.831 251.85 245.494 251.492C246.272 251.072 247.175 250.956 248.045 250.782C248.914 250.607 249.815 250.343 250.43 249.714C250.959 249.165 251.209 248.411 251.112 247.661C250.555 247.622 249.935 247.551 249.397 247.727C248.773 247.932 248.169 248.212 247.544 248.421C246.21 248.868 244.847 249.224 243.464 249.486H243.464Z" fill="black"/>
<path d="M234.181 261.332C234.104 261.386 234.045 261.461 234.012 261.547C233.934 261.809 234.267 261.994 234.534 262.07C235.133 262.239 235.773 262.41 236.371 262.235C236.738 262.127 237.057 261.898 237.421 261.783C237.962 261.612 238.548 261.709 239.106 261.807C239.231 261.116 239.147 260.403 238.865 259.759C238.685 259.352 237.968 259.154 237.54 259.136C237.073 259.116 236.911 259.455 236.641 259.767C235.985 260.528 234.938 260.704 234.182 261.332H234.181Z" fill="#3F3D56"/>
<path d="M243.903 250.599C243.572 250.729 243.233 250.863 242.974 251.103C242.7 251.356 242.54 251.703 242.394 252.043C241.962 253.049 241.595 254.081 241.293 255.132C241.141 255.663 241.006 256.2 240.801 256.714C240.391 257.74 239.697 258.721 239.762 259.82C239.762 259.954 239.798 260.085 239.868 260.2C239.961 260.333 240.118 260.403 240.268 260.467L241.054 260.802C241.476 260.982 241.99 261.156 242.367 260.896C242.619 260.723 242.719 260.409 242.796 260.115C243.07 259.056 243.24 257.956 243.732 256.977C244.288 255.87 245.228 254.975 245.725 253.841C245.796 253.681 245.863 253.509 246.001 253.399C246.116 253.308 246.264 253.273 246.407 253.241C249.357 252.58 252.374 252.219 255.3 251.463C255.716 251.356 256.152 251.228 256.449 250.922C256.861 250.497 256.897 249.851 256.91 249.265C256.918 248.897 256.917 248.498 256.689 248.206C256.432 247.877 255.972 247.791 255.553 247.747C253.946 247.581 252.463 247.843 250.879 248.035C249.431 248.21 247.972 249.015 246.62 249.541C245.715 249.893 244.81 250.247 243.905 250.601L243.903 250.599Z" fill="#696880"/>
<path d="M240.268 261.107C240.047 261.624 239.808 262.163 239.36 262.508C239.173 262.652 238.931 262.797 238.924 263.031C238.916 263.278 239.18 263.442 239.417 263.525C240.019 263.739 240.705 263.785 241.293 263.535C241.696 263.363 242.027 263.067 242.351 262.777C242.448 262.689 242.549 262.597 242.595 262.475C242.626 262.372 242.635 262.265 242.622 262.158C242.583 261.513 242.466 260.874 242.273 260.255C242.258 260.206 240.987 260.051 240.874 260.08C240.519 260.171 240.404 260.788 240.267 261.107H240.268Z" fill="#3F3D56"/>
<path d="M260.034 246.133L252.355 246.365C252.355 246.365 245.561 252.875 251.173 254.852C251.173 254.852 258.085 255.956 259.739 254.677C259.739 254.677 261.806 246.656 260.034 246.133ZM259.68 248.283L251.469 248.807C251.469 248.807 252.059 246.83 254.422 246.83C256.785 246.83 259.443 246.307 259.68 247.528C259.916 248.748 259.68 248.283 259.68 248.283Z" fill="#3F3D56"/>
<path d="M258.291 266.999C262.549 266.999 266 263.148 266 258.397C266 253.645 262.549 249.794 258.291 249.794C254.034 249.794 250.582 253.645 250.582 258.397C250.582 263.148 254.034 266.999 258.291 266.999Z" fill="#36334A"/>
<path d="M258.646 264.791C261.859 264.791 264.464 261.928 264.464 258.397C264.464 254.866 261.859 252.003 258.646 252.003C255.432 252.003 252.827 254.866 252.827 258.397C252.827 261.928 255.432 264.791 258.646 264.791Z" fill="#3F3D56"/>
<path d="M260.152 258.31C260.152 258.198 260.141 258.087 260.118 257.978L264.464 255.84L264.169 255.2L259.779 257.305C259.734 257.26 259.685 257.22 259.633 257.185H259.636L260.92 250.9L259.785 250.874L259.03 257.061L259.102 257.076C259.044 257.088 258.987 257.107 258.933 257.133L255.136 253.298L254.599 254.038L258.5 257.57C258.402 257.754 258.344 257.957 258.328 258.165L252.828 260.374L252.71 261.304L258.443 258.931C258.497 259.062 258.572 259.182 258.667 259.288L256.904 265.198H257.553L259.034 259.528C259.099 259.549 259.168 259.56 259.237 259.56C259.371 259.559 259.5 259.521 259.613 259.449L262.693 263.455L263.638 262.815L260.029 258.936C260.111 258.738 260.153 258.525 260.153 258.311L260.152 258.31Z" fill="#36334A"/>
<path d="M251.627 231.096C251.731 230.839 252.066 230.732 252.176 230.477C252.294 230.203 252.109 229.855 252.27 229.602C252.432 229.348 252.81 229.378 253.111 229.427C253.466 229.485 253.843 229.524 254.175 229.385C254.322 229.324 254.453 229.23 254.595 229.158C254.822 229.045 255.074 228.991 255.328 229.001C255.386 229 255.442 229.013 255.492 229.04C255.54 229.074 255.577 229.121 255.599 229.175C255.703 229.396 255.717 229.671 255.905 229.83C255.995 229.906 256.112 229.942 256.22 229.99C256.735 230.234 257.04 230.769 256.985 231.328C256.96 231.455 256.944 231.583 256.938 231.711C256.945 231.994 257.133 232.276 257.037 232.543C256.966 232.741 256.757 232.858 256.553 232.92C256.495 232.943 256.43 232.946 256.37 232.929C256.266 232.887 256.244 232.754 256.211 232.648C256.114 232.362 255.839 232.172 255.533 232.178C255.295 232.188 255.054 232.32 254.829 232.241C254.719 232.203 254.632 232.119 254.544 232.043C254.341 231.869 254.1 231.723 253.833 231.686C253.566 231.649 253.27 231.738 253.113 231.953C253.049 232.04 253.011 232.142 252.951 232.231C252.406 233.032 251.403 231.649 251.627 231.094L251.627 231.096Z" fill="#36334A"/>
<path d="M252.854 244.911C252.649 244.885 252.444 244.96 252.306 245.112C251.789 245.575 251.241 246.098 251.148 246.779C251.134 246.842 251.141 246.907 251.169 246.964C251.219 247.045 251.328 247.062 251.424 247.064C251.912 247.068 252.379 246.866 252.705 246.507C252.793 246.408 252.875 246.295 252.997 246.239C253.108 246.198 253.227 246.184 253.345 246.196C253.669 246.207 254.41 246.37 254.692 246.212C254.989 246.046 254.908 245.524 254.769 245.272C254.439 244.674 253.416 244.905 252.854 244.911V244.911Z" fill="#FBBEBE"/>
<path d="M260.069 239.89C260.268 240.519 260.151 241.227 260.433 241.824C260.62 242.221 260.971 242.54 261.08 242.964C261.183 243.364 261.045 243.796 260.803 244.133C260.562 244.471 260.226 244.73 259.888 244.976C259.519 245.245 259.136 245.508 258.7 245.653C258.266 245.799 257.801 245.82 257.344 245.841L254.308 245.978L253.75 244.329L255.727 243.567C255.925 243.491 256.127 243.414 256.339 243.398C256.705 243.371 257.151 243.504 257.386 243.226C257.461 243.124 257.508 243.005 257.524 242.881C257.716 241.912 257.549 240.887 257.844 239.944C257.99 239.477 258.412 238.541 258.988 238.458C259.597 238.371 259.932 239.454 260.07 239.89H260.069Z" fill="#F5F4F4"/>
</g>
<defs>
<clipPath id="clip0_282_18455">
<rect width="433.31" height="315.48" fill="white"/>
</clipPath>
</defs>
</svg>
