<svg width="434" height="316" viewBox="0 0 434 316" fill="none" xmlns="http://www.w3.org/2000/svg">
<g clip-path="url(#clip0_282_25471)">
<path d="M191.28 107.29C189.86 109.23 188.13 110.87 185.54 111.58C184.5 111.86 184.12 112.25 184.51 113.22C185.38 115.39 185.29 115.33 182.9 116.82C180.39 118.39 177.44 119.25 174.88 120.73C174.14 121.16 173.33 121.5 172.64 122.2C173.09 124.37 174.09 126.73 171.64 128.84C169.48 130.7 166.51 130.23 163.93 130.93C164.22 131.93 164.44 132.7 164.66 133.48C163.27 135.24 159.45 136.56 157.29 135.98C155.59 135.53 155.29 134.17 154.83 132.94C154.33 131.57 153.44 131.04 152.16 131.32C151.27 131.52 150.7 131.88 150.72 132.76C150.74 133.6 150.69 134.43 150.73 135.27C150.77 136.19 150.57 136.96 149.71 137.62C148.69 138.39 147.79 139.29 146.82 140.11C145.88 140.9 144.92 141.67 143.92 142.49C144.72 145.2 147.03 146.73 149.69 148C153.67 149.9 157.91 151.3 161.98 153.02C163.41 153.63 165.04 153.28 166.51 153.88C168.39 154.65 169.14 155.58 168.28 157.12C167.72 158.13 167.55 159.24 166.83 160.29C170.2 162.53 174.12 163.95 178.18 164.21C186.31 164.73 194.45 164.01 202.56 163.3C201.71 159.83 202.38 159.08 206.45 157.34C207.43 156.92 208.44 156.5 209.65 156.31C205.61 153.58 203.72 149.71 201.52 146.02C200.64 144.54 199.21 143.48 197.63 142.62C192.45 139.8 192.39 138.06 197.42 135.24C197.76 135.05 198.28 135.14 198.47 134.6C198.51 134.04 197.81 133.84 197.41 133.47C195.46 131.64 195.29 130.99 196.62 128.63C197.81 126.52 198.85 124.42 198.45 121.99C197.77 117.88 196.28 114.04 193.75 110.51C192.87 109.29 192.1 108 191.28 106.75" fill="#D1FF00"/>
<path d="M176.874 142.408C179.696 142.408 181.983 139.855 181.983 136.706C181.983 133.557 179.696 131.004 176.874 131.004C174.051 131.004 171.764 133.557 171.764 136.706C171.764 139.855 174.051 142.408 176.874 142.408Z" fill="#36334A"/>
<path d="M183.432 117.732C182.204 118.259 180.865 118.488 179.529 118.398C179.872 118.156 180.092 117.77 180.181 117.364C180.269 116.958 180.236 116.535 180.144 116.13C180.128 116.083 180.128 116.032 180.147 115.987C180.185 115.941 180.243 115.914 180.303 115.914C180.821 115.843 182.303 115.535 182.697 115.971C182.884 116.178 182.812 116.579 182.881 116.832C182.909 116.936 183.27 117.803 183.432 117.733V117.732Z" fill="#FBBEBE"/>
<path opacity="0.1" d="M183.432 117.732C182.204 118.259 180.865 118.488 179.529 118.398C179.872 118.156 180.092 117.77 180.181 117.364C180.269 116.958 180.236 116.535 180.144 116.13C180.128 116.083 180.128 116.032 180.147 115.987C180.185 115.941 180.243 115.914 180.303 115.914C180.821 115.843 182.303 115.535 182.697 115.971C182.884 116.178 182.812 116.579 182.881 116.832C182.909 116.936 183.27 117.803 183.432 117.733V117.732Z" fill="black"/>
<path d="M179.118 126.389L171.439 126.621C171.439 126.621 164.646 133.131 170.257 135.108C170.257 135.108 177.169 136.212 178.823 134.933C178.823 134.933 180.89 126.912 179.118 126.389ZM178.764 128.539L170.553 129.062C170.553 129.062 171.144 127.086 173.506 127.086C175.869 127.086 178.527 126.563 178.764 127.784C179 129.004 178.764 128.539 178.764 128.539Z" fill="#3F3D56"/>
<path d="M173.064 125.345C172.681 125.287 172.265 125.254 171.929 125.445C171.818 125.513 171.714 125.594 171.62 125.685C171.485 125.807 171.351 125.93 171.218 126.054C171.121 126.145 171.02 126.245 170.994 126.374C170.943 126.64 171.256 126.856 171.531 126.845C171.806 126.835 172.053 126.686 172.314 126.596C172.838 126.416 174.764 126.724 174.869 126.17C175.003 125.464 173.49 125.412 173.064 125.346V125.345Z" fill="#FBBEBE"/>
<path d="M176.654 124.9C176.153 125.151 175.608 125.303 175.048 125.349C174.961 125.35 174.875 125.369 174.794 125.402C174.746 125.432 174.709 125.476 174.688 125.529C174.492 125.934 174.37 126.371 174.329 126.819C174.319 126.863 174.335 126.909 174.371 126.937C174.424 126.964 174.484 126.977 174.544 126.975C175.463 127.033 176.386 127.064 177.311 127.068C177.351 127.071 177.393 127.065 177.431 127.051C177.458 127.038 177.478 127.013 177.487 126.984C177.703 126.453 177.806 125.883 177.787 125.311C177.763 124.638 177.563 124.427 176.655 124.901L176.654 124.9Z" fill="#D7E5F2"/>
<path d="M176.654 124.9C176.153 125.151 175.608 125.303 175.048 125.349C174.961 125.35 174.875 125.369 174.794 125.402C174.746 125.432 174.709 125.476 174.688 125.529C174.492 125.934 174.37 126.371 174.329 126.819C174.319 126.863 174.335 126.909 174.371 126.937C174.424 126.964 174.484 126.977 174.544 126.975C175.463 127.033 176.386 127.064 177.311 127.068C177.351 127.071 177.393 127.065 177.431 127.051C177.458 127.038 177.478 127.013 177.487 126.984C177.703 126.453 177.806 125.883 177.787 125.311C177.763 124.638 177.563 124.427 176.655 124.901L176.654 124.9Z" fill="#F5F4F4"/>
<path d="M186.975 130.981L176.873 130.632L179.236 120.809C179.236 120.809 188.688 120.111 188.451 122.495C188.215 124.878 186.975 130.981 186.975 130.981Z" fill="#36334A"/>
<path d="M177.223 135.676C177.223 135.676 171.143 136.734 168.958 133.596C166.772 130.457 177.228 132.142 177.228 132.142L178.114 134.526L177.223 135.676Z" fill="#36334A"/>
<path d="M175.397 149C176.93 149 178.173 147.777 178.173 146.268C178.173 144.759 176.93 143.536 175.397 143.536C173.863 143.536 172.62 144.759 172.62 146.268C172.62 147.777 173.863 149 175.397 149Z" fill="#36334A"/>
<path d="M175.663 148.244C176.625 148.244 177.405 147.359 177.405 146.267C177.405 145.176 176.625 144.291 175.663 144.291C174.7 144.291 173.92 145.176 173.92 146.267C173.92 147.359 174.7 148.244 175.663 148.244Z" fill="#3F3D56"/>
<path d="M190.578 120.519C190.578 120.519 188.274 119.24 188.156 122.262L186.207 136.329H187.034L189.279 121.274C189.279 121.274 190.401 121.449 190.578 121.449C190.755 121.449 190.578 120.519 190.578 120.519Z" fill="#3F3D56"/>
<path d="M192.874 122.07C192.792 122.36 192.487 122.529 192.194 122.449C192.17 122.442 192.147 122.434 192.125 122.425L189.452 121.301L189.937 120.25L192.571 121.431C192.819 121.542 192.947 121.813 192.874 122.07H192.874Z" fill="#36334A"/>
<path d="M176.637 135.34C176.637 135.34 172.384 134.875 171.202 138.885C170.021 142.896 170.139 145.977 169.135 145.744C168.131 145.512 166.004 144.698 166.004 144.698L166.181 145.919C166.181 145.919 169.903 147.779 170.494 145.802C171.084 143.826 171.439 136.56 174.806 136.735C178.173 136.909 178.764 136.56 178.764 136.56L176.637 135.34Z" fill="#3F3D56"/>
<path d="M168.544 133.422C168.544 133.422 165.236 133.829 163.937 136.212C162.637 138.595 161.987 142.896 161.987 142.896H163.228C163.228 142.896 163.937 134.352 167.658 134.817L168.544 133.422Z" fill="#3F3D56"/>
<path d="M166.3 146.734L161.042 143.537C161.042 143.537 160.747 142.374 164.114 141.909C164.114 141.909 170.48 144.1 169.866 144.922C169.253 145.745 167.186 147.024 166.3 146.734Z" fill="#36334A"/>
<path d="M174.452 136.328V143.129H175.219V136.212L174.452 136.328Z" fill="#3F3D56"/>
<path d="M175.574 140.513C175.574 140.513 177.051 146.209 176.106 147.023C176.106 147.023 174.865 143.419 173.92 143.884L174.215 140.513H175.574Z" fill="#36334A"/>
<path d="M181.304 116.798C182.576 116.798 183.608 115.784 183.608 114.532C183.608 113.28 182.576 112.265 181.304 112.265C180.031 112.265 179 113.28 179 114.532C179 115.784 180.031 116.798 181.304 116.798Z" fill="#FBBEBE"/>
<path d="M180.868 117.967C181.807 118.124 182.619 117.049 183.56 117.2C183.764 117.241 183.96 117.317 184.138 117.424C185.539 118.204 186.542 119.526 186.904 121.07C187.011 121.536 187.052 122.041 186.852 122.477C186.746 122.708 186.577 122.906 186.409 123.098C185.783 123.814 185.096 124.528 184.204 124.874C184.116 125.172 184.2 125.494 184.305 125.785C184.741 127.004 184.047 128.317 184.012 129.608C184.006 129.829 184.012 130.07 183.872 130.243C183.716 130.434 183.438 130.468 183.189 130.482C180.908 130.609 178.63 130.264 176.373 129.922C176.313 129.917 176.256 129.898 176.207 129.866C176.133 129.808 176.121 129.704 176.106 129.612C176.022 129.124 176.463 128.728 176.254 128.278C175.895 127.504 176.678 126.658 176.904 125.836C177.129 125.015 177.218 124.871 177.376 124.035C177.435 123.722 177.265 122.779 177.317 122.465C177.487 121.44 177.358 120.272 177.908 119.385C178.238 118.852 178.152 118.437 178.741 118.205C179.363 117.96 180.204 118.043 180.869 117.967H180.868Z" fill="#F5F4F4"/>
<path d="M170.464 131.486C169.777 131.617 169.046 131.741 168.517 132.192C168.194 132.468 167.977 132.842 167.766 133.208L165.613 136.944C164.956 138.083 164.299 139.223 163.703 140.394C163.651 140.479 163.621 140.575 163.614 140.675C163.617 140.815 163.712 140.935 163.81 141.036C164.499 141.739 165.484 142.08 166.468 141.956C166.616 141.201 167.345 140.703 167.703 140.019C167.899 139.644 167.978 139.222 168.104 138.818C168.577 137.313 169.699 136.104 170.789 134.951C171.304 134.405 171.831 133.85 172.494 133.492C173.272 133.072 174.175 132.956 175.045 132.782C175.914 132.607 176.815 132.343 177.43 131.714C177.959 131.165 178.209 130.411 178.112 129.661C177.555 129.622 176.935 129.551 176.397 129.727C175.773 129.932 175.169 130.212 174.544 130.421C173.21 130.868 171.847 131.224 170.464 131.486H170.464Z" fill="#696880"/>
<path opacity="0.1" d="M170.464 131.486C169.777 131.617 169.046 131.741 168.517 132.192C168.194 132.468 167.977 132.842 167.766 133.208L165.613 136.944C164.956 138.083 164.299 139.223 163.703 140.394C163.651 140.479 163.621 140.575 163.614 140.675C163.617 140.815 163.712 140.935 163.81 141.036C164.499 141.739 165.484 142.08 166.468 141.956C166.616 141.201 167.345 140.703 167.703 140.019C167.899 139.644 167.978 139.222 168.104 138.818C168.577 137.313 169.699 136.104 170.789 134.951C171.304 134.405 171.831 133.85 172.494 133.492C173.272 133.072 174.175 132.956 175.045 132.782C175.914 132.607 176.815 132.343 177.43 131.714C177.959 131.165 178.209 130.411 178.112 129.661C177.555 129.622 176.935 129.551 176.397 129.727C175.773 129.932 175.169 130.212 174.544 130.421C173.21 130.868 171.847 131.224 170.464 131.486H170.464Z" fill="black"/>
<path d="M161.181 143.332C161.104 143.386 161.045 143.461 161.012 143.547C160.934 143.809 161.267 143.994 161.534 144.07C162.133 144.239 162.773 144.41 163.371 144.235C163.738 144.127 164.057 143.898 164.421 143.783C164.962 143.612 165.548 143.709 166.106 143.807C166.231 143.116 166.147 142.403 165.865 141.759C165.685 141.352 164.968 141.154 164.54 141.136C164.073 141.116 163.911 141.455 163.641 141.767C162.985 142.528 161.938 142.704 161.182 143.332H161.181Z" fill="#3F3D56"/>
<path d="M170.903 132.599C170.572 132.729 170.233 132.863 169.974 133.103C169.7 133.356 169.54 133.703 169.394 134.043C168.962 135.049 168.595 136.081 168.293 137.132C168.141 137.663 168.006 138.2 167.801 138.714C167.391 139.74 166.697 140.721 166.762 141.82C166.762 141.954 166.798 142.085 166.868 142.2C166.961 142.333 167.118 142.403 167.268 142.467L168.054 142.802C168.476 142.982 168.99 143.156 169.367 142.896C169.619 142.723 169.719 142.409 169.796 142.115C170.07 141.056 170.24 139.956 170.732 138.977C171.288 137.87 172.228 136.975 172.725 135.841C172.796 135.681 172.863 135.509 173.001 135.399C173.116 135.308 173.264 135.273 173.407 135.241C176.357 134.58 179.374 134.219 182.3 133.463C182.716 133.356 183.152 133.228 183.449 132.922C183.861 132.497 183.897 131.851 183.91 131.265C183.918 130.897 183.917 130.498 183.689 130.206C183.432 129.877 182.972 129.791 182.553 129.747C180.946 129.581 179.463 129.843 177.879 130.035C176.431 130.21 174.972 131.015 173.62 131.541C172.715 131.893 171.81 132.247 170.905 132.601L170.903 132.599Z" fill="#696880"/>
<path d="M167.268 143.107C167.047 143.624 166.808 144.163 166.36 144.508C166.173 144.652 165.931 144.797 165.924 145.031C165.916 145.278 166.18 145.442 166.417 145.525C167.019 145.739 167.705 145.785 168.293 145.535C168.696 145.363 169.027 145.067 169.351 144.777C169.448 144.689 169.549 144.597 169.595 144.475C169.626 144.372 169.635 144.265 169.622 144.158C169.583 143.513 169.466 142.874 169.273 142.255C169.258 142.206 167.987 142.051 167.874 142.08C167.519 142.171 167.404 142.788 167.267 143.107H167.268Z" fill="#3F3D56"/>
<path d="M187.034 128.133L179.355 128.365C179.355 128.365 172.561 134.875 178.173 136.852C178.173 136.852 185.085 137.956 186.739 136.677C186.739 136.677 188.806 128.656 187.034 128.133ZM186.68 130.283L178.469 130.807C178.469 130.807 179.059 128.83 181.422 128.83C183.785 128.83 186.443 128.307 186.68 129.528C186.916 130.748 186.68 130.283 186.68 130.283Z" fill="#3F3D56"/>
<path d="M185.291 148.999C189.549 148.999 193 145.148 193 140.397C193 135.645 189.549 131.794 185.291 131.794C181.034 131.794 177.582 135.645 177.582 140.397C177.582 145.148 181.034 148.999 185.291 148.999Z" fill="#36334A"/>
<path d="M185.646 146.791C188.859 146.791 191.464 143.928 191.464 140.397C191.464 136.866 188.859 134.003 185.646 134.003C182.432 134.003 179.827 136.866 179.827 140.397C179.827 143.928 182.432 146.791 185.646 146.791Z" fill="#3F3D56"/>
<path d="M187.152 140.31C187.152 140.198 187.141 140.087 187.118 139.978L191.464 137.84L191.169 137.2L186.779 139.305C186.734 139.26 186.685 139.22 186.633 139.185H186.636L187.92 132.9L186.785 132.874L186.03 139.061L186.102 139.076C186.044 139.088 185.987 139.107 185.933 139.133L182.136 135.298L181.599 136.038L185.5 139.57C185.402 139.754 185.344 139.957 185.328 140.165L179.828 142.374L179.71 143.304L185.443 140.931C185.497 141.062 185.572 141.182 185.667 141.288L183.904 147.198H184.553L186.034 141.528C186.099 141.549 186.168 141.56 186.237 141.56C186.371 141.559 186.5 141.521 186.613 141.449L189.693 145.455L190.638 144.815L187.029 140.936C187.111 140.738 187.153 140.525 187.153 140.311L187.152 140.31Z" fill="#36334A"/>
<path d="M178.627 113.096C178.731 112.839 179.066 112.732 179.176 112.477C179.294 112.203 179.109 111.855 179.27 111.602C179.432 111.348 179.81 111.378 180.111 111.427C180.466 111.485 180.843 111.524 181.175 111.385C181.322 111.324 181.453 111.23 181.595 111.158C181.822 111.045 182.074 110.991 182.328 111.001C182.385 111 182.442 111.013 182.492 111.04C182.54 111.074 182.577 111.121 182.599 111.175C182.703 111.396 182.717 111.671 182.905 111.83C182.995 111.906 183.112 111.942 183.22 111.99C183.735 112.234 184.04 112.769 183.985 113.328C183.96 113.455 183.944 113.583 183.938 113.711C183.945 113.994 184.133 114.276 184.037 114.543C183.966 114.741 183.757 114.858 183.553 114.92C183.495 114.943 183.43 114.946 183.37 114.929C183.266 114.887 183.244 114.754 183.211 114.648C183.114 114.362 182.839 114.172 182.533 114.178C182.295 114.188 182.053 114.32 181.829 114.241C181.719 114.203 181.632 114.119 181.544 114.043C181.341 113.869 181.1 113.723 180.833 113.686C180.566 113.649 180.27 113.738 180.113 113.953C180.049 114.04 180.011 114.142 179.951 114.231C179.406 115.032 178.403 113.649 178.627 113.094L178.627 113.096Z" fill="#36334A"/>
<path d="M179.854 126.911C179.649 126.885 179.444 126.96 179.306 127.112C178.789 127.575 178.241 128.098 178.148 128.779C178.134 128.842 178.141 128.907 178.169 128.964C178.219 129.045 178.328 129.062 178.424 129.064C178.912 129.068 179.379 128.866 179.705 128.507C179.793 128.408 179.875 128.295 179.997 128.239C180.108 128.198 180.227 128.184 180.345 128.196C180.669 128.207 181.41 128.37 181.692 128.212C181.989 128.046 181.908 127.524 181.769 127.272C181.439 126.674 180.416 126.905 179.854 126.911V126.911Z" fill="#FBBEBE"/>
<path d="M187.069 121.89C187.268 122.519 187.151 123.227 187.433 123.824C187.62 124.221 187.971 124.54 188.08 124.964C188.183 125.364 188.045 125.796 187.803 126.133C187.562 126.471 187.226 126.73 186.888 126.976C186.519 127.245 186.136 127.508 185.7 127.653C185.266 127.799 184.801 127.82 184.344 127.841L181.308 127.978L180.75 126.329L182.727 125.567C182.925 125.491 183.127 125.414 183.339 125.398C183.705 125.371 184.151 125.504 184.386 125.226C184.461 125.124 184.508 125.005 184.524 124.881C184.716 123.912 184.549 122.887 184.844 121.944C184.99 121.477 185.412 120.541 185.988 120.458C186.597 120.371 186.932 121.454 187.07 121.89H187.069Z" fill="#F5F4F4"/>
</g>
<defs>
<clipPath id="clip0_282_25471">
<rect width="433.31" height="315.48" fill="white"/>
</clipPath>
</defs>
</svg>
