<svg width="434" height="316" viewBox="0 0 434 316" fill="none" xmlns="http://www.w3.org/2000/svg">
<g clip-path="url(#clip0_282_23717)">
<path d="M314.4 161.99C313.81 163.92 312.72 165.73 311.26 167.14C308.85 169.47 308.38 172.23 308.08 175.09C307.87 177.11 307.86 179.15 307.86 181.18C307.86 183.26 307.2 185 304.97 186.02C303.3 186.79 302.46 187.93 302.5 189.61C302.54 191.15 301.26 192.12 300.19 193.25C298.83 192.24 297.6 191.09 296.2 190.11C295.05 189.31 293.81 188.77 292.47 188.57C287.54 187.83 283.02 185.99 278.33 184.63C275.01 183.67 271.81 184.24 268.92 186.02C267.25 187.05 265.96 188.49 264.26 189.41C262.78 188.47 261.56 187.47 260.86 185.87C260.23 184.43 258.31 184.74 256.84 184.59C255.93 184.5 254.91 184.83 254.1 183.96C255.44 181.5 253.79 179.49 252.61 177.36C253.84 175.34 256.11 174.07 257.92 172.43C259.56 170.93 260.51 169.14 261.56 167.37C262.41 165.94 263.13 164.45 265.46 164.47C266.09 164.47 266.49 163.96 266.51 163.25C266.55 161.92 267.3 160.91 268.74 160.39C270.42 159.78 270.56 158.71 270.19 157.33C269.69 155.48 269.4 153.57 268.11 151.96C267.75 151.5 267.95 151.12 268.11 150.72C273.48 151.47 278.18 150.3 282.26 147.13C284.19 145.63 284.26 145.67 286.14 147.3C289.71 150.4 292.73 153.95 296.37 156.99C297.47 157.91 298.67 158.7 299.88 159.47C302.3 161.01 304.97 161.83 308.06 161.68C310.16 161.57 312.3 161.44 314.41 161.82" fill="#D1FF00"/>
<path d="M279.874 173.408C282.696 173.408 284.983 170.855 284.983 167.706C284.983 164.557 282.696 162.004 279.874 162.004C277.051 162.004 274.764 164.557 274.764 167.706C274.764 170.855 277.051 173.408 279.874 173.408Z" fill="#36334A"/>
<path d="M286.432 148.732C285.204 149.259 283.865 149.488 282.529 149.398C282.872 149.156 283.092 148.77 283.181 148.364C283.269 147.958 283.236 147.535 283.144 147.13C283.128 147.083 283.128 147.032 283.147 146.987C283.185 146.941 283.243 146.914 283.303 146.914C283.821 146.843 285.303 146.535 285.697 146.971C285.884 147.178 285.812 147.579 285.881 147.832C285.909 147.936 286.27 148.803 286.432 148.733V148.732Z" fill="#FBBEBE"/>
<path opacity="0.1" d="M286.432 148.732C285.204 149.259 283.865 149.488 282.529 149.398C282.872 149.156 283.092 148.77 283.181 148.364C283.269 147.958 283.236 147.535 283.144 147.13C283.128 147.083 283.128 147.032 283.147 146.987C283.185 146.941 283.243 146.914 283.303 146.914C283.821 146.843 285.303 146.535 285.697 146.971C285.884 147.178 285.812 147.579 285.881 147.832C285.909 147.936 286.27 148.803 286.432 148.733V148.732Z" fill="black"/>
<path d="M282.118 157.389L274.439 157.621C274.439 157.621 267.646 164.131 273.257 166.108C273.257 166.108 280.169 167.212 281.823 165.933C281.823 165.933 283.89 157.912 282.118 157.389ZM281.764 159.539L273.553 160.062C273.553 160.062 274.144 158.086 276.506 158.086C278.869 158.086 281.527 157.563 281.764 158.784C282 160.004 281.764 159.539 281.764 159.539Z" fill="#3F3D56"/>
<path d="M276.064 156.345C275.681 156.287 275.265 156.254 274.929 156.445C274.818 156.513 274.714 156.594 274.62 156.685C274.485 156.807 274.351 156.93 274.218 157.054C274.121 157.145 274.02 157.245 273.994 157.374C273.943 157.64 274.256 157.856 274.531 157.845C274.806 157.835 275.053 157.686 275.314 157.596C275.838 157.416 277.764 157.724 277.869 157.17C278.003 156.464 276.49 156.412 276.064 156.346V156.345Z" fill="#FBBEBE"/>
<path d="M279.654 155.9C279.153 156.151 278.608 156.303 278.048 156.349C277.961 156.35 277.875 156.369 277.794 156.402C277.746 156.432 277.709 156.476 277.688 156.529C277.492 156.934 277.37 157.371 277.329 157.819C277.319 157.863 277.335 157.909 277.371 157.937C277.424 157.964 277.484 157.977 277.544 157.975C278.463 158.033 279.386 158.064 280.311 158.068C280.351 158.071 280.393 158.065 280.431 158.051C280.458 158.038 280.478 158.013 280.487 157.984C280.703 157.453 280.806 156.883 280.787 156.311C280.763 155.638 280.563 155.427 279.655 155.901L279.654 155.9Z" fill="#D7E5F2"/>
<path d="M279.654 155.9C279.153 156.151 278.608 156.303 278.048 156.349C277.961 156.35 277.875 156.369 277.794 156.402C277.746 156.432 277.709 156.476 277.688 156.529C277.492 156.934 277.37 157.371 277.329 157.819C277.319 157.863 277.335 157.909 277.371 157.937C277.424 157.964 277.484 157.977 277.544 157.975C278.463 158.033 279.386 158.064 280.311 158.068C280.351 158.071 280.393 158.065 280.431 158.051C280.458 158.038 280.478 158.013 280.487 157.984C280.703 157.453 280.806 156.883 280.787 156.311C280.763 155.638 280.563 155.427 279.655 155.901L279.654 155.9Z" fill="#F5F4F4"/>
<path d="M289.975 161.981L279.873 161.632L282.236 151.809C282.236 151.809 291.688 151.111 291.451 153.495C291.215 155.878 289.975 161.981 289.975 161.981Z" fill="#36334A"/>
<path d="M280.223 166.676C280.223 166.676 274.143 167.734 271.958 164.596C269.772 161.457 280.228 163.142 280.228 163.142L281.114 165.526L280.223 166.676Z" fill="#36334A"/>
<path d="M278.397 180C279.93 180 281.173 178.777 281.173 177.268C281.173 175.759 279.93 174.536 278.397 174.536C276.863 174.536 275.62 175.759 275.62 177.268C275.62 178.777 276.863 180 278.397 180Z" fill="#36334A"/>
<path d="M278.663 179.244C279.625 179.244 280.405 178.359 280.405 177.267C280.405 176.176 279.625 175.291 278.663 175.291C277.7 175.291 276.92 176.176 276.92 177.267C276.92 178.359 277.7 179.244 278.663 179.244Z" fill="#3F3D56"/>
<path d="M293.578 151.519C293.578 151.519 291.274 150.24 291.156 153.262L289.207 167.329H290.034L292.279 152.274C292.279 152.274 293.401 152.449 293.578 152.449C293.755 152.449 293.578 151.519 293.578 151.519Z" fill="#3F3D56"/>
<path d="M295.874 153.07C295.792 153.36 295.487 153.529 295.194 153.449C295.17 153.442 295.147 153.434 295.125 153.425L292.452 152.301L292.937 151.25L295.571 152.431C295.819 152.542 295.947 152.813 295.874 153.07H295.874Z" fill="#36334A"/>
<path d="M279.637 166.34C279.637 166.34 275.384 165.875 274.202 169.885C273.021 173.896 273.139 176.977 272.135 176.744C271.131 176.512 269.004 175.698 269.004 175.698L269.181 176.919C269.181 176.919 272.903 178.779 273.494 176.802C274.084 174.826 274.439 167.56 277.806 167.735C281.173 167.909 281.764 167.56 281.764 167.56L279.637 166.34Z" fill="#3F3D56"/>
<path d="M271.544 164.422C271.544 164.422 268.236 164.829 266.937 167.212C265.637 169.595 264.987 173.896 264.987 173.896H266.228C266.228 173.896 266.937 165.352 270.658 165.817L271.544 164.422Z" fill="#3F3D56"/>
<path d="M269.3 177.734L264.042 174.537C264.042 174.537 263.747 173.374 267.114 172.909C267.114 172.909 273.48 175.1 272.866 175.922C272.253 176.745 270.186 178.024 269.3 177.734Z" fill="#36334A"/>
<path d="M277.452 167.328V174.129H278.219V167.212L277.452 167.328Z" fill="#3F3D56"/>
<path d="M278.574 171.513C278.574 171.513 280.051 177.209 279.106 178.023C279.106 178.023 277.865 174.419 276.92 174.884L277.215 171.513H278.574Z" fill="#36334A"/>
<path d="M284.304 147.798C285.576 147.798 286.608 146.784 286.608 145.532C286.608 144.28 285.576 143.265 284.304 143.265C283.031 143.265 282 144.28 282 145.532C282 146.784 283.031 147.798 284.304 147.798Z" fill="#FBBEBE"/>
<path d="M283.868 148.967C284.807 149.124 285.619 148.049 286.56 148.2C286.764 148.241 286.96 148.317 287.138 148.424C288.539 149.204 289.542 150.526 289.904 152.07C290.011 152.536 290.052 153.041 289.852 153.477C289.746 153.708 289.577 153.906 289.409 154.098C288.783 154.814 288.096 155.528 287.204 155.874C287.116 156.172 287.2 156.494 287.305 156.785C287.741 158.004 287.047 159.317 287.012 160.608C287.006 160.829 287.012 161.07 286.872 161.243C286.716 161.434 286.438 161.468 286.189 161.482C283.908 161.609 281.63 161.264 279.373 160.922C279.313 160.917 279.256 160.898 279.207 160.866C279.133 160.808 279.121 160.704 279.106 160.612C279.022 160.124 279.463 159.728 279.254 159.278C278.895 158.504 279.678 157.658 279.904 156.836C280.129 156.015 280.218 155.871 280.376 155.035C280.435 154.722 280.265 153.779 280.317 153.465C280.487 152.44 280.358 151.272 280.908 150.385C281.238 149.852 281.152 149.437 281.741 149.205C282.363 148.96 283.204 149.043 283.869 148.967H283.868Z" fill="#F5F4F4"/>
<path d="M273.464 162.486C272.777 162.617 272.046 162.741 271.517 163.192C271.194 163.468 270.977 163.842 270.766 164.208L268.613 167.944C267.956 169.083 267.299 170.223 266.703 171.394C266.651 171.479 266.621 171.575 266.614 171.675C266.617 171.815 266.712 171.935 266.81 172.036C267.499 172.739 268.484 173.08 269.468 172.956C269.616 172.201 270.345 171.703 270.703 171.019C270.899 170.644 270.978 170.222 271.104 169.818C271.577 168.313 272.699 167.104 273.789 165.951C274.304 165.405 274.831 164.85 275.494 164.492C276.272 164.072 277.175 163.956 278.045 163.782C278.914 163.607 279.815 163.343 280.43 162.714C280.959 162.165 281.209 161.411 281.112 160.661C280.555 160.622 279.935 160.551 279.397 160.727C278.773 160.932 278.169 161.212 277.544 161.421C276.21 161.868 274.847 162.224 273.464 162.486H273.464Z" fill="#696880"/>
<path opacity="0.1" d="M273.464 162.486C272.777 162.617 272.046 162.741 271.517 163.192C271.194 163.468 270.977 163.842 270.766 164.208L268.613 167.944C267.956 169.083 267.299 170.223 266.703 171.394C266.651 171.479 266.621 171.575 266.614 171.675C266.617 171.815 266.712 171.935 266.81 172.036C267.499 172.739 268.484 173.08 269.468 172.956C269.616 172.201 270.345 171.703 270.703 171.019C270.899 170.644 270.978 170.222 271.104 169.818C271.577 168.313 272.699 167.104 273.789 165.951C274.304 165.405 274.831 164.85 275.494 164.492C276.272 164.072 277.175 163.956 278.045 163.782C278.914 163.607 279.815 163.343 280.43 162.714C280.959 162.165 281.209 161.411 281.112 160.661C280.555 160.622 279.935 160.551 279.397 160.727C278.773 160.932 278.169 161.212 277.544 161.421C276.21 161.868 274.847 162.224 273.464 162.486H273.464Z" fill="black"/>
<path d="M264.181 174.332C264.104 174.386 264.045 174.461 264.012 174.547C263.934 174.809 264.267 174.994 264.534 175.07C265.133 175.239 265.773 175.41 266.371 175.235C266.738 175.127 267.057 174.898 267.421 174.783C267.962 174.612 268.548 174.709 269.106 174.807C269.231 174.116 269.147 173.403 268.865 172.759C268.685 172.352 267.968 172.154 267.54 172.136C267.073 172.116 266.911 172.455 266.641 172.767C265.985 173.528 264.938 173.704 264.182 174.332H264.181Z" fill="#3F3D56"/>
<path d="M273.903 163.599C273.572 163.729 273.233 163.863 272.974 164.103C272.7 164.356 272.54 164.703 272.394 165.043C271.962 166.049 271.595 167.081 271.293 168.132C271.141 168.663 271.006 169.2 270.801 169.714C270.391 170.74 269.697 171.721 269.762 172.82C269.762 172.954 269.798 173.085 269.868 173.2C269.961 173.333 270.118 173.403 270.268 173.467L271.054 173.802C271.476 173.982 271.99 174.156 272.367 173.896C272.619 173.723 272.719 173.409 272.796 173.115C273.07 172.056 273.24 170.956 273.732 169.977C274.288 168.87 275.228 167.975 275.725 166.841C275.796 166.681 275.863 166.509 276.001 166.399C276.116 166.308 276.264 166.273 276.407 166.241C279.357 165.58 282.374 165.219 285.3 164.463C285.716 164.356 286.152 164.228 286.449 163.922C286.861 163.497 286.897 162.851 286.91 162.265C286.918 161.897 286.917 161.498 286.689 161.206C286.432 160.877 285.972 160.791 285.553 160.747C283.946 160.581 282.463 160.843 280.879 161.035C279.431 161.21 277.972 162.015 276.62 162.541C275.715 162.893 274.81 163.247 273.905 163.601L273.903 163.599Z" fill="#696880"/>
<path d="M270.268 174.107C270.047 174.624 269.808 175.163 269.36 175.508C269.173 175.652 268.931 175.797 268.924 176.031C268.916 176.278 269.18 176.442 269.417 176.525C270.019 176.739 270.705 176.785 271.293 176.535C271.696 176.363 272.027 176.067 272.351 175.777C272.448 175.689 272.549 175.597 272.595 175.475C272.626 175.372 272.635 175.265 272.622 175.158C272.583 174.513 272.466 173.874 272.273 173.255C272.258 173.206 270.987 173.051 270.874 173.08C270.519 173.171 270.404 173.788 270.267 174.107H270.268Z" fill="#3F3D56"/>
<path d="M290.034 159.133L282.355 159.365C282.355 159.365 275.561 165.875 281.173 167.852C281.173 167.852 288.085 168.956 289.739 167.677C289.739 167.677 291.806 159.656 290.034 159.133ZM289.68 161.283L281.469 161.807C281.469 161.807 282.059 159.83 284.422 159.83C286.785 159.83 289.443 159.307 289.68 160.528C289.916 161.748 289.68 161.283 289.68 161.283Z" fill="#3F3D56"/>
<path d="M288.291 179.999C292.549 179.999 296 176.148 296 171.397C296 166.645 292.549 162.794 288.291 162.794C284.034 162.794 280.582 166.645 280.582 171.397C280.582 176.148 284.034 179.999 288.291 179.999Z" fill="#36334A"/>
<path d="M288.646 177.791C291.859 177.791 294.464 174.928 294.464 171.397C294.464 167.866 291.859 165.003 288.646 165.003C285.432 165.003 282.827 167.866 282.827 171.397C282.827 174.928 285.432 177.791 288.646 177.791Z" fill="#3F3D56"/>
<path d="M290.152 171.31C290.152 171.198 290.141 171.087 290.118 170.978L294.464 168.84L294.169 168.2L289.779 170.305C289.734 170.26 289.685 170.22 289.633 170.185H289.636L290.92 163.9L289.785 163.874L289.03 170.061L289.102 170.076C289.044 170.088 288.987 170.107 288.933 170.133L285.136 166.298L284.599 167.038L288.5 170.57C288.402 170.754 288.344 170.957 288.328 171.165L282.828 173.374L282.71 174.304L288.443 171.931C288.497 172.062 288.572 172.182 288.667 172.288L286.904 178.198H287.553L289.034 172.528C289.099 172.549 289.168 172.56 289.237 172.56C289.371 172.559 289.5 172.521 289.613 172.449L292.693 176.455L293.638 175.815L290.029 171.936C290.111 171.738 290.153 171.525 290.153 171.311L290.152 171.31Z" fill="#36334A"/>
<path d="M281.627 144.096C281.731 143.839 282.066 143.732 282.176 143.477C282.294 143.203 282.109 142.855 282.27 142.602C282.432 142.348 282.81 142.378 283.111 142.427C283.466 142.485 283.843 142.524 284.175 142.385C284.322 142.324 284.453 142.23 284.595 142.158C284.822 142.045 285.074 141.991 285.328 142.001C285.386 142 285.442 142.013 285.492 142.04C285.54 142.074 285.577 142.121 285.599 142.175C285.703 142.396 285.717 142.671 285.905 142.83C285.995 142.906 286.112 142.942 286.22 142.99C286.735 143.234 287.04 143.769 286.985 144.328C286.96 144.455 286.944 144.583 286.938 144.711C286.945 144.994 287.133 145.276 287.037 145.543C286.966 145.741 286.757 145.858 286.553 145.92C286.495 145.943 286.43 145.946 286.37 145.929C286.266 145.887 286.244 145.754 286.211 145.648C286.114 145.362 285.839 145.172 285.533 145.178C285.295 145.188 285.054 145.32 284.829 145.241C284.719 145.203 284.632 145.119 284.544 145.043C284.341 144.869 284.1 144.723 283.833 144.686C283.566 144.649 283.27 144.738 283.113 144.953C283.049 145.04 283.011 145.142 282.951 145.231C282.406 146.032 281.403 144.649 281.627 144.094L281.627 144.096Z" fill="#36334A"/>
<path d="M282.854 157.911C282.649 157.885 282.444 157.96 282.306 158.112C281.789 158.575 281.241 159.098 281.148 159.779C281.134 159.842 281.141 159.907 281.169 159.964C281.219 160.045 281.328 160.062 281.424 160.064C281.912 160.068 282.379 159.866 282.705 159.507C282.793 159.408 282.875 159.295 282.997 159.239C283.108 159.198 283.227 159.184 283.345 159.196C283.669 159.207 284.41 159.37 284.692 159.212C284.989 159.046 284.908 158.524 284.769 158.272C284.439 157.674 283.416 157.905 282.854 157.911V157.911Z" fill="#FBBEBE"/>
<path d="M290.069 152.89C290.268 153.519 290.151 154.227 290.433 154.824C290.62 155.221 290.971 155.54 291.08 155.964C291.183 156.364 291.045 156.796 290.803 157.133C290.562 157.471 290.226 157.73 289.888 157.976C289.519 158.245 289.136 158.508 288.7 158.653C288.266 158.799 287.801 158.82 287.344 158.841L284.308 158.978L283.75 157.329L285.727 156.567C285.925 156.491 286.127 156.414 286.339 156.398C286.705 156.371 287.151 156.504 287.386 156.226C287.461 156.124 287.508 156.005 287.524 155.881C287.716 154.912 287.549 153.887 287.844 152.944C287.99 152.477 288.412 151.541 288.988 151.458C289.597 151.371 289.932 152.454 290.07 152.89H290.069Z" fill="#F5F4F4"/>
</g>
<defs>
<clipPath id="clip0_282_23717">
<rect width="433.31" height="315.48" fill="white"/>
</clipPath>
</defs>
</svg>
