<svg width="434" height="316" viewBox="0 0 434 316" fill="none" xmlns="http://www.w3.org/2000/svg">
<path d="M125.08 276.203C125.42 276.863 125.74 277.523 126.11 278.173C127.21 280.133 127 281.873 125.48 283.393C125.64 285.353 127.24 286.313 128.98 287.133C131.37 288.273 133.96 289.053 136.16 290.523C137.43 291.373 138.11 292.373 138.46 293.753C138.82 295.193 139.11 296.653 139.59 298.083C140.67 301.283 143.05 302.793 146.79 302.163C148.16 301.933 149.6 301.863 150.9 301.313C152.04 300.833 153.31 300.893 154.36 301.343C156.16 302.103 157.54 301.633 159.11 300.803C162.51 299.003 164.02 295.953 166.04 293.233C166.16 293.063 166.17 292.673 166.04 292.543C164.17 290.693 163.73 288.403 163.56 285.903C161.69 285.883 159.98 285.903 158.27 285.733C155.9 285.513 154.25 284.313 154.43 282.313C154.75 278.633 153.23 275.413 151.45 272.293C150.63 270.853 150.39 269.053 148.48 268.083C147.76 267.723 147.61 266.843 148.83 266.313C149.81 265.883 150.7 265.213 151.5 264.543C153.35 262.983 153.2 262.273 150.9 260.973C148.02 259.333 145.04 258.643 141.67 259.873C140.11 260.443 138.39 260.703 136.77 261.163C133.8 262.013 131.04 261.393 128.37 260.243C126.11 259.273 124.03 258.023 122.23 256.473C120.86 255.303 119.78 253.963 119.75 252.173C118.8 251.893 117.85 251.893 116.88 252.173C116.98 254.863 116.18 257.563 117.09 260.243C117.7 262.023 118.77 263.563 119.94 265.093C122.23 268.083 122.84 271.703 124.47 274.943" fill="#1F1F1F"/>
<path d="M262.33 190.873C258.64 193.683 254.94 196.483 251.27 199.303C249.61 200.583 248.9 202.433 248.26 204.163C247.1 207.293 244.49 208.703 241.22 209.513C236.33 210.723 231.64 212.453 226.68 213.483C223.38 214.173 220.26 214.283 217.24 212.593C214.06 210.813 210.67 211.643 207.44 212.453C205.94 212.823 204.48 213.303 203.09 213.473C195.98 209.163 191.15 203.293 187.06 196.593C187.91 194.413 189.31 191.903 188.1 189.053C189.24 188.823 190.33 188.463 191.44 188.393C194.76 188.183 197.05 186.493 198.99 184.403C200.26 183.033 200.17 181.243 199.99 179.593C199.91 178.873 199.79 178.143 199.88 177.443C200.01 176.363 200.31 175.533 201.86 175.033C204.53 174.163 207.19 173.053 208.68 170.643C208.89 170.313 209.28 170.013 209.87 169.883C213.47 169.073 216.99 167.963 220.74 167.773C225.88 167.503 230.2 169.213 233.83 172.263C237.07 174.983 240.77 175.533 244.9 174.383C246.36 173.973 247.53 174.313 248.36 175.313C249.41 176.563 250.49 177.803 251.29 179.223C252.22 180.883 252.75 182.333 251.5 184.113C250.46 185.603 250.92 186.053 253.09 186.243C253.43 186.273 253.8 186.463 254.11 186.403C257.37 185.813 259.47 187.183 261.1 189.453C261.45 189.943 262.04 190.303 262.52 190.723" fill="#1F1F1F"/>
<path d="M366.18 110.532C364.85 108.832 363.15 107.443 361.26 106.233C360.28 105.603 360.22 104.802 360.65 103.902C361.4 102.332 362.1 100.743 362.5 99.0625C363.1 96.5025 362.47 95.5325 359.85 94.1925C357.79 93.1325 355.41 93.1725 353.26 92.4625C352.69 92.2725 352.15 92.7925 351.62 93.1225C349.38 94.5425 347.04 95.8325 344.72 97.1625C342.44 98.4625 340.62 98.0125 338.74 96.8925C337.3 96.0325 335.94 95.0525 334.64 94.0225C333.46 93.0925 332.55 92.9725 331.11 93.8125C327.11 96.1425 322.94 98.2725 318.87 100.462C318.62 101.002 319.08 101.422 319.3 101.722C320.98 103.962 320.6 106.253 319.64 108.553C319.37 109.213 319.1 109.872 319.08 110.532C318.97 113.432 317.63 115.582 314.79 117.212C312.92 118.292 313.06 119.333 314.32 121.123C315.49 122.773 316.65 124.343 316.92 126.483C317.22 128.843 319.02 130.852 320.68 132.772C322.64 135.042 324.37 137.442 324.98 140.302C325.49 142.692 325.16 145.093 324.79 147.473C324.74 147.833 324.71 148.222 325.06 148.632C328.18 146.472 331.31 147.322 334.4 148.742C335.81 149.392 337.15 150.143 338.67 150.923C340.95 149.453 343.31 147.933 345.74 146.373C344.92 144.113 344.72 141.733 345.13 139.423C345.46 137.513 347.01 136.102 349.17 135.492C351.91 134.722 353.87 133.233 355.08 130.983C355.26 130.653 355.54 130.163 355.46 129.923C354.6 127.143 357.01 126.283 358.97 125.053C363.02 122.523 362.98 122.493 361.04 118.612C359.25 115.042 359.4 112.673 365.34 110.542" fill="#1F1F1F"/>
<path d="M369.44 271.002C367.54 268.242 365.62 265.482 364.57 262.382C364.03 260.793 362.78 259.832 361.41 259.032C359.91 258.162 359.26 257.173 358.9 255.593C358.07 251.983 355.7 248.893 353.67 245.713C353.28 245.103 352.52 245.033 352.02 245.043C347.42 245.133 343.87 242.903 340.13 241.063C334.62 238.353 328.96 236.013 322.74 234.723C318.25 233.793 316.23 230.473 315.2 226.883C313.86 222.243 313.62 217.493 314.33 212.733C314.63 210.723 314.14 209.103 311.89 208.043C309.35 206.853 306.97 205.403 304.47 204.173C301.86 202.893 299.52 201.393 297.55 199.453C296.1 198.023 294.33 197.263 292.21 196.943C288.01 196.303 284.07 194.903 280.12 193.543C276.52 192.303 273.41 192.813 270.46 195.123C267.21 197.663 263.99 200.253 260.47 202.523C259.74 202.993 259.16 203.643 258.55 204.183C259.75 206.283 261.03 208.153 262.65 209.903C264.4 211.793 265.13 214.153 265.21 216.673C265.33 220.463 266.84 224.003 268.52 227.413C271.36 233.183 273.84 239.043 276.04 245.013C277 247.623 278.63 249.803 281.35 251.313C282.14 251.753 283.04 252.183 283.82 252.133C287.59 251.933 289.02 254.533 290.96 256.513C291.26 256.813 291.17 257.443 291.19 257.923C291.22 258.823 291.19 259.713 291.19 260.613C291.19 263.673 291.19 263.683 294.47 264.733C296.22 265.293 297.37 266.203 297.35 267.963C297.34 268.883 297.67 269.412 298.97 269.632C301.7 270.082 304.43 270.082 307.18 270.132C308.04 270.152 308.35 269.603 308.81 269.213C311.39 267.053 313.78 264.713 316.58 262.743C317.78 261.893 318.8 261.773 319.87 262.763C321.82 264.573 323.55 265.023 326.32 263.423C328.56 262.133 331.58 262.963 334.21 263.653C334.95 263.843 335.08 264.402 335.22 264.912C335.36 265.432 335.49 265.993 335.42 266.523C334.88 270.513 337.21 272.913 341.2 274.183C342.66 274.653 343.61 275.122 343.66 276.562C343.67 276.982 343.87 277.422 344.06 277.812C344.64 279.002 345.2 279.723 347.07 280.143C349.92 280.783 351.91 280.192 354.1 278.912C356.02 277.792 356.46 277.952 357.97 279.603C359.49 281.263 363.45 281.253 364.95 279.603C365.12 279.423 365.2 279.242 365.14 279.062C364.31 276.622 366.6 275.973 368.22 274.933C368.62 274.673 369.28 274.763 369.42 274.173C369.66 273.193 367.93 272.263 369.25 271.173" fill="#1F1F1F"/>
<path d="M277.08 102.103C279.4 99.5927 282.35 97.6327 284.87 95.2927C285.58 94.6327 286.55 94.3227 287.52 94.0327C290.37 93.1827 292.28 90.7827 292.47 88.1227C292.55 87.0027 291.73 86.4827 290.98 85.9927C286.38 82.9827 282.58 79.2427 278.51 75.7427C276.65 74.1427 275.3 72.2527 274.59 70.0127C273.84 67.6327 271.32 66.5627 269.48 64.9927C266.63 62.5527 263.09 61.4427 259.24 60.8527C255.85 60.3327 253.44 57.4027 254.3 53.1527C254.92 50.0627 256.52 47.3327 258.02 44.5527C259.28 42.2327 260.35 39.8727 261.12 37.3827C261.49 36.1927 261.1 35.4227 260.03 34.9127C259.75 34.7727 259.41 34.5827 259.04 34.4927C256.24 33.8327 254.72 32.2827 254.72 29.6627C254.72 28.8927 254.13 28.4527 253.3 28.2227C252.03 27.8727 250.94 27.2227 249.81 26.6227C247.46 25.3727 247.47 23.2027 246.92 21.1127C245.14 20.9827 243.49 20.9027 241.99 22.2727C240.62 23.5227 238.56 23.4027 236.71 23.5627C234.4 23.7627 231.76 25.4627 231.72 27.6927C231.71 28.2927 231.67 28.8227 232.02 29.2927C232.23 29.5927 232.28 29.9327 232.6 30.2127C235.57 32.9227 235.82 36.3927 236.13 39.8827C236.35 42.4027 234.6 43.7927 232.61 45.0727C230.28 46.5727 227.52 47.3927 225.01 48.6327C224.05 49.1027 223.05 49.5427 222.18 50.1227C219.99 51.5727 219.53 52.8627 220.56 55.1227C221.31 56.7627 222.13 58.4227 223.43 59.7727C226.29 62.7627 227.62 66.1527 227.49 70.0127C227.46 70.7827 227.76 71.3427 228.26 72.0227C230.16 74.6327 232.84 76.2027 236.1 77.2027C239.33 78.2027 241.93 79.7227 242.93 82.9127C243.43 84.5027 245.16 85.6327 246.79 86.2727C250.73 87.8227 252.51 90.4627 252.9 94.0427C252.91 94.1627 252.87 94.2927 252.9 94.4027C254.18 98.7327 254.44 98.3427 258.42 97.6227C260.33 97.2727 261.88 97.4327 262.75 99.2327C262.96 99.6627 263.7 99.9027 263.92 100.333C265.02 102.493 266.99 102.883 269.26 102.253C270.49 101.913 271.31 102.433 272.12 102.873C273.01 103.353 273.62 104.213 274.7 104.693C275.22 103.683 275.21 102.243 277.07 102.293" fill="#1F1F1F"/>
<path d="M185.3 194.992C186.3 193.082 186.8 191.162 185.95 189.062C185.57 188.122 186.16 187.522 187.34 187.252C188.9 186.892 190.5 186.772 192.07 186.402C196.12 185.462 197.76 183.682 197.81 180.102C197.88 175.052 196.71 174.992 203.33 172.382C203.97 172.132 204.57 171.812 205.17 171.482C205.41 171.352 205.59 171.132 205.84 170.902C205.17 169.142 203.82 167.602 203.33 165.752C203.1 164.882 202.25 165.182 201.7 165.232C195.1 165.882 188.46 166.102 181.83 166.312C176.44 166.482 171.73 164.732 167.07 162.722C166.82 162.612 166.65 162.482 166.47 162.342C165.81 161.782 165.16 161.212 164.57 160.682C164.85 158.912 166.11 157.552 166.3 155.702C163.42 155.152 160.5 154.732 157.84 153.412C154.12 151.572 149.88 150.642 146.37 148.372C144.38 147.082 142.53 145.762 142.12 143.502C141.98 142.712 141.35 142.742 140.85 142.632C136.29 141.572 132.48 139.342 129 136.672C127.48 135.512 125.85 134.492 124.6 132.982C122.87 130.892 123.35 130.832 124.5 128.822C124.84 128.232 125.54 127.812 126.1 127.292C122.11 125.352 119.22 126.862 117.91 129.882C117.02 131.922 116.2 133.972 115.83 136.152C115.71 136.882 115.41 137.462 114.49 138.032C112.75 139.112 111.02 140.232 109.29 141.342C106.63 143.042 103.57 143.712 100.29 143.702C99.37 143.702 98.35 143.442 97.61 144.242C98.44 146.132 99.05 148.092 99.04 150.142C99.04 151.302 100.07 151.632 100.91 152.102C103.33 153.462 105.9 154.592 108.48 155.712C113.02 157.672 116.51 160.822 120.14 163.792C122.39 165.632 124.76 167.192 127.5 168.502C132.48 170.882 137.02 173.912 140.38 177.982C141.39 179.202 142.42 179.662 143.93 179.542C146.31 179.362 148.7 179.912 150.19 181.242C153.19 183.912 156.96 184.262 160.72 184.932C164.78 185.662 168.95 185.662 173.01 186.372C176.05 186.912 178.59 188.212 179.73 190.852C180.5 192.622 181.77 193.812 183.65 194.622C184.25 194.882 185.07 194.942 185.3 195.682" fill="#1F1F1F"/>
<path d="M316.38 208.702C316.51 212.942 315.79 217.192 316.38 221.432C316.79 224.352 317.42 227.202 319.42 229.692C320.44 230.962 321.74 232.002 323.35 232.322C331.48 233.962 338.67 237.382 345.64 241.192C347.22 242.052 348.92 242.352 350.58 242.352C353.83 242.352 355.77 243.732 356.92 246.182C358.4 249.332 360.83 252.152 361.25 255.682C361.34 256.472 362.09 256.772 362.85 257.152C364.98 258.202 366.13 259.832 366.84 261.942C367.66 264.362 369.24 266.552 370.65 268.772C370.97 269.282 371.36 269.672 372.07 269.872C373.91 270.392 375.7 271.122 377.16 272.222C378.06 272.902 378.82 272.712 379.66 272.522C380.7 272.292 381.71 271.942 383.06 271.542C382.65 269.042 381.33 266.942 379.24 265.192C378.43 264.512 377.49 264.002 376.97 263.042C376.21 261.632 376.3 260.942 377.82 260.172C380.68 258.712 382.77 259.162 384.77 260.532C385.61 261.112 386.48 261.702 387.19 262.352C388.53 263.582 389.89 263.342 391.33 262.832C394.41 261.752 396.74 259.752 399.13 257.842C399.63 257.442 399.66 256.952 399.5 256.582C397.94 253.072 400.66 251.122 403.04 249.062C403.26 248.872 403.52 248.632 403.83 248.502C406.2 247.552 407.28 246.052 407.44 243.662C407.52 242.432 408.85 241.202 409.79 240.082C411.63 237.882 410.1 232.712 406.3 231.942C403.31 231.332 400.31 230.892 397.27 230.572C396.16 230.452 395.08 230.252 393.99 230.022C391.6 229.502 390.27 228.282 389.6 226.102C388.99 224.132 388.13 222.212 387.84 220.162C387.58 218.322 388.61 217.002 390.29 215.972C388.25 214.702 386.02 214.492 383.95 213.882C381.25 213.082 378.24 212.692 377.16 209.772C376.93 209.152 376.16 209.012 375.35 209.022C373.92 209.042 372.48 208.892 371.05 208.872C369.96 208.852 368.99 208.502 368.2 207.942C366.42 206.682 365.35 204.962 364.48 203.122C363.82 201.732 363.98 200.552 365.31 199.522C366.29 198.762 367.33 198.052 368.16 197.182C371.23 194.012 369.05 190.542 365.7 189.722C363.45 189.172 361.22 188.572 358.88 187.992C355.72 190.952 353.67 194.522 351.56 198.082C350.74 199.452 349.95 200.862 348.74 202.052C345.23 205.492 340.66 206.782 335.62 207.252C329.83 207.792 323.99 207.512 318.21 208.132C317.57 208.202 316.97 208.332 316.37 208.502" fill="#1F1F1F"/>
<path d="M119.75 217.742C118.33 219.312 117.21 221.052 115.49 222.442C114.67 223.102 114.83 224.282 114.83 225.272C114.82 228.592 113.81 229.702 110.12 230.662C105.88 231.762 102.45 230.662 99.68 227.772C98.84 226.892 97.98 226.022 96.99 225.282C94.75 223.622 92.44 223.052 89.6 224.502C86.26 226.212 83.11 228.012 80.8 230.802C79.84 231.962 79.25 233.212 79.01 234.592C78.91 235.162 78.9 235.632 78.16 235.852C75.17 236.732 71.82 235.112 71.2 232.442C70.73 230.442 69.52 228.752 68.31 227.072C67.96 226.592 67.46 226.312 66.68 226.322C64.7 226.342 62.72 226.252 60.74 226.162C59.64 226.102 59 226.282 58.85 227.422C58.72 228.462 58.35 229.522 57.84 230.462C56.96 232.072 55.52 233.262 53.79 234.262C50.74 236.032 50.8 236.832 51.34 238.712C51.71 240.002 53.02 240.692 54.19 241.402C55.25 242.042 56.4 242.562 57.45 243.212C60.27 244.942 60.18 247.392 57.25 248.942C56.86 249.152 56.42 249.282 56.03 249.482C53.78 250.642 53.23 252.222 54.83 253.942C57.16 256.432 59.65 258.802 62.2 261.112C63.56 262.342 66.97 261.762 68.32 260.242C68.74 259.772 69.1 259.252 69.56 258.822C69.89 258.512 70.41 258.392 70.63 257.992C72.09 258.482 73.39 258.902 74.67 259.352C75.9 259.782 76.77 260.442 77.16 261.672C77.97 264.192 79.9 264.772 82.47 263.492C83.04 263.212 83.56 262.882 84.08 262.552C85.98 261.362 86.27 260.422 85.72 258.442C85.08 256.152 85.32 255.532 87.58 254.322C88.44 253.862 89.32 253.422 90.24 253.072C92.64 252.162 94.92 251.212 96.42 249.142C97.51 247.642 99.49 246.842 100.92 245.562C101.99 244.602 102.51 243.712 102.4 242.302C102.32 241.182 101.45 239.582 103.36 238.932C104.85 238.432 105.9 239.492 107.04 240.142C109.81 241.752 112.08 243.842 114.41 245.892C115.7 247.032 115.75 248.652 116.52 250.032C118.39 250.572 120.54 249.722 122.59 250.622C121.34 252.372 122.27 253.662 123.43 254.852C125.46 256.932 128.15 258.192 131.01 259.142C134.64 260.362 137.93 258.922 141.34 258.022C140.58 255.832 140.62 253.732 141.09 251.562C133.77 249.302 131.25 243.782 129.19 237.992C128.83 236.972 128.72 235.842 128.47 234.782C128.07 233.112 128.84 231.782 129.62 230.492C130.13 229.652 130.69 228.812 131.2 227.952C133.02 224.922 132.06 222.362 128.54 220.972C125.7 219.852 122.81 218.812 119.94 217.732" fill="#1F1F1F"/>
<path d="M338.12 64.4527C340.49 60.8327 339.29 57.1927 335.05 55.1227C333.36 54.3027 331.39 53.8527 330.14 52.4227C329.6 51.8127 328.95 51.1627 329.49 50.3127C332.31 49.9427 335.12 49.6127 337.91 49.1927C340.86 48.7427 341.63 47.6227 341 45.0727C340.47 42.9127 339.51 40.8827 338.76 38.7927C338.03 36.7627 338 34.6327 338.14 32.5227C338.24 30.9727 337.94 29.6627 336.3 28.7327C335.68 28.3727 335.03 27.8827 334.73 27.1727C335.49 25.6727 337.14 25.0627 338.37 24.1327C342.54 20.9627 340.86 16.7227 337.3 14.5927C335.29 13.3927 333.23 14.2027 331.4 14.8427C330.16 15.2827 329.09 15.3627 327.89 15.1427C327.4 13.9527 327.64 12.9127 328.71 12.0827C329.92 11.1627 330.87 10.1327 330.11 8.67272C329.34 7.19272 327.64 6.81272 326.03 6.73272C323.98 6.63272 321.77 6.13272 320.41 8.44272C319.8 9.47272 317.97 9.30272 316.61 9.19272C313.83 8.96272 313.79 8.92272 313.14 11.1827C312.64 12.9127 310.82 13.3827 309.44 13.4127C306.73 13.4727 304.64 14.4927 302.45 15.6227C301.39 16.1627 300.32 17.2027 298.79 16.5627C297.84 18.2927 297.24 20.0127 298.13 21.9627C298.45 22.6627 298.19 23.5227 297.78 24.2827C296.12 27.3827 294.73 30.6127 292.78 33.5627C291.06 36.1627 291.67 38.2527 293.47 40.4127C296.12 43.5827 298.79 46.7527 300.43 50.4527C302.82 55.8127 303.88 61.3827 303.68 67.1327C303.63 68.5927 302.86 69.9427 301.84 71.0627C300.05 73.0227 297.27 72.8327 295.74 70.7127C295.27 70.0627 295 69.3027 294.57 68.4627C291.53 70.0127 290.12 72.5527 289.17 75.3827C288.63 76.9627 288.37 78.5927 288.17 80.2227C288.09 80.8927 288.09 81.4827 288.93 82.0627C290.44 83.1127 291.93 84.1927 293.31 85.3927C294.32 86.2627 294.64 87.1727 294.49 88.2927C294.36 89.2727 294.44 90.0227 295.72 90.4627C299.15 91.6627 300.8 94.4027 302.68 96.9027C304.23 98.9527 306.27 99.7827 309.04 99.2327C311.49 98.7527 313.95 98.2427 316.41 99.2227C317.19 99.5327 317.74 98.9027 318.22 98.6427C322.37 96.4427 326.44 94.1327 330.54 91.8727C332 91.0627 333.33 90.9627 334.88 92.0027C336.35 92.9827 337.9 93.8927 339.34 94.9227C341.45 96.4327 342.45 96.5727 344.65 95.2427C345.61 94.6627 346.62 94.1127 347.54 93.4827C348.42 92.8827 349.31 92.2827 350.2 91.6927C346.9 89.3027 346.85 87.3527 350.22 85.0827C351.74 84.0527 353.53 83.3327 355.11 82.3627C359.39 79.7327 360.32 79.3927 358.34 74.1427C357.48 71.8427 356.69 69.4227 354.52 67.6627C353.62 66.9327 352.68 66.5027 351.43 66.5927C350.36 66.6627 349.34 66.5927 348.35 66.0827C346.24 65.0227 344.02 65.5927 341.8 65.8527C340.49 66.0027 339.01 66.0527 338.32 64.6327" fill="#1F1F1F"/>
<path d="M129.18 178.472C128.22 177.872 127.36 177.052 126.3 176.722C122.51 175.552 119.82 173.082 117.15 170.722C113.12 167.152 108.49 164.492 103.39 162.312C101.37 161.452 99.4 160.452 97.81 158.962C97.21 158.392 97.05 157.862 97 157.142C96.84 155.232 96.36 153.382 95.63 151.572C95.3 150.762 94.86 150.552 93.95 150.492C90.57 150.272 87.51 149.392 85.13 147.112C82.79 144.862 79.86 143.492 76.55 142.582C75.33 142.242 74.26 141.612 73.38 140.522C71.5 138.192 68.44 136.872 66.08 134.912C62.05 131.562 57.25 129.112 52.73 126.352C50.81 125.182 49.62 123.552 48.11 122.142C46.98 121.092 45.94 120.002 44.61 119.102C41.99 117.332 38.96 117.952 37.17 120.542C36.04 122.172 36.58 123.922 36.26 125.592C36.15 126.162 36.33 126.892 36.4 127.552C36.54 128.832 37.01 129.902 38.65 130.252C39.15 130.362 39.64 130.552 40.08 130.782C41.72 131.642 41.92 132.462 40.69 133.632C39.45 134.812 38.29 136.182 36.77 136.982C34.45 138.202 33.5 140.072 32.76 142.082C32.11 143.822 31.26 145.432 30.05 147.052C26.93 145.862 24.56 146.502 22.62 149.022C21.74 150.162 20.1 150.872 18.8 151.752C17.65 152.532 17.29 153.342 17.93 154.642C18.68 156.152 18.26 156.622 16.34 157.132C15.45 157.372 14.51 157.512 13.69 157.872C11.72 158.722 11.12 160.402 12.27 162.142C13.33 163.742 14.44 165.292 14.79 167.352H8.03C7.89 168.552 7.63 169.572 9.04 170.192C7.96 170.722 7.08 171.252 5.68 170.992C2.91 170.462 2.29 170.802 0 173.072C4.31 176.162 8.53 179.322 13.68 181.342C14.43 181.642 15.26 181.852 15.92 182.252C17.67 183.332 19.6 183.642 21.67 183.492C23.86 183.332 25.44 184.112 26.84 185.612C28.12 186.982 29.31 188.412 30.84 189.642C32.63 191.082 34.46 191.122 36.41 190.462C39.66 189.362 42.77 187.912 46.07 186.942C50.35 185.692 54.43 186.552 58.11 188.722C58.87 189.172 59.63 189.652 60.49 190.242C61.9 188.642 62.77 186.992 62.89 184.922C63.12 180.832 65.14 180.122 67.77 180.212C68.41 180.232 68.82 180.602 69.4 180.642C69.62 180.652 69.83 180.962 70.01 181.152C71.37 182.532 73.5 183.452 74.03 185.292C74.45 186.762 72.81 187.882 72.25 189.222C71.68 190.582 71.72 191.832 73.08 192.802C77.04 195.612 79.38 199.232 80.48 203.562C80.89 205.162 82.76 205.262 84.15 205.682C85.66 206.142 87.27 206.352 88.76 206.652C89.56 206.252 89.55 205.532 89.86 204.992C91.09 202.832 92.49 202.102 95.2 202.512C96.57 202.712 97.91 203.042 99.41 202.662C98.78 201.082 98.92 199.552 100.55 198.572C102.78 197.232 102.62 195.412 102.15 193.522C101.18 189.682 100.08 185.872 99.11 182.042C98.39 179.192 100.93 176.872 104.21 177.402C106.96 177.842 109.57 178.742 111.97 179.932C115.46 181.672 119.27 182.532 123.06 183.452C125.54 184.062 126.53 183.512 127.99 181.332C128.56 180.482 128.98 179.622 129 178.632" fill="#1F1F1F"/>
<path d="M222.06 222.943C221.65 224.853 221.41 226.813 220.79 228.673C219.95 231.223 220.08 232.153 224.11 233.513C225.3 233.913 226.56 234.123 227.79 234.423C230.1 234.983 230.35 235.353 229.42 237.283C228.33 239.543 226.76 241.533 224.93 243.383C224.64 243.673 224.19 243.843 224.08 244.283C224.77 246.963 225.55 249.643 226.12 252.343C226.61 254.643 226.78 256.993 226.34 259.333C226.11 260.553 225.56 261.293 223.92 261.753C220.74 262.633 217.72 262.263 214.68 261.633C213.18 261.323 211.72 260.923 210.16 260.953C209.7 260.953 209.21 261.023 208.93 260.593C207.84 258.913 206.09 257.643 205.03 255.933C204.32 254.783 204.24 253.533 204.47 252.353C204.87 250.263 205.14 248.163 205.5 246.073C205.6 245.463 205.68 244.853 205.63 244.273C205.52 243.113 205.39 241.853 203.81 241.413C202.33 241.003 200.94 241.093 199.7 242.103C198.67 242.943 197.94 244.423 196.44 244.353C195.32 244.303 194.21 243.423 193.16 242.823C191.4 241.823 189.68 241.863 187.81 242.633C186.65 243.113 185.39 243.513 184.13 243.693C182.34 243.953 180.54 243.743 179.23 242.463C177.2 240.483 174.75 239.903 171.84 240.493C170.97 240.673 170.07 240.813 169.18 240.843C168 240.883 167.46 241.133 167.92 242.303C168.22 243.083 167.67 243.893 167.1 244.413C165.64 245.763 164.02 247.293 161.81 247.253C156.73 247.143 152.17 249.153 147.26 249.633C146.78 249.683 146.27 249.723 145.78 249.433C147.37 246.733 149.38 244.113 152.27 242.603C154.39 241.493 156.11 240.303 157.82 238.803C158.7 238.023 160.71 238.093 162.22 238.033C163.73 237.973 164.12 237.453 164.1 236.203C164.08 234.773 164.47 233.393 165.26 232.063C166.22 230.443 166.94 228.703 165.9 226.883C165.2 225.663 165.52 224.463 165.93 223.293C166.68 221.183 167.57 219.113 168.49 216.783C171.93 217.193 175.41 216.203 179.02 216.603C183.02 217.053 186.84 216.103 190.48 214.653C191.17 214.383 191.79 213.953 192.64 213.753C195.29 216.593 198.67 218.813 201.77 221.303C203.64 222.793 205.93 222.203 207.65 221.403C210.23 220.213 212.85 220.503 215.49 220.423C216.03 220.403 216.47 220.673 216.94 220.933C218.52 221.783 220.19 222.483 222.05 222.753" fill="#1F1F1F"/>
<path d="M423.79 151.323C423.77 151.983 423.68 152.913 424.42 153.063C426.66 153.513 426.87 155.293 426.96 156.533C427.21 159.963 428.91 162.823 430.78 165.663C431.56 166.853 431.82 168.103 432.03 169.433C432.59 172.953 432.97 176.473 433.26 180.013C433.41 181.843 432.52 182.963 430.76 183.583C428.18 184.483 425.55 184.993 422.77 183.993C420.72 183.253 418.56 182.743 416.43 182.133C413.94 183.773 412.17 185.983 410.13 187.953C409.53 188.523 408.99 189.073 408.28 189.573C406.49 190.813 404.94 192.303 403.75 194.023C402.97 195.153 402.71 196.223 403.47 197.623C405.36 201.073 403.98 204.573 400.25 206.563C399.96 206.723 399.84 207.023 399.43 207.113C396.53 207.753 395.86 209.613 395.93 211.943C395.97 213.093 395.19 213.883 394 214.513C391.14 212.853 387.62 212.593 384.45 211.463C382.91 210.913 381.59 210.393 381.21 208.893C380.9 207.683 379.76 207.493 378.73 207.313C377.6 207.113 376.42 207.113 375.26 207.113C371.94 207.093 368.94 204.803 368.51 201.903C368.43 201.343 368.43 200.713 369.13 200.493C370.32 200.103 370.9 199.163 371.78 198.493C374.04 196.783 374.3 194.503 373.57 192.233C372.8 189.833 370.73 188.453 367.9 187.893C366.07 187.533 364.23 187.133 362.44 186.223C363.5 184.163 364.72 182.153 365.3 179.863C366.08 176.783 366.63 173.803 364.82 170.893C363.76 169.193 365.11 167.543 364.86 165.863C364.83 165.673 365.38 165.613 365.63 165.483C369.59 163.413 373.54 161.333 378.14 160.483C380.03 160.133 381.66 159.373 383.08 158.173C384.7 156.803 386.58 155.963 389 155.953C391.54 155.933 393.8 155.233 395.83 153.563C397.98 151.813 400.93 150.943 403.37 149.413C406.14 147.663 409.17 146.223 412.35 145.063C413.41 144.683 414.47 144.343 415.63 144.353C416.77 144.363 417.67 144.023 418.52 143.293C421.4 140.793 423.6 141.243 425.93 144.323C427.67 146.633 426.19 148.283 425.04 150.083C424.77 150.513 424.24 150.813 423.83 151.173" fill="#1F1F1F"/>
<path d="M314.36 162.003C313.77 163.933 312.68 165.743 311.22 167.153C308.81 169.483 308.34 172.243 308.04 175.103C307.83 177.123 307.82 179.163 307.82 181.193C307.82 183.273 307.16 185.013 304.93 186.033C303.26 186.803 302.42 187.943 302.46 189.623C302.5 191.163 301.22 192.133 300.15 193.263C298.79 192.253 297.56 191.103 296.16 190.123C295.01 189.323 293.77 188.783 292.43 188.583C287.5 187.843 282.98 186.003 278.29 184.643C274.97 183.683 271.77 184.253 268.88 186.033C267.21 187.063 265.92 188.503 264.22 189.423C262.74 188.483 261.52 187.483 260.82 185.883C260.19 184.443 258.27 184.753 256.8 184.603C255.89 184.513 254.87 184.843 254.06 183.973C255.4 181.513 253.75 179.503 252.57 177.373C253.8 175.353 256.07 174.083 257.88 172.443C259.52 170.943 260.47 169.153 261.52 167.383C262.37 165.953 263.09 164.463 265.42 164.483C266.05 164.483 266.45 163.973 266.47 163.263C266.51 161.933 267.26 160.923 268.7 160.403C270.38 159.793 270.52 158.723 270.15 157.343C269.65 155.493 269.36 153.583 268.07 151.973C267.71 151.513 267.91 151.133 268.07 150.733C273.44 151.483 278.14 150.313 282.22 147.143C284.15 145.643 284.22 145.683 286.1 147.313C289.67 150.413 292.69 153.963 296.33 157.003C297.43 157.923 298.63 158.713 299.84 159.483C302.26 161.023 304.93 161.843 308.02 161.693C310.12 161.583 312.26 161.453 314.37 161.833" fill="#1F1F1F"/>
<path d="M190.22 212.192C186.83 214.022 183.23 214.942 179.16 214.752C175.15 214.572 171.11 214.822 167.08 214.872C166.33 214.872 165.78 215.182 165.67 215.782C165.12 218.642 163.7 221.272 162.83 224.042C162.57 224.862 162.34 225.792 162.95 226.742C163.84 228.132 163.66 229.622 162.79 231.032C161.82 232.592 161.65 234.342 161.31 236.082C160.74 236.502 160.01 236.412 159.3 236.412C158.29 236.412 157.06 236.442 156.49 237.002C154.89 238.552 152.61 239.252 150.96 240.602C149.07 242.152 146.91 243.492 145.53 245.542C144.48 247.102 143.19 248.582 141.54 249.752C136.84 248.152 134.47 244.852 132.66 241.082C131.96 239.622 131.42 238.142 131.01 236.602C130.44 234.432 130.5 232.572 132.17 230.612C133.2 229.402 134.16 227.882 134.32 226.192C134.67 222.642 132.16 220.102 128.99 219.022C126.87 218.302 124.7 217.692 122.67 216.812C121.97 216.512 121.09 216.252 120.59 215.562C121.52 213.412 122.26 211.162 123.23 208.972C124.65 205.742 126.9 203.032 130.26 201.332C133.18 199.862 133.57 196.112 132.46 193.922C131.78 192.562 130.91 191.322 129.61 190.322C128.89 189.772 128.15 189.232 127.52 188.562C125.85 186.752 125.65 186.172 127.59 184.822C129.55 183.462 130.16 181.512 131.28 179.702C133.9 181.662 136.86 183.242 138.67 186.002C139.77 187.682 141.69 188.482 144.14 188.232C145.73 188.072 147.53 188.502 148.59 189.482C151.71 192.392 155.82 192.892 159.91 193.552C163.64 194.152 167.41 194.432 171.18 194.812C174.47 195.142 177.09 196.192 178.19 199.282C178.74 200.832 179.95 202.032 181.81 202.732C184.34 203.682 186.05 205.412 187.39 207.522C188.34 209.022 189.35 210.492 190.22 212.022" fill="#1F1F1F"/>
<path d="M359.01 161.102C358.46 163.142 358.69 164.982 359.97 166.872C361.14 168.592 359.99 170.542 359.84 172.402C359.59 175.492 357.9 178.122 355.86 180.422C352.55 184.152 350 188.262 347.37 192.332C345.88 194.642 343.7 195.952 341.32 197.492C337.94 199.672 334.42 199.172 330.94 199.422C325.35 199.822 319.71 199.762 314.16 200.602C313.39 200.722 313.06 200.492 312.5 200.222C308.84 198.522 305.47 196.402 301.78 194.682C303.17 193.002 304.79 191.502 304.57 189.252C304.53 188.802 305.02 188.262 305.56 188.012C309.69 186.102 310.05 182.732 310.06 179.212C310.06 177.592 310 175.982 310.26 174.372C310.57 172.472 310.81 170.592 312.29 168.982C315.15 165.862 316.75 162.092 318.85 158.592C320.26 156.242 321.65 153.892 323.78 151.972C327.28 148.832 329.85 148.512 334.21 150.732C335.14 151.202 336.09 151.642 336.9 152.312C337.91 153.132 338.94 153.232 340.18 152.362C342.67 150.632 345.32 149.072 347.9 147.452C349.49 148.892 349.94 151.432 348.73 153.032C348.03 153.952 347.34 154.882 346.54 155.762C344.73 157.752 345.22 159.262 347.95 160.582C350.74 161.932 353.75 161.832 356.75 161.452C357.43 161.362 358.05 160.922 358.8 160.942" fill="#1F1F1F"/>
<path d="M191.24 107.303C189.82 109.243 188.09 110.883 185.5 111.593C184.46 111.873 184.08 112.263 184.47 113.233C185.34 115.403 185.25 115.343 182.86 116.833C180.35 118.403 177.4 119.263 174.84 120.743C174.1 121.173 173.29 121.513 172.6 122.213C173.05 124.383 174.05 126.743 171.6 128.853C169.44 130.713 166.47 130.243 163.89 130.943C164.18 131.943 164.4 132.713 164.62 133.493C163.23 135.253 159.41 136.573 157.25 135.993C155.55 135.543 155.25 134.183 154.79 132.953C154.29 131.583 153.4 131.053 152.12 131.333C151.23 131.533 150.66 131.893 150.68 132.773C150.7 133.613 150.65 134.443 150.69 135.283C150.73 136.203 150.53 136.973 149.67 137.633C148.65 138.403 147.75 139.303 146.78 140.123C145.84 140.913 144.88 141.683 143.88 142.503C144.68 145.213 146.99 146.743 149.65 148.013C153.63 149.913 157.87 151.313 161.94 153.033C163.37 153.643 165 153.293 166.47 153.893C168.35 154.663 169.1 155.593 168.24 157.133C167.68 158.143 167.51 159.253 166.79 160.303C170.16 162.543 174.08 163.963 178.14 164.223C186.27 164.743 194.41 164.023 202.52 163.313C201.67 159.843 202.34 159.093 206.41 157.353C207.39 156.933 208.4 156.513 209.61 156.323C205.57 153.593 203.68 149.723 201.48 146.033C200.6 144.553 199.17 143.493 197.59 142.633C192.41 139.813 192.35 138.073 197.38 135.253C197.72 135.063 198.24 135.153 198.43 134.613C198.47 134.053 197.77 133.853 197.37 133.483C195.42 131.653 195.25 131.003 196.58 128.643C197.77 126.533 198.81 124.433 198.41 122.003C197.73 117.893 196.24 114.053 193.71 110.523C192.83 109.303 192.06 108.013 191.24 106.763" fill="#1F1F1F"/>
<path d="M309.24 109.992C307.34 110.542 305.9 111.672 304.54 112.872C302.66 114.532 300.65 115.772 297.77 115.782C295.97 115.782 294.57 116.412 294.19 118.412C293.91 119.882 292.66 121.032 290.6 121.142C289.56 121.202 288.55 121.602 287.52 121.822C286.31 122.092 285.44 122.722 285.29 123.802C284.87 126.922 282.68 128.852 279.73 130.242C278.04 131.042 276.92 132.302 275.61 133.462C272.82 135.922 270.28 138.622 267.02 140.642C266.33 141.072 266.42 141.562 266.43 142.102C266.44 143.852 266.28 145.592 265.89 147.382C268.7 150.222 275.1 149.152 277.87 147.632C279.42 146.782 280.69 145.542 282.22 144.642C283.3 144.012 284.43 143.912 285.71 144.762C289.04 146.962 291.54 149.832 294.27 152.522C297.35 155.562 300.54 158.562 305.16 159.622C308.39 160.362 311.83 159.772 315.18 159.862C315.86 159.882 315.97 159.472 316.24 158.982C317.8 156.152 319.55 153.402 321.77 150.922C322.39 150.222 322.48 149.542 322.58 148.752C322.86 146.422 323.41 144.082 323.12 141.762C322.76 138.902 321.16 136.372 319.26 134.062C317 131.322 314.91 128.612 314.49 125.092C314.36 124.022 313.23 123.042 312.52 122.042C310.65 119.402 310.85 118.052 313.33 115.932C314.04 115.332 314.97 115.032 315.61 114.342C316.76 113.112 316.82 111.672 316.82 110.032H309.44" fill="#1F1F1F"/>
<path d="M293.87 91.7022C296.43 92.8522 298.68 94.2122 299.85 96.7122C300.67 98.4422 302.3 99.6722 304.11 100.672C306.09 101.772 308.19 101.192 310.26 101.022C310.33 101.022 310.39 100.872 310.47 100.852C312.65 100.422 315.16 99.9322 316.73 101.452C318.58 103.252 318.88 105.662 317.48 108.192C315.32 108.192 312.99 108.302 310.67 108.162C308.39 108.022 306.59 108.832 304.95 110.002C303.83 110.802 302.73 111.662 301.71 112.542C300.54 113.562 299.21 113.822 297.76 113.912C295.02 114.092 292.88 114.902 292.23 117.512C291.97 118.582 291.39 119.302 289.98 119.322C289.37 119.332 288.77 119.592 288.14 119.692C285.4 120.132 283.43 121.332 283 123.962C282.57 126.632 280.16 127.892 277.87 129.132C276.42 129.922 275.3 130.922 274.19 132.022C271.43 134.752 268.58 137.412 265.3 139.642C263.64 138.962 262.35 137.972 260.93 137.192C259.22 136.252 257.73 136.542 256.2 137.252C255.25 137.692 254.46 138.372 253.51 138.832C252.52 139.312 251.51 139.522 250.64 138.502C249.88 137.612 249.76 136.762 250.67 135.992C252.18 134.702 251.51 133.082 251.36 131.682C251.26 130.742 249.74 130.622 248.84 131.172C247.76 131.822 247.03 131.452 246.14 130.972C244.98 130.352 245.63 129.472 245.8 128.822C246.03 127.982 246.43 127.192 246.35 126.302C246.17 124.102 243.86 122.622 241.68 123.672C238.73 125.092 236.11 124.742 233.22 123.652C231 122.822 228.58 122.412 226.48 121.282C224.65 120.292 224.39 119.632 225.25 118.042C225.99 116.672 227.13 115.802 228.72 115.132C231.58 113.932 232.25 112.432 230.72 110.192C229.76 108.772 229.7 107.522 230.42 106.222C231.34 104.572 230.94 103.002 230.14 101.562C228.47 98.5322 227.19 95.3122 224.86 92.5822C223.51 90.9922 223.06 89.0822 222.63 87.2022C222.3 85.7622 221.7 84.4722 220.33 83.6422C218.75 82.7022 218.06 81.3822 217.67 79.7822C219.21 78.8522 219.91 77.2622 221.19 76.1022C222.54 74.8922 224.09 73.8422 225.36 72.8722C226.44 72.8022 226.79 73.3622 227.08 73.7622C229.23 76.6922 232.54 78.0622 236.12 79.1322C238.5 79.8522 240.14 81.1622 240.89 83.4122C241.48 85.2022 243.14 86.5422 244.96 87.3222C248.83 88.9822 250.91 91.4122 250.94 95.2622C250.94 96.3822 251.67 97.4822 252.45 98.5222C253.33 99.7022 254.43 99.9922 255.79 99.9022C256.96 99.8222 258.11 99.5022 259.28 99.4022C260.04 99.3322 260.8 99.1822 261.22 100.252C261.49 100.942 262.38 101.602 262.92 102.282C264.51 104.262 266.74 104.532 269.1 104.172C270.18 104.012 271.07 104.202 271.52 104.792C272.84 106.512 274.7 106.522 276.93 106.312C276.66 103.482 279.26 102.322 281.38 100.792C282.71 99.8322 283.88 98.6822 285.08 97.5822C286.23 96.5222 287.58 95.7722 289.19 95.4522C290.76 95.1422 291.91 94.4822 292.48 93.1122C292.73 92.5022 293.06 91.9022 293.69 91.4922" fill="#1F1F1F"/>
<path d="M124.05 185.833C123.75 187.733 125.03 189.023 126.31 190.313C127.26 191.273 128.47 191.993 129.39 192.993C131.64 195.433 131.31 198.103 128.35 199.993C123.49 203.083 121.26 207.583 119.54 212.373C118.7 214.713 117.66 216.963 116.11 219.033C115.9 219.313 115.76 219.723 115.44 219.883C113.03 221.123 112.84 223.133 112.76 225.283C112.66 228.013 109.34 229.813 105.62 229.223C103.72 228.923 102.57 227.693 101.29 226.563C99.62 225.093 98.15 223.423 95.99 222.403C93.23 221.103 90.65 221.743 88.21 222.973C84.99 224.603 82.03 226.523 79.56 229.023C78.47 230.123 77.83 231.383 77.16 232.643C76.82 233.283 76.95 234.203 75.7 234.063C74.59 233.933 73.68 233.533 73.45 232.453C72.99 230.353 71.91 228.493 70.59 226.713C69.37 225.063 67.84 224.123 65.45 224.363C63.9 224.513 62.31 224.393 60.59 224.393C61.16 223.073 62.15 222.383 63.2 221.703C66.64 219.463 66.97 217.073 63.99 214.383C62.42 212.963 62.22 211.213 62.03 209.513C61.8 207.443 61.87 205.323 62.18 203.243C62.41 201.713 63.65 200.643 64.64 199.483C65.51 198.453 66.44 197.463 67.43 196.363C66.3 195.433 64.29 195.333 63.76 194.393C63.21 193.403 63.3 192.043 62.38 191.133C63.93 189.113 65.05 187.023 65.03 184.593C65.03 183.493 65.36 182.693 66.66 182.233C67.98 181.783 68.59 182.523 69.33 183.153C71.07 184.626 71.48 186.3 70.56 188.173C69.05 191.253 69.63 193.513 73.06 195.653C75.33 197.063 76.82 198.913 77.24 201.093C78.16 205.953 82 207.483 86.75 208.253C87.36 208.353 88.02 208.283 88.59 208.453C90.04 208.893 90.65 208.513 91.11 207.193C92.1 204.323 92.42 204.273 95.98 204.653C96.99 204.763 98.04 204.753 99.05 204.653C101.42 204.423 102.33 203.223 101.46 201.283C101.07 200.403 101.78 199.913 102.16 199.703C105.05 198.093 104.7 195.803 104.19 193.373C103.26 188.973 101.99 184.653 100.8 180.363C103.22 178.513 105.64 179.603 107.84 180.333C111.32 181.503 114.47 183.323 118.09 184.273C120.06 184.793 122.12 185.033 124.05 185.663" fill="#1F1F1F"/>
<path d="M286.09 79.1526C286.84 75.6726 287.7 72.2326 290.17 69.2826C291.4 67.8126 292.97 66.8426 294.9 66.2426C296.27 65.8126 296.87 66.0926 296.78 67.5026C296.7 68.7526 297.32 69.8326 298.54 70.6526C300.93 69.6626 301.74 67.9926 301.65 65.8826C301.29 57.4226 299.05 49.5126 292.85 42.7426C291.46 41.2226 290.27 39.5826 289.59 37.7226C289.24 36.7626 289.34 35.8626 289.92 34.8326C291.9 31.3726 293.65 27.8026 295.51 24.2826C295.98 23.3926 296.19 22.6226 295.77 21.5726C294.93 19.4426 296.13 17.4726 296.9 15.4826C297.24 14.5926 298.07 13.5726 296.94 12.6226C295.91 11.7626 294.8 12.1026 293.66 12.4326C290.91 13.2426 290.26 13.0326 288.34 10.8226C287.51 9.86264 285.37 9.70264 283.62 10.2626C281.88 10.8226 280.54 11.9126 278.93 12.6326C277.16 13.4226 276.61 13.3426 275.43 11.9026C273.88 10.0126 273.7 7.77264 273.19 5.62264C272.98 4.73264 272.81 3.82264 272.59 2.74264C270.25 2.81264 268.08 3.62264 265.62 3.85264C264.79 2.38264 263.18 1.46264 261.71 0.422641C261.02 -0.0573589 260.12 -0.157359 259.48 0.272641C257.93 1.31264 256.1 2.01264 254.73 3.28264C253 4.88264 252.87 5.64264 254.12 7.77264C255.19 9.57264 255.04 10.2426 252.66 10.9426C250.74 11.5126 250.05 12.2726 250.38 14.0526C250.64 15.4526 250.38 16.9126 250.45 18.3526C250.51 19.3926 250.13 20.1226 248.99 20.4426C248.96 20.9426 249.21 21.3226 249.22 21.7626C249.28 24.4726 251.37 25.8926 253.93 26.5326C255.98 27.0426 256.55 28.0826 256.79 29.6526C257 31.0526 257.46 32.2226 259.42 32.5926C260.24 32.7426 261.12 33.2726 261.92 33.7526C263.24 34.5426 263.55 35.4926 263.36 36.8326C262.85 40.4126 260.88 43.4926 259.23 46.6926C258.21 48.6826 257.14 50.6526 256.57 52.7926C255.72 55.9726 256.29 58.7026 261.29 59.4226C264.93 59.9426 268.17 61.1126 270.73 63.5426C271.18 63.9726 271.78 64.3226 272.3 64.6926C274.12 65.9526 275.68 67.3826 276.5 69.4626C278.16 73.6826 282.01 76.4726 285.66 79.3526C285.84 79.4926 286.13 79.5926 286.08 79.8826" fill="#1F1F1F"/>
<path d="M256.07 205.553C257.57 207.733 259.07 209.893 260.96 211.853C262.1 213.043 262.38 214.663 262.37 216.133C262.35 220.683 264.23 224.833 266.21 228.823C268.98 234.413 271.25 240.143 273.5 245.893C274.53 248.533 276.2 250.813 278.79 252.553C280.17 253.483 281.72 254.103 283.32 254.073C285.19 254.033 286.11 255.003 287.22 255.933C288.24 256.783 288.3 257.853 288.25 258.983C288.2 260.053 288.23 261.133 288.25 262.213C288.28 264.683 288.8 265.383 291.53 265.953C293.5 266.363 294.74 267.183 294.8 269.033C294.88 271.453 297.25 271.213 298.91 271.683C299.86 271.953 300.94 271.873 301.97 271.893C305.903 271.986 309.247 270.853 312 268.493C313.76 266.983 315.49 265.443 317.21 263.943C318.31 264.163 318.74 264.933 319.37 265.463C320.7 266.583 322.43 267.353 324.66 265.933C326.73 264.613 328.89 264.983 331.06 264.933C332.15 264.913 332.9 265.383 332.71 266.523C332.63 266.993 332.72 267.483 332.69 267.953C332.46 271.413 334.3 274.083 337.86 275.003C341.19 275.863 341.05 278.323 342.32 280.153C342.38 280.243 342.39 280.433 342.32 280.503C340.39 282.393 340.23 285.223 337.64 286.813C334.2 288.923 334.03 289.873 335.77 293.053C336.86 295.043 336.53 295.803 334.13 297.003C331.45 298.343 328.45 298.333 325.52 298.603C323.84 298.763 322.16 298.923 320.61 299.523C318.49 300.343 318.24 301.293 319.58 302.913C321.49 305.233 321.53 305.483 319.55 307.913C319.1 308.463 318.65 309.033 318.19 309.573C317.03 310.943 317.28 311.963 318.76 313.313C317.36 315.083 314.26 316.133 311.84 315.033C308.43 313.493 305.08 313.043 301.34 313.633C297.24 314.283 294.67 312.253 292.74 309.363C292.29 308.693 291.79 308.043 291.31 307.393C289.76 305.293 287.62 304.463 284.75 304.863C281.74 305.283 280.99 304.703 280.89 302.013C280.85 301.073 280.57 300.263 280.03 299.503C278.82 297.793 278.87 295.853 280.47 294.503C282.07 293.153 283.87 291.983 285.68 290.663C284.84 289.943 283.92 289.403 282.92 288.903C281.22 288.053 280.53 285.903 281.26 284.263C282.03 282.533 282.44 280.873 280.25 279.583C279.13 278.933 278.72 277.883 278.82 276.733C278.87 276.143 278.61 275.583 278.35 275.143C277.76 274.143 277.1 272.963 275.53 272.993C273.91 273.023 273.86 274.343 273.49 275.303C272.24 278.583 270.48 281.603 266.9 283.343C260.3 286.553 250.37 284.923 249.48 276.203C249.28 274.203 247.27 273.003 246.21 271.373C245.81 270.763 245.16 270.263 244.54 269.643C239.71 271.793 238.33 276.323 234.67 279.143C232.81 277.783 232.83 275.913 232.94 274.053C232.98 273.383 233.03 272.653 232.1 272.653C230.79 272.653 230.61 272.093 230.66 271.183C230.71 270.143 230.28 269.313 229.49 268.463C228.16 267.033 227.13 265.383 225.9 263.723C229.26 261.253 228.7 257.783 228.58 254.513C228.48 251.713 227.61 248.973 226.74 246.273C226.4 245.203 226.56 244.563 227.37 243.723C229.33 241.713 231.04 239.503 231.89 236.933C232.53 235.003 232.06 233.903 229.67 232.973C228.21 232.403 226.62 232.403 225.15 231.923C222.53 231.083 222.23 230.633 222.9 228.333C223.25 227.143 223.8 225.953 223.87 224.743C223.98 222.993 225 222.673 226.77 222.343C230.76 221.603 234.61 220.373 238.46 219.173C241.27 218.303 244.2 217.783 246.89 216.533C249.16 215.483 249.81 213.603 250.75 211.823C252 209.443 253.41 207.163 255.88 205.553" fill="#1F1F1F"/>
<path d="M251.47 175.453C255 172.503 258.56 169.573 260.27 165.403C260.47 164.913 260.95 164.673 261.31 164.333C262.77 162.963 264.96 162.243 265.49 160.043C265.71 159.143 267.62 159.213 268.26 158.153C267.51 156.013 267.34 153.593 265.36 151.753C265.43 151.193 266.08 150.783 266 150.163C266.07 150.043 265.99 149.943 265.8 149.803C264.35 148.753 262.81 149.423 261.29 149.623C259.09 149.923 257.01 150.613 254.95 151.273C251.2 152.473 247.31 152.213 243.46 152.483C242.17 152.573 240.86 152.593 239.57 152.673C233.66 153.023 227.96 152.343 222.34 150.573C218.39 149.323 213.61 151.203 211.71 154.283C211.35 154.873 211.48 155.603 211.76 156.053C212.6 157.443 212.07 157.823 210.49 158.093C209 158.343 207.55 158.823 206.16 159.443C204.56 160.153 204.13 161.003 204.5 162.543C205.03 164.773 205.85 166.873 207.08 168.713C212.85 167.093 218.47 165.333 224.62 166.113C228.41 166.583 231.7 167.993 234.43 170.263C237.5 172.813 240.87 173.633 244.91 172.403C246.56 171.903 248.05 172.253 249.21 173.463C249.86 174.143 250.78 174.623 251.26 175.433" fill="#1F1F1F"/>
<path d="M201.28 84.3524C203.84 83.4224 206.61 83.0124 209.07 81.8524C210.43 81.2124 211.83 80.6524 212.96 79.6924C213.64 80.4924 214.64 80.4224 215.61 80.4024C215.87 81.3724 216.49 82.2324 216.48 83.2724C216.48 83.5324 216.39 84.1024 217.24 84.2124C219.61 84.5124 220.23 86.3124 220.68 87.9524C221.38 90.4924 222.29 92.8024 224.11 94.9924C226.22 97.5224 227.28 100.642 228.68 103.552C229.05 104.332 228.72 105.312 228.27 106.032C227.29 107.622 227.37 109.112 228.54 110.512C228.97 111.032 228.93 111.652 229.43 112.062C228.72 113.182 227.64 113.742 226.46 114.092C225 114.522 224.07 115.272 223.79 116.622C223.74 116.872 223.53 117.102 223.39 117.342C221.91 119.932 222.31 121.382 225.25 122.692C229.03 124.382 233 125.702 237.12 126.662C238.71 127.032 240.01 126.172 241.43 125.812C242.12 125.642 242.87 125.012 243.67 125.592C244.55 126.232 244.15 126.972 243.89 127.742C242.62 131.462 244.11 133.262 248.59 133.462C248.96 133.482 249.26 133.482 249.44 133.972C248.27 135.232 247.63 136.712 248.16 138.492C248.75 140.492 250.97 141.732 253.08 140.972C254.51 140.452 255.83 139.692 257.19 139.022C258.34 138.452 259.35 138.222 260.5 139.172C261.35 139.872 262.52 140.272 263.53 140.822C263.83 140.982 264.1 141.172 264.16 141.532C264.47 143.542 264.36 145.472 263.15 147.282C262.92 147.622 262.71 147.412 262.51 147.432C259.81 147.702 257.24 148.442 254.75 149.282C252 150.212 249.2 150.472 246.33 150.482C243.25 150.492 240.18 150.642 237.11 150.842C232.78 151.132 228.64 150.532 224.6 149.072C220.69 147.662 216.92 148.132 213.33 150.102C211.7 150.992 211.05 152.652 209.37 153.662C206.8 151.222 205.13 148.342 203.54 145.452C201.86 142.392 198.07 141.252 195.47 138.732C197.08 137.732 198.38 136.982 199.6 136.132C201.22 135.012 201.24 134.382 199.81 133.092C197.59 131.082 197.44 131.002 199.03 128.632C201.49 124.952 200.62 121.212 199.56 117.502C198.51 113.822 196.37 110.542 193.89 107.442C193.02 106.362 192.59 105.202 193.44 103.852C194.42 102.292 194.31 100.692 192.83 99.4024C191.76 98.4724 192.12 97.6224 192.73 96.5224C194.12 96.7824 194.69 96.1424 194.94 94.9024C195.3 93.0624 196.12 91.4124 197.73 90.0224C199.39 88.5924 200.26 86.6624 200.84 84.6824" fill="#1F1F1F"/>
<path d="M207.37 71.1122C206.31 70.2722 205.09 69.4522 204.58 68.2822C204.19 67.3922 203.66 66.6022 203.06 65.8622L201.65 62.8622L200.26 58.0822C200.26 58.0822 199.26 55.0822 198.26 54.0822C197.26 53.0822 196.26 53.0822 196.26 53.0822C193.08 53.1022 190.42 52.3322 187.92 50.6822C185.41 49.0222 181.48 49.4322 179.98 51.1822C179.21 52.0722 179.13 53.2022 178.99 54.2322C178.51 57.7722 176.08 59.5422 172.4 60.5422C169.89 61.2222 167.4 61.9922 165 62.9922C162.96 63.8522 160.65 63.9222 158.45 64.2322C154.73 64.7622 152.42 66.6722 151.33 69.6522C150.36 72.3122 149.61 74.9922 147.45 77.2122C146.72 77.9622 146.23 79.1022 146.98 80.2322C147.11 80.4322 147.08 80.7122 147.16 80.9522C147.71 82.6722 148.58 84.4222 148.52 86.1422C148.44 88.2122 146.26 89.5522 144.92 91.1522C141.62 95.1022 140.61 99.5022 141.48 104.252C142.19 108.182 143.16 112.062 144.34 115.912C144.8 117.412 144.48 118.732 143.29 119.852C142.23 120.852 141.29 121.832 141.02 123.262C140.68 125.062 132.66 129.092 130.19 128.642C129.49 128.512 128.82 128.302 127.95 128.092C127.19 128.982 126.37 129.942 125.45 131.032C129.73 135.222 134.39 138.762 140.44 140.652C141.5 140.982 142.55 141.092 143.55 140.172C144.27 139.522 145.13 138.922 145.98 138.362C148.13 136.932 148.98 135.132 148.65 132.782C148.34 130.572 148.96 129.982 151.91 129.422C154.62 128.912 156.22 130.302 156.65 131.882C156.78 132.362 156.68 132.892 157.02 133.322C158.29 134.952 159.85 133.912 161.32 133.682L163.65 128.302C164.06 128.232 164.56 128.192 165.17 128.172C166.33 128.142 167.46 127.692 168.56 127.212C170.24 126.472 171.33 124.932 170.97 123.662C170.357 121.522 171.027 119.872 172.98 118.712C173.63 118.332 174.31 117.992 174.99 117.652C177.5 116.402 180.21 115.452 182.47 113.862C181.42 111.252 181.51 110.112 183.25 109.562C185.82 108.752 187.64 107.312 189.3 105.472C191.25 103.312 191.67 101.252 190.04 99.0922C189.77 98.7422 189.46 98.4022 189.27 98.0122C188.53 96.4622 189.27 94.3722 190.88 94.2122C192.08 94.0922 192.44 93.6822 192.67 92.8822C192.88 92.1522 193.43 91.5422 193.5 90.7622C193.63 89.2722 194.49 88.4022 196.09 88.6122C197.41 85.4822 198.24 82.4822 202.51 81.4922C205.72 80.7522 208.92 79.6922 211.26 77.6722C210.99 74.9022 209.55 72.8422 207.36 71.1222L207.37 71.1122Z" fill="#1F1F1F"/>
<path d="M231.57 278.792C230.99 277.682 230.66 276.552 230.67 275.342C230.67 274.892 230.75 274.582 229.97 274.382C228.92 274.102 228.67 273.062 228.65 272.172C228.62 270.842 228.16 269.752 227.21 268.712C226.01 267.382 224.83 266.022 224.02 264.462C223.85 264.132 223.52 263.792 223.81 263.382L222.99 263.782C222.2 263.872 221.44 264.082 220.64 264.152C218.98 264.292 217.39 264.002 215.83 263.712C213.65 263.302 211.52 262.742 209.26 262.842C208.49 262.872 207.94 262.512 207.53 262.022C206.12 260.342 204.69 258.672 203.25 257.022C202.2 255.822 202 254.252 202.23 252.792C202.54 250.822 202.88 248.862 203.26 246.902C203.38 246.272 203.41 245.622 203.57 244.982C203.87 243.832 203.07 242.712 201.97 242.892C201.54 242.962 201.24 243.162 200.96 243.372C200.47 243.752 200.09 244.232 199.61 244.622C197.06 246.712 196.35 246.392 193.78 245.162C193.09 244.832 192.51 244.332 191.82 244.002C190.53 243.392 189.34 243.902 188.13 244.342C186.46 244.952 184.78 245.492 182.91 245.462C181.07 245.432 179.51 244.912 178.2 243.802C177.19 242.942 176.14 242.202 174.72 241.872C173.96 241.702 173.35 241.992 172.66 242.022C171.87 242.052 171.09 242.302 170.26 242.462C170.05 243.842 169.36 245.042 168.15 245.982C166.34 247.402 164.4 248.642 162 249.142C160.82 249.382 159.6 249.772 158.42 249.142C158.01 248.932 157.68 249.202 157.4 249.272C154.21 250.152 150.96 250.792 147.66 251.272C146.42 251.452 145.16 251.172 143.94 251.642C143.62 253.222 143.33 254.842 143.74 256.502C143.88 257.072 144.16 257.232 144.78 257.232C146.87 257.262 148.92 257.502 150.82 258.312C152.34 258.962 153.73 259.772 154.82 260.942C155.69 261.862 155.69 263.532 154.82 264.652C154.16 265.512 153.34 266.252 152.36 266.822C151.74 267.182 151.71 267.382 152.11 268.032C153.21 269.832 154.1 271.742 155.01 273.632C155.29 274.202 155.57 274.792 155.88 275.332C156.97 277.242 157.1 279.262 157.08 281.332C157.06 283.332 157.96 284.082 159.94 284.102C161.02 284.102 162.12 284.222 163.22 284.222C163.56 284.222 163.89 284.192 164.26 284.082C165.51 283.712 166.49 284.462 166.5 285.682C166.5 286.712 166.45 287.742 166.69 288.752C166.74 288.962 166.8 289.182 166.88 289.392C167.03 289.792 167.24 290.152 167.47 290.502L168.02 291.722C168.02 291.722 168.02 291.802 168.02 291.842L168.06 291.822L168.58 292.972L174.9 298.732C176.12 299.862 177.32 301.012 178.6 302.082C179.99 303.242 181.69 303.692 183.61 303.852C186.52 304.092 189.44 303.782 192.32 304.042C194.1 304.202 195.88 304.132 197.66 304.302C199.44 304.472 201.28 304.202 203.09 304.022C204.15 303.912 205.16 303.722 206.16 303.452C207.14 303.182 207.98 302.682 208.5 301.902C208.79 301.462 208.96 300.942 208.42 300.452C206.36 298.572 206.71 297.512 208.12 295.662C208.52 295.132 209.04 294.662 209.55 294.212C210.07 293.752 210.73 293.712 211.38 293.942C212.48 294.312 213.56 294.732 214.66 295.112C216.07 295.602 218.85 295.292 219.54 293.832C220.55 291.712 222.46 290.532 224.59 289.482C225.55 289.002 226.41 288.342 227.38 287.882C227.93 287.622 228 287.322 227.99 286.862C227.96 286.172 227.99 285.472 227.99 284.772C227.81 284.402 227.29 284.482 227.06 284.462C226.15 284.362 225.58 284.102 225.53 283.232C225.48 282.382 225.87 281.712 226.77 281.432C227.59 281.172 228.43 280.932 229.32 280.972C229.56 280.982 229.83 280.862 230.04 281.062C231.1 282.082 232.16 281.752 233.26 281.022C232.83 280.212 232 279.632 231.56 278.802L231.57 278.792Z" fill="#1F1F1F"/>
</svg>
