<svg width="434" height="316" viewBox="0 0 434 316" fill="none" xmlns="http://www.w3.org/2000/svg">
<g clip-path="url(#clip0_282_20209)">
<path d="M316.42 208.689C316.55 212.929 315.83 217.179 316.42 221.419C316.83 224.339 317.46 227.189 319.46 229.679C320.48 230.949 321.78 231.989 323.39 232.309C331.52 233.949 338.71 237.369 345.68 241.179C347.26 242.039 348.96 242.339 350.62 242.339C353.87 242.339 355.81 243.719 356.96 246.169C358.44 249.319 360.87 252.139 361.29 255.669C361.38 256.459 362.13 256.76 362.89 257.14C365.02 258.19 366.17 259.819 366.88 261.929C367.7 264.349 369.28 266.54 370.69 268.76C371.01 269.27 371.4 269.659 372.11 269.859C373.95 270.379 375.74 271.109 377.2 272.209C378.1 272.889 378.86 272.7 379.7 272.51C380.74 272.28 381.75 271.929 383.1 271.529C382.69 269.029 381.37 266.929 379.28 265.179C378.47 264.499 377.53 263.989 377.01 263.029C376.25 261.619 376.34 260.929 377.86 260.16C380.72 258.7 382.81 259.149 384.81 260.519C385.65 261.099 386.52 261.689 387.23 262.339C388.57 263.569 389.93 263.33 391.37 262.82C394.45 261.74 396.78 259.739 399.17 257.829C399.67 257.429 399.7 256.94 399.54 256.57C397.98 253.06 400.7 251.11 403.08 249.049C403.3 248.86 403.56 248.62 403.87 248.49C406.24 247.54 407.32 246.039 407.48 243.649C407.56 242.419 408.89 241.19 409.83 240.07C411.67 237.87 410.14 232.699 406.34 231.929C403.35 231.319 400.35 230.879 397.31 230.559C396.2 230.439 395.12 230.239 394.03 230.009C391.64 229.489 390.31 228.269 389.64 226.089C389.03 224.119 388.17 222.199 387.88 220.149C387.62 218.309 388.65 216.99 390.33 215.96C388.29 214.69 386.06 214.479 383.99 213.869C381.29 213.069 378.28 212.679 377.2 209.759C376.97 209.139 376.2 208.999 375.39 209.009C373.96 209.029 372.52 208.879 371.09 208.859C370 208.839 369.03 208.489 368.24 207.929C366.46 206.669 365.39 204.949 364.52 203.109C363.86 201.719 364.02 200.539 365.35 199.509C366.33 198.749 367.37 198.039 368.2 197.169C371.27 193.999 369.09 190.53 365.74 189.71C363.49 189.16 361.26 188.559 358.92 187.979C355.76 190.939 353.71 194.51 351.6 198.07C350.78 199.44 349.99 200.849 348.78 202.039C345.27 205.479 340.7 206.77 335.66 207.24C329.87 207.78 324.03 207.499 318.25 208.119C317.61 208.189 317.01 208.32 316.41 208.49" fill="#D1FF00"/>
<path d="M355.874 230.408C358.696 230.408 360.983 227.855 360.983 224.706C360.983 221.557 358.696 219.004 355.874 219.004C353.051 219.004 350.764 221.557 350.764 224.706C350.764 227.855 353.051 230.408 355.874 230.408Z" fill="#36334A"/>
<path d="M362.432 205.732C361.204 206.259 359.865 206.488 358.529 206.398C358.872 206.156 359.092 205.77 359.181 205.364C359.269 204.958 359.236 204.535 359.144 204.13C359.128 204.083 359.128 204.032 359.147 203.987C359.185 203.941 359.243 203.914 359.303 203.914C359.821 203.843 361.303 203.535 361.697 203.971C361.884 204.178 361.812 204.579 361.881 204.832C361.909 204.936 362.27 205.803 362.432 205.733V205.732Z" fill="#FBBEBE"/>
<path opacity="0.1" d="M362.432 205.732C361.204 206.259 359.865 206.488 358.529 206.398C358.872 206.156 359.092 205.77 359.181 205.364C359.269 204.958 359.236 204.535 359.144 204.13C359.128 204.083 359.128 204.032 359.147 203.987C359.185 203.941 359.243 203.914 359.303 203.914C359.821 203.843 361.303 203.535 361.697 203.971C361.884 204.178 361.812 204.579 361.881 204.832C361.909 204.936 362.27 205.803 362.432 205.733V205.732Z" fill="black"/>
<path d="M358.118 214.389L350.439 214.621C350.439 214.621 343.646 221.131 349.257 223.108C349.257 223.108 356.169 224.212 357.823 222.933C357.823 222.933 359.89 214.912 358.118 214.389ZM357.764 216.539L349.553 217.062C349.553 217.062 350.144 215.086 352.506 215.086C354.869 215.086 357.527 214.563 357.764 215.784C358 217.004 357.764 216.539 357.764 216.539Z" fill="#3F3D56"/>
<path d="M352.064 213.345C351.681 213.287 351.265 213.254 350.929 213.445C350.818 213.513 350.714 213.594 350.62 213.685C350.485 213.807 350.351 213.93 350.218 214.054C350.121 214.145 350.02 214.245 349.994 214.374C349.943 214.64 350.256 214.856 350.531 214.845C350.806 214.835 351.053 214.686 351.314 214.596C351.838 214.416 353.764 214.724 353.869 214.17C354.003 213.464 352.49 213.412 352.064 213.346V213.345Z" fill="#FBBEBE"/>
<path d="M355.654 212.9C355.153 213.151 354.608 213.303 354.048 213.349C353.961 213.35 353.875 213.369 353.794 213.402C353.746 213.432 353.709 213.476 353.688 213.529C353.492 213.934 353.37 214.371 353.329 214.819C353.319 214.863 353.335 214.909 353.371 214.937C353.424 214.964 353.484 214.977 353.544 214.975C354.463 215.033 355.386 215.064 356.311 215.068C356.351 215.071 356.393 215.065 356.431 215.051C356.458 215.038 356.478 215.013 356.487 214.984C356.703 214.453 356.806 213.883 356.787 213.311C356.763 212.638 356.563 212.427 355.655 212.901L355.654 212.9Z" fill="#D7E5F2"/>
<path d="M355.654 212.9C355.153 213.151 354.608 213.303 354.048 213.349C353.961 213.35 353.875 213.369 353.794 213.402C353.746 213.432 353.709 213.476 353.688 213.529C353.492 213.934 353.37 214.371 353.329 214.819C353.319 214.863 353.335 214.909 353.371 214.937C353.424 214.964 353.484 214.977 353.544 214.975C354.463 215.033 355.386 215.064 356.311 215.068C356.351 215.071 356.393 215.065 356.431 215.051C356.458 215.038 356.478 215.013 356.487 214.984C356.703 214.453 356.806 213.883 356.787 213.311C356.763 212.638 356.563 212.427 355.655 212.901L355.654 212.9Z" fill="#F5F4F4"/>
<path d="M365.975 218.981L355.873 218.632L358.236 208.809C358.236 208.809 367.688 208.111 367.451 210.495C367.215 212.878 365.975 218.981 365.975 218.981Z" fill="#36334A"/>
<path d="M356.223 223.676C356.223 223.676 350.143 224.734 347.958 221.596C345.772 218.457 356.228 220.142 356.228 220.142L357.114 222.526L356.223 223.676Z" fill="#36334A"/>
<path d="M354.397 237C355.93 237 357.173 235.777 357.173 234.268C357.173 232.759 355.93 231.536 354.397 231.536C352.863 231.536 351.62 232.759 351.62 234.268C351.62 235.777 352.863 237 354.397 237Z" fill="#36334A"/>
<path d="M354.663 236.244C355.625 236.244 356.405 235.359 356.405 234.267C356.405 233.176 355.625 232.291 354.663 232.291C353.7 232.291 352.92 233.176 352.92 234.267C352.92 235.359 353.7 236.244 354.663 236.244Z" fill="#3F3D56"/>
<path d="M369.578 208.519C369.578 208.519 367.274 207.24 367.156 210.262L365.207 224.329H366.034L368.279 209.274C368.279 209.274 369.401 209.449 369.578 209.449C369.755 209.449 369.578 208.519 369.578 208.519Z" fill="#3F3D56"/>
<path d="M371.874 210.07C371.792 210.36 371.487 210.529 371.194 210.449C371.17 210.442 371.147 210.434 371.125 210.425L368.452 209.301L368.937 208.25L371.571 209.431C371.819 209.542 371.947 209.813 371.874 210.07H371.874Z" fill="#36334A"/>
<path d="M355.637 223.34C355.637 223.34 351.384 222.875 350.202 226.885C349.021 230.896 349.139 233.977 348.135 233.744C347.131 233.512 345.004 232.698 345.004 232.698L345.181 233.919C345.181 233.919 348.903 235.779 349.494 233.802C350.084 231.826 350.439 224.56 353.806 224.735C357.173 224.909 357.764 224.56 357.764 224.56L355.637 223.34Z" fill="#3F3D56"/>
<path d="M347.544 221.422C347.544 221.422 344.236 221.829 342.937 224.212C341.637 226.595 340.987 230.896 340.987 230.896H342.228C342.228 230.896 342.937 222.352 346.658 222.817L347.544 221.422Z" fill="#3F3D56"/>
<path d="M345.3 234.734L340.042 231.537C340.042 231.537 339.747 230.374 343.114 229.909C343.114 229.909 349.48 232.1 348.866 232.922C348.253 233.745 346.186 235.024 345.3 234.734Z" fill="#36334A"/>
<path d="M353.452 224.328V231.129H354.219V224.212L353.452 224.328Z" fill="#3F3D56"/>
<path d="M354.574 228.513C354.574 228.513 356.051 234.209 355.106 235.023C355.106 235.023 353.865 231.419 352.92 231.884L353.215 228.513H354.574Z" fill="#36334A"/>
<path d="M360.304 204.798C361.576 204.798 362.608 203.784 362.608 202.532C362.608 201.28 361.576 200.265 360.304 200.265C359.031 200.265 358 201.28 358 202.532C358 203.784 359.031 204.798 360.304 204.798Z" fill="#FBBEBE"/>
<path d="M359.868 205.967C360.807 206.124 361.619 205.049 362.56 205.2C362.764 205.241 362.96 205.317 363.138 205.424C364.539 206.204 365.542 207.526 365.904 209.07C366.011 209.536 366.052 210.041 365.852 210.477C365.746 210.708 365.577 210.906 365.409 211.098C364.783 211.814 364.096 212.528 363.204 212.874C363.116 213.172 363.2 213.494 363.305 213.785C363.741 215.004 363.047 216.317 363.012 217.608C363.006 217.829 363.012 218.07 362.872 218.243C362.716 218.434 362.438 218.468 362.189 218.482C359.908 218.609 357.63 218.264 355.373 217.922C355.313 217.917 355.256 217.898 355.207 217.866C355.133 217.808 355.121 217.704 355.106 217.612C355.022 217.124 355.463 216.728 355.254 216.278C354.895 215.504 355.678 214.658 355.904 213.836C356.129 213.015 356.218 212.871 356.376 212.035C356.435 211.722 356.265 210.779 356.317 210.465C356.487 209.44 356.358 208.272 356.908 207.385C357.238 206.852 357.152 206.437 357.741 206.205C358.363 205.96 359.204 206.043 359.869 205.967H359.868Z" fill="#F5F4F4"/>
<path d="M349.464 219.486C348.777 219.617 348.046 219.741 347.517 220.192C347.194 220.468 346.977 220.842 346.766 221.208L344.613 224.944C343.956 226.083 343.299 227.223 342.703 228.394C342.651 228.479 342.621 228.575 342.614 228.675C342.617 228.815 342.712 228.935 342.81 229.036C343.499 229.739 344.484 230.08 345.468 229.956C345.616 229.201 346.345 228.703 346.703 228.019C346.899 227.644 346.978 227.222 347.104 226.818C347.577 225.313 348.699 224.104 349.789 222.951C350.304 222.405 350.831 221.85 351.494 221.492C352.272 221.072 353.175 220.956 354.045 220.782C354.914 220.607 355.815 220.343 356.43 219.714C356.959 219.165 357.209 218.411 357.112 217.661C356.555 217.622 355.935 217.551 355.397 217.727C354.773 217.932 354.169 218.212 353.544 218.421C352.21 218.868 350.847 219.224 349.464 219.486H349.464Z" fill="#696880"/>
<path opacity="0.1" d="M349.464 219.486C348.777 219.617 348.046 219.741 347.517 220.192C347.194 220.468 346.977 220.842 346.766 221.208L344.613 224.944C343.956 226.083 343.299 227.223 342.703 228.394C342.651 228.479 342.621 228.575 342.614 228.675C342.617 228.815 342.712 228.935 342.81 229.036C343.499 229.739 344.484 230.08 345.468 229.956C345.616 229.201 346.345 228.703 346.703 228.019C346.899 227.644 346.978 227.222 347.104 226.818C347.577 225.313 348.699 224.104 349.789 222.951C350.304 222.405 350.831 221.85 351.494 221.492C352.272 221.072 353.175 220.956 354.045 220.782C354.914 220.607 355.815 220.343 356.43 219.714C356.959 219.165 357.209 218.411 357.112 217.661C356.555 217.622 355.935 217.551 355.397 217.727C354.773 217.932 354.169 218.212 353.544 218.421C352.21 218.868 350.847 219.224 349.464 219.486H349.464Z" fill="black"/>
<path d="M340.181 231.332C340.104 231.386 340.045 231.461 340.012 231.547C339.934 231.809 340.267 231.994 340.534 232.07C341.133 232.239 341.773 232.41 342.371 232.235C342.738 232.127 343.057 231.898 343.421 231.783C343.962 231.612 344.548 231.709 345.106 231.807C345.231 231.116 345.147 230.403 344.865 229.759C344.685 229.352 343.968 229.154 343.54 229.136C343.073 229.116 342.911 229.455 342.641 229.767C341.985 230.528 340.938 230.704 340.182 231.332H340.181Z" fill="#3F3D56"/>
<path d="M349.903 220.599C349.572 220.729 349.233 220.863 348.974 221.103C348.7 221.356 348.54 221.703 348.394 222.043C347.962 223.049 347.595 224.081 347.293 225.132C347.141 225.663 347.006 226.2 346.801 226.714C346.391 227.74 345.697 228.721 345.762 229.82C345.762 229.954 345.798 230.085 345.868 230.2C345.961 230.333 346.118 230.403 346.268 230.467L347.054 230.802C347.476 230.982 347.99 231.156 348.367 230.896C348.619 230.723 348.719 230.409 348.796 230.115C349.07 229.056 349.24 227.956 349.732 226.977C350.288 225.87 351.228 224.975 351.725 223.841C351.796 223.681 351.863 223.509 352.001 223.399C352.116 223.308 352.264 223.273 352.407 223.241C355.357 222.58 358.374 222.219 361.3 221.463C361.716 221.356 362.152 221.228 362.449 220.922C362.861 220.497 362.897 219.851 362.91 219.265C362.918 218.897 362.917 218.498 362.689 218.206C362.432 217.877 361.972 217.791 361.553 217.747C359.946 217.581 358.463 217.843 356.879 218.035C355.431 218.21 353.972 219.015 352.62 219.541C351.715 219.893 350.81 220.247 349.905 220.601L349.903 220.599Z" fill="#696880"/>
<path d="M346.268 231.107C346.047 231.624 345.808 232.163 345.36 232.508C345.173 232.652 344.931 232.797 344.924 233.031C344.916 233.278 345.18 233.442 345.417 233.525C346.019 233.739 346.705 233.785 347.293 233.535C347.696 233.363 348.027 233.067 348.351 232.777C348.448 232.689 348.549 232.597 348.595 232.475C348.626 232.372 348.635 232.265 348.622 232.158C348.583 231.513 348.466 230.874 348.273 230.255C348.258 230.206 346.987 230.051 346.874 230.08C346.519 230.171 346.404 230.788 346.267 231.107H346.268Z" fill="#3F3D56"/>
<path d="M366.034 216.133L358.355 216.365C358.355 216.365 351.561 222.875 357.173 224.852C357.173 224.852 364.085 225.956 365.739 224.677C365.739 224.677 367.806 216.656 366.034 216.133ZM365.68 218.283L357.469 218.807C357.469 218.807 358.059 216.83 360.422 216.83C362.785 216.83 365.443 216.307 365.68 217.528C365.916 218.748 365.68 218.283 365.68 218.283Z" fill="#3F3D56"/>
<path d="M364.291 236.999C368.549 236.999 372 233.148 372 228.397C372 223.645 368.549 219.794 364.291 219.794C360.034 219.794 356.582 223.645 356.582 228.397C356.582 233.148 360.034 236.999 364.291 236.999Z" fill="#36334A"/>
<path d="M364.646 234.791C367.859 234.791 370.464 231.928 370.464 228.397C370.464 224.866 367.859 222.003 364.646 222.003C361.432 222.003 358.827 224.866 358.827 228.397C358.827 231.928 361.432 234.791 364.646 234.791Z" fill="#3F3D56"/>
<path d="M366.152 228.31C366.152 228.198 366.141 228.087 366.118 227.978L370.464 225.84L370.169 225.2L365.779 227.305C365.734 227.26 365.685 227.22 365.633 227.185H365.636L366.92 220.9L365.785 220.874L365.03 227.061L365.102 227.076C365.044 227.088 364.987 227.107 364.933 227.133L361.136 223.298L360.599 224.038L364.5 227.57C364.402 227.754 364.344 227.957 364.328 228.165L358.828 230.374L358.71 231.304L364.443 228.931C364.497 229.062 364.572 229.182 364.667 229.288L362.904 235.198H363.553L365.034 229.528C365.099 229.549 365.168 229.56 365.237 229.56C365.371 229.559 365.5 229.521 365.613 229.449L368.693 233.455L369.638 232.815L366.029 228.936C366.111 228.738 366.153 228.525 366.153 228.311L366.152 228.31Z" fill="#36334A"/>
<path d="M357.627 201.096C357.731 200.839 358.066 200.732 358.176 200.477C358.294 200.203 358.109 199.855 358.27 199.602C358.432 199.348 358.81 199.378 359.111 199.427C359.466 199.485 359.843 199.524 360.175 199.385C360.322 199.324 360.453 199.23 360.595 199.158C360.822 199.045 361.074 198.991 361.328 199.001C361.385 199 361.442 199.013 361.492 199.04C361.54 199.074 361.577 199.121 361.599 199.175C361.703 199.396 361.717 199.671 361.905 199.83C361.995 199.906 362.112 199.942 362.22 199.99C362.735 200.234 363.04 200.769 362.985 201.328C362.96 201.455 362.944 201.583 362.938 201.711C362.945 201.994 363.133 202.276 363.037 202.543C362.966 202.741 362.757 202.858 362.553 202.92C362.495 202.943 362.43 202.946 362.37 202.929C362.266 202.887 362.244 202.754 362.211 202.648C362.114 202.362 361.839 202.172 361.533 202.178C361.295 202.188 361.053 202.32 360.829 202.241C360.719 202.203 360.632 202.119 360.544 202.043C360.341 201.869 360.1 201.723 359.833 201.686C359.566 201.649 359.27 201.738 359.113 201.953C359.049 202.04 359.011 202.142 358.951 202.231C358.406 203.032 357.403 201.649 357.627 201.094L357.627 201.096Z" fill="#36334A"/>
<path d="M358.854 214.911C358.649 214.885 358.444 214.96 358.306 215.112C357.789 215.575 357.241 216.098 357.148 216.779C357.134 216.842 357.141 216.907 357.169 216.964C357.219 217.045 357.328 217.062 357.424 217.064C357.912 217.068 358.379 216.866 358.705 216.507C358.793 216.408 358.875 216.295 358.997 216.239C359.108 216.198 359.227 216.184 359.345 216.196C359.669 216.207 360.41 216.37 360.692 216.212C360.989 216.046 360.908 215.524 360.769 215.272C360.439 214.674 359.416 214.905 358.854 214.911V214.911Z" fill="#FBBEBE"/>
<path d="M366.069 209.89C366.268 210.519 366.151 211.227 366.433 211.824C366.62 212.221 366.971 212.54 367.08 212.964C367.183 213.364 367.045 213.796 366.803 214.133C366.562 214.471 366.226 214.73 365.888 214.976C365.519 215.245 365.136 215.508 364.7 215.653C364.266 215.799 363.801 215.82 363.344 215.841L360.308 215.978L359.75 214.329L361.727 213.567C361.925 213.491 362.127 213.414 362.339 213.398C362.705 213.371 363.151 213.504 363.386 213.226C363.461 213.124 363.508 213.005 363.524 212.881C363.716 211.912 363.549 210.887 363.844 209.944C363.99 209.477 364.412 208.541 364.988 208.458C365.597 208.371 365.932 209.454 366.07 209.89H366.069Z" fill="#F5F4F4"/>
</g>
<defs>
<clipPath id="clip0_282_20209">
<rect width="433.31" height="315.48" fill="white"/>
</clipPath>
</defs>
</svg>
