<svg width="434" height="316" viewBox="0 0 434 316" fill="none" xmlns="http://www.w3.org/2000/svg">
<g clip-path="url(#clip0_282_30733)">
<path d="M293.91 91.6895C296.47 92.8395 298.72 94.1995 299.89 96.6995C300.71 98.4295 302.34 99.6595 304.15 100.659C306.13 101.759 308.23 101.179 310.3 101.009C310.37 101.009 310.43 100.859 310.51 100.839C312.69 100.409 315.2 99.9195 316.77 101.439C318.62 103.239 318.92 105.649 317.52 108.179C315.36 108.179 313.03 108.289 310.71 108.149C308.43 108.009 306.63 108.819 304.99 109.989C303.87 110.789 302.77 111.649 301.75 112.529C300.58 113.549 299.25 113.809 297.8 113.899C295.06 114.079 292.92 114.889 292.27 117.499C292.01 118.569 291.43 119.289 290.02 119.309C289.41 119.319 288.81 119.579 288.18 119.679C285.44 120.119 283.47 121.319 283.04 123.949C282.61 126.619 280.2 127.879 277.91 129.119C276.46 129.909 275.34 130.909 274.23 132.009C271.47 134.739 268.62 137.399 265.34 139.629C263.68 138.949 262.39 137.959 260.97 137.179C259.26 136.239 257.77 136.529 256.24 137.239C255.29 137.679 254.5 138.359 253.55 138.819C252.56 139.299 251.55 139.509 250.68 138.489C249.92 137.599 249.8 136.749 250.71 135.979C252.22 134.689 251.55 133.069 251.4 131.669C251.3 130.729 249.78 130.609 248.88 131.159C247.8 131.809 247.07 131.439 246.18 130.959C245.02 130.34 245.67 129.459 245.84 128.809C246.07 127.969 246.47 127.179 246.39 126.289C246.21 124.089 243.9 122.609 241.72 123.659C238.77 125.079 236.15 124.729 233.26 123.639C231.04 122.809 228.62 122.399 226.52 121.269C224.69 120.279 224.43 119.619 225.29 118.029C226.03 116.659 227.17 115.789 228.76 115.119C231.62 113.919 232.29 112.419 230.76 110.179C229.8 108.759 229.74 107.509 230.46 106.209C231.38 104.559 230.98 102.989 230.18 101.549C228.51 98.5195 227.23 95.2995 224.9 92.5695C223.55 90.9795 223.1 89.0695 222.67 87.1895C222.34 85.7495 221.74 84.4595 220.37 83.6295C218.79 82.6895 218.1 81.3695 217.71 79.7695C219.25 78.8395 219.95 77.2495 221.23 76.0895C222.58 74.8795 224.13 73.8295 225.4 72.8595C226.48 72.7895 226.83 73.3495 227.12 73.7495C229.27 76.6795 232.58 78.0495 236.16 79.1195C238.54 79.8395 240.18 81.1495 240.93 83.3995C241.52 85.1895 243.18 86.5295 245 87.3095C248.87 88.9695 250.95 91.3995 250.98 95.2495C250.98 96.3695 251.71 97.4695 252.49 98.5095C253.37 99.6895 254.47 99.9795 255.83 99.8895C257 99.8095 258.15 99.4895 259.32 99.3895C260.08 99.3195 260.84 99.1695 261.26 100.239C261.53 100.929 262.42 101.589 262.96 102.269C264.55 104.249 266.78 104.519 269.14 104.159C270.22 103.999 271.11 104.189 271.56 104.779C272.88 106.499 274.74 106.509 276.97 106.299C276.7 103.469 279.3 102.309 281.42 100.779C282.75 99.8195 283.92 98.6695 285.12 97.5695C286.27 96.5095 287.62 95.7595 289.23 95.4395C290.8 95.1295 291.95 94.4695 292.52 93.0995C292.77 92.4895 293.1 91.8895 293.73 91.4795" fill="#D1FF00"/>
<path d="M260.874 110.408C263.696 110.408 265.983 107.855 265.983 104.706C265.983 101.557 263.696 99.0039 260.874 99.0039C258.051 99.0039 255.764 101.557 255.764 104.706C255.764 107.855 258.051 110.408 260.874 110.408Z" fill="#36334A"/>
<path d="M267.432 85.7321C266.204 86.2593 264.865 86.4877 263.529 86.3976C263.872 86.1564 264.092 85.7699 264.181 85.3641C264.269 84.9584 264.236 84.5347 264.144 84.1296C264.128 84.0831 264.128 84.0325 264.147 83.9871C264.185 83.9406 264.243 83.9139 264.303 83.9139C264.821 83.843 266.303 83.5349 266.697 83.9715C266.884 84.1778 266.812 84.5794 266.881 84.8317C266.909 84.9358 267.27 85.803 267.432 85.7327V85.7321Z" fill="#FBBEBE"/>
<path opacity="0.1" d="M267.432 85.7321C266.204 86.2593 264.865 86.4877 263.529 86.3976C263.872 86.1564 264.092 85.7699 264.181 85.3641C264.269 84.9584 264.236 84.5347 264.144 84.1296C264.128 84.0831 264.128 84.0325 264.147 83.9871C264.185 83.9406 264.243 83.9139 264.303 83.9139C264.821 83.843 266.303 83.5349 266.697 83.9715C266.884 84.1778 266.812 84.5794 266.881 84.8317C266.909 84.9358 267.27 85.803 267.432 85.7327V85.7321Z" fill="black"/>
<path d="M263.118 94.3887L255.439 94.6212C255.439 94.6212 248.646 101.131 254.257 103.108C254.257 103.108 261.169 104.212 262.823 102.933C262.823 102.933 264.89 94.9118 263.118 94.3887ZM262.764 96.5393L254.553 97.0624C254.553 97.0624 255.144 95.0862 257.506 95.0862C259.869 95.0862 262.527 94.563 262.764 95.7837C263 97.0043 262.764 96.5393 262.764 96.5393Z" fill="#3F3D56"/>
<path d="M257.064 93.3448C256.681 93.2873 256.265 93.2536 255.929 93.4448C255.818 93.5134 255.714 93.5942 255.62 93.6849C255.485 93.8069 255.351 93.9296 255.218 94.054C255.121 94.1446 255.02 94.2446 254.994 94.3742C254.943 94.6404 255.256 94.8555 255.531 94.8451C255.806 94.8346 256.053 94.6858 256.314 94.5963C256.838 94.4155 258.764 94.7241 258.869 94.1696C259.003 93.464 257.49 93.4123 257.064 93.346V93.3448Z" fill="#FBBEBE"/>
<path d="M260.654 92.9003C260.153 93.1508 259.608 93.3031 259.048 93.349C258.961 93.3502 258.875 93.3688 258.794 93.4025C258.746 93.4321 258.709 93.4763 258.688 93.5292C258.492 93.9343 258.37 94.3714 258.329 94.819C258.319 94.8626 258.335 94.9091 258.371 94.937C258.424 94.9637 258.484 94.9765 258.544 94.9753C259.463 95.0329 260.386 95.0637 261.311 95.0678C261.351 95.0707 261.393 95.0654 261.431 95.0515C261.458 95.0375 261.478 95.0131 261.487 94.9841C261.703 94.4528 261.806 93.8832 261.787 93.3112C261.763 92.6375 261.563 92.4265 260.655 92.9008L260.654 92.9003Z" fill="#D7E5F2"/>
<path d="M260.654 92.9003C260.153 93.1508 259.608 93.3031 259.048 93.349C258.961 93.3502 258.875 93.3688 258.794 93.4025C258.746 93.4321 258.709 93.4763 258.688 93.5292C258.492 93.9343 258.37 94.3714 258.329 94.819C258.319 94.8626 258.335 94.9091 258.371 94.937C258.424 94.9637 258.484 94.9765 258.544 94.9753C259.463 95.0329 260.386 95.0637 261.311 95.0678C261.351 95.0707 261.393 95.0654 261.431 95.0515C261.458 95.0375 261.478 95.0131 261.487 94.9841C261.703 94.4528 261.806 93.8832 261.787 93.3112C261.763 92.6375 261.563 92.4265 260.655 92.9008L260.654 92.9003Z" fill="#F5F4F4"/>
<path d="M270.975 98.9809L260.873 98.6322L263.236 88.809C263.236 88.809 272.688 88.1115 272.451 90.4946C272.215 92.8778 270.975 98.9809 270.975 98.9809Z" fill="#36334A"/>
<path d="M261.223 103.676C261.223 103.676 255.143 104.734 252.958 101.596C250.772 98.4568 261.228 100.142 261.228 100.142L262.114 102.526L261.223 103.676Z" fill="#36334A"/>
<path d="M259.397 117C260.93 117 262.173 115.777 262.173 114.268C262.173 112.759 260.93 111.536 259.397 111.536C257.863 111.536 256.62 112.759 256.62 114.268C256.62 115.777 257.863 117 259.397 117Z" fill="#36334A"/>
<path d="M259.663 116.244C260.625 116.244 261.405 115.359 261.405 114.267C261.405 113.176 260.625 112.291 259.663 112.291C258.7 112.291 257.92 113.176 257.92 114.267C257.92 115.359 258.7 116.244 259.663 116.244Z" fill="#3F3D56"/>
<path d="M274.578 88.5186C274.578 88.5186 272.274 87.2399 272.156 90.2624L270.207 104.329H271.034L273.279 89.2743C273.279 89.2743 274.401 89.4486 274.578 89.4486C274.755 89.4486 274.578 88.5186 274.578 88.5186Z" fill="#3F3D56"/>
<path d="M276.874 90.0705C276.792 90.36 276.487 90.5291 276.194 90.4489C276.17 90.4425 276.147 90.4344 276.125 90.4251L273.452 89.3009L273.937 88.25L276.571 89.4305C276.819 89.5416 276.947 89.813 276.874 90.0705H276.874Z" fill="#36334A"/>
<path d="M260.637 103.34C260.637 103.34 256.384 102.875 255.202 106.885C254.021 110.896 254.139 113.977 253.135 113.744C252.131 113.512 250.004 112.698 250.004 112.698L250.181 113.919C250.181 113.919 253.903 115.779 254.494 113.802C255.084 111.826 255.439 104.56 258.806 104.735C262.173 104.909 262.764 104.56 262.764 104.56L260.637 103.34Z" fill="#3F3D56"/>
<path d="M252.544 101.422C252.544 101.422 249.236 101.829 247.937 104.212C246.637 106.595 245.987 110.896 245.987 110.896H247.228C247.228 110.896 247.937 102.352 251.658 102.817L252.544 101.422Z" fill="#3F3D56"/>
<path d="M250.3 114.734L245.042 111.537C245.042 111.537 244.747 110.374 248.114 109.909C248.114 109.909 254.48 112.1 253.866 112.922C253.253 113.745 251.186 115.024 250.3 114.734Z" fill="#36334A"/>
<path d="M258.452 104.328V111.129H259.219V104.212L258.452 104.328Z" fill="#3F3D56"/>
<path d="M259.574 108.513C259.574 108.513 261.051 114.209 260.106 115.023C260.106 115.023 258.865 111.419 257.92 111.884L258.215 108.513H259.574Z" fill="#36334A"/>
<path d="M265.304 84.7984C266.576 84.7984 267.608 83.7835 267.608 82.5315C267.608 81.2796 266.576 80.2646 265.304 80.2646C264.031 80.2646 263 81.2796 263 82.5315C263 83.7835 264.031 84.7984 265.304 84.7984Z" fill="#FBBEBE"/>
<path d="M264.868 85.9668C265.807 86.1238 266.619 85.049 267.56 85.2002C267.764 85.2414 267.96 85.317 268.138 85.4239C269.539 86.204 270.542 87.5263 270.904 89.0696C271.011 89.5357 271.052 90.0414 270.852 90.4768C270.746 90.7081 270.577 90.9058 270.409 91.0982C269.783 91.8143 269.096 92.5281 268.204 92.8745C268.116 93.1715 268.2 93.4935 268.305 93.7853C268.741 95.0036 268.047 96.3167 268.012 97.6077C268.006 97.8285 268.012 98.0703 267.872 98.243C267.716 98.4342 267.438 98.4685 267.189 98.4824C264.908 98.6092 262.63 98.2645 260.373 97.9215C260.313 97.9175 260.256 97.8983 260.207 97.8663C260.133 97.8082 260.121 97.7036 260.106 97.6117C260.022 97.124 260.463 96.7282 260.254 96.2777C259.895 95.5041 260.678 94.6578 260.904 93.8365C261.129 93.0151 261.218 92.871 261.376 92.0346C261.435 91.7219 261.265 90.7791 261.317 90.4652C261.487 89.4398 261.358 88.2715 261.908 87.3845C262.238 86.8515 262.152 86.4371 262.741 86.2051C263.363 85.9604 264.204 86.043 264.869 85.9668H264.868Z" fill="#F5F4F4"/>
<path d="M254.464 99.4862C253.777 99.617 253.046 99.7414 252.517 100.192C252.194 100.468 251.977 100.842 251.766 101.208L249.613 104.944C248.956 106.083 248.299 107.223 247.703 108.394C247.651 108.479 247.621 108.575 247.614 108.675C247.617 108.815 247.712 108.935 247.81 109.036C248.499 109.739 249.484 110.08 250.468 109.956C250.616 109.201 251.345 108.703 251.703 108.019C251.899 107.644 251.978 107.222 252.104 106.818C252.577 105.313 253.699 104.104 254.789 102.951C255.304 102.405 255.831 101.85 256.494 101.492C257.272 101.072 258.175 100.956 259.045 100.782C259.914 100.607 260.815 100.343 261.43 99.7135C261.959 99.1648 262.209 98.4109 262.112 97.6605C261.555 97.6222 260.935 97.5507 260.397 97.7274C259.773 97.932 259.169 98.2121 258.544 98.4214C257.21 98.8678 255.847 99.2235 254.464 99.4862H254.464Z" fill="#696880"/>
<path opacity="0.1" d="M254.464 99.4862C253.777 99.617 253.046 99.7414 252.517 100.192C252.194 100.468 251.977 100.842 251.766 101.208L249.613 104.944C248.956 106.083 248.299 107.223 247.703 108.394C247.651 108.479 247.621 108.575 247.614 108.675C247.617 108.815 247.712 108.935 247.81 109.036C248.499 109.739 249.484 110.08 250.468 109.956C250.616 109.201 251.345 108.703 251.703 108.019C251.899 107.644 251.978 107.222 252.104 106.818C252.577 105.313 253.699 104.104 254.789 102.951C255.304 102.405 255.831 101.85 256.494 101.492C257.272 101.072 258.175 100.956 259.045 100.782C259.914 100.607 260.815 100.343 261.43 99.7135C261.959 99.1648 262.209 98.4109 262.112 97.6605C261.555 97.6222 260.935 97.5507 260.397 97.7274C259.773 97.932 259.169 98.2121 258.544 98.4214C257.21 98.8678 255.847 99.2235 254.464 99.4862H254.464Z" fill="black"/>
<path d="M245.181 111.332C245.104 111.386 245.045 111.461 245.012 111.547C244.934 111.809 245.267 111.994 245.534 112.07C246.133 112.239 246.773 112.41 247.371 112.235C247.738 112.127 248.057 111.898 248.421 111.783C248.962 111.612 249.548 111.709 250.106 111.807C250.231 111.116 250.147 110.403 249.865 109.759C249.685 109.352 248.968 109.154 248.54 109.136C248.073 109.116 247.911 109.455 247.641 109.767C246.985 110.528 245.938 110.704 245.182 111.332H245.181Z" fill="#3F3D56"/>
<path d="M254.903 100.599C254.572 100.729 254.233 100.863 253.974 101.103C253.7 101.356 253.54 101.703 253.394 102.043C252.962 103.049 252.595 104.081 252.293 105.132C252.141 105.663 252.006 106.2 251.801 106.714C251.391 107.74 250.697 108.721 250.762 109.82C250.762 109.954 250.798 110.085 250.868 110.2C250.961 110.333 251.118 110.403 251.268 110.467L252.054 110.802C252.476 110.982 252.99 111.156 253.367 110.896C253.619 110.723 253.719 110.409 253.796 110.115C254.07 109.056 254.24 107.956 254.732 106.977C255.288 105.87 256.228 104.975 256.725 103.841C256.796 103.681 256.863 103.509 257.001 103.399C257.116 103.308 257.264 103.273 257.407 103.241C260.357 102.58 263.374 102.219 266.3 101.463C266.716 101.356 267.152 101.228 267.449 100.922C267.861 100.497 267.897 99.8513 267.91 99.2648C267.918 98.8975 267.917 98.4976 267.689 98.2064C267.432 97.8774 266.972 97.7908 266.553 97.7472C264.946 97.5809 263.463 97.8431 261.879 98.0349C260.431 98.2104 258.972 99.0149 257.62 99.5409C256.715 99.8932 255.81 100.247 254.905 100.601L254.903 100.599Z" fill="#696880"/>
<path d="M251.268 111.107C251.047 111.624 250.808 112.163 250.36 112.508C250.173 112.652 249.931 112.797 249.924 113.031C249.916 113.278 250.18 113.442 250.417 113.525C251.019 113.739 251.705 113.785 252.293 113.535C252.696 113.363 253.027 113.067 253.351 112.777C253.448 112.689 253.549 112.597 253.595 112.475C253.626 112.372 253.635 112.265 253.622 112.158C253.583 111.513 253.466 110.874 253.273 110.255C253.258 110.206 251.987 110.051 251.874 110.08C251.519 110.171 251.404 110.788 251.267 111.107H251.268Z" fill="#3F3D56"/>
<path d="M271.034 96.1328L263.355 96.3653C263.355 96.3653 256.561 102.875 262.173 104.852C262.173 104.852 269.085 105.956 270.739 104.677C270.739 104.677 272.806 96.6559 271.034 96.1328ZM270.68 98.2835L262.469 98.8066C262.469 98.8066 263.059 96.8303 265.422 96.8303C267.785 96.8303 270.443 96.3072 270.68 97.5278C270.916 98.7485 270.68 98.2835 270.68 98.2835Z" fill="#3F3D56"/>
<path d="M269.291 116.999C273.549 116.999 277 113.148 277 108.397C277 103.645 273.549 99.7939 269.291 99.7939C265.034 99.7939 261.582 103.645 261.582 108.397C261.582 113.148 265.034 116.999 269.291 116.999Z" fill="#36334A"/>
<path d="M269.646 114.791C272.859 114.791 275.464 111.928 275.464 108.397C275.464 104.866 272.859 102.003 269.646 102.003C266.432 102.003 263.827 104.866 263.827 108.397C263.827 111.928 266.432 114.791 269.646 114.791Z" fill="#3F3D56"/>
<path d="M271.152 108.31C271.152 108.198 271.141 108.087 271.118 107.978L275.464 105.84L275.169 105.2L270.779 107.305C270.734 107.26 270.685 107.22 270.633 107.185H270.636L271.92 100.9L270.785 100.874L270.03 107.061L270.102 107.076C270.044 107.088 269.987 107.107 269.933 107.133L266.136 103.298L265.599 104.038L269.5 107.57C269.402 107.754 269.344 107.957 269.328 108.165L263.828 110.374L263.71 111.304L269.443 108.931C269.497 109.062 269.572 109.182 269.667 109.288L267.904 115.198H268.553L270.034 109.528C270.099 109.549 270.168 109.56 270.237 109.56C270.371 109.559 270.5 109.521 270.613 109.449L273.693 113.455L274.638 112.815L271.029 108.936C271.111 108.738 271.153 108.525 271.153 108.311L271.152 108.31Z" fill="#36334A"/>
<path d="M262.627 81.0955C262.731 80.8386 263.066 80.7323 263.176 80.4771C263.294 80.2033 263.109 79.8546 263.27 79.6023C263.432 79.3483 263.81 79.3779 264.111 79.4273C264.466 79.4855 264.843 79.5244 265.175 79.3855C265.322 79.3239 265.453 79.2297 265.595 79.1582C265.822 79.0449 266.074 78.9908 266.328 79.0013C266.385 79.0001 266.442 79.0135 266.492 79.0396C266.54 79.0739 266.577 79.121 266.599 79.1751C266.703 79.3959 266.717 79.6715 266.905 79.8296C266.995 79.9057 267.112 79.9417 267.22 79.99C267.735 80.2341 268.04 80.7689 267.985 81.328C267.96 81.4548 267.944 81.5826 267.938 81.7111C267.945 81.9936 268.133 82.2761 268.037 82.5429C267.966 82.7411 267.757 82.8585 267.553 82.9195C267.495 82.9428 267.43 82.9463 267.37 82.9288C267.266 82.887 267.244 82.7544 267.211 82.6481C267.114 82.3621 266.839 82.172 266.533 82.1778C266.295 82.1877 266.053 82.3197 265.829 82.2412C265.719 82.2028 265.632 82.1186 265.544 82.043C265.341 81.8686 265.1 81.7233 264.833 81.6861C264.566 81.6489 264.27 81.7378 264.113 81.9529C264.049 82.0401 264.011 82.1424 263.951 82.2313C263.406 83.0317 262.403 81.6495 262.627 81.0944L262.627 81.0955Z" fill="#36334A"/>
<path d="M263.854 94.9108C263.649 94.8846 263.444 94.9596 263.306 95.1119C262.789 95.5751 262.241 96.0977 262.148 96.7795C262.134 96.8417 262.141 96.9068 262.169 96.9643C262.219 97.0445 262.328 97.062 262.424 97.0637C262.912 97.0684 263.379 96.8655 263.705 96.5069C263.793 96.4081 263.875 96.2947 263.997 96.2389C264.108 96.1982 264.227 96.1837 264.345 96.1965C264.669 96.207 265.41 96.3703 265.692 96.2122C265.989 96.0459 265.908 95.524 265.769 95.2723C265.439 94.6742 264.416 94.9049 263.854 94.9113V94.9108Z" fill="#FBBEBE"/>
<path d="M271.069 89.8897C271.268 90.5186 271.151 91.2266 271.433 91.8242C271.62 92.2206 271.971 92.5403 272.08 92.964C272.183 93.3645 272.045 93.7958 271.803 94.1335C271.562 94.4712 271.226 94.7304 270.888 94.9763C270.519 95.2454 270.136 95.5082 269.7 95.6535C269.266 95.7988 268.801 95.8203 268.344 95.8412L265.308 95.9784L264.75 94.3294L266.727 93.5673C266.925 93.4912 267.127 93.4139 267.339 93.3982C267.705 93.3715 268.151 93.504 268.386 93.2261C268.461 93.1244 268.508 93.0053 268.524 92.8809C268.716 91.9119 268.549 90.8872 268.844 89.9438C268.99 89.477 269.412 88.5406 269.988 88.4581C270.597 88.3709 270.932 89.4538 271.07 89.8897H271.069Z" fill="#F5F4F4"/>
</g>
<defs>
<clipPath id="clip0_282_30733">
<rect width="433.31" height="315.48" fill="white"/>
</clipPath>
</defs>
</svg>
