<svg width="434" height="316" viewBox="0 0 434 316" fill="none" xmlns="http://www.w3.org/2000/svg">
<g clip-path="url(#clip0_282_13193)">
<path d="M124.09 185.82C123.79 187.72 125.07 189.01 126.35 190.3C127.3 191.26 128.51 191.98 129.43 192.98C131.68 195.42 131.35 198.09 128.39 199.98C123.53 203.07 121.3 207.57 119.58 212.36C118.74 214.7 117.7 216.95 116.15 219.02C115.94 219.3 115.8 219.71 115.48 219.87C113.07 221.11 112.88 223.12 112.8 225.27C112.7 228 109.38 229.8 105.66 229.21C103.76 228.91 102.61 227.68 101.33 226.55C99.66 225.08 98.19 223.41 96.03 222.39C93.27 221.09 90.69 221.73 88.25 222.96C85.03 224.59 82.07 226.51 79.6 229.01C78.51 230.11 77.87 231.37 77.2 232.63C76.86 233.27 76.99 234.19 75.74 234.05C74.63 233.92 73.72 233.52 73.49 232.44C73.03 230.34 71.95 228.48 70.63 226.7C69.41 225.05 67.88 224.11 65.49 224.35C63.94 224.5 62.35 224.38 60.63 224.38C61.2 223.06 62.19 222.37 63.24 221.69C66.68 219.45 67.01 217.06 64.03 214.37C62.46 212.95 62.26 211.2 62.07 209.5C61.84 207.43 61.91 205.31 62.22 203.23C62.45 201.7 63.69 200.63 64.68 199.47C65.55 198.44 66.48 197.45 67.47 196.35C66.34 195.42 64.33 195.32 63.8 194.38C63.25 193.39 63.34 192.03 62.42 191.12C63.97 189.1 65.09 187.01 65.07 184.58C65.07 183.48 65.4 182.68 66.7 182.22C68.02 181.77 68.63 182.51 69.37 183.14C71.11 184.614 71.52 186.287 70.6 188.16C69.09 191.24 69.67 193.5 73.1 195.64C75.37 197.05 76.86 198.9 77.28 201.08C78.2 205.94 82.04 207.47 86.79 208.24C87.4 208.34 88.06 208.27 88.63 208.44C90.08 208.88 90.69 208.5 91.15 207.18C92.14 204.31 92.46 204.26 96.02 204.64C97.03 204.75 98.08 204.74 99.09 204.64C101.46 204.41 102.37 203.21 101.5 201.27C101.11 200.39 101.82 199.9 102.2 199.69C105.09 198.08 104.74 195.79 104.23 193.36C103.3 188.96 102.03 184.64 100.84 180.35C103.26 178.5 105.68 179.59 107.88 180.32C111.36 181.49 114.51 183.31 118.13 184.26C120.1 184.78 122.16 185.02 124.09 185.65" fill="#D1FF00"/>
<path d="M102.874 207.408C105.696 207.408 107.983 204.855 107.983 201.706C107.983 198.557 105.696 196.004 102.874 196.004C100.051 196.004 97.7638 198.557 97.7638 201.706C97.7638 204.855 100.051 207.408 102.874 207.408Z" fill="#36334A"/>
<path d="M109.432 182.732C108.204 183.259 106.865 183.488 105.529 183.398C105.872 183.156 106.092 182.77 106.181 182.364C106.269 181.958 106.236 181.535 106.144 181.13C106.128 181.083 106.128 181.032 106.147 180.987C106.185 180.941 106.243 180.914 106.303 180.914C106.821 180.843 108.303 180.535 108.697 180.971C108.884 181.178 108.812 181.579 108.881 181.832C108.909 181.936 109.27 182.803 109.432 182.733V182.732Z" fill="#FBBEBE"/>
<path opacity="0.1" d="M109.432 182.732C108.204 183.259 106.865 183.488 105.529 183.398C105.872 183.156 106.092 182.77 106.181 182.364C106.269 181.958 106.236 181.535 106.144 181.13C106.128 181.083 106.128 181.032 106.147 180.987C106.185 180.941 106.243 180.914 106.303 180.914C106.821 180.843 108.303 180.535 108.697 180.971C108.884 181.178 108.812 181.579 108.881 181.832C108.909 181.936 109.27 182.803 109.432 182.733V182.732Z" fill="black"/>
<path d="M105.118 191.389L97.4389 191.621C97.4389 191.621 90.6456 198.131 96.2574 200.108C96.2574 200.108 103.169 201.212 104.823 199.933C104.823 199.933 106.89 191.912 105.118 191.389ZM104.764 193.539L96.5528 194.062C96.5528 194.062 97.1435 192.086 99.5064 192.086C101.869 192.086 104.527 191.563 104.764 192.784C105 194.004 104.764 193.539 104.764 193.539Z" fill="#3F3D56"/>
<path d="M99.064 190.345C98.6812 190.287 98.2647 190.254 97.9292 190.445C97.8176 190.513 97.7136 190.594 97.6197 190.685C97.485 190.807 97.3509 190.93 97.218 191.054C97.1211 191.145 97.0195 191.245 96.9941 191.374C96.9427 191.64 97.2558 191.856 97.5311 191.845C97.8063 191.835 98.0533 191.686 98.3138 191.596C98.8377 191.416 100.764 191.724 100.869 191.17C101.003 190.464 99.4899 190.412 99.064 190.346V190.345Z" fill="#FBBEBE"/>
<path d="M102.654 189.9C102.153 190.151 101.608 190.303 101.048 190.349C100.961 190.35 100.875 190.369 100.794 190.402C100.746 190.432 100.709 190.476 100.688 190.529C100.492 190.934 100.37 191.371 100.329 191.819C100.319 191.863 100.335 191.909 100.371 191.937C100.424 191.964 100.484 191.977 100.544 191.975C101.463 192.033 102.386 192.064 103.311 192.068C103.351 192.071 103.393 192.065 103.431 192.051C103.458 192.038 103.478 192.013 103.487 191.984C103.703 191.453 103.806 190.883 103.787 190.311C103.763 189.638 103.563 189.427 102.655 189.901L102.654 189.9Z" fill="#D7E5F2"/>
<path d="M102.654 189.9C102.153 190.151 101.608 190.303 101.048 190.349C100.961 190.35 100.875 190.369 100.794 190.402C100.746 190.432 100.709 190.476 100.688 190.529C100.492 190.934 100.37 191.371 100.329 191.819C100.319 191.863 100.335 191.909 100.371 191.937C100.424 191.964 100.484 191.977 100.544 191.975C101.463 192.033 102.386 192.064 103.311 192.068C103.351 192.071 103.393 192.065 103.431 192.051C103.458 192.038 103.478 192.013 103.487 191.984C103.703 191.453 103.806 190.883 103.787 190.311C103.763 189.638 103.563 189.427 102.655 189.901L102.654 189.9Z" fill="#F5F4F4"/>
<path d="M112.975 195.981L102.873 195.632L105.236 185.809C105.236 185.809 114.688 185.111 114.451 187.495C114.215 189.878 112.975 195.981 112.975 195.981Z" fill="#36334A"/>
<path d="M103.223 200.676C103.223 200.676 97.1435 201.734 94.9578 198.596C92.7721 195.457 103.228 197.142 103.228 197.142L104.114 199.526L103.223 200.676Z" fill="#36334A"/>
<path d="M101.397 214C102.93 214 104.173 212.777 104.173 211.268C104.173 209.759 102.93 208.536 101.397 208.536C99.8633 208.536 98.6202 209.759 98.6202 211.268C98.6202 212.777 99.8633 214 101.397 214Z" fill="#36334A"/>
<path d="M101.663 213.244C102.625 213.244 103.405 212.359 103.405 211.267C103.405 210.176 102.625 209.291 101.663 209.291C100.7 209.291 99.9199 210.176 99.9199 211.267C99.9199 212.359 100.7 213.244 101.663 213.244Z" fill="#3F3D56"/>
<path d="M116.578 185.519C116.578 185.519 114.274 184.24 114.156 187.262L112.207 201.329H113.034L115.279 186.274C115.279 186.274 116.401 186.449 116.578 186.449C116.755 186.449 116.578 185.519 116.578 185.519Z" fill="#3F3D56"/>
<path d="M118.874 187.07C118.792 187.36 118.487 187.529 118.194 187.449C118.17 187.442 118.147 187.434 118.125 187.425L115.452 186.301L115.937 185.25L118.571 186.431C118.819 186.542 118.947 186.813 118.874 187.07H118.874Z" fill="#36334A"/>
<path d="M102.637 200.34C102.637 200.34 98.3839 199.875 97.2025 203.885C96.021 207.896 96.1392 210.977 95.135 210.744C94.1307 210.512 92.0042 209.698 92.0042 209.698L92.1814 210.919C92.1814 210.919 95.9029 212.779 96.4936 210.802C97.0843 208.826 97.4388 201.56 100.806 201.735C104.173 201.909 104.764 201.56 104.764 201.56L102.637 200.34Z" fill="#3F3D56"/>
<path d="M94.5444 198.422C94.5444 198.422 91.2364 198.829 89.9368 201.212C88.6372 203.595 87.9874 207.896 87.9874 207.896H89.2279C89.2279 207.896 89.9368 199.352 93.6583 199.817L94.5444 198.422Z" fill="#3F3D56"/>
<path d="M92.2996 211.734L87.0422 208.537C87.0422 208.537 86.7469 207.374 90.114 206.909C90.114 206.909 96.4801 209.1 95.8664 209.922C95.2526 210.745 93.1857 212.024 92.2996 211.734Z" fill="#36334A"/>
<path d="M100.452 201.328V208.129H101.219V201.212L100.452 201.328Z" fill="#3F3D56"/>
<path d="M101.574 205.513C101.574 205.513 103.051 211.209 102.106 212.023C102.106 212.023 100.865 208.419 99.9199 208.884L100.215 205.513H101.574Z" fill="#36334A"/>
<path d="M107.304 181.798C108.576 181.798 109.608 180.784 109.608 179.532C109.608 178.28 108.576 177.265 107.304 177.265C106.031 177.265 105 178.28 105 179.532C105 180.784 106.031 181.798 107.304 181.798Z" fill="#FBBEBE"/>
<path d="M106.868 182.967C107.807 183.124 108.619 182.049 109.56 182.2C109.764 182.241 109.96 182.317 110.138 182.424C111.539 183.204 112.542 184.526 112.904 186.07C113.011 186.536 113.052 187.041 112.852 187.477C112.746 187.708 112.577 187.906 112.409 188.098C111.783 188.814 111.096 189.528 110.204 189.874C110.116 190.172 110.2 190.494 110.305 190.785C110.741 192.004 110.047 193.317 110.012 194.608C110.006 194.829 110.012 195.07 109.872 195.243C109.716 195.434 109.438 195.468 109.189 195.482C106.908 195.609 104.63 195.264 102.373 194.922C102.313 194.917 102.256 194.898 102.207 194.866C102.133 194.808 102.121 194.704 102.106 194.612C102.022 194.124 102.463 193.728 102.254 193.278C101.895 192.504 102.678 191.658 102.904 190.836C103.129 190.015 103.218 189.871 103.376 189.035C103.435 188.722 103.265 187.779 103.317 187.465C103.487 186.44 103.358 185.272 103.908 184.385C104.238 183.852 104.152 183.437 104.741 183.205C105.363 182.96 106.204 183.043 106.869 182.967H106.868Z" fill="#F5F4F4"/>
<path d="M96.4642 196.486C95.7766 196.617 95.0465 196.741 94.5172 197.192C94.1941 197.468 93.9767 197.842 93.7658 198.208L91.6127 201.944C90.9558 203.083 90.2989 204.223 89.7035 205.394C89.6515 205.479 89.6208 205.575 89.6143 205.675C89.6166 205.815 89.7123 205.935 89.8098 206.036C90.4986 206.739 91.4845 207.08 92.468 206.956C92.6163 206.201 93.3452 205.703 93.7026 205.019C93.8987 204.644 93.9779 204.222 94.1043 203.818C94.5769 202.313 95.6992 201.104 96.7885 199.951C97.3036 199.405 97.8305 198.85 98.4939 198.492C99.2719 198.072 100.175 197.956 101.045 197.782C101.914 197.607 102.815 197.343 103.43 196.714C103.959 196.165 104.209 195.411 104.112 194.661C103.555 194.622 102.935 194.551 102.397 194.727C101.773 194.932 101.169 195.212 100.544 195.421C99.2105 195.868 97.8471 196.224 96.4636 196.486H96.4642Z" fill="#696880"/>
<path opacity="0.1" d="M96.4642 196.486C95.7766 196.617 95.0465 196.741 94.5172 197.192C94.1941 197.468 93.9767 197.842 93.7658 198.208L91.6127 201.944C90.9558 203.083 90.2989 204.223 89.7035 205.394C89.6515 205.479 89.6208 205.575 89.6143 205.675C89.6166 205.815 89.7123 205.935 89.8098 206.036C90.4986 206.739 91.4845 207.08 92.468 206.956C92.6163 206.201 93.3452 205.703 93.7026 205.019C93.8987 204.644 93.9779 204.222 94.1043 203.818C94.5769 202.313 95.6992 201.104 96.7885 199.951C97.3036 199.405 97.8305 198.85 98.4939 198.492C99.2719 198.072 100.175 197.956 101.045 197.782C101.914 197.607 102.815 197.343 103.43 196.714C103.959 196.165 104.209 195.411 104.112 194.661C103.555 194.622 102.935 194.551 102.397 194.727C101.773 194.932 101.169 195.212 100.544 195.421C99.2105 195.868 97.8471 196.224 96.4636 196.486H96.4642Z" fill="black"/>
<path d="M87.1811 208.332C87.1043 208.386 87.0452 208.461 87.0115 208.547C86.9336 208.809 87.2667 208.994 87.5337 209.07C88.1333 209.239 88.7731 209.41 89.3709 209.235C89.7377 209.127 90.0567 208.898 90.4212 208.783C90.9617 208.612 91.5477 208.709 92.1065 208.807C92.2311 208.116 92.1472 207.403 91.8649 206.759C91.6853 206.352 90.9676 206.154 90.5405 206.136C90.0732 206.116 89.9114 206.455 89.6414 206.767C88.9845 207.528 87.9384 207.704 87.1817 208.332H87.1811Z" fill="#3F3D56"/>
<path d="M96.9025 197.599C96.5723 197.729 96.2332 197.863 95.9739 198.103C95.7004 198.356 95.5397 198.703 95.3938 199.043C94.962 200.049 94.5946 201.081 94.2933 202.132C94.1409 202.663 94.0057 203.2 93.8007 203.714C93.3913 204.74 92.6972 205.721 92.7622 206.82C92.7622 206.954 92.7982 207.085 92.8679 207.2C92.9607 207.333 93.1184 207.403 93.2684 207.467L94.0541 207.802C94.4759 207.982 94.9898 208.156 95.3667 207.896C95.6189 207.723 95.7193 207.409 95.7955 207.115C96.0702 206.056 96.2397 204.956 96.7318 203.977C97.2877 202.87 98.2281 201.975 98.7255 200.841C98.7958 200.681 98.8625 200.509 99.0013 200.399C99.1159 200.308 99.2642 200.273 99.4072 200.241C102.357 199.58 105.374 199.219 108.3 198.463C108.716 198.356 109.152 198.228 109.449 197.922C109.861 197.497 109.897 196.851 109.91 196.265C109.918 195.897 109.917 195.498 109.689 195.206C109.432 194.877 108.972 194.791 108.553 194.747C106.946 194.581 105.463 194.843 103.879 195.035C102.431 195.21 100.972 196.015 99.6204 196.541C98.7149 196.893 97.8099 197.247 96.9049 197.601L96.9025 197.599Z" fill="#696880"/>
<path d="M93.2678 208.107C93.0468 208.624 92.8082 209.163 92.3604 209.508C92.1732 209.652 91.931 209.797 91.9239 210.031C91.9162 210.278 92.1802 210.442 92.4165 210.525C93.0191 210.739 93.7055 210.785 94.2932 210.535C94.6955 210.363 95.0269 210.067 95.3506 209.777C95.4481 209.689 95.5491 209.597 95.5946 209.475C95.6259 209.372 95.6353 209.265 95.6218 209.158C95.5828 208.513 95.4658 207.874 95.2732 207.255C95.2585 207.206 93.9872 207.051 93.8744 207.08C93.5194 207.171 93.4042 207.788 93.2672 208.107H93.2678Z" fill="#3F3D56"/>
<path d="M113.034 193.133L105.355 193.365C105.355 193.365 98.5614 199.875 104.173 201.852C104.173 201.852 111.085 202.956 112.739 201.677C112.739 201.677 114.806 193.656 113.034 193.133ZM112.68 195.283L104.469 195.807C104.469 195.807 105.059 193.83 107.422 193.83C109.785 193.83 112.443 193.307 112.68 194.528C112.916 195.748 112.68 195.283 112.68 195.283Z" fill="#3F3D56"/>
<path d="M111.291 213.999C115.549 213.999 119 210.148 119 205.397C119 200.645 115.549 196.794 111.291 196.794C107.034 196.794 103.582 200.645 103.582 205.397C103.582 210.148 107.034 213.999 111.291 213.999Z" fill="#36334A"/>
<path d="M111.646 211.791C114.859 211.791 117.464 208.928 117.464 205.397C117.464 201.866 114.859 199.003 111.646 199.003C108.432 199.003 105.827 201.866 105.827 205.397C105.827 208.928 108.432 211.791 111.646 211.791Z" fill="#3F3D56"/>
<path d="M113.152 205.31C113.152 205.198 113.141 205.087 113.118 204.978L117.464 202.84L117.169 202.2L112.779 204.305C112.734 204.26 112.685 204.22 112.633 204.185H112.636L113.92 197.9L112.785 197.874L112.03 204.061L112.102 204.076C112.044 204.088 111.987 204.107 111.933 204.133L108.136 200.298L107.599 201.038L111.5 204.57C111.402 204.754 111.344 204.957 111.328 205.165L105.828 207.374L105.71 208.304L111.443 205.931C111.497 206.062 111.572 206.182 111.667 206.288L109.904 212.198H110.553L112.034 206.528C112.099 206.549 112.168 206.56 112.237 206.56C112.371 206.559 112.5 206.521 112.613 206.449L115.693 210.455L116.638 209.815L113.029 205.936C113.111 205.738 113.153 205.525 113.153 205.311L113.152 205.31Z" fill="#36334A"/>
<path d="M104.627 178.096C104.731 177.839 105.066 177.732 105.176 177.477C105.294 177.203 105.109 176.855 105.27 176.602C105.432 176.348 105.81 176.378 106.111 176.427C106.466 176.485 106.843 176.524 107.175 176.385C107.322 176.324 107.453 176.23 107.595 176.158C107.822 176.045 108.074 175.991 108.328 176.001C108.386 176 108.442 176.013 108.492 176.04C108.54 176.074 108.577 176.121 108.599 176.175C108.703 176.396 108.717 176.671 108.905 176.83C108.995 176.906 109.112 176.942 109.22 176.99C109.735 177.234 110.04 177.769 109.985 178.328C109.96 178.455 109.944 178.583 109.938 178.711C109.945 178.994 110.133 179.276 110.037 179.543C109.966 179.741 109.757 179.858 109.553 179.92C109.495 179.943 109.43 179.946 109.37 179.929C109.266 179.887 109.244 179.754 109.211 179.648C109.114 179.362 108.839 179.172 108.533 179.178C108.295 179.188 108.054 179.32 107.829 179.241C107.719 179.203 107.632 179.119 107.544 179.043C107.341 178.869 107.1 178.723 106.833 178.686C106.566 178.649 106.27 178.738 106.113 178.953C106.049 179.04 106.011 179.142 105.951 179.231C105.406 180.032 104.403 178.649 104.627 178.094L104.627 178.096Z" fill="#36334A"/>
<path d="M105.854 191.911C105.649 191.885 105.444 191.96 105.306 192.112C104.789 192.575 104.241 193.098 104.148 193.779C104.134 193.842 104.141 193.907 104.169 193.964C104.219 194.045 104.328 194.062 104.424 194.064C104.912 194.068 105.379 193.866 105.705 193.507C105.793 193.408 105.875 193.295 105.997 193.239C106.108 193.198 106.227 193.184 106.345 193.196C106.669 193.207 107.41 193.37 107.692 193.212C107.989 193.046 107.908 192.524 107.769 192.272C107.439 191.674 106.416 191.905 105.854 191.911V191.911Z" fill="#FBBEBE"/>
<path d="M113.069 186.89C113.268 187.519 113.151 188.227 113.433 188.824C113.62 189.221 113.971 189.54 114.08 189.964C114.183 190.364 114.045 190.796 113.803 191.133C113.562 191.471 113.226 191.73 112.888 191.976C112.519 192.245 112.136 192.508 111.7 192.653C111.266 192.799 110.801 192.82 110.344 192.841L107.308 192.978L106.75 191.329L108.727 190.567C108.925 190.491 109.127 190.414 109.339 190.398C109.705 190.371 110.151 190.504 110.386 190.226C110.461 190.124 110.508 190.005 110.524 189.881C110.716 188.912 110.549 187.887 110.844 186.944C110.99 186.477 111.412 185.541 111.988 185.458C112.597 185.371 112.932 186.454 113.07 186.89H113.069Z" fill="#F5F4F4"/>
</g>
<defs>
<clipPath id="clip0_282_13193">
<rect width="433.31" height="315.48" fill="white"/>
</clipPath>
</defs>
</svg>
