<svg width="434" height="316" viewBox="0 0 434 316" fill="none" xmlns="http://www.w3.org/2000/svg">
<g clip-path="url(#clip0_282_14947)">
<path d="M190.26 212.179C186.87 214.009 183.27 214.929 179.2 214.739C175.19 214.559 171.15 214.809 167.12 214.859C166.37 214.859 165.82 215.169 165.71 215.769C165.16 218.629 163.74 221.259 162.87 224.029C162.61 224.849 162.38 225.779 162.99 226.729C163.88 228.119 163.7 229.609 162.83 231.019C161.86 232.579 161.69 234.329 161.35 236.069C160.78 236.489 160.05 236.399 159.34 236.399C158.33 236.399 157.1 236.429 156.53 236.989C154.93 238.539 152.65 239.239 151 240.589C149.11 242.139 146.95 243.479 145.57 245.529C144.52 247.089 143.23 248.569 141.58 249.739C136.88 248.139 134.51 244.839 132.7 241.069C132 239.609 131.46 238.129 131.05 236.589C130.48 234.419 130.54 232.559 132.21 230.599C133.24 229.389 134.2 227.869 134.36 226.179C134.71 222.629 132.2 220.089 129.03 219.009C126.91 218.289 124.74 217.679 122.71 216.799C122.01 216.499 121.13 216.239 120.63 215.549C121.56 213.399 122.3 211.149 123.27 208.959C124.69 205.729 126.94 203.019 130.3 201.319C133.22 199.849 133.61 196.099 132.5 193.909C131.82 192.549 130.95 191.309 129.65 190.309C128.93 189.759 128.19 189.219 127.56 188.549C125.89 186.739 125.69 186.159 127.63 184.809C129.59 183.449 130.2 181.499 131.32 179.689C133.94 181.649 136.9 183.229 138.71 185.989C139.81 187.669 141.73 188.469 144.18 188.219C145.77 188.059 147.57 188.489 148.63 189.469C151.75 192.379 155.86 192.879 159.95 193.539C163.68 194.139 167.45 194.419 171.22 194.799C174.51 195.129 177.13 196.179 178.23 199.269C178.78 200.819 179.99 202.019 181.85 202.719C184.38 203.669 186.09 205.399 187.43 207.509C188.38 209.009 189.39 210.479 190.26 212.009" fill="#D1FF00"/>
<path d="M151.874 205.408C154.696 205.408 156.983 202.855 156.983 199.706C156.983 196.557 154.696 194.004 151.874 194.004C149.051 194.004 146.764 196.557 146.764 199.706C146.764 202.855 149.051 205.408 151.874 205.408Z" fill="#36334A"/>
<path d="M158.432 180.732C157.204 181.259 155.865 181.488 154.529 181.398C154.872 181.156 155.092 180.77 155.181 180.364C155.269 179.958 155.236 179.535 155.144 179.13C155.128 179.083 155.128 179.032 155.147 178.987C155.185 178.941 155.243 178.914 155.303 178.914C155.821 178.843 157.303 178.535 157.697 178.971C157.884 179.178 157.812 179.579 157.881 179.832C157.909 179.936 158.27 180.803 158.432 180.733V180.732Z" fill="#FBBEBE"/>
<path opacity="0.1" d="M158.432 180.732C157.204 181.259 155.865 181.488 154.529 181.398C154.872 181.156 155.092 180.77 155.181 180.364C155.269 179.958 155.236 179.535 155.144 179.13C155.128 179.083 155.128 179.032 155.147 178.987C155.185 178.941 155.243 178.914 155.303 178.914C155.821 178.843 157.303 178.535 157.697 178.971C157.884 179.178 157.812 179.579 157.881 179.832C157.909 179.936 158.27 180.803 158.432 180.733V180.732Z" fill="black"/>
<path d="M154.118 189.389L146.439 189.621C146.439 189.621 139.646 196.131 145.257 198.108C145.257 198.108 152.169 199.212 153.823 197.933C153.823 197.933 155.89 189.912 154.118 189.389ZM153.764 191.539L145.553 192.062C145.553 192.062 146.144 190.086 148.506 190.086C150.869 190.086 153.527 189.563 153.764 190.784C154 192.004 153.764 191.539 153.764 191.539Z" fill="#3F3D56"/>
<path d="M148.064 188.345C147.681 188.287 147.265 188.254 146.929 188.445C146.818 188.513 146.714 188.594 146.62 188.685C146.485 188.807 146.351 188.93 146.218 189.054C146.121 189.145 146.02 189.245 145.994 189.374C145.943 189.64 146.256 189.856 146.531 189.845C146.806 189.835 147.053 189.686 147.314 189.596C147.838 189.416 149.764 189.724 149.869 189.17C150.003 188.464 148.49 188.412 148.064 188.346V188.345Z" fill="#FBBEBE"/>
<path d="M151.654 187.9C151.153 188.151 150.608 188.303 150.048 188.349C149.961 188.35 149.875 188.369 149.794 188.402C149.746 188.432 149.709 188.476 149.688 188.529C149.492 188.934 149.37 189.371 149.329 189.819C149.319 189.863 149.335 189.909 149.371 189.937C149.424 189.964 149.484 189.977 149.544 189.975C150.463 190.033 151.386 190.064 152.311 190.068C152.351 190.071 152.393 190.065 152.431 190.051C152.458 190.038 152.478 190.013 152.487 189.984C152.703 189.453 152.806 188.883 152.787 188.311C152.763 187.638 152.563 187.427 151.655 187.901L151.654 187.9Z" fill="#D7E5F2"/>
<path d="M151.654 187.9C151.153 188.151 150.608 188.303 150.048 188.349C149.961 188.35 149.875 188.369 149.794 188.402C149.746 188.432 149.709 188.476 149.688 188.529C149.492 188.934 149.37 189.371 149.329 189.819C149.319 189.863 149.335 189.909 149.371 189.937C149.424 189.964 149.484 189.977 149.544 189.975C150.463 190.033 151.386 190.064 152.311 190.068C152.351 190.071 152.393 190.065 152.431 190.051C152.458 190.038 152.478 190.013 152.487 189.984C152.703 189.453 152.806 188.883 152.787 188.311C152.763 187.638 152.563 187.427 151.655 187.901L151.654 187.9Z" fill="#F5F4F4"/>
<path d="M161.975 193.981L151.873 193.632L154.236 183.809C154.236 183.809 163.688 183.111 163.451 185.495C163.215 187.878 161.975 193.981 161.975 193.981Z" fill="#36334A"/>
<path d="M152.223 198.676C152.223 198.676 146.143 199.734 143.958 196.596C141.772 193.457 152.228 195.142 152.228 195.142L153.114 197.526L152.223 198.676Z" fill="#36334A"/>
<path d="M150.397 212C151.93 212 153.173 210.777 153.173 209.268C153.173 207.759 151.93 206.536 150.397 206.536C148.863 206.536 147.62 207.759 147.62 209.268C147.62 210.777 148.863 212 150.397 212Z" fill="#36334A"/>
<path d="M150.663 211.244C151.625 211.244 152.405 210.359 152.405 209.267C152.405 208.176 151.625 207.291 150.663 207.291C149.7 207.291 148.92 208.176 148.92 209.267C148.92 210.359 149.7 211.244 150.663 211.244Z" fill="#3F3D56"/>
<path d="M165.578 183.519C165.578 183.519 163.274 182.24 163.156 185.262L161.207 199.329H162.034L164.279 184.274C164.279 184.274 165.401 184.449 165.578 184.449C165.755 184.449 165.578 183.519 165.578 183.519Z" fill="#3F3D56"/>
<path d="M167.874 185.07C167.792 185.36 167.487 185.529 167.194 185.449C167.17 185.442 167.147 185.434 167.125 185.425L164.452 184.301L164.937 183.25L167.571 184.431C167.819 184.542 167.947 184.813 167.874 185.07H167.874Z" fill="#36334A"/>
<path d="M151.637 198.34C151.637 198.34 147.384 197.875 146.202 201.885C145.021 205.896 145.139 208.977 144.135 208.744C143.131 208.512 141.004 207.698 141.004 207.698L141.181 208.919C141.181 208.919 144.903 210.779 145.494 208.802C146.084 206.826 146.439 199.56 149.806 199.735C153.173 199.909 153.764 199.56 153.764 199.56L151.637 198.34Z" fill="#3F3D56"/>
<path d="M143.544 196.422C143.544 196.422 140.236 196.829 138.937 199.212C137.637 201.595 136.987 205.896 136.987 205.896H138.228C138.228 205.896 138.937 197.352 142.658 197.817L143.544 196.422Z" fill="#3F3D56"/>
<path d="M141.3 209.734L136.042 206.537C136.042 206.537 135.747 205.374 139.114 204.909C139.114 204.909 145.48 207.1 144.866 207.922C144.253 208.745 142.186 210.024 141.3 209.734Z" fill="#36334A"/>
<path d="M149.452 199.328V206.129H150.219V199.212L149.452 199.328Z" fill="#3F3D56"/>
<path d="M150.574 203.513C150.574 203.513 152.051 209.209 151.106 210.023C151.106 210.023 149.865 206.419 148.92 206.884L149.215 203.513H150.574Z" fill="#36334A"/>
<path d="M156.304 179.798C157.576 179.798 158.608 178.784 158.608 177.532C158.608 176.28 157.576 175.265 156.304 175.265C155.031 175.265 154 176.28 154 177.532C154 178.784 155.031 179.798 156.304 179.798Z" fill="#FBBEBE"/>
<path d="M155.868 180.967C156.807 181.124 157.619 180.049 158.56 180.2C158.764 180.241 158.96 180.317 159.138 180.424C160.539 181.204 161.542 182.526 161.904 184.07C162.011 184.536 162.052 185.041 161.852 185.477C161.746 185.708 161.577 185.906 161.409 186.098C160.783 186.814 160.096 187.528 159.204 187.874C159.116 188.172 159.2 188.494 159.305 188.785C159.741 190.004 159.047 191.317 159.012 192.608C159.006 192.829 159.012 193.07 158.872 193.243C158.716 193.434 158.438 193.468 158.189 193.482C155.908 193.609 153.63 193.264 151.373 192.922C151.313 192.917 151.256 192.898 151.207 192.866C151.133 192.808 151.121 192.704 151.106 192.612C151.022 192.124 151.463 191.728 151.254 191.278C150.895 190.504 151.678 189.658 151.904 188.836C152.129 188.015 152.218 187.871 152.376 187.035C152.435 186.722 152.265 185.779 152.317 185.465C152.487 184.44 152.358 183.272 152.908 182.385C153.238 181.852 153.152 181.437 153.741 181.205C154.363 180.96 155.204 181.043 155.869 180.967H155.868Z" fill="#F5F4F4"/>
<path d="M145.464 194.486C144.777 194.617 144.046 194.741 143.517 195.192C143.194 195.468 142.977 195.842 142.766 196.208L140.613 199.944C139.956 201.083 139.299 202.223 138.703 203.394C138.651 203.479 138.621 203.575 138.614 203.675C138.617 203.815 138.712 203.935 138.81 204.036C139.499 204.739 140.484 205.08 141.468 204.956C141.616 204.201 142.345 203.703 142.703 203.019C142.899 202.644 142.978 202.222 143.104 201.818C143.577 200.313 144.699 199.104 145.789 197.951C146.304 197.405 146.831 196.85 147.494 196.492C148.272 196.072 149.175 195.956 150.045 195.782C150.914 195.607 151.815 195.343 152.43 194.714C152.959 194.165 153.209 193.411 153.112 192.661C152.555 192.622 151.935 192.551 151.397 192.727C150.773 192.932 150.169 193.212 149.544 193.421C148.21 193.868 146.847 194.224 145.464 194.486H145.464Z" fill="#696880"/>
<path opacity="0.1" d="M145.464 194.486C144.777 194.617 144.046 194.741 143.517 195.192C143.194 195.468 142.977 195.842 142.766 196.208L140.613 199.944C139.956 201.083 139.299 202.223 138.703 203.394C138.651 203.479 138.621 203.575 138.614 203.675C138.617 203.815 138.712 203.935 138.81 204.036C139.499 204.739 140.484 205.08 141.468 204.956C141.616 204.201 142.345 203.703 142.703 203.019C142.899 202.644 142.978 202.222 143.104 201.818C143.577 200.313 144.699 199.104 145.789 197.951C146.304 197.405 146.831 196.85 147.494 196.492C148.272 196.072 149.175 195.956 150.045 195.782C150.914 195.607 151.815 195.343 152.43 194.714C152.959 194.165 153.209 193.411 153.112 192.661C152.555 192.622 151.935 192.551 151.397 192.727C150.773 192.932 150.169 193.212 149.544 193.421C148.21 193.868 146.847 194.224 145.464 194.486H145.464Z" fill="black"/>
<path d="M136.181 206.332C136.104 206.386 136.045 206.461 136.012 206.547C135.934 206.809 136.267 206.994 136.534 207.07C137.133 207.239 137.773 207.41 138.371 207.235C138.738 207.127 139.057 206.898 139.421 206.783C139.962 206.612 140.548 206.709 141.106 206.807C141.231 206.116 141.147 205.403 140.865 204.759C140.685 204.352 139.968 204.154 139.54 204.136C139.073 204.116 138.911 204.455 138.641 204.767C137.985 205.528 136.938 205.704 136.182 206.332H136.181Z" fill="#3F3D56"/>
<path d="M145.903 195.599C145.572 195.729 145.233 195.863 144.974 196.103C144.7 196.356 144.54 196.703 144.394 197.043C143.962 198.049 143.595 199.081 143.293 200.132C143.141 200.663 143.006 201.2 142.801 201.714C142.391 202.74 141.697 203.721 141.762 204.82C141.762 204.954 141.798 205.085 141.868 205.2C141.961 205.333 142.118 205.403 142.268 205.467L143.054 205.802C143.476 205.982 143.99 206.156 144.367 205.896C144.619 205.723 144.719 205.409 144.796 205.115C145.07 204.056 145.24 202.956 145.732 201.977C146.288 200.87 147.228 199.975 147.725 198.841C147.796 198.681 147.863 198.509 148.001 198.399C148.116 198.308 148.264 198.273 148.407 198.241C151.357 197.58 154.374 197.219 157.3 196.463C157.716 196.356 158.152 196.228 158.449 195.922C158.861 195.497 158.897 194.851 158.91 194.265C158.918 193.897 158.917 193.498 158.689 193.206C158.432 192.877 157.972 192.791 157.553 192.747C155.946 192.581 154.463 192.843 152.879 193.035C151.431 193.21 149.972 194.015 148.62 194.541C147.715 194.893 146.81 195.247 145.905 195.601L145.903 195.599Z" fill="#696880"/>
<path d="M142.268 206.107C142.047 206.624 141.808 207.163 141.36 207.508C141.173 207.652 140.931 207.797 140.924 208.031C140.916 208.278 141.18 208.442 141.417 208.525C142.019 208.739 142.705 208.785 143.293 208.535C143.696 208.363 144.027 208.067 144.351 207.777C144.448 207.689 144.549 207.597 144.595 207.475C144.626 207.372 144.635 207.265 144.622 207.158C144.583 206.513 144.466 205.874 144.273 205.255C144.258 205.206 142.987 205.051 142.874 205.08C142.519 205.171 142.404 205.788 142.267 206.107H142.268Z" fill="#3F3D56"/>
<path d="M162.034 191.133L154.355 191.365C154.355 191.365 147.561 197.875 153.173 199.852C153.173 199.852 160.085 200.956 161.739 199.677C161.739 199.677 163.806 191.656 162.034 191.133ZM161.68 193.283L153.469 193.807C153.469 193.807 154.059 191.83 156.422 191.83C158.785 191.83 161.443 191.307 161.68 192.528C161.916 193.748 161.68 193.283 161.68 193.283Z" fill="#3F3D56"/>
<path d="M160.291 211.999C164.549 211.999 168 208.148 168 203.397C168 198.645 164.549 194.794 160.291 194.794C156.034 194.794 152.582 198.645 152.582 203.397C152.582 208.148 156.034 211.999 160.291 211.999Z" fill="#36334A"/>
<path d="M160.646 209.791C163.859 209.791 166.464 206.928 166.464 203.397C166.464 199.866 163.859 197.003 160.646 197.003C157.432 197.003 154.827 199.866 154.827 203.397C154.827 206.928 157.432 209.791 160.646 209.791Z" fill="#3F3D56"/>
<path d="M162.152 203.31C162.152 203.198 162.141 203.087 162.118 202.978L166.464 200.84L166.169 200.2L161.779 202.305C161.734 202.26 161.685 202.22 161.633 202.185H161.636L162.92 195.9L161.785 195.874L161.03 202.061L161.102 202.076C161.044 202.088 160.987 202.107 160.933 202.133L157.136 198.298L156.599 199.038L160.5 202.57C160.402 202.754 160.344 202.957 160.328 203.165L154.828 205.374L154.71 206.304L160.443 203.931C160.497 204.062 160.572 204.182 160.667 204.288L158.904 210.198H159.553L161.034 204.528C161.099 204.549 161.168 204.56 161.237 204.56C161.371 204.559 161.5 204.521 161.613 204.449L164.693 208.455L165.638 207.815L162.029 203.936C162.111 203.738 162.153 203.525 162.153 203.311L162.152 203.31Z" fill="#36334A"/>
<path d="M153.627 176.096C153.731 175.839 154.066 175.732 154.176 175.477C154.294 175.203 154.109 174.855 154.27 174.602C154.432 174.348 154.81 174.378 155.111 174.427C155.466 174.485 155.843 174.524 156.175 174.385C156.322 174.324 156.453 174.23 156.595 174.158C156.822 174.045 157.074 173.991 157.328 174.001C157.385 174 157.442 174.013 157.492 174.04C157.54 174.074 157.577 174.121 157.599 174.175C157.703 174.396 157.717 174.671 157.905 174.83C157.995 174.906 158.112 174.942 158.22 174.99C158.735 175.234 159.04 175.769 158.985 176.328C158.96 176.455 158.944 176.583 158.938 176.711C158.945 176.994 159.133 177.276 159.037 177.543C158.966 177.741 158.757 177.858 158.553 177.92C158.495 177.943 158.43 177.946 158.37 177.929C158.266 177.887 158.244 177.754 158.211 177.648C158.114 177.362 157.839 177.172 157.533 177.178C157.295 177.188 157.053 177.32 156.829 177.241C156.719 177.203 156.632 177.119 156.544 177.043C156.341 176.869 156.1 176.723 155.833 176.686C155.566 176.649 155.27 176.738 155.113 176.953C155.049 177.04 155.011 177.142 154.951 177.231C154.406 178.032 153.403 176.649 153.627 176.094L153.627 176.096Z" fill="#36334A"/>
<path d="M154.854 189.911C154.649 189.885 154.444 189.96 154.306 190.112C153.789 190.575 153.241 191.098 153.148 191.779C153.134 191.842 153.141 191.907 153.169 191.964C153.219 192.045 153.328 192.062 153.424 192.064C153.912 192.068 154.379 191.866 154.705 191.507C154.793 191.408 154.875 191.295 154.997 191.239C155.108 191.198 155.227 191.184 155.345 191.196C155.669 191.207 156.41 191.37 156.692 191.212C156.989 191.046 156.908 190.524 156.769 190.272C156.439 189.674 155.416 189.905 154.854 189.911V189.911Z" fill="#FBBEBE"/>
<path d="M162.069 184.89C162.268 185.519 162.151 186.227 162.433 186.824C162.62 187.221 162.971 187.54 163.08 187.964C163.183 188.364 163.045 188.796 162.803 189.133C162.562 189.471 162.226 189.73 161.888 189.976C161.519 190.245 161.136 190.508 160.7 190.653C160.266 190.799 159.801 190.82 159.344 190.841L156.308 190.978L155.75 189.329L157.727 188.567C157.925 188.491 158.127 188.414 158.339 188.398C158.705 188.371 159.151 188.504 159.386 188.226C159.461 188.124 159.508 188.005 159.524 187.881C159.716 186.912 159.549 185.887 159.844 184.944C159.99 184.477 160.412 183.541 160.988 183.458C161.597 183.371 161.932 184.454 162.07 184.89H162.069Z" fill="#F5F4F4"/>
</g>
<defs>
<clipPath id="clip0_282_14947">
<rect width="433.31" height="315.48" fill="white"/>
</clipPath>
</defs>
</svg>
