<svg width="434" height="316" viewBox="0 0 434 316" fill="none" xmlns="http://www.w3.org/2000/svg">
<g clip-path="url(#clip0_282_22840)">
<path d="M262.37 190.86C258.68 193.67 254.98 196.47 251.31 199.29C249.65 200.57 248.94 202.42 248.3 204.15C247.14 207.28 244.53 208.69 241.26 209.5C236.37 210.71 231.68 212.44 226.72 213.47C223.42 214.16 220.3 214.27 217.28 212.58C214.1 210.8 210.71 211.63 207.48 212.44C205.98 212.81 204.52 213.29 203.13 213.46C196.02 209.15 191.19 203.28 187.1 196.58C187.95 194.4 189.35 191.89 188.14 189.04C189.28 188.81 190.37 188.45 191.48 188.38C194.8 188.17 197.09 186.48 199.03 184.39C200.3 183.02 200.21 181.23 200.03 179.58C199.95 178.86 199.83 178.13 199.92 177.43C200.05 176.35 200.35 175.52 201.9 175.02C204.57 174.15 207.23 173.04 208.72 170.63C208.93 170.3 209.32 170 209.91 169.87C213.51 169.06 217.03 167.95 220.78 167.76C225.92 167.49 230.24 169.2 233.87 172.25C237.11 174.97 240.81 175.52 244.94 174.37C246.4 173.96 247.57 174.3 248.4 175.3C249.45 176.55 250.53 177.79 251.33 179.21C252.26 180.87 252.79 182.32 251.54 184.1C250.5 185.59 250.96 186.04 253.13 186.23C253.47 186.26 253.84 186.45 254.15 186.39C257.41 185.8 259.51 187.17 261.14 189.44C261.49 189.93 262.08 190.29 262.56 190.71" fill="#D1FF00"/>
<path d="M219.874 194.408C222.696 194.408 224.983 191.855 224.983 188.706C224.983 185.557 222.696 183.004 219.874 183.004C217.051 183.004 214.764 185.557 214.764 188.706C214.764 191.855 217.051 194.408 219.874 194.408Z" fill="#36334A"/>
<path d="M226.432 169.732C225.204 170.259 223.865 170.488 222.529 170.398C222.872 170.156 223.092 169.77 223.181 169.364C223.269 168.958 223.236 168.535 223.144 168.13C223.128 168.083 223.128 168.032 223.147 167.987C223.185 167.941 223.243 167.914 223.303 167.914C223.821 167.843 225.303 167.535 225.697 167.971C225.884 168.178 225.812 168.579 225.881 168.832C225.909 168.936 226.27 169.803 226.432 169.733V169.732Z" fill="#FBBEBE"/>
<path opacity="0.1" d="M226.432 169.732C225.204 170.259 223.865 170.488 222.529 170.398C222.872 170.156 223.092 169.77 223.181 169.364C223.269 168.958 223.236 168.535 223.144 168.13C223.128 168.083 223.128 168.032 223.147 167.987C223.185 167.941 223.243 167.914 223.303 167.914C223.821 167.843 225.303 167.535 225.697 167.971C225.884 168.178 225.812 168.579 225.881 168.832C225.909 168.936 226.27 169.803 226.432 169.733V169.732Z" fill="black"/>
<path d="M222.118 178.389L214.439 178.621C214.439 178.621 207.646 185.131 213.257 187.108C213.257 187.108 220.169 188.212 221.823 186.933C221.823 186.933 223.89 178.912 222.118 178.389ZM221.764 180.539L213.553 181.062C213.553 181.062 214.144 179.086 216.506 179.086C218.869 179.086 221.527 178.563 221.764 179.784C222 181.004 221.764 180.539 221.764 180.539Z" fill="#3F3D56"/>
<path d="M216.064 177.345C215.681 177.287 215.265 177.254 214.929 177.445C214.818 177.513 214.714 177.594 214.62 177.685C214.485 177.807 214.351 177.93 214.218 178.054C214.121 178.145 214.02 178.245 213.994 178.374C213.943 178.64 214.256 178.856 214.531 178.845C214.806 178.835 215.053 178.686 215.314 178.596C215.838 178.416 217.764 178.724 217.869 178.17C218.003 177.464 216.49 177.412 216.064 177.346V177.345Z" fill="#FBBEBE"/>
<path d="M219.654 176.9C219.153 177.151 218.608 177.303 218.048 177.349C217.961 177.35 217.875 177.369 217.794 177.402C217.746 177.432 217.709 177.476 217.688 177.529C217.492 177.934 217.37 178.371 217.329 178.819C217.319 178.863 217.335 178.909 217.371 178.937C217.424 178.964 217.484 178.977 217.544 178.975C218.463 179.033 219.386 179.064 220.311 179.068C220.351 179.071 220.393 179.065 220.431 179.051C220.458 179.038 220.478 179.013 220.487 178.984C220.703 178.453 220.806 177.883 220.787 177.311C220.763 176.638 220.563 176.427 219.655 176.901L219.654 176.9Z" fill="#D7E5F2"/>
<path d="M219.654 176.9C219.153 177.151 218.608 177.303 218.048 177.349C217.961 177.35 217.875 177.369 217.794 177.402C217.746 177.432 217.709 177.476 217.688 177.529C217.492 177.934 217.37 178.371 217.329 178.819C217.319 178.863 217.335 178.909 217.371 178.937C217.424 178.964 217.484 178.977 217.544 178.975C218.463 179.033 219.386 179.064 220.311 179.068C220.351 179.071 220.393 179.065 220.431 179.051C220.458 179.038 220.478 179.013 220.487 178.984C220.703 178.453 220.806 177.883 220.787 177.311C220.763 176.638 220.563 176.427 219.655 176.901L219.654 176.9Z" fill="#9E9E9E"/>
<path d="M229.975 182.981L219.873 182.632L222.236 172.809C222.236 172.809 231.688 172.111 231.451 174.495C231.215 176.878 229.975 182.981 229.975 182.981Z" fill="#36334A"/>
<path d="M220.223 187.676C220.223 187.676 214.143 188.734 211.958 185.596C209.772 182.457 220.228 184.142 220.228 184.142L221.114 186.526L220.223 187.676Z" fill="#36334A"/>
<path d="M218.397 201C219.93 201 221.173 199.777 221.173 198.268C221.173 196.759 219.93 195.536 218.397 195.536C216.863 195.536 215.62 196.759 215.62 198.268C215.62 199.777 216.863 201 218.397 201Z" fill="#36334A"/>
<path d="M218.663 200.244C219.625 200.244 220.405 199.359 220.405 198.267C220.405 197.176 219.625 196.291 218.663 196.291C217.7 196.291 216.92 197.176 216.92 198.267C216.92 199.359 217.7 200.244 218.663 200.244Z" fill="#3F3D56"/>
<path d="M233.578 172.519C233.578 172.519 231.274 171.24 231.156 174.262L229.207 188.329H230.034L232.279 173.274C232.279 173.274 233.401 173.449 233.578 173.449C233.755 173.449 233.578 172.519 233.578 172.519Z" fill="#3F3D56"/>
<path d="M235.874 174.07C235.792 174.36 235.487 174.529 235.194 174.449C235.17 174.442 235.147 174.434 235.125 174.425L232.452 173.301L232.937 172.25L235.571 173.431C235.819 173.542 235.947 173.813 235.874 174.07H235.874Z" fill="#36334A"/>
<path d="M219.637 187.34C219.637 187.34 215.384 186.875 214.202 190.885C213.021 194.896 213.139 197.977 212.135 197.744C211.131 197.512 209.004 196.698 209.004 196.698L209.181 197.919C209.181 197.919 212.903 199.779 213.494 197.802C214.084 195.826 214.439 188.56 217.806 188.735C221.173 188.909 221.764 188.56 221.764 188.56L219.637 187.34Z" fill="#3F3D56"/>
<path d="M211.544 185.422C211.544 185.422 208.236 185.829 206.937 188.212C205.637 190.595 204.987 194.896 204.987 194.896H206.228C206.228 194.896 206.937 186.352 210.658 186.817L211.544 185.422Z" fill="#3F3D56"/>
<path d="M209.3 198.734L204.042 195.537C204.042 195.537 203.747 194.374 207.114 193.909C207.114 193.909 213.48 196.1 212.866 196.922C212.253 197.745 210.186 199.024 209.3 198.734Z" fill="#36334A"/>
<path d="M217.452 188.328V195.129H218.219V188.212L217.452 188.328Z" fill="#3F3D56"/>
<path d="M218.574 192.513C218.574 192.513 220.051 198.209 219.106 199.023C219.106 199.023 217.865 195.419 216.92 195.884L217.215 192.513H218.574Z" fill="#36334A"/>
<path d="M224.304 168.798C225.576 168.798 226.608 167.784 226.608 166.532C226.608 165.28 225.576 164.265 224.304 164.265C223.031 164.265 222 165.28 222 166.532C222 167.784 223.031 168.798 224.304 168.798Z" fill="#FBBEBE"/>
<path d="M223.868 169.967C224.807 170.124 225.619 169.049 226.56 169.2C226.764 169.241 226.96 169.317 227.138 169.424C228.539 170.204 229.542 171.526 229.904 173.07C230.011 173.536 230.052 174.041 229.852 174.477C229.746 174.708 229.577 174.906 229.409 175.098C228.783 175.814 228.096 176.528 227.204 176.874C227.116 177.172 227.2 177.494 227.305 177.785C227.741 179.004 227.047 180.317 227.012 181.608C227.006 181.829 227.012 182.07 226.872 182.243C226.716 182.434 226.438 182.468 226.189 182.482C223.908 182.609 221.63 182.264 219.373 181.922C219.313 181.917 219.256 181.898 219.207 181.866C219.133 181.808 219.121 181.704 219.106 181.612C219.022 181.124 219.463 180.728 219.254 180.278C218.895 179.504 219.678 178.658 219.904 177.836C220.129 177.015 220.218 176.871 220.376 176.035C220.435 175.722 220.265 174.779 220.317 174.465C220.487 173.44 220.358 172.272 220.908 171.385C221.238 170.852 221.152 170.437 221.741 170.205C222.363 169.96 223.204 170.043 223.869 169.967H223.868Z" fill="#9E9E9E"/>
<path d="M213.464 183.486C212.777 183.617 212.046 183.741 211.517 184.192C211.194 184.468 210.977 184.842 210.766 185.208L208.613 188.944C207.956 190.083 207.299 191.223 206.703 192.394C206.651 192.479 206.621 192.575 206.614 192.675C206.617 192.815 206.712 192.935 206.81 193.036C207.499 193.739 208.484 194.08 209.468 193.956C209.616 193.201 210.345 192.703 210.703 192.019C210.899 191.644 210.978 191.222 211.104 190.818C211.577 189.313 212.699 188.104 213.789 186.951C214.304 186.405 214.831 185.85 215.494 185.492C216.272 185.072 217.175 184.956 218.045 184.782C218.914 184.607 219.815 184.343 220.43 183.714C220.959 183.165 221.209 182.411 221.112 181.661C220.555 181.622 219.935 181.551 219.397 181.727C218.773 181.932 218.169 182.212 217.544 182.421C216.21 182.868 214.847 183.224 213.464 183.486H213.464Z" fill="#696880"/>
<path opacity="0.1" d="M213.464 183.486C212.777 183.617 212.046 183.741 211.517 184.192C211.194 184.468 210.977 184.842 210.766 185.208L208.613 188.944C207.956 190.083 207.299 191.223 206.703 192.394C206.651 192.479 206.621 192.575 206.614 192.675C206.617 192.815 206.712 192.935 206.81 193.036C207.499 193.739 208.484 194.08 209.468 193.956C209.616 193.201 210.345 192.703 210.703 192.019C210.899 191.644 210.978 191.222 211.104 190.818C211.577 189.313 212.699 188.104 213.789 186.951C214.304 186.405 214.831 185.85 215.494 185.492C216.272 185.072 217.175 184.956 218.045 184.782C218.914 184.607 219.815 184.343 220.43 183.714C220.959 183.165 221.209 182.411 221.112 181.661C220.555 181.622 219.935 181.551 219.397 181.727C218.773 181.932 218.169 182.212 217.544 182.421C216.21 182.868 214.847 183.224 213.464 183.486H213.464Z" fill="black"/>
<path d="M204.181 195.332C204.104 195.386 204.045 195.461 204.012 195.547C203.934 195.809 204.267 195.994 204.534 196.07C205.133 196.239 205.773 196.41 206.371 196.235C206.738 196.127 207.057 195.898 207.421 195.783C207.962 195.612 208.548 195.709 209.106 195.807C209.231 195.116 209.147 194.403 208.865 193.759C208.685 193.352 207.968 193.154 207.54 193.136C207.073 193.116 206.911 193.455 206.641 193.767C205.985 194.528 204.938 194.704 204.182 195.332H204.181Z" fill="#3F3D56"/>
<path d="M213.903 184.599C213.572 184.729 213.233 184.863 212.974 185.103C212.7 185.356 212.54 185.703 212.394 186.043C211.962 187.049 211.595 188.081 211.293 189.132C211.141 189.663 211.006 190.2 210.801 190.714C210.391 191.74 209.697 192.721 209.762 193.82C209.762 193.954 209.798 194.085 209.868 194.2C209.961 194.333 210.118 194.403 210.268 194.467L211.054 194.802C211.476 194.982 211.99 195.156 212.367 194.896C212.619 194.723 212.719 194.409 212.796 194.115C213.07 193.056 213.24 191.956 213.732 190.977C214.288 189.87 215.228 188.975 215.725 187.841C215.796 187.681 215.863 187.509 216.001 187.399C216.116 187.308 216.264 187.273 216.407 187.241C219.357 186.58 222.374 186.219 225.3 185.463C225.716 185.356 226.152 185.228 226.449 184.922C226.861 184.497 226.897 183.851 226.91 183.265C226.918 182.897 226.917 182.498 226.689 182.206C226.432 181.877 225.972 181.791 225.553 181.747C223.946 181.581 222.463 181.843 220.879 182.035C219.431 182.21 217.972 183.015 216.62 183.541C215.715 183.893 214.81 184.247 213.905 184.601L213.903 184.599Z" fill="#696880"/>
<path d="M210.268 195.107C210.047 195.624 209.808 196.163 209.36 196.508C209.173 196.652 208.931 196.797 208.924 197.031C208.916 197.278 209.18 197.442 209.417 197.525C210.019 197.739 210.705 197.785 211.293 197.535C211.696 197.363 212.027 197.067 212.351 196.777C212.448 196.689 212.549 196.597 212.595 196.475C212.626 196.372 212.635 196.265 212.622 196.158C212.583 195.513 212.466 194.874 212.273 194.255C212.258 194.206 210.987 194.051 210.874 194.08C210.519 194.171 210.404 194.788 210.267 195.107H210.268Z" fill="#3F3D56"/>
<path d="M230.034 180.133L222.355 180.365C222.355 180.365 215.561 186.875 221.173 188.852C221.173 188.852 228.085 189.956 229.739 188.677C229.739 188.677 231.806 180.656 230.034 180.133ZM229.68 182.283L221.469 182.807C221.469 182.807 222.059 180.83 224.422 180.83C226.785 180.83 229.443 180.307 229.68 181.528C229.916 182.748 229.68 182.283 229.68 182.283Z" fill="#3F3D56"/>
<path d="M228.291 200.999C232.549 200.999 236 197.148 236 192.397C236 187.645 232.549 183.794 228.291 183.794C224.034 183.794 220.582 187.645 220.582 192.397C220.582 197.148 224.034 200.999 228.291 200.999Z" fill="#36334A"/>
<path d="M228.646 198.791C231.859 198.791 234.464 195.928 234.464 192.397C234.464 188.866 231.859 186.003 228.646 186.003C225.432 186.003 222.827 188.866 222.827 192.397C222.827 195.928 225.432 198.791 228.646 198.791Z" fill="#3F3D56"/>
<path d="M230.152 192.31C230.152 192.198 230.141 192.087 230.118 191.978L234.464 189.84L234.169 189.2L229.779 191.305C229.734 191.26 229.685 191.22 229.633 191.185H229.636L230.92 184.9L229.785 184.874L229.03 191.061L229.102 191.076C229.044 191.088 228.987 191.107 228.933 191.133L225.136 187.298L224.599 188.038L228.5 191.57C228.402 191.754 228.344 191.957 228.328 192.165L222.828 194.374L222.71 195.304L228.443 192.931C228.497 193.062 228.572 193.182 228.667 193.288L226.904 199.198H227.553L229.034 193.528C229.099 193.549 229.168 193.56 229.237 193.56C229.371 193.559 229.5 193.521 229.613 193.449L232.693 197.455L233.638 196.815L230.029 192.936C230.111 192.738 230.153 192.525 230.153 192.311L230.152 192.31Z" fill="#36334A"/>
<path d="M221.627 165.096C221.731 164.839 222.066 164.732 222.176 164.477C222.294 164.203 222.109 163.855 222.27 163.602C222.432 163.348 222.81 163.378 223.111 163.427C223.466 163.485 223.843 163.524 224.174 163.385C224.322 163.324 224.453 163.23 224.595 163.158C224.822 163.045 225.074 162.991 225.328 163.001C225.385 163 225.442 163.013 225.492 163.04C225.54 163.074 225.577 163.121 225.599 163.175C225.703 163.396 225.717 163.671 225.905 163.83C225.995 163.906 226.112 163.942 226.22 163.99C226.735 164.234 227.04 164.769 226.985 165.328C226.96 165.455 226.944 165.583 226.938 165.711C226.945 165.994 227.133 166.276 227.037 166.543C226.966 166.741 226.757 166.858 226.553 166.92C226.495 166.943 226.43 166.946 226.37 166.929C226.266 166.887 226.244 166.754 226.211 166.648C226.114 166.362 225.839 166.172 225.533 166.178C225.295 166.188 225.053 166.32 224.829 166.241C224.719 166.203 224.632 166.119 224.544 166.043C224.34 165.869 224.1 165.723 223.833 165.686C223.566 165.649 223.27 165.738 223.113 165.953C223.049 166.04 223.011 166.142 222.951 166.231C222.406 167.032 221.403 165.649 221.627 165.094L221.627 165.096Z" fill="#36334A"/>
<path d="M222.854 178.911C222.649 178.885 222.444 178.96 222.306 179.112C221.789 179.575 221.241 180.098 221.148 180.779C221.134 180.842 221.141 180.907 221.169 180.964C221.219 181.045 221.328 181.062 221.424 181.064C221.912 181.068 222.379 180.866 222.705 180.507C222.793 180.408 222.875 180.295 222.997 180.239C223.108 180.198 223.227 180.184 223.345 180.196C223.669 180.207 224.41 180.37 224.692 180.212C224.989 180.046 224.908 179.524 224.769 179.272C224.439 178.674 223.416 178.905 222.854 178.911V178.911Z" fill="#FBBEBE"/>
<path d="M230.069 173.89C230.268 174.519 230.151 175.227 230.433 175.824C230.62 176.221 230.971 176.54 231.08 176.964C231.183 177.364 231.045 177.796 230.803 178.133C230.562 178.471 230.226 178.73 229.888 178.976C229.519 179.245 229.136 179.508 228.7 179.653C228.266 179.799 227.801 179.82 227.344 179.841L224.308 179.978L223.75 178.329L225.727 177.567C225.925 177.491 226.127 177.414 226.339 177.398C226.705 177.371 227.151 177.504 227.386 177.226C227.461 177.124 227.508 177.005 227.524 176.881C227.716 175.912 227.549 174.887 227.844 173.944C227.99 173.477 228.412 172.541 228.988 172.458C229.597 172.371 229.932 173.454 230.07 173.89H230.069Z" fill="#9E9E9E"/>
</g>
<defs>
<clipPath id="clip0_282_22840">
<rect width="433.31" height="315.48" fill="white"/>
</clipPath>
</defs>
</svg>
